<svg width="100" height="100" viewBox="0 0 100 100" fill="none" xmlns="http://www.w3.org/2000/svg">
<circle cx="41" cy="54" r="2" fill="#E81E1E"/>
<circle cx="49" cy="54" r="2" fill="#E81E1E"/>
<circle cx="57" cy="54" r="2" fill="#E81E1E"/>
<circle cx="49" cy="69" r="3" fill="#E81E1E"/>
<path d="M29 81L19.5 90.5L23.7361 82.0279C25.43 78.64 28.8926 76.5 32.6803 76.5H79.5C81.7091 76.5 83.5 74.7199 83.5 72.5108V26C83.5 20 77 18 77 18H86C88.2091 18 90 19.7909 90 22V77C90 79.2091 88.2091 81 86 81H29Z" fill="#E81E1E"/>
<path d="M19.5 81V90.5L29 81H86C88.2091 81 90 79.2091 90 77V22C90 19.7909 88.2091 18 86 18H77M14 81H11C8.79086 81 7 79.2091 7 77V22C7 19.7909 8.79086 18 11 18H21.5" stroke="#3C4D5D" stroke-width="3" stroke-linecap="round" stroke-linejoin="round"/>
<path d="M24.5 48.5V39C21.5001 39 17.4999 40 17.5 43.5C17.5001 47 22 48.8333 24.5 48.5Z" fill="#E81E1E"/>
<path d="M73 48.5V41C73 39.8954 73.9007 38.9813 74.9925 39.1487C77.5144 39.5355 80.0001 40.741 80 43.5C79.9999 47 75.5 48.8333 73 48.5Z" fill="#E81E1E"/>
<path d="M73 49H74C77.3137 49 80 46.3137 80 43V40C80 36.6863 77.3137 34 74 34H73.0135C73.006 34 72.9999 33.994 72.9998 33.9865L72.9376 30.6309C72.6946 17.5097 61.9885 7 48.865 7V7C35.4558 7 24.6304 17.955 24.79 31.3633L24.8214 34M73 49V42M73 49V49C73 60.0402 64.0419 69 53.0017 69V69C53.0008 69 53 68.9992 53 68.9983V68.9983C53 67.0662 51.4338 65.5 49.5017 65.5H48.75C46.6789 65.5 45 67.1789 45 69.25V69.25C45 71.3211 46.6789 73 48.75 73H49.5M32.5 31V30.5C32.5 21.3873 39.8873 14 49 14V14C58.1127 14 65.5 21.3873 65.5 30.5V31M24.8214 34L24.988 47.9898C24.9946 48.5458 24.5457 49 23.9898 49V49C20.6817 49 18 46.3183 18 43.0102V40C18 36.6863 20.6863 34 24 34H24.8214Z" stroke="#3C4D5D" stroke-width="3" stroke-linecap="round" stroke-linejoin="round"/>
</svg>
