<svg width="100" height="100" viewBox="0 0 100 100" fill="none" xmlns="http://www.w3.org/2000/svg">
<mask id="mask0" mask-type="alpha" maskUnits="userSpaceOnUse" x="0" y="0" width="100" height="100">
<rect width="100" height="100" fill="white"/>
</mask>
<g mask="url(#mask0)">
<path fill-rule="evenodd" clip-rule="evenodd" d="M77.3406 21.8533C87.111 31.26 91.605 45.5545 87.8463 59.582C86.3688 65.0962 83.7662 70.0085 80.3517 74.1382C71.0484 85.3899 55.7179 90.8313 40.6937 86.8056C30.1627 83.9838 21.8271 77.0587 16.9459 68.2114C16.2154 68.4359 15.479 68.653 14.7368 68.8626C12.4213 69.5164 10.7753 71.6123 10.8125 74.0181C10.833 75.3468 11.368 76.6157 12.3049 77.558L12.4736 77.7276C13.274 78.5326 14.2957 79.0815 15.4088 79.3046L15.6898 79.3609C16.7586 79.5751 17.7591 80.0484 18.6027 80.7387C19.6738 81.615 20.4466 82.8031 20.8131 84.1375L20.8907 84.4202C21.2899 85.8738 22.2034 87.1329 23.4613 87.9634C24.6296 88.7348 26.024 89.0894 27.4189 88.97L27.9081 88.9281C29.0297 88.832 30.1578 89.0125 31.1934 89.4538L31.2456 89.476C32.5367 90.0262 33.6227 90.9675 34.3506 92.1675L34.5433 92.4852C35.3013 93.7346 36.5054 94.6496 37.9122 95.045C39.2911 95.4325 40.7648 95.2929 42.0464 94.6533L42.7078 94.3231C43.8278 93.7641 45.0832 93.5334 46.3288 93.6576C47.4458 93.7689 48.5162 94.1619 49.4399 94.7996L50.0646 95.2309C51.3618 96.1265 52.9475 96.5036 54.509 96.288C55.8465 96.1032 57.0893 95.494 58.0546 94.5499L58.6025 94.014C59.5165 93.12 60.67 92.51 61.9233 92.2577C62.8346 92.0743 63.7742 92.0849 64.6811 92.2888L66.0555 92.5979C67.4581 92.9134 68.9269 92.7275 70.2067 92.0726C71.5136 91.4038 72.5381 90.2895 73.0952 88.9312L73.2903 88.4554C73.7407 87.3571 74.5057 86.4163 75.4891 85.7514C76.3307 85.1825 77.3024 84.8356 78.314 84.7431L79.2469 84.6578C80.6757 84.5272 82.0142 83.9022 83.0317 82.8906C84.0751 81.8532 84.7129 80.4768 84.8299 79.0101L84.8496 78.764C84.9576 77.4106 85.4664 76.1201 86.3112 75.0572L86.3886 74.9597C87.0196 74.1658 87.8104 73.5133 88.7096 73.0445L89.0614 72.8611C90.4101 72.1581 91.4669 71.0011 92.0453 69.5944C92.5572 68.3496 92.6669 66.9759 92.3589 65.6656L92.2381 65.1514C91.9741 64.028 91.9922 62.8566 92.2909 61.7419C92.603 60.577 93.2111 59.5127 94.0561 58.6523L94.4629 58.238C95.5191 57.1625 96.1487 55.74 96.2347 54.2351C96.3146 52.8374 95.9205 51.4536 95.1163 50.3076L94.8945 49.9915C94.2083 49.0137 93.7716 47.8752 93.6242 46.6898C93.4554 45.3319 93.6734 43.9456 94.2549 42.7069L94.421 42.3532C95.0307 41.0544 95.1682 39.5836 94.8098 38.1943C94.4423 36.7696 93.5773 35.5234 92.3711 34.6809L92.0519 34.4579C91.0105 33.7305 90.1836 32.7369 89.6575 31.5808C89.198 30.5712 88.9817 29.4679 89.0259 28.3596L89.0635 27.4179C89.1246 25.8887 88.6406 24.3874 87.6977 23.1819C86.8345 22.0781 85.6357 21.285 84.2822 20.9223L82.4777 20.4388C82.1143 20.3414 81.7875 20.1393 81.538 19.8577C80.6451 18.8501 79.0184 19.04 78.3385 20.202C78.0261 20.736 77.6934 21.2869 77.3406 21.8533Z" fill="#E81E1E"/>
<path d="M53.508 6.39846L53.1911 6.35462C52.1202 6.20652 51.0987 5.81065 50.2077 5.19847L50.0593 5.09653C48.7828 4.21953 47.2339 3.82989 45.6944 3.99851C44.2291 4.159 42.8626 4.81544 41.8215 5.85902L41.7028 5.97799C40.7706 6.91235 39.5914 7.56161 38.3034 7.84967L38.0543 7.90539C36.9678 8.14838 35.842 8.15654 34.7521 7.92934L33.8835 7.74826C32.6105 7.48289 31.2852 7.65749 30.1244 8.24346C28.9379 8.84238 27.996 9.83435 27.4592 11.0502L27.3492 11.2995C26.9619 12.1768 26.3853 12.9575 25.6608 13.5858L25.4423 13.7754C24.2896 14.7751 22.8655 15.4093 21.3513 15.5973L20.9843 15.6429C19.5278 15.8237 18.1729 16.4841 17.1332 17.52C16.1345 18.515 15.48 19.8031 15.2654 21.1964L15.1743 21.7877C14.9699 23.114 14.4394 24.3687 13.6304 25.4394C12.9686 26.3152 12.1358 27.0475 11.1824 27.5917L10.2581 28.1194C9.1616 28.7453 8.29734 29.7096 7.79467 30.8678C7.27884 32.0563 7.17263 33.3826 7.49274 34.638L7.59423 35.0361C7.89258 36.2062 7.88513 37.4334 7.57258 38.5999L7.50403 38.8557C7.20534 39.9704 6.61761 40.9866 5.80026 41.8013C4.89286 42.7058 4.27046 43.8565 4.01001 45.1109L3.9965 45.176C3.6421 46.883 3.95921 48.6608 4.88189 50.14L5.04936 50.4084C5.62241 51.3271 5.99056 52.3585 6.12868 53.4324L6.16833 53.7408C6.33051 55.0018 6.11888 56.2827 5.5597 57.4245C4.9947 58.5782 4.78705 59.8915 4.95854 61.1646C5.19194 62.8974 6.10334 64.4927 7.4886 65.5596L7.83312 65.825C8.70101 66.4934 9.41306 67.3427 9.91984 68.3138C10.4643 69.3572 10.7573 70.5133 10.7755 71.69L10.8078 73.7789C10.8307 75.261 11.4275 76.6764 12.4726 77.7275C13.273 78.5326 14.2947 79.0815 15.4078 79.3045L15.6888 79.3609C16.7576 79.5751 17.7581 80.0484 18.6017 80.7386C19.6728 81.615 20.4456 82.803 20.8121 84.1375L20.8897 84.4201C21.2889 85.8737 22.2024 87.1329 23.4603 87.9634C24.6286 88.7348 26.023 89.0894 27.4179 88.9699L27.9071 88.928C29.0287 88.832 30.1568 89.0125 31.1924 89.4537L31.2446 89.476C32.5357 90.0261 33.6217 90.9675 34.3496 92.1675L34.5424 92.4852C35.3003 93.7346 36.5044 94.6495 37.9112 95.0449C39.2901 95.4325 40.7638 95.2929 42.0453 94.6532L42.7068 94.3231C43.8268 93.7641 45.0822 93.5333 46.3278 93.6575C47.4448 93.7689 48.5152 94.1618 49.4389 94.7996L50.0636 95.2309C51.3608 96.1265 52.9465 96.5036 54.508 96.2879C55.8455 96.1032 57.0884 95.494 58.0536 94.5499L58.6015 94.014C59.5155 93.12 60.669 92.51 61.9223 92.2577C62.8336 92.0742 63.7732 92.0848 64.68 92.2888L66.0545 92.5979C67.4571 92.9133 68.9259 92.7275 70.2057 92.0725C71.5126 91.4037 72.5371 90.2895 73.0942 88.9312L73.2893 88.4554C73.7397 87.357 74.5047 86.4163 75.4882 85.7514C76.3297 85.1824 77.3014 84.8356 78.313 84.7431L79.2459 84.6578C80.6747 84.5272 82.0132 83.9022 83.0307 82.8906C84.0741 81.8532 84.7119 80.4767 84.8289 79.0101L84.8486 78.764C84.9566 77.4106 85.4654 76.1201 86.3102 75.0572L86.3876 74.9597C87.0186 74.1658 87.8094 73.5133 88.7086 73.0445L89.0604 72.8611C90.4091 72.158 91.4659 71.001 92.0443 69.5944C92.5562 68.3496 92.6659 66.9758 92.3579 65.6656L92.2371 65.1514C91.9731 64.0279 91.9912 62.8566 92.2899 61.7419C92.602 60.577 93.2101 59.5127 94.0551 58.6522L94.4619 58.238C95.5181 57.1625 96.1477 55.74 96.2337 54.235C96.3136 52.8373 95.9195 51.4536 95.1153 50.3076L94.8935 49.9915C94.2073 49.0137 93.7706 47.8752 93.6232 46.6898C93.4545 45.3319 93.6724 43.9456 94.2539 42.7069L94.42 42.3532C95.0297 41.0544 95.1672 39.5836 94.8088 38.1943C94.4413 36.7696 93.5763 35.5234 92.3701 34.6808L92.0509 34.4579C91.0095 33.7305 90.1826 32.7369 89.6565 31.5807C89.197 30.5712 88.9807 29.4679 89.025 28.3595L89.0625 27.4179C89.1236 25.8886 88.6396 24.3874 87.6967 23.1819C86.8335 22.0781 85.6347 21.285 84.2812 20.9223L83.8235 20.7996C82.5816 20.4668 81.4649 19.7764 80.6122 18.8141C80.0011 18.1245 79.5422 17.3139 79.2653 16.4351L78.8382 15.0797C78.4062 13.7085 77.5075 12.532 76.2982 11.7546C75.0632 10.9607 73.585 10.6348 72.1307 10.8357L71.6214 10.9061C70.4454 11.0685 69.2477 10.8798 68.1786 10.3636C67.2639 9.92194 66.4757 9.25604 65.8874 8.42789L65.3449 7.66416C64.5141 6.49445 63.3011 5.65124 61.9153 5.27988C60.494 4.89907 58.9835 5.03921 57.6566 5.67498L57.4198 5.78845C56.2039 6.37103 54.8436 6.58316 53.508 6.39846Z" stroke="#3C4D5D" stroke-width="3" stroke-linejoin="round"/>
<path d="M86.3965 59.1938C84.9758 64.4959 82.4747 69.2154 79.1947 73.1825C70.2516 83.9986 55.5175 89.2251 41.0809 85.3568C26.6443 81.4885 16.4975 69.5953 14.1606 55.7566C13.3035 50.6811 13.4973 45.3433 14.9179 40.0412C16.3386 34.7392 18.8397 30.0196 22.1197 26.0526C31.0629 15.2364 45.7969 10.01 60.2335 13.8783C79.9718 19.1671 91.6853 39.4556 86.3965 59.1938Z" stroke="#3C4D5D" stroke-width="3" stroke-linecap="round" stroke-linejoin="round"/>
</g>
</svg>
