<svg width="100" height="100" viewBox="0 0 100 100" fill="none" xmlns="http://www.w3.org/2000/svg">
<mask id="mask0" mask-type="alpha" maskUnits="userSpaceOnUse" x="0" y="0" width="100" height="100">
<rect width="100" height="100" fill="white"/>
</mask>
<g mask="url(#mask0)">
<path fill-rule="evenodd" clip-rule="evenodd" d="M77.3401 21.8535C87.1105 31.2602 91.6045 45.5548 87.8459 59.5822C86.3683 65.0965 83.7657 70.0088 80.3512 74.1384C71.048 85.3902 55.7174 90.8315 40.6932 86.8058C30.1622 83.9841 21.8266 77.059 16.9454 68.2116C16.2149 68.4361 15.4785 68.6533 14.7363 68.8629C12.4208 69.5167 10.7748 71.6126 10.812 74.0183C10.8325 75.347 11.3675 76.6159 12.3044 77.5582L12.4731 77.7278C13.2735 78.5328 14.2952 79.0817 15.4083 79.3048L15.6894 79.3611C16.7581 79.5753 17.7586 80.0487 18.6023 80.7389C19.6733 81.6152 20.4461 82.8033 20.8126 84.1377L20.8902 84.4204C21.2894 85.874 22.2029 87.1331 23.4608 87.9637C24.6291 88.735 26.0235 89.0897 27.4184 88.9702L27.9076 88.9283C29.0292 88.8322 30.1573 89.0128 31.1929 89.454L31.2451 89.4762C32.5362 90.0264 33.6223 90.9678 34.3502 92.1677L34.5429 92.4854C35.3008 93.7348 36.5049 94.6498 37.9117 95.0452C39.2906 95.4328 40.7643 95.2931 42.0459 94.6535L42.7073 94.3234C43.8273 93.7643 45.0827 93.5336 46.3283 93.6578C47.4453 93.7692 48.5157 94.1621 49.4394 94.7998L50.0641 95.2312C51.3613 96.1267 52.947 96.5039 54.5085 96.2882C55.846 96.1035 57.0889 95.4942 58.0541 94.5501L58.602 94.0143C59.516 93.1203 60.6695 92.5103 61.9228 92.2579C62.8341 92.0745 63.7737 92.0851 64.6806 92.2891L66.055 92.5982C67.4576 92.9136 68.9264 92.7277 70.2062 92.0728C71.5131 91.404 72.5377 90.2898 73.0947 88.9314L73.2898 88.4557C73.7402 87.3573 74.5052 86.4166 75.4887 85.7516C76.3302 85.1827 77.3019 84.8359 78.3135 84.7434L79.2464 84.6581C80.6753 84.5275 82.0137 83.9025 83.0312 82.8909C84.0746 81.8534 84.7124 80.477 84.8295 79.0103L84.8491 78.7642C84.9571 77.4109 85.4659 76.1203 86.3107 75.0575L86.3881 74.96C87.0191 74.1661 87.8099 73.5136 88.7091 73.0448L89.0609 72.8614C90.4096 72.1583 91.4664 71.0013 92.0449 69.5947C92.5567 68.3499 92.6664 66.9761 92.3585 65.6659L92.2376 65.1517C91.9736 64.0282 91.9917 62.8569 92.2904 61.7421C92.6025 60.5773 93.2106 59.513 94.0556 58.6525L94.4624 58.2382C95.5186 57.1627 96.1482 55.7403 96.2342 54.2353C96.3141 52.8376 95.92 51.4538 95.1159 50.3079L94.894 49.9917C94.2078 49.0139 93.7711 47.8755 93.6237 46.6901C93.455 45.3322 93.6729 43.9458 94.2544 42.7072L94.4205 42.3535C95.0302 41.0547 95.1677 39.5839 94.8094 38.1946C94.4418 36.7699 93.5768 35.5236 92.3706 34.6811L92.0514 34.4582C91.0101 33.7308 90.1831 32.7372 89.657 31.581C89.1975 30.5714 88.9812 29.4682 89.0255 28.3598L89.0631 27.4181C89.1241 25.8889 88.6401 24.3877 87.6973 23.1821C86.834 22.0783 85.6352 21.2853 84.2817 20.9225L82.4773 20.439C82.1138 20.3416 81.787 20.1396 81.5375 19.8579C80.6446 18.8503 79.0179 19.0402 78.338 20.2022C78.0256 20.7362 77.6929 21.2872 77.3401 21.8535Z" fill="#E81E1E"/>
<path d="M53.5085 6.39846L53.1915 6.35462C52.1206 6.20652 51.0991 5.81065 50.2081 5.19847L50.0597 5.09653C48.7832 4.21953 47.2344 3.82989 45.6949 3.99851C44.2295 4.159 42.863 4.81544 41.8219 5.85902L41.7032 5.97799C40.7711 6.91235 39.5919 7.56161 38.3039 7.84967L38.0547 7.90539C36.9683 8.14838 35.8424 8.15654 34.7526 7.92934L33.8839 7.74826C32.611 7.48289 31.2856 7.65749 30.1248 8.24346C28.9383 8.84238 27.9964 9.83435 27.4596 11.0502L27.3496 11.2995C26.9623 12.1768 26.3857 12.9575 25.6613 13.5858L25.4427 13.7754C24.29 14.7751 22.8659 15.4093 21.3517 15.5973L20.9848 15.6429C19.5283 15.8237 18.1734 16.4841 17.1336 17.52C16.1349 18.515 15.4805 19.8031 15.2658 21.1964L15.1747 21.7877C14.9704 23.114 14.4399 24.3687 13.6309 25.4394C12.9691 26.3152 12.1362 27.0475 11.1828 27.5917L10.2585 28.1194C9.16203 28.7453 8.29777 29.7096 7.7951 30.8678C7.27927 32.0563 7.17305 33.3826 7.49316 34.638L7.59466 35.0361C7.89301 36.2062 7.88555 37.4334 7.57301 38.5999L7.50446 38.8557C7.20576 39.9704 6.61803 40.9866 5.80069 41.8013C4.89329 42.7058 4.27089 43.8565 4.01043 45.1109L3.99692 45.176C3.64253 46.883 3.95964 48.6608 4.88232 50.14L5.04978 50.4084C5.62284 51.3271 5.99099 52.3585 6.12911 53.4324L6.16876 53.7408C6.33094 55.0018 6.11931 56.2827 5.56012 57.4245C4.99512 58.5782 4.78748 59.8915 4.95897 61.1646C5.19237 62.8974 6.10376 64.4927 7.48902 65.5596L7.83355 65.825C8.70144 66.4934 9.41349 67.3427 9.92027 68.3138C10.4647 69.3572 10.7577 70.5133 10.7759 71.69L10.8082 73.7789C10.8311 75.261 11.4279 76.6764 12.473 77.7275C13.2734 78.5326 14.2951 79.0815 15.4082 79.3045L15.6893 79.3609C16.758 79.5751 17.7585 80.0484 18.6022 80.7386C19.6732 81.615 20.446 82.803 20.8125 84.1375L20.8901 84.4201C21.2893 85.8737 22.2028 87.1329 23.4607 87.9634C24.6291 88.7348 26.0234 89.0894 27.4183 88.9699L27.9075 88.928C29.0291 88.832 30.1572 89.0125 31.1928 89.4537L31.245 89.476C32.5361 90.0261 33.6222 90.9675 34.3501 92.1675L34.5428 92.4852C35.3007 93.7346 36.5048 94.6495 37.9116 95.0449C39.2905 95.4325 40.7642 95.2929 42.0458 94.6532L42.7072 94.3231C43.8273 93.7641 45.0826 93.5333 46.3282 93.6575C47.4452 93.7689 48.5156 94.1618 49.4394 94.7996L50.0641 95.2309C51.3613 96.1265 52.9469 96.5036 54.5084 96.2879C55.8459 96.1032 57.0888 95.494 58.054 94.5499L58.6019 94.014C59.516 93.12 60.6694 92.51 61.9228 92.2577C62.834 92.0742 63.7736 92.0848 64.6805 92.2888L66.0549 92.5979C67.4575 92.9133 68.9263 92.7275 70.2061 92.0725C71.513 91.4037 72.5376 90.2895 73.0946 88.9312L73.2897 88.4554C73.7401 87.357 74.5051 86.4163 75.4886 85.7514C76.3301 85.1824 77.3019 84.8356 78.3134 84.7431L79.2464 84.6578C80.6752 84.5272 82.0137 83.9022 83.0311 82.8906C84.0745 81.8532 84.7123 80.4767 84.8294 79.0101L84.849 78.764C84.957 77.4106 85.4659 76.1201 86.3106 75.0572L86.3881 74.9597C87.019 74.1658 87.8098 73.5133 88.7091 73.0445L89.0608 72.8611C90.4095 72.158 91.4664 71.001 92.0448 69.5944C92.5566 68.3496 92.6663 66.9758 92.3584 65.6656L92.2375 65.1514C91.9735 64.0279 91.9916 62.8566 92.2903 61.7419C92.6025 60.577 93.2105 59.5127 94.0555 58.6522L94.4623 58.238C95.5185 57.1625 96.1481 55.74 96.2341 54.235C96.314 52.8373 95.92 51.4536 95.1158 50.3076L94.8939 49.9915C94.2078 49.0137 93.771 47.8752 93.6237 46.6898C93.4549 45.3319 93.6729 43.9456 94.2544 42.7069L94.4204 42.3532C95.0301 41.0544 95.1677 39.5836 94.8093 38.1943C94.4418 36.7696 93.5767 35.5234 92.3705 34.6808L92.0513 34.4579C91.01 33.7305 90.183 32.7369 89.6569 31.5807C89.1974 30.5712 88.9811 29.4679 89.0254 28.3595L89.063 27.4179C89.124 25.8886 88.64 24.3874 87.6972 23.1819C86.8339 22.0781 85.6351 21.285 84.2816 20.9223L83.824 20.7996C82.5821 20.4668 81.4654 19.7764 80.6127 18.8141C80.0016 18.1245 79.5426 17.3139 79.2657 16.4351L78.8387 15.0797C78.4066 13.7085 77.5079 12.532 76.2986 11.7546C75.0637 10.9607 73.5855 10.6348 72.1312 10.8357L71.6218 10.9061C70.4458 11.0685 69.2481 10.8798 68.179 10.3636C67.2643 9.92194 66.4761 9.25604 65.8879 8.42789L65.3454 7.66416C64.5145 6.49445 63.3016 5.65124 61.9157 5.27988C60.4945 4.89907 58.9839 5.03921 57.657 5.67498L57.4202 5.78845C56.2043 6.37103 54.844 6.58316 53.5085 6.39846Z" stroke="#3C4D5D" stroke-width="3" stroke-linejoin="round"/>
<path d="M86.3969 59.1938C84.9762 64.4959 82.4751 69.2154 79.1951 73.1825C70.252 83.9986 55.518 89.2251 41.0813 85.3568C26.6447 81.4885 16.4979 69.5953 14.161 55.7566C13.3039 50.6811 13.4977 45.3433 14.9184 40.0412C16.3391 34.7392 18.8401 30.0196 22.1202 26.0526C31.0633 15.2364 45.7973 10.01 60.2339 13.8783C79.9722 19.1671 91.6857 39.4556 86.3969 59.1938Z" stroke="#3C4D5D" stroke-width="3" stroke-linecap="round" stroke-linejoin="round"/>
</g>
</svg>
