<svg width="113" height="35" viewBox="0 0 113 35" fill="none" xmlns="http://www.w3.org/2000/svg">
<path fill-rule="evenodd" clip-rule="evenodd" d="M0.65918 0.355835V26.5985H10.7015V19.0217H16.2141C24.384 19.0217 27.3845 13.9627 27.3845 9.76436C27.3845 4.96706 23.9363 0.355835 16.028 0.355835H0.65918ZM10.4399 6.43241H12.6146C16.4408 6.43241 17.2666 8.15363 17.2666 9.68876C17.2666 12.8753 13.8532 12.9509 12.6553 12.9509H10.4399V6.43241Z" fill="#05519D"/>
<path fill-rule="evenodd" clip-rule="evenodd" d="M40.6727 14.7593V13.6545C40.6727 7.80469 36.9395 6.49634 34.1019 6.49634C30.171 6.49634 27.374 8.99093 27.374 13.0323C27.374 15.7479 28.4847 20.016 34.5903 20.016C36.1894 20.016 37.9397 19.8416 39.8296 19.2775V15.9223C38.4049 16.4631 37.1431 16.8062 35.7417 16.8062C33.4099 16.8062 32.968 15.6723 32.904 14.7593H40.6727ZM32.904 12.1194V11.8751C32.904 9.75269 33.9449 9.58405 34.3461 9.58405C34.9683 9.58405 35.7882 10.0492 35.7882 11.8984V12.1194H32.904ZM41.0914 6.91501V19.5973L46.9877 19.7194V10.497H51.0698V6.76964L41.0914 6.91501ZM59.2165 6.7929L56.623 12.8404H56.5067V6.7929H51.4012V19.7194H56.9312L59.4839 13.6777H59.5944V19.7194H64.8802V6.7929H59.2165ZM72.3116 6.49634C67.8923 6.49634 65.0953 9.03745 65.0953 13.2591C65.0953 17.4749 67.8923 20.016 72.3116 20.016C76.7251 20.016 79.5221 17.4749 79.5221 13.2591C79.5221 9.03745 76.7251 6.49634 72.3116 6.49634ZM72.3116 10.2004C73.5095 10.2004 73.5269 11.9275 73.5269 13.2591C73.5269 14.5907 73.5095 16.3177 72.3116 16.3177C71.1079 16.3177 71.0905 14.5907 71.0905 13.2591C71.0905 11.9275 71.1079 10.2004 72.3116 10.2004ZM79.9233 6.7929V19.7194H85.5115V14.957H87.5118V19.7194H93.1057V6.7929H87.5118V11.2587H85.5115V6.7929H79.9233ZM99.3626 6.7929H93.7686V19.7194H101.648C106.021 19.7194 106.91 17.2772 106.91 15.3292C106.91 14.2418 106.579 10.7877 101.27 10.7877C100.741 10.7877 99.9848 10.8401 99.3626 10.9157V6.7929ZM99.2521 16.6608V13.7475H99.7173C101.119 13.7475 101.293 14.6895 101.293 15.1547C101.293 15.7479 101.026 16.6608 99.7173 16.6608H99.2521ZM107.253 6.7929V19.7194H112.847V6.7929H107.253Z" fill="#05519D"/>
<path fill-rule="evenodd" clip-rule="evenodd" d="M65.6416 34.1054H76.7423V30.2618H70.6133V21.1091H65.6416V34.1054ZM78.4228 21.1091V34.1054H83.3945V21.1091H78.4228ZM85.2669 34.1054H89.5525V24.8772H89.6281L92.1169 34.1054H99.4495V21.1091H95.1581V30.0757H95.0825L92.6693 21.1091H85.2669V34.1054ZM101.223 21.1091V34.1054H112.696V31.041H106.195V29.0174H112.283V26.0518H106.195V24.1736H112.562V21.1091H101.223Z" fill="#05519D"/>
<path fill-rule="evenodd" clip-rule="evenodd" d="M40.9456 20.8881C36.3635 20.8881 33.7061 23.4699 33.7061 27.6102C33.7061 31.7504 36.3635 34.3264 40.9456 34.3264C45.5336 34.3264 48.1852 31.7504 48.1852 27.6102C48.1852 23.4699 45.5336 20.8881 40.9456 20.8881ZM40.9456 24.0049C42.8238 24.0049 42.9518 26.2553 42.9518 27.6102C42.9518 28.965 42.8238 31.2096 40.9456 31.2096C39.0732 31.2096 38.9395 28.965 38.9395 27.6102C38.9395 26.2553 39.0732 24.0049 40.9456 24.0049ZM49.4063 34.1054H53.6919V24.8771H53.7675L56.2563 34.1054H63.5889V21.1091H59.2975V30.0757H59.2219L56.8087 21.1091H49.4063V34.1054Z" fill="#E52934"/>
</svg>
