<svg width="100" height="100" style="width: 100px; height: 100px;" viewBox="0 0 100 100" fill="none" xmlns="http://www.w3.org/2000/svg">
<rect x="39" y="18" width="25" height="6" rx="2" fill="#E81E1E"/>
<rect x="76" y="24" width="5" height="68" rx="2" fill="#E81E1E"/>
<path d="M35.5 19H23C20.7909 19 19 20.7909 19 23V87.5C19 89.7091 20.7909 91.5 23 91.5H77C79.2091 91.5 81 89.7091 81 87.5V23C81 20.7909 79.2091 19 77 19H64.5M35.5 19V22.5C35.5 23.6046 36.3954 24.5 37.5 24.5H62.5C63.6046 24.5 64.5 23.6046 64.5 22.5V19M35.5 19V15.5C35.5 14.3954 36.3954 13.5 37.5 13.5H44.2381C44.3827 13.5 44.5 13.3827 44.5 13.2381V13.2381C44.5 10.3452 46.8452 8 49.7381 8H50.2619C53.1548 8 55.5 10.3452 55.5 13.2381V13.2381C55.5 13.3827 55.6173 13.5 55.7619 13.5H62.5C63.6046 13.5 64.5 14.3954 64.5 15.5V19M70 58.5H58M58 75.5H70M47 70L36 81L30 75M30 58.5L36 64.5L47 53.5M70 40H58M30 40L36 46L47 35" stroke="#3C4D5D" stroke-width="3" stroke-linecap="round" stroke-linejoin="round"/>
<path d="M47 70L36 81L30 75M30 58.5L36 64.5L47 53.5M30 40L36 46L47 35" stroke="#E81E1E" stroke-width="3" stroke-linecap="round" stroke-linejoin="round"/>
</svg>
