<svg width="100" height="100" viewBox="0 0 100 100" fill="none" xmlns="http://www.w3.org/2000/svg">
<path d="M14.8919 45.3153L7 44V59H16.2903L18.1502 50.0771C18.6139 47.8525 17.1334 45.6889 14.8919 45.3153Z" fill="#E81E1E"/>
<path d="M86.1081 48.3153L94 47V62H84.7097L82.8498 53.0771C82.3861 50.8525 83.8666 48.6889 86.1081 48.3153Z" fill="#E81E1E"/>
<path d="M74 51C74 55.1761 70.5 56.3333 70 58.5L75.5 63L81.5 58.5L72.5 37L69 35.5C71.5 37.8333 74 46 74 51Z" fill="#E81E1E"/>
<path d="M25.4738 32.573C25.6659 31.225 25.8192 30.0185 25.9326 29.0092C20.8839 26.5146 11.2073 25.297 7 25V58.8557H18.7202C19.2583 57.7921 19.7694 56.5908 20.2527 55.292M25.4738 32.573H43.9637M25.4738 32.573C24.5668 38.939 22.7937 48.4628 20.2527 55.292M43.9637 32.573C39.7565 34.8003 34.0466 43.7097 35.399 45.9371C38.6446 51.2827 44.8653 47.2735 47.5699 44.6007C49.7337 44.6007 51.7772 43.4128 52.5285 42.8188L73.2642 60.1921C74.1279 61.1523 74.7129 62.0447 75.0756 62.8649M43.9637 32.573C44.8653 31.682 47.5699 29.9002 51.1762 29.9002C54.7824 29.9002 67.1036 34.3549 72.8135 36.5822M20.2527 55.292C26.3532 60.9346 39.8166 73.0217 44.8653 76.229C49.914 79.4364 53.2798 77.5654 54.3316 76.229M54.3316 76.229L44.8653 66.4287M54.3316 76.229C55.9845 77.2685 59.8311 78.0109 61.9948 72.6653M61.9948 72.6653L52.5285 62.8649M61.9948 72.6653C63.9482 73.5562 68.3057 74.0908 70.1088 69.1015M70.1088 69.1015L58.3886 57.5193M70.1088 69.1015C72.0253 69.8591 77.1359 67.5246 75.0756 62.8649M72.8135 36.5822L81.3782 58.8557M72.8135 36.5822L71.4611 33.0185C79.3948 30.1675 89.943 29.3062 94 29.4547V62.8649H82.7306L81.3782 58.8557M81.3782 58.8557L75.0756 62.8649" stroke="#3C4D5D" stroke-width="3" stroke-linecap="round" stroke-linejoin="round"/>
</svg>
