<svg width="100" height="100" style="width: 100px; height: 100px;" viewBox="0 0 100 100" fill="none" xmlns="http://www.w3.org/2000/svg">
<path d="M67.2372 69.0747C65.0598 61.3048 60.8866 61.0514 54.5361 61.0514C60.3423 63.0783 61.4915 67.2448 61.3403 69.0747H67.2372Z" fill="#E81E1E"/>
<rect x="13.7109" y="75.4253" width="42.6392" height="5.4433" fill="#E81E1E"/>
<rect x="13.7109" y="88.1262" width="42.6392" height="5.4433" fill="#E81E1E"/>
<path d="M85.8346 81.7757H57.2573M85.8346 81.7757C85.8346 81.7757 84.9274 79.9613 84.9274 75.652M85.8346 81.7757C85.8346 81.7757 84.9274 84.4974 84.9274 87.8995M15.5254 81.7757H20.9687M15.5254 81.7757C15.5254 81.7757 13.7109 79.0541 13.7109 75.652C13.7109 72.25 15.5254 69.5283 15.5254 69.5283H20.9687M15.5254 81.7757C15.5254 81.7757 13.7109 84.4974 13.7109 87.8995C13.7109 91.3015 15.5254 94.0232 15.5254 94.0232H20.9687M50.68 69.5283H57.2573M50.68 69.5283H20.9687M50.68 69.5283C50.68 69.5283 49.546 72.7036 49.546 75.652C49.546 78.6005 50.68 81.7757 50.68 81.7757M50.68 81.7757H57.2573M50.68 81.7757H20.9687M50.68 81.7757C50.68 81.7757 49.546 84.4974 49.546 87.8995C49.546 91.3015 50.68 94.0232 50.68 94.0232M50.68 94.0232H57.2573M50.68 94.0232H20.9687M57.2573 69.5283H85.8346C85.8346 69.5283 84.9274 71.7964 84.9274 75.652M57.2573 69.5283C57.2573 69.5283 56.3501 72.7036 56.3501 75.652M57.2573 81.7757C57.2573 81.7757 56.3501 79.0541 56.3501 75.652M57.2573 81.7757C57.2573 81.7757 56.3501 84.4974 56.3501 87.8995M57.2573 94.0232H85.8346C85.8346 94.0232 84.9274 92.6623 84.9274 87.8995M57.2573 94.0232C57.2573 94.0232 56.3501 91.7551 56.3501 87.8995M20.9687 81.7757C20.9687 81.7757 20.0615 79.0541 20.0615 75.652C20.0615 72.25 20.9687 69.5283 20.9687 69.5283M20.9687 81.7757C20.9687 81.7757 20.0615 84.4974 20.0615 87.8995C20.0615 91.3015 20.9687 94.0232 20.9687 94.0232M56.3501 75.652C67.5103 75.652 73.7673 75.652 84.9274 75.652M26.8656 87.8995H42.7419M56.3501 87.8995C67.5103 87.8995 73.7673 87.8995 84.9274 87.8995M26.8656 75.652H42.7419" stroke="#3C4D5D" stroke-width="3" stroke-linecap="round" stroke-linejoin="round"/>
<path d="M36.3915 45.4871C34.2141 53.8335 27.0169 54.7104 23.6904 54.1056C29.4966 51.9283 30.6458 47.4527 30.4946 45.4871H36.3915Z" fill="#E81E1E"/>
<circle cx="52.268" cy="14.1882" r="4.08247" fill="#E81E1E"/>
<rect x="50" y="16.4563" width="2.72165" height="42.6392" fill="#E81E1E"/>
<path d="M31.8553 68.1675V68.1675C31.8553 63.9087 35.3078 60.4562 39.5667 60.4562H46.8244M67.6904 68.1675V68.1675C67.6904 63.9087 64.2379 60.4562 59.9791 60.4562H53.1749M46.8244 60.4562H53.1749M46.8244 60.4562V18.3283C44.9262 17.2302 43.6491 15.1779 43.6491 12.8273C43.6491 9.32003 46.4924 6.47681 49.9997 6.47681C53.507 6.47681 56.3502 9.32003 56.3502 12.8273C56.3502 15.1779 55.0731 17.2302 53.1749 18.3283V23.2603M53.1749 60.4562V23.2603M53.1749 23.2603C57.1062 21.4459 66.8739 18.9057 74.4945 23.2603C75.7041 23.8651 78.6677 24.6212 80.845 22.8067M46.8244 23.2603C42.8931 21.4459 33.1254 18.9057 25.5048 23.2603C24.2952 23.8651 21.3316 24.6212 19.1543 22.8067" stroke="#3C4D5D" stroke-width="3" stroke-linecap="round" stroke-linejoin="round"/>
<path d="M6 44.8637L21.4227 23.7139L36.3918 44.8637M6 44.8637H36.3918M6 44.8637V44.8637C6 49.9679 10.1378 54.1056 15.2419 54.1056H27.1498C32.254 54.1056 36.3918 49.9679 36.3918 44.8637V44.8637" stroke="#3C4D5D" stroke-width="3" stroke-linecap="round" stroke-linejoin="round"/>
<path d="M93.9999 45.4871C91.8225 53.8335 84.6253 54.7104 81.2988 54.1056C87.105 51.9283 88.2542 47.4527 88.103 45.4871H93.9999Z" fill="#E81E1E"/>
<path d="M63.6084 44.8637L79.0311 23.7139L94.0002 44.8637M63.6084 44.8637H94.0002M63.6084 44.8637V44.8637C63.6084 49.9679 67.7462 54.1056 72.8503 54.1056H84.7582C89.8624 54.1056 94.0002 49.9679 94.0002 44.8637V44.8637" stroke="#3C4D5D" stroke-width="3" stroke-linecap="round" stroke-linejoin="round"/>
</svg>
