<svg width="100" height="100" style="width: 100px; height: 100px;" viewBox="0 0 100 100" fill="none" xmlns="http://www.w3.org/2000/svg">
<path d="M28 71.5V84H37C40.5899 84 43.5 86.9101 43.5 90.5V90.5C43.5 94.0899 40.5899 97 37 97H29.25C21.3799 97 15 90.6201 15 82.75V69.75C15 54.7002 27.2002 42.5 42.25 42.5H56.75C71.7998 42.5 84 54.7002 84 69.75V83.25C84 90.8439 77.8439 97 70.25 97H63C59.4101 97 56.5 94.0899 56.5 90.5V90.5C56.5 86.9101 59.4101 84 63 84H72V71.5" stroke="#3C4D5D" stroke-width="3" stroke-linecap="round" stroke-linejoin="round"/>
<path d="M29 97L72 97" stroke="#3C4D5D" stroke-width="3"/>
<path d="M61.8409 56.1218C61.1568 55.4491 60.3445 54.9155 59.4504 54.5514C58.5563 54.1874 57.598 54 56.6302 54C55.6625 54 54.7042 54.1874 53.8101 54.5514C52.916 54.9155 52.1037 55.4491 51.4195 56.1218L49.9996 57.5171L48.5798 56.1218C47.1978 54.7637 45.3234 54.0007 43.3691 54.0007C41.4147 54.0007 39.5403 54.7637 38.1583 56.1218C36.7764 57.4799 36 59.3218 36 61.2425C36 63.1631 36.7764 65.0051 38.1583 66.3632L39.5782 67.7586L49.9996 78L60.4211 67.7586L61.8409 66.3632C62.5254 65.6909 63.0684 64.8926 63.4389 64.0139C63.8093 63.1353 64 62.1936 64 61.2425C64 60.2914 63.8093 59.3497 63.4389 58.471C63.0684 57.5924 62.5254 56.7941 61.8409 56.1218Z" fill="#E81E1E" stroke="#3C4D5D" stroke-width="3" stroke-linecap="round" stroke-linejoin="round"/>
<circle cx="50" cy="24" r="18.5" fill="white" stroke="#3C4D5D" stroke-width="3"/>
</svg>
