<svg width="100" height="100" viewBox="0 0 100 100" fill="none" xmlns="http://www.w3.org/2000/svg">
<path d="M79.6099 51.9012L37.6877 93.8234C36.1101 95.401 33.547 95.3831 31.9916 93.7837L3.99982 64.9998C5.49969 63.4999 3.99988 64.4999 7.99975 61.9997C9.90648 63.9065 24.5079 77.4493 31.3289 83.768C33.2876 85.5825 36.3144 85.5292 38.2164 83.6553C47.3007 74.7057 71.6595 50.6726 74.4996 47.4998C77.9996 43.5899 80.7814 22.9999 80.7814 22.9999L80.7814 49.0728C80.7814 50.1337 80.36 51.1511 79.6099 51.9012Z" fill="#E81E1E"/>
<path d="M31.9916 93.8632L5.82865 67.7003C4.26655 66.1382 4.26655 63.6055 5.82865 62.0434L47.7906 20.0815C48.5407 19.3313 49.5582 18.9099 50.619 18.9099L74.782 18.9099C78.0957 18.9099 80.782 21.5962 80.782 24.9099L80.782 49.0729C80.782 50.1337 80.3605 51.1511 79.6104 51.9013L37.6485 93.8632C36.0864 95.4253 33.5537 95.4253 31.9916 93.8632Z" stroke="#3C4D5D" stroke-width="3"/>
<path d="M68.7611 31.6378C73.593 28.9272 83.6811 22.3746 86.7924 19.2634C91.0351 15.0207 84.3175 6.88902 78.6606 14.6672" stroke="#3C4D5D" stroke-width="3" stroke-linecap="round" stroke-linejoin="round"/>
<circle cx="68.7607" cy="30.9308" r="4.5" transform="rotate(45 68.7607 30.9308)" stroke="#3C4D5D" stroke-width="3"/>
<circle cx="55.3262" cy="55.6794" r="4.5" transform="rotate(45 55.3262 55.6794)" stroke="#3C4D5D" stroke-width="3"/>
<circle cx="33.4053" cy="54.9723" r="4.5" transform="rotate(45 33.4053 54.9723)" stroke="#3C4D5D" stroke-width="3"/>
<path d="M46.2197 40.123C46.2197 39.2946 45.5482 38.623 44.7197 38.623C43.8913 38.623 43.2197 39.2946 43.2197 40.123L46.2197 40.123ZM43.2197 69.8215C43.2197 70.65 43.8913 71.3215 44.7197 71.3215C45.5482 71.3215 46.2197 70.65 46.2197 69.8215L43.2197 69.8215ZM43.2197 40.123L43.2197 69.8215L46.2197 69.8215L46.2197 40.123L43.2197 40.123Z" fill="#3C4D5D"/>
</svg>
