<svg width="100" height="100" viewBox="0 0 100 100" fill="none" xmlns="http://www.w3.org/2000/svg">
<rect width="100" height="100" fill="white"/>
<path d="M66.5 76.5H57.5L54 61H57.5L61.5 71L66.5 76.5Z" fill="#E81E1E"/>
<path d="M86.5 10H16.5C13.7386 10 11.5 12.2386 11.5 15V22H86.5V10Z" fill="#E81E1E"/>
<path d="M86 50.5V22M62.5 76.5H16C10.4772 76.5 6 72.0228 6 66.5V22M28.5 69H15M6 22V15C6 9.47715 10.4772 5 16 5H76C81.5228 5 86 9.47715 86 15V22M6 22H86M76 13.5H48.5M22 38.5H53M22 45.5H39M22 52H43.5M63 59V33.5C63 32.3954 62.1046 31.5 61 31.5H17C15.8954 31.5 15 32.3954 15 33.5V59C15 60.1046 15.8954 61 17 61H61C62.1046 61 63 60.1046 63 59Z" stroke="#3C4D5D" stroke-width="3" stroke-linecap="round" stroke-linejoin="round"/>
<path d="M89.2071 94.7929L93.2929 90.7071C93.6834 90.3166 93.6834 89.6834 93.2929 89.2929L82.3303 78.3303C81.8948 77.8948 81.9527 77.1731 82.4519 76.8125L88.9995 72.0837C89.6441 71.6182 89.5138 70.6229 88.7711 70.339L58.6639 58.8274C57.845 58.5143 57.0483 59.3315 57.3821 60.1422L69.7497 90.1777C70.0613 90.9347 71.1008 91.0169 71.5276 90.3184L75.3377 84.0838C75.6752 83.5315 76.4404 83.4404 76.8981 83.8981L87.7929 94.7929C88.1834 95.1834 88.8166 95.1834 89.2071 94.7929Z" fill="white" stroke="#3C4D5D" stroke-width="3"/>
<circle cx="33.5" cy="14" r="2" fill="#3C4D5D"/>
<circle cx="35.5" cy="69" r="2" fill="#3C4D5D"/>
<circle cx="24.5" cy="14" r="2" fill="#3C4D5D"/>
<circle cx="15.5" cy="14" r="2" fill="#3C4D5D"/>
</svg>
