<svg width="100" height="101" viewBox="0 0 100 101" fill="none" xmlns="http://www.w3.org/2000/svg">
<path d="M7 99V97C7 84.2975 17.2975 74 30 74V74C42.7025 74 53 84.2975 53 97V99" stroke="#3C4D5D" stroke-width="3" stroke-linecap="round" stroke-linejoin="round"/>
<path d="M51.5 99.5555V97C51.5 85.1259 41.8741 75.5 30 75.5C35.8976 78.1982 39.68 84.088 39.68 90.5735V95.5796C39.68 97.7887 41.4709 99.5796 43.68 99.5796H51.4759C51.4892 99.5796 51.5 99.5688 51.5 99.5555Z" fill="#E81E1E"/>
<path d="M30 71C36 68 36.725 55.4348 30 51C41.5 51 45 69.5 30 71Z" fill="#E81E1E"/>
<circle cx="30" cy="61" r="11.5" stroke="#3C4D5D" stroke-width="3"/>
<path d="M71.5 50.7701V49C71.5 37.1259 61.8741 27.5 50 27.5C55.8976 30.1982 59.68 36.088 59.68 42.5735V46.7934C59.68 49.0025 61.4709 50.7934 63.68 50.7934H71.4767C71.4896 50.7934 71.5 50.7829 71.5 50.7701Z" fill="#E81E1E"/>
<path d="M47 99V97C47 84.2975 57.2975 74 70 74V74C82.7025 74 93 84.2975 93 97V99" stroke="#3C4D5D" stroke-width="3" stroke-linecap="round" stroke-linejoin="round"/>
<path d="M48.501 96.9993V100.847C48.501 100.861 48.5123 100.873 48.5263 100.873H91.4742C91.4882 100.873 91.4995 100.861 91.4995 100.847V96.9993C91.4995 85.1256 81.874 75.5 70.0003 75.5C58.1265 75.5 48.501 85.1256 48.501 96.9993Z" fill="white"/>
<path d="M91.5 99.7117V97C91.5 85.1259 81.8741 75.5 70 75.5C75.8976 78.1982 79.68 84.088 79.68 90.5735V95.7359C79.68 97.945 81.4709 99.7359 83.68 99.7359H91.4758C91.4892 99.7359 91.5 99.725 91.5 99.7117Z" fill="#E81E1E"/>
<path d="M70 71C76 68 76.725 55.4348 70 51C81.5 51 85 69.5 70 71Z" fill="#E81E1E"/>
<circle cx="70" cy="61" r="11.5" stroke="#3C4D5D" stroke-width="3"/>
<path d="M27 51V49C27 36.2975 37.2975 26 50 26V26C62.7025 26 73 36.2975 73 49V51" stroke="#3C4D5D" stroke-width="3" stroke-linejoin="round"/>
<path d="M50 23C56 20 56.725 7.43478 50 3C61.5 3 65 21.5 50 23Z" fill="#E81E1E"/>
<circle cx="50" cy="13" r="11.5" stroke="#3C4D5D" stroke-width="3"/>
</svg>
