<svg width="100" height="100" viewBox="0 0 100 100" fill="none" xmlns="http://www.w3.org/2000/svg">
<path d="M16 10C16 8.89543 16.8954 8 18 8H32V12H18C16.8954 12 16 11.1046 16 10Z" fill="#E81E1E"/>
<rect x="34" y="8" width="15" height="4" fill="#3C4D5D"/>
<rect x="51" y="8" width="15" height="4" fill="#3C4D5D"/>
<path d="M68 8H82C83.1046 8 84 8.89543 84 10C84 11.1046 83.1046 12 82 12H68V8Z" fill="#3C4D5D"/>
<path d="M53 72C59.0751 72 64 67.0751 64 61C64 54.9249 59.0751 50 53 50C46.9249 50 42 54.9249 42 61C42 67.0751 46.9249 72 53 72Z" fill="#E81E1E"/>
<path d="M50 72C57.732 72 64 65.732 64 58C64 50.268 57.732 44 50 44C42.268 44 36 50.268 36 58C36 65.732 42.268 72 50 72Z" stroke="#3C4D5D" stroke-width="3" stroke-linecap="round" stroke-linejoin="round"/>
<path d="M50 92C68.7777 92 84 76.7777 84 58C84 39.2223 68.7777 24 50 24C31.2223 24 16 39.2223 16 58C16 76.7777 31.2223 92 50 92Z" stroke="#3C4D5D" stroke-width="3" stroke-linecap="round" stroke-linejoin="round"/>
<path d="M21 58C21 74.0163 33.9837 87 50 87C66.0163 87 79 74.0163 79 58C79 41.9837 66.0163 29 50 29" stroke="#E81E1E" stroke-width="3" stroke-linecap="round" stroke-linejoin="round"/>
<path d="M47 52L56 58L47 64V52Z" fill="white" stroke="#3C4D5D" stroke-width="3" stroke-linecap="round" stroke-linejoin="round"/>
</svg>
