<svg width="100" height="100" viewBox="0 0 100 100" fill="none" xmlns="http://www.w3.org/2000/svg">
<path d="M91 19H21C18.2386 19 16 21.2386 16 24V31H91V19Z" fill="#E81E1E"/>
<path d="M33 80.5H19.5M19.5 80.5L24.5 75.5M19.5 80.5L24.5 85.5M10.5 31V24C10.5 18.4772 14.9772 14 20.5 14H80.5C86.0228 14 90.5 18.4772 90.5 24V31M10.5 31V81.5C10.5 87.0228 14.9772 91.5 20.5 91.5H80.5C86.0228 91.5 90.5 87.0228 90.5 81.5V53.5625M10.5 31H90.5M90.5 31V53.5625M80.5 22.5H53M68.5 80.5H82M82 80.5L77 75.5M82 80.5L77 85.5M19.5 64V66.5C19.5 67.6046 20.3954 68.5 21.5 68.5H51C52.1046 68.5 53 67.6046 53 66.5V50M19.5 64V42.5C19.5 41.3954 20.3954 40.5 21.5 40.5H51C52.1046 40.5 53 41.3954 53 42.5V50M19.5 64L35.5 54L41 59.5L53 50M61.5 64L77.5 54L83 59.5L90.5 53.5625M90.5 53.5625V42.5C90.5 41.3954 89.6046 40.5 88.5 40.5H63.5C62.3954 40.5 61.5 41.3954 61.5 42.5V66.5C61.5 67.6046 62.3954 68.5 63.5 68.5H88.5C89.6046 68.5 90.5 67.6046 90.5 66.5V53.5625Z" stroke="#3C4D5D" stroke-width="3" stroke-linecap="round" stroke-linejoin="round"/>
<circle cx="45" cy="80" r="2" fill="#3C4D5D"/>
<circle cx="51" cy="80" r="2" fill="#3C4D5D"/>
<circle cx="57" cy="80" r="2" fill="#3C4D5D"/>
<circle cx="70" cy="48" r="3" fill="#E81E1E"/>
<circle cx="38" cy="23" r="2" fill="#3C4D5D"/>
<circle cx="29" cy="23" r="2" fill="#3C4D5D"/>
<circle cx="20" cy="23" r="2" fill="#3C4D5D"/>
</svg>
