<svg width="100" height="100" viewBox="0 0 100 100" fill="none" xmlns="http://www.w3.org/2000/svg">
<path d="M54.2289 27.7073C53.9846 27.483 53.6944 27.3052 53.3751 27.1838C53.0558 27.0625 52.7136 27 52.3679 27C52.0223 27 51.6801 27.0625 51.3607 27.1838C51.0414 27.3052 50.7513 27.483 50.507 27.7073L49.9999 28.1724L49.4928 27.7073C48.9992 27.2546 48.3298 27.0002 47.6318 27.0002C46.9338 27.0002 46.2644 27.2546 45.7708 27.7073C45.2773 28.16 45 28.7739 45 29.4142C45 30.0544 45.2773 30.6684 45.7708 31.1211L46.2779 31.5862L49.9999 35L53.7218 31.5862L54.2289 31.1211C54.4734 30.897 54.6673 30.6309 54.7996 30.338C54.9319 30.0451 55 29.7312 55 29.4142C55 29.0971 54.9319 28.7832 54.7996 28.4903C54.6673 28.1975 54.4734 27.9314 54.2289 27.7073Z" fill="#E81E1E" stroke="#3C4D5D" stroke-width="3" stroke-linecap="round" stroke-linejoin="round"/>
<path d="M71.2289 33.7073C70.9846 33.483 70.6944 33.3052 70.3751 33.1838C70.0558 33.0625 69.7136 33 69.3679 33C69.0223 33 68.6801 33.0625 68.3607 33.1838C68.0414 33.3052 67.7513 33.483 67.507 33.7073L66.9999 34.1724L66.4928 33.7073C65.9992 33.2546 65.3298 33.0002 64.6318 33.0002C63.9338 33.0002 63.2644 33.2546 62.7708 33.7073C62.2773 34.16 62 34.7739 62 35.4142C62 36.0544 62.2773 36.6684 62.7708 37.1211L63.2779 37.5862L66.9999 41L70.7218 37.5862L71.2289 37.1211C71.4734 36.897 71.6673 36.6309 71.7996 36.338C71.9319 36.0451 72 35.7312 72 35.4142C72 35.0971 71.9319 34.7832 71.7996 34.4903C71.6673 34.1975 71.4734 33.9314 71.2289 33.7073Z" fill="#E81E1E" stroke="#3C4D5D" stroke-width="3" stroke-linecap="round" stroke-linejoin="round"/>
<path d="M37.2289 36.7073C36.9846 36.483 36.6944 36.3052 36.3751 36.1838C36.0558 36.0625 35.7136 36 35.3679 36C35.0223 36 34.6801 36.0625 34.3607 36.1838C34.0414 36.3052 33.7513 36.483 33.507 36.7073L32.9999 37.1724L32.4928 36.7073C31.9992 36.2546 31.3298 36.0002 30.6318 36.0002C29.9338 36.0002 29.2644 36.2546 28.7708 36.7073C28.2773 37.16 28 37.7739 28 38.4142C28 39.0544 28.2773 39.6684 28.7708 40.1211L29.2779 40.5862L32.9999 44L36.7218 40.5862L37.2289 40.1211C37.4734 39.897 37.6673 39.6309 37.7996 39.338C37.9319 39.0451 38 38.7312 38 38.4142C38 38.0971 37.9319 37.7832 37.7996 37.4903C37.6673 37.1975 37.4734 36.9314 37.2289 36.7073Z" fill="#E81E1E" stroke="#3C4D5D" stroke-width="3" stroke-linecap="round" stroke-linejoin="round"/>
<path d="M29 11C29 8.79086 30.7909 7 33 7H75V20H29V11Z" fill="#E81E1E"/>
<path d="M29 89C29 91.2091 30.7909 93 33 93H75V87H29V89Z" fill="#E81E1E"/>
<path d="M23.5 20V10C23.5 5.58172 27.0817 2 31.5 2H68.5C72.9183 2 76.5 5.58172 76.5 10V20M23.5 20H76.5M23.5 20V86M76.5 20V86M76.5 86V90C76.5 94.4183 72.9183 98 68.5 98H31.5C27.0817 98 23.5 94.4183 23.5 90V86M76.5 86H64M23.5 86H36M36 86V83C36 79.6863 38.6863 77 42 77H45M36 86H64M45 77L50 80.5L55 77M45 77V70M55 77H58C61.3137 77 64 79.6863 64 83V86M55 77V70" stroke="#3C4D5D" stroke-width="3"/>
<path d="M39 56.5V48.5C39 45.7386 41.2386 43.5 44 43.5V43.5V51.5C44 54.2614 41.7614 56.5 39 56.5V56.5ZM39 56.5V60C39 66.0751 43.9249 71 50 71V71C56.0751 71 61 66.0751 61 60V60" stroke="#3C4D5D" stroke-width="3"/>
<path d="M44 44.5H42.5H44ZM64 51H65.5C65.5 50.8696 65.483 50.7396 65.4494 50.6135L64 51ZM64 68.5002L62.5062 68.636C62.5788 69.4347 63.2668 70.035 64.068 69.9986C64.8691 69.9623 65.5 69.3022 65.5 68.5002H64ZM45.5 44.5C45.5 44.5125 45.4985 44.3531 45.7913 44.0398C46.0754 43.7357 46.5469 43.3901 47.2116 43.0711C48.5377 42.4346 50.4097 42.0112 52.4168 42.1228C54.4093 42.2335 56.4757 42.8669 58.2592 44.2721C60.0337 45.6702 61.6226 47.9063 62.5506 51.3865L65.4494 50.6135C64.3774 46.5939 62.4663 43.7675 60.1158 41.9156C57.7743 40.0708 55.0907 39.2667 52.5832 39.1274C50.0903 38.9889 47.7123 39.503 45.9134 40.3665C45.0156 40.7974 44.2058 41.3425 43.5993 41.9915C43.0015 42.6313 42.5 43.4875 42.5 44.5H45.5ZM62.5 51V68.5002H65.5V51H62.5ZM65.4938 68.3644C65.3095 66.3362 64.496 63.0705 62.5432 60.2677C60.5497 57.4064 57.3337 55.0002 52.5 55.0002V58.0002C56.1663 58.0002 58.5337 59.7607 60.0818 61.9827C61.6706 64.2632 62.3572 66.9975 62.5062 68.636L65.4938 68.3644ZM45.5 48.0002V44.5H42.5V48.0002H45.5ZM52.5 55.0002C48.634 55.0002 45.5 51.8662 45.5 48.0002H42.5C42.5 53.523 46.9772 58.0002 52.5 58.0002V55.0002Z" fill="#3C4D5D"/>
<circle cx="34" cy="11" r="3.5" fill="white" stroke="#3C4D5D" stroke-width="3"/>
<circle cx="50" cy="92" r="2.5" fill="white" stroke="#3C4D5D" stroke-width="3"/>
<path d="M46 9.5C45.1716 9.5 44.5 10.1716 44.5 11C44.5 11.8284 45.1716 12.5 46 12.5V9.5ZM69 12.5C69.8284 12.5 70.5 11.8284 70.5 11C70.5 10.1716 69.8284 9.5 69 9.5V12.5ZM46 12.5H69V9.5H46V12.5Z" fill="#3C4D5D"/>
</svg>
