<svg width="158" height="40" viewBox="0 0 158 40" fill="none" xmlns="http://www.w3.org/2000/svg">
<path d="M54.6348 6.54766C52.4734 7.45238 50.0973 10.0083 49.3469 13.2166C48.3965 17.2816 52.3514 19.0006 52.6758 18.4369C53.0576 17.7747 51.9672 17.5507 51.7427 15.4416C51.4526 12.7175 52.719 9.67364 54.3128 8.33808C54.6091 8.08994 54.595 8.4353 54.595 9.07412C54.595 10.2165 54.5319 20.4714 54.5319 22.6116C54.5319 25.5076 54.4123 26.4221 54.1975 27.3257C53.9798 28.2414 53.6299 28.8602 53.895 29.0986C54.1913 29.3652 55.4562 28.731 56.1884 27.709C57.0665 26.4832 57.3739 25.0112 57.4291 23.4126C57.4957 21.4855 57.4929 18.4276 57.4957 16.6834C57.4984 15.0837 57.5227 10.3994 57.4677 7.58342C57.4542 6.89272 55.5386 6.16806 54.6346 6.54682L54.6348 6.54766ZM131.385 20.1006C131.315 21.6062 130.982 22.7829 130.568 23.613C129.768 25.2199 128.106 25.7189 127.401 23.4089C127.016 22.1497 126.998 20.0467 127.275 18.2895C127.556 16.4994 128.342 15.1475 129.643 15.2695C130.926 15.39 131.526 17.0434 131.385 20.1005V20.1006ZM109.754 29.4414C109.736 31.943 109.342 34.1363 108.498 34.7733C107.301 35.6766 105.691 34.9991 106.025 33.1737C106.319 31.5583 107.714 29.9087 109.757 27.8931C109.757 27.8931 109.761 28.3527 109.754 29.4414H109.754ZM109.427 20.086C109.353 21.4573 108.998 22.8348 108.61 23.6132C107.809 25.2201 106.136 25.7225 105.442 23.4091C104.968 21.8285 105.082 19.7827 105.316 18.4937C105.621 16.8213 106.359 15.2698 107.684 15.2698C108.973 15.2698 109.608 16.6836 109.427 20.0861V20.086ZM96.8954 20.0651C96.8168 21.5174 96.5335 22.7314 96.0789 23.6132C95.2563 25.209 93.6288 25.7152 92.9111 23.4091C92.3937 21.7462 92.5698 19.4788 92.7851 18.254C93.1045 16.4364 93.9043 15.1477 95.153 15.2698C96.4356 15.3951 97.0591 17.0435 96.8954 20.0652V20.0651ZM154.323 21.7614C154.009 21.7614 153.866 22.0846 153.748 22.6286C153.337 24.5202 152.905 24.9473 152.349 24.9473C151.727 24.9473 151.169 24.0107 151.025 22.1357C150.912 20.6614 150.93 17.9472 151.075 15.2473C151.104 14.6925 150.951 14.1437 149.463 13.6031C148.823 13.3706 147.892 13.0283 147.429 14.1469C146.12 17.307 145.607 19.8158 145.487 20.835C145.48 20.8877 145.416 20.8985 145.404 20.7753C145.328 19.959 145.156 18.4756 145.135 15.3591C145.131 14.751 145.002 14.2334 144.331 13.8097C143.895 13.5347 142.573 13.0484 142.096 13.627C141.684 14.1001 141.206 15.3735 140.71 16.8829C140.306 18.1096 140.025 18.9395 140.025 18.9395C140.025 18.9395 140.031 15.6294 140.035 14.3738C140.038 13.9002 139.713 13.7423 139.615 13.7137C139.174 13.5857 138.305 13.3719 137.936 13.3719C137.481 13.3719 137.37 13.6262 137.37 13.9968C137.37 14.0454 137.298 18.3549 137.298 21.3684C137.298 21.4993 137.298 21.6421 137.299 21.7938C137.047 23.1788 136.231 25.059 135.344 25.059C134.455 25.059 134.036 24.2729 134.036 20.6804C134.036 18.5846 134.098 17.6734 134.129 16.1576C134.147 15.2845 134.182 14.614 134.18 14.4619C134.174 13.9953 133.367 13.7602 132.991 13.6732C132.614 13.5856 132.286 13.5517 132.03 13.5662C131.668 13.5867 131.412 13.8243 131.412 14.1512C131.412 14.3264 131.414 14.6597 131.414 14.6597C130.947 13.9265 130.197 13.4162 129.698 13.2683C128.353 12.869 126.949 13.2228 125.891 14.704C125.05 15.8808 124.543 17.2137 124.343 19.1287C124.197 20.5287 124.245 21.9484 124.504 23.1491C124.191 24.5039 123.609 25.059 122.972 25.059C122.047 25.059 121.377 23.5495 121.455 20.9389C121.506 19.2218 121.85 18.0168 122.225 16.2734C122.385 15.5303 122.255 15.1412 121.929 14.7683C121.629 14.4263 120.992 14.2516 120.075 14.4665C119.422 14.6197 118.488 14.7845 117.634 14.911C117.634 14.911 117.686 14.7054 117.728 14.3428C117.95 12.4413 115.884 12.5956 115.224 13.2029C114.831 13.5655 114.563 13.9932 114.461 14.7621C114.3 15.9823 115.295 16.5578 115.295 16.5578C114.969 18.0525 114.168 20.005 113.342 21.4166C112.9 22.173 112.561 22.7334 112.124 23.3292C112.122 23.1073 112.121 22.8855 112.12 22.6647C112.11 19.5224 112.152 17.0492 112.171 16.1579C112.189 15.2848 112.224 14.6321 112.222 14.48C112.217 14.1387 112.017 14.0098 111.603 13.8467C111.236 13.7023 110.803 13.6024 110.354 13.5676C109.786 13.5234 109.444 13.8243 109.453 14.1801C109.455 14.2473 109.455 14.6598 109.455 14.6598C108.988 13.9266 108.238 13.4164 107.739 13.2685C106.394 12.8692 104.991 13.2231 103.932 14.7041C103.091 15.8809 102.54 17.5324 102.384 19.1143C102.239 20.5886 102.266 21.8416 102.464 22.897C102.25 23.9539 101.635 25.0591 100.94 25.0591C100.051 25.0591 99.5456 24.2731 99.5456 20.6806C99.5456 18.5848 99.6085 17.6735 99.6395 16.1579C99.6574 15.2848 99.6921 14.6142 99.6901 14.4622C99.6836 13.9956 98.8768 13.7605 98.5014 13.6734C98.1086 13.5825 97.7694 13.5491 97.509 13.5683C97.1654 13.5939 96.9239 13.9016 96.9239 14.1311V14.6598C96.4573 13.9266 95.7069 13.4164 95.2076 13.2685C93.8628 12.8692 92.4673 13.2288 91.401 14.7041C90.7057 15.666 90.1428 16.7325 89.8531 19.0933C89.7694 19.7755 89.7324 20.4144 89.7372 21.0115C89.4599 22.7072 88.2352 24.6616 87.2335 24.6616C86.6473 24.6616 86.089 23.5247 86.089 21.1014C86.089 17.8736 86.2888 13.2779 86.3226 12.835C86.3226 12.835 87.5883 12.8134 87.8334 12.8106C88.4647 12.8037 89.0365 12.8186 89.8774 12.7756C90.2992 12.7541 90.7055 11.2404 90.2702 11.0531C90.0729 10.9683 88.6785 10.894 88.1258 10.8823C87.661 10.8717 86.367 10.776 86.367 10.776C86.367 10.776 86.4831 7.72553 86.5101 7.40329C86.533 7.13472 86.1855 6.99644 85.9863 6.91253C85.5017 6.7076 85.0682 6.60948 84.5544 6.50354C83.8444 6.35709 83.5224 6.50034 83.4595 7.09952C83.3647 8.00886 83.3157 10.6723 83.3157 10.6723C82.7947 10.6723 81.0151 10.5705 80.494 10.5705C80.0098 10.5705 79.4872 12.6528 80.1566 12.6784C80.9268 12.7082 82.2689 12.734 83.1587 12.7608C83.1587 12.7608 83.1191 17.4323 83.1191 18.8745C83.1191 19.0279 83.1204 19.1757 83.1207 19.3191C82.631 21.8715 80.9062 23.2502 80.9062 23.2502C81.2766 21.5617 80.5199 20.2936 79.157 19.2202C78.6549 18.8247 77.6636 18.0759 76.5545 17.2553C76.5545 17.2553 77.1968 16.6222 77.7665 15.3485C78.1702 14.4462 78.1876 13.4137 77.1968 13.186C75.5598 12.8096 74.21 14.0118 73.8074 15.2953C73.4955 16.2896 73.6619 17.0274 74.273 17.7938C74.3176 17.8498 74.3659 17.9071 74.4159 17.9647C74.0463 18.6769 73.5387 19.6358 73.1087 20.3795C71.9154 22.4442 71.0139 24.0773 70.3326 24.0773C69.788 24.0773 69.7952 22.4192 69.7952 20.8669C69.7952 19.5286 69.8941 17.5166 69.973 15.4334C69.9991 14.7445 69.6546 14.352 69.0772 13.9965C68.7263 13.7806 67.9775 13.356 67.5438 13.356C66.8946 13.356 65.0218 13.4443 63.2522 18.5631C63.0291 19.2083 62.591 20.3839 62.591 20.3839L62.6287 14.2283C62.6287 14.084 62.5519 13.9445 62.3759 13.849C62.0777 13.6871 61.2812 13.356 60.573 13.356C60.2356 13.356 60.0672 13.5129 60.0672 13.8257L60.0054 23.4562C60.0054 24.188 60.0245 25.0416 60.0968 25.415C60.1689 25.7888 60.2857 26.0929 60.4303 26.2738C60.5747 26.4544 60.7418 26.5922 61.0172 26.649C61.2736 26.7018 62.6773 26.8821 62.7502 26.3456C62.8376 25.7028 62.841 25.0074 63.5781 22.4141C64.7255 18.3767 66.2216 16.4067 66.925 15.7071C67.0479 15.5849 67.1884 15.5776 67.1816 15.7777C67.1516 16.6629 67.046 18.8747 66.9749 20.7538C66.7844 25.7825 67.6992 26.7146 69.0065 26.7146C70.0067 26.7146 71.4165 25.7208 72.9279 23.2053C73.8701 21.6376 74.785 20.1004 75.4422 18.9926C75.9003 19.4166 76.4143 19.873 76.928 20.3605C78.1217 21.4935 78.5137 22.57 78.2536 23.5913C78.0547 24.3721 77.3057 25.1767 75.9726 24.3946C75.5841 24.1665 75.4182 23.9902 75.0276 23.733C74.8177 23.5948 74.4972 23.5535 74.305 23.6982C73.8059 24.0746 73.5205 24.5532 73.3575 25.1458C73.199 25.7224 73.7764 26.0273 74.3751 26.2939C74.8905 26.5233 75.9984 26.7313 76.7049 26.755C79.4578 26.847 81.6631 25.4258 83.1983 21.7596C83.4731 24.9258 84.6426 26.7174 86.6746 26.7174C88.0331 26.7174 89.3951 24.9615 89.9907 23.234C90.1617 23.9382 90.4148 24.5505 90.7417 25.0683C92.3074 27.5491 95.3449 27.0152 96.8707 24.9086C97.3424 24.2577 97.4142 24.0238 97.4142 24.0238C97.6367 26.0129 99.2386 26.7079 100.156 26.7079C101.183 26.7079 102.243 26.2223 102.987 24.5488C103.074 24.7304 103.169 24.9039 103.273 25.0683C104.839 27.5491 107.876 27.0151 109.402 24.9085C109.474 24.8097 109.536 24.7201 109.591 24.6396L109.635 25.9462C109.635 25.9462 108.765 26.7446 108.231 27.2345C105.879 29.3919 104.091 31.0288 103.96 32.9349C103.791 35.3654 105.762 36.2686 107.253 36.387C108.837 36.5127 110.193 35.6379 111.027 34.4135C111.76 33.3359 112.24 31.0165 112.205 28.7257C112.191 27.8084 112.167 26.642 112.149 25.3918C112.976 24.432 113.907 23.2189 114.764 21.7989C115.699 20.2514 116.7 18.1733 117.213 16.556C117.213 16.556 118.083 16.5635 119.012 16.5027C119.309 16.4833 119.394 16.5439 119.339 16.7616C119.273 17.0247 118.166 21.2938 119.176 24.1376C119.867 26.0845 121.426 26.7108 122.35 26.7108C123.432 26.7108 124.467 25.8939 125.021 24.6808C125.088 24.8161 125.158 24.9469 125.234 25.0678C126.8 27.5485 129.827 27.0114 131.363 24.908C131.71 24.4334 131.907 24.0232 131.907 24.0232C132.236 26.0818 133.837 26.7178 134.754 26.7178C135.71 26.7178 136.616 26.3262 137.352 24.5859C137.382 25.3522 137.431 25.9787 137.507 26.1762C137.554 26.297 137.825 26.4487 138.023 26.5219C138.896 26.846 139.788 26.6927 140.117 26.6261C140.346 26.5798 140.524 26.3966 140.548 25.9234C140.612 24.681 140.573 22.5936 140.949 21.0422C141.582 18.4386 142.171 17.4287 142.451 16.9287C142.608 16.6486 142.784 16.6024 142.791 16.8989C142.804 17.4987 142.834 19.2604 143.079 21.6272C143.259 23.3679 143.499 24.3968 143.684 24.7224C144.211 25.6536 144.862 25.6977 145.392 25.6977C145.729 25.6977 146.434 25.6045 146.371 25.012C146.34 24.7231 146.394 22.938 147.017 20.373C147.424 18.698 148.103 17.1845 148.348 16.6312C148.438 16.4271 148.48 16.588 148.478 16.6193C148.427 17.7729 148.311 21.546 148.781 23.6096C149.418 26.4052 151.261 26.718 151.903 26.718C153.274 26.718 154.395 25.6751 154.773 22.9312C154.864 22.2708 154.729 21.7609 154.326 21.7609" fill="#262626"/>
<path d="M28.0838 0H11.9162C5.34559 0 0 5.34559 0 11.9162V28.0838C0 34.6544 5.34559 40 11.9162 40H28.0838C34.6544 40 40 34.6544 40 28.0838V11.9162C39.9999 5.34559 34.6543 0 28.0838 0ZM35.976 28.0838C35.976 32.4425 32.4425 35.976 28.0838 35.976H11.9162C7.5575 35.976 4.024 32.4425 4.024 28.0838V11.9162C4.024 7.55743 7.5575 4.024 11.9162 4.024H28.0838C32.4425 4.024 35.976 7.55743 35.976 11.9162V28.0838Z" fill="url(#paint0_linear)"/>
<path d="M20 9.65454C14.2955 9.65454 9.65454 14.2955 9.65454 19.9999C9.65454 25.7043 14.2955 30.3453 20 30.3453C25.7044 30.3453 30.3454 25.7044 30.3454 19.9999C30.3454 14.2954 25.7044 9.65454 20 9.65454ZM20 26.3214C16.5087 26.3214 13.6785 23.4912 13.6785 20C13.6785 16.5087 16.5088 13.6785 20 13.6785C23.4912 13.6785 26.3214 16.5087 26.3214 20C26.3214 23.4911 23.4911 26.3214 20 26.3214Z" fill="url(#paint1_linear)"/>
<path d="M30.3654 12.2114C31.7346 12.2114 32.8444 11.1015 32.8444 9.73239C32.8444 8.36329 31.7346 7.25342 30.3654 7.25342C28.9963 7.25342 27.8865 8.36329 27.8865 9.73239C27.8865 11.1015 28.9963 12.2114 30.3654 12.2114Z" fill="url(#paint2_linear)"/>
<defs>
<linearGradient id="paint0_linear" x1="20" y1="39.8836" x2="20" y2="0.310687" gradientUnits="userSpaceOnUse">
<stop stop-color="#FDAF4B"/>
<stop offset="0.3" stop-color="#F2653C"/>
<stop offset="0.6" stop-color="#C21975"/>
<stop offset="1" stop-color="#7024C4"/>
</linearGradient>
<linearGradient id="paint1_linear" x1="20" y1="39.8835" x2="20" y2="0.310654" gradientUnits="userSpaceOnUse">
<stop stop-color="#FDB04B"/>
<stop offset="0.3" stop-color="#F3683B"/>
<stop offset="0.6" stop-color="#C21975"/>
<stop offset="1" stop-color="#7024C4"/>
</linearGradient>
<linearGradient id="paint2_linear" x1="30.3654" y1="39.8837" x2="30.3654" y2="0.310836" gradientUnits="userSpaceOnUse">
<stop stop-color="#E09B3D"/>
<stop offset="0.3" stop-color="#C74C4D"/>
<stop offset="0.6" stop-color="#C21975"/>
<stop offset="1" stop-color="#7024C4"/>
</linearGradient>
</defs>
</svg>
