<svg width="159" height="40" viewBox="0 0 159 40" fill="none" xmlns="http://www.w3.org/2000/svg">
<path fill-rule="evenodd" clip-rule="evenodd" d="M122.116 40H155.528C157.346 40 158.822 38.5249 158.822 36.7058V3.29419C158.822 1.47554 157.347 0 155.528 0H122.116C120.297 0 118.822 1.4751 118.822 3.29419V36.7058C118.822 38.5245 120.297 40 122.116 40ZM134.116 15.2945H139.704V18.1074C140.454 16.6052 142.636 15.0003 145.522 15.0003C151.053 15.0003 152.94 17.5003 152.94 23.438V34.1178H147.057V24.6873C147.057 21.5624 146.447 19.8531 144.166 19.8531C141.082 19.8531 139.999 22.1966 139.999 24.6873V34.1178H134.117V15.2945H134.116ZM124.704 34.1178H130.587V15.2945H124.704V34.1178ZM131.234 8.8239C131.234 10.8052 129.627 12.4123 127.645 12.4123C125.664 12.4123 124.057 10.8052 124.057 8.8239C124.057 6.8417 125.664 5.2355 127.645 5.2355C129.627 5.2355 131.234 6.84126 131.234 8.8239Z" fill="#0073B0"/>
<path fill-rule="evenodd" clip-rule="evenodd" d="M112.94 34.1178H107.846V32.0001H107.764C107.132 32.9778 104.978 34.4116 102.352 34.4116C95.9309 34.4116 92.9407 30.3823 92.9407 24.7059C92.9407 19.0682 96.0878 15.0002 101.764 15.0002C104.519 15.0002 106.103 16.0296 107.058 17.4118V5.88257H112.94V34.1174L112.94 34.1178ZM102.88 19.5295C100.182 19.5295 98.5873 21.7517 98.5873 24.8517C98.5873 27.9565 100.182 29.8823 102.88 29.8823C105.624 29.8823 107.293 27.9565 107.293 24.8517C107.293 21.7517 105.587 19.5295 102.88 19.5295ZM89.9239 30.9929C88.419 32.9045 85.4697 34.4116 81.1755 34.4116C75.344 34.4116 71.617 30.4738 71.617 24.4117C71.617 19.2717 75.2569 15.0002 81.5955 15.0002C86.9683 15.0002 90.7341 18.7744 90.7341 24.8037C90.7341 25.9801 90.4505 27.0472 90.4505 27.0472H77.0036L77.0507 27.3201C77.4991 28.7872 78.9507 30.2943 81.4071 30.2943C83.5848 30.2943 85.5164 29.1907 86.3306 28.1943L89.9234 30.9929H89.9239ZM85.5475 22.6446C85.3297 20.706 83.6159 19.1175 81.4782 19.1175C78.8631 19.1175 77.136 20.806 76.9769 22.6446H85.5475ZM52.9407 5.88257H58.8229V22.9788L65.3606 15.294H72.4827L64.2513 24.2739L72.617 34.1174H65.8019L58.8233 25.4223V34.1174H52.9412V5.88257H52.9407ZM30.5881 15.2945H35.6823V17.9322H35.7645C36.5574 16.4251 38.9844 15.0007 41.8822 15.0007C47.9163 15.0007 49.4114 18.4193 49.4114 23.5793V34.1178H43.5293V24.8344C43.5293 22.6122 43.4115 19.7286 40.3564 19.7286C37.2614 19.7286 36.4707 22.3335 36.4707 24.8344V34.1178H30.5885V15.2945H30.5881ZM24.1175 6.02967C25.9046 6.02967 27.4997 7.6261 27.4997 9.41186C27.4997 11.1976 25.9046 12.794 24.1175 12.794C22.3318 12.794 20.7353 11.1976 20.7353 9.41186C20.7353 7.6261 22.3318 6.02967 24.1175 6.02967ZM21.1762 34.1178H27.0584V15.2945H21.1762V34.1178ZM0 5.88257H5.88216V28.2352H17.6469V34.1174H0V5.88257Z" fill="#0073B1"/>
</svg>
