<svg width="136" height="40" viewBox="0 0 136 40" fill="none" xmlns="http://www.w3.org/2000/svg">
<path d="M65.3 6.79995H61.3C60.5 6.79995 60.3 6.39995 60.3 5.69995V1.69995C60.3 0.599948 59.3 1.19995 59.3 1.19995L56 4.49995C55 5.59995 55.1 6.79995 55.1 6.79995V9.19995L49.9 14.3999C49.5 14.2999 49.1 14.1999 48.7 14.1999C46.4 14.1999 44.5 16.0999 44.5 18.3999C44.5 20.6999 46.4 22.5999 48.7 22.5999C51 22.5999 52.9 20.6999 52.9 18.3999C52.9 17.9999 52.9 17.6999 52.8 17.2999L58.1 11.9999H60.4C60.4 11.9999 61.6 12.0999 62.7 11.0999L66 7.79995C65.9 7.79995 66.4 6.79995 65.3 6.79995Z" fill="#FC2C38"/>
<path d="M59.5 14.3999C58.4 14.5999 57.7 15.6999 57.9 16.7999C58 17.3999 58.1 17.9999 58.1 18.5999C58.1 23.8999 53.9 28.1999 48.6 28.1999C46.4 28.1999 44.4 27.4999 42.7 26.0999C41.1 24.7999 39.9 22.8999 39.4 20.7999C39.2 19.8999 38.5 19.2999 37.7 19.1999C37.1 19.0999 36.6 19.1999 36.5 19.1999C34.8 19.4999 33.4 19.9999 32.1 20.5999C32.1 20.4999 32.1 20.3999 32.1 20.3999C32.2 18.8999 32.2 18.2999 32.3 16.8999C32.3 16.6999 32.3 16.5999 32.4 16.3999C32.8 14.2999 33.4 13.0999 33.3 12.1999C33.3 11.7999 33.2 11.4999 33 11.0999C32.8 10.6999 32.5 10.4999 32.2 10.2999C32.1 10.1999 32 10.0999 31.8 10.0999C31.7 10.0999 31.7 9.99994 31.6 9.99994C30.8 9.69994 30 9.89994 29.5 10.5999C29 11.1999 28.9 11.8999 28.7 12.6999C28.4 13.8999 28.1 15.6999 27.8 16.7999C27.5 17.6999 27 18.7999 26.3 19.2999C25.6 19.7999 24.9 19.5999 24.6 18.5999C24.3 17.3999 24.4 16.0999 24.5 14.8999C24.6 14.0999 25.2 13.9999 25.4 12.5999C25.6 10.9999 24.7 9.99994 23.3 9.79994C22.3 9.69994 21.5 10.0999 21 11.0999C20.5 12.0999 20.3 13.1999 20.3 14.2999C20.2 15.1999 20.3 16.1999 20.3 17.0999C20.3 17.1999 20.2 17.1999 20.2 17.2999C19.5 18.5999 18.1 19.8999 17.8 19.6999C17.6 19.5999 17.7 19.1999 17.7 18.9999C17.7 17.4999 17.9 14.6999 18.1 12.6999C18.2 11.4999 17.5 10.4999 16 10.4999C15 10.4999 14.4 11.0999 13.9 11.6999C13 12.6999 12.2 13.8999 11.5 14.7999C11.4 14.8999 11.2 15.1999 11 15.0999C10.8 14.9999 10.8 14.6999 10.8 14.4999C10.8 13.4999 10.8 13.6999 10.8 12.6999C10.8 12.4999 10.8 11.9999 10.7 11.5999C10.6 10.4999 9.5 9.99994 8.5 10.0999C7.9 10.1999 7.4 10.5999 7.1 11.0999C6.6 11.8999 6.4 12.3999 5.9 13.1999C5.6 13.7999 5.5 13.9999 5.3 14.2999C5.1 14.5999 4.9 14.7999 4.7 14.7999C4.4 14.7999 4.4 14.4999 4.4 14.4999C4.4 13.9999 4.4 12.9999 4.4 12.7999C4.4 12.1999 4.5 10.8999 3.4 10.6999C0.4 10.7999 0 13.7999 0 15.2999C0 16.8999 0 17.9999 0 19.5999C0 20.7999 0 21.4999 0.1 22.6999C0.2 24.0999 1.3 24.7999 2.5 24.3999C3.1 24.1999 3.5 23.6999 3.8 23.0999C4.1 22.4999 4.6 21.0999 4.9 20.3999C5.2 19.5999 5.6 18.6999 5.9 18.0999C6 17.8999 6.3 17.6999 6.6 17.6999C6.9 17.6999 7 17.8999 7 18.0999C7 18.7999 6.9 19.4999 6.9 20.1999C6.8 21.5999 6.9 22.5999 7.1 22.9999C7.2 23.2999 7.6 23.7999 8.1 23.9999C9.1 24.3999 10.2 23.9999 10.7 22.9999C11.4 21.5999 11.6 20.3999 12.3 18.8999C12.5 18.4999 12.7 17.8999 13.3 17.8999C13.5 17.8999 13.9 17.9999 13.9 18.2999C13.9 18.5999 13.8 21.0999 14 22.2999C14.2 23.2999 15.1 24.3999 17 24.2999C17.5 24.2999 18 23.9999 18.5 23.6999C19.1 23.4999 19.8 22.6999 20.7 21.2999C21 22.2999 21.7 23.0999 22 23.5999C23.2 25.1999 25 25.1999 26.4 23.8999C27.1 23.2999 27.4 22.6999 27.6 22.0999C27.6 22.6999 27.5 23.2999 27.5 23.8999C23.3 26.6999 21.1 29.4999 20.9 32.3999C20.7 34.9999 22.1 37.5999 24.9 39.2999C25.6 39.6999 26.3 39.9999 26.9 39.8999C27.3 39.8999 27.7 39.7999 28.1 39.5999C30.5 38.3999 30.9 31.9999 31.5 26.2999V25.9999C32.1 25.4999 33 24.7999 34.1 24.2999C34.2 24.1999 34.7 23.9999 34.9 23.9999C35.5 23.8999 35.9 23.9999 36.2 24.5999C36.2 24.6999 36.4 24.9999 36.4 24.9999C37.3 26.5999 38.4 28.0999 39.9 29.2999C42.3 31.1999 45.3 32.2999 48.3 32.2999C55.7 32.2999 61.8 26.0999 61.8 18.4999C61.8 17.5999 61.7 16.7999 61.6 15.8999C61.6 14.8999 60.6 14.0999 59.5 14.3999ZM26.7 33.7999C26.6 34.0999 26.4 34.0999 26.1 33.8999C25.4 33.2999 25.2 32.4999 25.2 31.8999C25.2 31.4999 25.5 30.3999 27.2 28.7999C27.3 29.9999 27.1 32.6999 26.7 33.7999Z" fill="#FC2C38"/>
<path d="M37.5 14.7999C37.8 14.9999 38.1 14.9999 38.5 14.9999C39.2 14.9999 39.9 14.5999 40.3 13.8999C41.9 10.8999 45.1 8.9999 48.6 8.9999C49.3 8.9999 49.9 9.0999 50.6 9.1999C51.7 9.3999 52.8 8.6999 53 7.5999C53.2 6.4999 52.5 5.3999 51.4 5.1999C50.5 4.9999 49.5 4.8999 48.5 4.8999C43.5 4.8999 39 7.6999 36.6 12.0999C36.2 13.0999 36.6 14.2999 37.5 14.7999Z" fill="#FC2C38"/>
<path d="M69.8 24V13.4H66V11H76.3V13.4H72.5V24H69.8Z" fill="#333333"/>
<path d="M85 24L84.2 21.8H78.6L77.9 24H74.7L79.7 11H83.2L88.2 24H85ZM81.5 13.8L79.5 19.4H83.5L81.5 13.8Z" fill="#333333"/>
<path d="M101.1 17.4999C101.1 13.3999 104.2 10.7999 108 10.7999C110.7 10.7999 112.4 12.1999 113.4 13.6999L111.1 14.8999C110.5 13.9999 109.4 13.1999 108 13.1999C105.6 13.1999 103.9 14.9999 103.9 17.4999C103.9 19.9999 105.6 21.7999 108 21.7999C109.1 21.7999 110.2 21.2999 110.8 20.7999V19.1999H107.4V16.7999H113.6V21.7999C112.3 23.2999 110.4 24.2999 108.1 24.2999C104.2 24.2999 101.1 21.5999 101.1 17.4999Z" fill="#333333"/>
<path d="M129.4 24V13.4H125.6V11H136V13.4H132.2V24H129.4Z" fill="#333333"/>
<path d="M99.6 15.2C99.6 12.8 97.9 11 95.2 11H89.1V24H92V19.4H94.3L97.1 24H100.3L97.1 19C98.5 18.7 99.6 17.5 99.6 15.2ZM94.8 16.9H92V13.4H94.9C96 13.4 96.8 14.1 96.8 15.2C96.8 16.3 96 16.9 94.8 16.9Z" fill="#333333"/>
<path d="M115.3 24H124.5V21.6H118.1V18.6H123.8V16.2H118.1V13.4H124.5V11H115.3V24Z" fill="#333333"/>
</svg>
