<svg width="100" height="100" style="width: 100px; height: 100px;" viewBox="0 0 100 100" fill="none" xmlns="http://www.w3.org/2000/svg">
<mask id="mask0" mask-type="alpha" maskUnits="userSpaceOnUse" x="0" y="0" width="100" height="100">
<rect y="3.05176e-05" width="100" height="100" fill="white"/>
</mask>
<g mask="url(#mask0)">
<path fill-rule="evenodd" clip-rule="evenodd" d="M77.3401 21.8533C87.1105 31.26 91.6045 45.5546 87.8459 59.582C86.3683 65.0963 83.7657 70.0086 80.3512 74.1383C71.048 85.39 55.7174 90.8314 40.6932 86.8056C30.1622 83.9839 21.8266 77.0588 16.9454 68.2115C16.2149 68.4359 15.4785 68.6531 14.7363 68.8627C12.4208 69.5165 10.7748 71.6124 10.812 74.0182C10.8325 75.3468 11.3675 76.6157 12.3044 77.558L12.4731 77.7276C13.2735 78.5327 14.2952 79.0816 15.4083 79.3046L15.6894 79.361C16.7581 79.5751 17.7586 80.0485 18.6023 80.7387C19.6733 81.615 20.4461 82.8031 20.8126 84.1376L20.8902 84.4202C21.2894 85.8738 22.2029 87.133 23.4608 87.9635C24.6291 88.7349 26.0235 89.0895 27.4184 88.97L27.9076 88.9281C29.0292 88.832 30.1573 89.0126 31.1929 89.4538L31.2451 89.4761C32.5362 90.0262 33.6223 90.9676 34.3502 92.1675L34.5429 92.4852C35.3008 93.7347 36.5049 94.6496 37.9117 95.045C39.2906 95.4326 40.7643 95.2929 42.0459 94.6533L42.7073 94.3232C43.8273 93.7642 45.0827 93.5334 46.3283 93.6576C47.4453 93.769 48.5157 94.1619 49.4394 94.7997L50.0641 95.231C51.3613 96.1266 52.947 96.5037 54.5085 96.288C55.846 96.1033 57.0889 95.4941 58.0541 94.5499L58.602 94.0141C59.516 93.1201 60.6695 92.5101 61.9228 92.2578C62.8341 92.0743 63.7737 92.0849 64.6806 92.2889L66.055 92.598C67.4576 92.9134 68.9264 92.7276 70.2062 92.0726C71.5131 91.4038 72.5377 90.2896 73.0947 88.9313L73.2898 88.4555C73.7402 87.3571 74.5052 86.4164 75.4887 85.7515C76.3302 85.1825 77.3019 84.8357 78.3135 84.7432L79.2464 84.6579C80.6753 84.5273 82.0137 83.9023 83.0312 82.8907C84.0746 81.8533 84.7124 80.4768 84.8295 79.0101L84.8491 78.7641C84.9571 77.4107 85.4659 76.1202 86.3107 75.0573L86.3881 74.9598C87.0191 74.1659 87.8099 73.5134 88.7091 73.0446L89.0609 72.8612C90.4096 72.1581 91.4664 71.0011 92.0449 69.5945C92.5567 68.3497 92.6664 66.9759 92.3585 65.6657L92.2376 65.1515C91.9736 64.028 91.9917 62.8567 92.2904 61.742C92.6025 60.5771 93.2106 59.5128 94.0556 58.6523L94.4624 58.2381C95.5186 57.1625 96.1482 55.7401 96.2342 54.2351C96.3141 52.8374 95.92 51.4537 95.1159 50.3077L94.894 49.9916C94.2078 49.0138 93.7711 47.8753 93.6237 46.6899C93.455 45.332 93.6729 43.9457 94.2544 42.707L94.4205 42.3533C95.0302 41.0545 95.1677 39.5837 94.8094 38.1944C94.4418 36.7697 93.5768 35.5235 92.3706 34.6809L92.0514 34.458C91.0101 33.7306 90.1831 32.737 89.657 31.5808C89.1975 30.5712 88.9812 29.468 89.0255 28.3596L89.0631 27.418C89.1241 25.8887 88.6401 24.3875 87.6973 23.1819C86.834 22.0782 85.6352 21.2851 84.2817 20.9224L82.4773 20.4388C82.1138 20.3414 81.787 20.1394 81.5375 19.8578C80.6446 18.8502 79.0179 19.04 78.338 20.2021C78.0256 20.7361 77.6929 21.287 77.3401 21.8533Z" fill="#E81E1E"/>
<path d="M53.5084 6.39852L53.1914 6.35468C52.1206 6.20658 51.099 5.81071 50.208 5.19853L50.0596 5.09659C48.7832 4.21959 47.2343 3.82995 45.6948 3.99857C44.2295 4.15906 42.863 4.8155 41.8219 5.85908L41.7032 5.97805C40.771 6.91241 39.5918 7.56167 38.3038 7.84973L38.0547 7.90545C36.9682 8.14844 35.8424 8.1566 34.7525 7.9294L33.8839 7.74832C32.6109 7.48296 31.2855 7.65755 30.1247 8.24352C28.9383 8.84244 27.9963 9.83441 27.4596 11.0502L27.3495 11.2995C26.9622 12.1768 26.3857 12.9576 25.6612 13.5859L25.4426 13.7754C24.2899 14.7751 22.8659 15.4093 21.3517 15.5974L20.9847 15.6429C19.5282 15.8238 18.1733 16.4842 17.1335 17.5201C16.1349 18.515 15.4804 19.8032 15.2657 21.1965L15.1746 21.7878C14.9703 23.114 14.4398 24.3688 13.6308 25.4394C12.969 26.3153 12.1361 27.0476 11.1828 27.5918L10.2585 28.1195C9.16197 28.7454 8.2977 29.7096 7.79504 30.8678C7.27921 32.0564 7.17299 33.3826 7.4931 34.6381L7.5946 35.0362C7.89295 36.2063 7.88549 37.4335 7.57295 38.5999L7.5044 38.8558C7.2057 39.9705 6.61797 40.9866 5.80063 41.8014C4.89323 42.7059 4.27082 43.8565 4.01037 45.111L3.99686 45.1761C3.64247 46.883 3.95958 48.6609 4.88226 50.14L5.04972 50.4085C5.62278 51.3271 5.99093 52.3586 6.12904 53.4325L6.1687 53.7408C6.33088 55.0019 6.11925 56.2827 5.56006 57.4246C4.99506 58.5783 4.78741 59.8915 4.9589 61.1646C5.19231 62.8975 6.1037 64.4928 7.48896 65.5597L7.83349 65.825C8.70138 66.4935 9.41343 67.3427 9.92021 68.3139C10.4646 69.3572 10.7576 70.5134 10.7758 71.6901L10.8081 73.779C10.8311 75.2611 11.4278 76.6765 12.4729 77.7276C13.2734 78.5326 14.295 79.0815 15.4081 79.3046L15.6892 79.3609C16.758 79.5751 17.7585 80.0485 18.6021 80.7387C19.6731 81.615 20.446 82.8031 20.8124 84.1375L20.8901 84.4202C21.2892 85.8738 22.2027 87.1329 23.4607 87.9635C24.629 88.7348 26.0234 89.0895 27.4183 88.97L27.9075 88.9281C29.0291 88.832 30.1571 89.0125 31.1928 89.4538L31.2449 89.476C32.5361 90.0262 33.6221 90.9676 34.35 92.1675L34.5427 92.4852C35.3006 93.7346 36.5048 94.6496 37.9116 95.045C39.2904 95.4326 40.7642 95.2929 42.0457 94.6533L42.7071 94.3232C43.8272 93.7641 45.0825 93.5334 46.3282 93.6576C47.4451 93.769 48.5156 94.1619 49.4393 94.7996L50.064 95.2309C51.3612 96.1265 52.9468 96.5037 54.5083 96.288C55.8458 96.1033 57.0887 95.494 58.054 94.5499L58.6019 94.014C59.5159 93.1201 60.6693 92.51 61.9227 92.2577C62.8339 92.0743 63.7736 92.0849 64.6804 92.2888L66.0548 92.598C67.4574 92.9134 68.9262 92.7275 70.206 92.0726C71.5129 91.4038 72.5375 90.2895 73.0945 88.9312L73.2896 88.4555C73.7401 87.3571 74.5051 86.4164 75.4885 85.7514C76.33 85.1825 77.3018 84.8356 78.3134 84.7432L79.2463 84.6579C80.6751 84.5273 82.0136 83.9023 83.031 82.8906C84.0744 81.8532 84.7123 80.4768 84.8293 79.0101L84.849 78.764C84.957 77.4106 85.4658 76.1201 86.3105 75.0572L86.388 74.9598C87.019 74.1658 87.8097 73.5133 88.709 73.0445L89.0608 72.8612C90.4094 72.1581 91.4663 71.0011 92.0447 69.5944C92.5566 68.3496 92.6662 66.9759 92.3583 65.6657L92.2375 65.1515C91.9734 64.028 91.9916 62.8567 92.2903 61.7419C92.6024 60.5771 93.2105 59.5127 94.0554 58.6523L94.4623 58.238C95.5184 57.1625 96.1481 55.74 96.2341 54.2351C96.3139 52.8374 95.9199 51.4536 95.1157 50.3077L94.8939 49.9915C94.2077 49.0137 93.7709 47.8753 93.6236 46.6899C93.4548 45.332 93.6728 43.9456 94.2543 42.707L94.4203 42.3532C95.0301 41.0545 95.1676 39.5837 94.8092 38.1944C94.4417 36.7697 93.5767 35.5234 92.3704 34.6809L92.0513 34.4579C91.0099 33.7306 90.183 32.7369 89.6568 31.5808C89.1974 30.5712 88.9811 29.4679 89.0253 28.3596L89.0629 27.4179C89.124 25.8887 88.6399 24.3875 87.6971 23.1819C86.8339 22.0781 85.6351 21.285 84.2816 20.9223L83.8239 20.7997C82.582 20.4669 81.4653 19.7765 80.6126 18.8142C80.0015 18.1246 79.5425 17.3139 79.2656 16.4351L78.8386 15.0798C78.4066 13.7086 77.5078 12.5321 76.2985 11.7547C75.0636 10.9608 73.5854 10.6348 72.1311 10.8357L71.6217 10.9061C70.4458 11.0686 69.248 10.8799 68.179 10.3637C67.2642 9.922 66.476 9.2561 65.8878 8.42795L65.3453 7.66422C64.5144 6.49451 63.3015 5.6513 61.9156 5.27995C60.4944 4.89913 58.9839 5.03927 57.657 5.67504L57.4202 5.78851C56.2043 6.37109 54.8439 6.58323 53.5084 6.39852Z" stroke="#3C4D5D" stroke-width="3" stroke-linejoin="round"/>
<path d="M60.2339 13.8783C79.9721 19.1671 91.6857 39.4556 86.3968 59.1938C84.9761 64.4959 82.4751 69.2154 79.195 73.1825C70.2519 83.9986 55.5179 89.2251 41.0813 85.3568C26.6446 81.4885 16.4978 69.5953 14.1609 55.7566C13.3038 50.6811 13.4976 45.3433 14.9183 40.0412C16.339 34.7392 18.8401 30.0196 22.1201 26.0526C31.0632 15.2364 45.7972 10.01 60.2339 13.8783Z" stroke="#3C4D5D" stroke-width="3" stroke-linecap="round" stroke-linejoin="round"/>
<path d="M23 25.5L29.0369 27.0778M86.5 42.5L36.7643 29.1484M14.5 56.4278L65.1872 69.8931M78.5 73.5L72.4317 71.8343M22.6611 52.8043L24.9258 44.3524M35.8838 38.23L27.1904 35.9006L24.9258 44.3524M24.9258 44.3524L30.2384 45.7759M36.1841 56.4277L38.4487 47.9759L40.7134 39.524L46.1467 40.9799C48.4807 41.6053 49.8657 44.0042 49.2403 46.3382V46.3382C48.615 48.6721 46.216 50.0571 43.8821 49.4318L43.2784 49.27L45.8433 59.0159M53.9036 52.117L56.1682 43.6652L64.8616 45.9945M53.9036 52.117L51.6389 60.5689L60.2383 62.8731M53.9036 52.117L59.6991 53.6699M74.8211 66.7805L66.1278 64.4511L68.3924 55.9993M68.3924 55.9993L70.6571 47.5474L79.3504 49.8768M68.3924 55.9993L74.188 57.5522" stroke="#3C4D5D" stroke-width="3" stroke-linecap="round" stroke-linejoin="round"/>
</g>
</svg>
