<svg width="100" height="100" style="width: 100px; height: 100px;" viewBox="0 0 100 100" fill="none" xmlns="http://www.w3.org/2000/svg">
<path d="M79.6101 51.9015L37.6879 93.8237C36.1104 95.4012 33.5472 95.3833 31.9919 93.784L4.00007 65.0001C5.49994 63.5002 4.00013 64.5001 8 62C9.90672 63.9067 24.5081 77.4495 31.3292 83.7683C33.2878 85.5827 36.3146 85.5294 38.2166 83.6556C47.3009 74.7059 71.6597 50.6728 74.4998 47.5001C77.9998 43.5901 80.7817 23.0002 80.7817 23.0002L80.7817 49.0731C80.7817 50.1339 80.3603 51.1513 79.6101 51.9015Z" fill="#E81E1E"/>
<path d="M31.9914 93.8632L5.82841 67.7003C4.26631 66.1382 4.2663 63.6055 5.82841 62.0434L47.7904 20.0815C48.5405 19.3313 49.5579 18.9099 50.6188 18.9099L74.7817 18.9099C78.0954 18.9099 80.7817 21.5962 80.7817 24.9099L80.7817 49.0729C80.7817 50.1337 80.3603 51.1511 79.6102 51.9013L37.6482 93.8632C36.0861 95.4253 33.5535 95.4253 31.9914 93.8632Z" stroke="#3C4D5D" stroke-width="3"/>
<path d="M68.7609 31.6375C73.5928 28.927 83.6809 22.3744 86.7922 19.2631C91.0348 15.0205 84.3173 6.88878 78.6603 14.6669" stroke="#3C4D5D" stroke-width="3" stroke-linecap="round" stroke-linejoin="round"/>
<circle cx="68.761" cy="30.9306" r="4.5" transform="rotate(45 68.761 30.9306)" stroke="#3C4D5D" stroke-width="3"/>
<circle cx="55.3259" cy="55.6796" r="4.5" transform="rotate(45 55.3259 55.6796)" stroke="#3C4D5D" stroke-width="3"/>
<circle cx="33.4055" cy="54.9726" r="4.5" transform="rotate(45 33.4055 54.9726)" stroke="#3C4D5D" stroke-width="3"/>
<path d="M46.2192 40.123C46.2192 39.2946 45.5477 38.623 44.7192 38.623C43.8908 38.623 43.2192 39.2946 43.2192 40.123L46.2192 40.123ZM43.2192 69.8215C43.2192 70.65 43.8908 71.3215 44.7192 71.3215C45.5477 71.3215 46.2192 70.65 46.2192 69.8215L43.2192 69.8215ZM43.2192 40.123L43.2192 69.8215L46.2192 69.8215L46.2192 40.123L43.2192 40.123Z" fill="#3C4D5D"/>
</svg>
