<svg width="100" height="100" viewBox="0 0 100 100" fill="none" xmlns="http://www.w3.org/2000/svg">
<path d="M91 84H8C5.79086 84 4 85.7909 4 88C4 90.2091 5.79086 92 8 92H91C93.2091 92 95 90.2091 95 88C95 85.7909 93.2091 84 91 84Z" fill="#E81E1E"/>
<path d="M90 77H9.5C6.73858 77 4.5 79.2386 4.5 82V87C4.5 89.7614 6.73858 92 9.5 92H90C92.7614 92 95 89.7614 95 87V82C95 79.2386 92.7614 77 90 77Z" stroke="#3C4D5D" stroke-width="3"/>
<circle cx="19.5" cy="84.5" r="3" fill="white" stroke="#3C4D5D" stroke-width="3"/>
<circle cx="34.5" cy="84.5" r="3" fill="white" stroke="#3C4D5D" stroke-width="3"/>
<circle cx="49.5" cy="84.5" r="3" fill="white" stroke="#3C4D5D" stroke-width="3"/>
<circle cx="64.5" cy="84.5" r="3" fill="white" stroke="#3C4D5D" stroke-width="3"/>
<circle cx="79.5" cy="84.5" r="3" fill="white" stroke="#3C4D5D" stroke-width="3"/>
<path d="M81 63.5V76.5H87.5V63.5H83V50H75.5V63.5H81Z" fill="#E81E1E"/>
<path d="M74 76.5H87.5V64.5C87.5 63.9477 87.0523 63.5 86.5 63.5H83M74 76.5H60.5V64.5C60.5 63.9477 60.9477 63.5 61.5 63.5H69.5M74 76.5V63.5M74 63.5H69.5M74 63.5H83M69.5 63.5V50.5C69.5 49.9477 69.9477 49.5 70.5 49.5H82C82.5523 49.5 83 49.9477 83 50.5V63.5" stroke="#3C4D5D" stroke-width="3"/>
<path d="M44 27.2251C44 16.6074 35.9411 8 26 8C44 18 37.5 38 30.4 44H34.8C40.2903 40.7074 44 34.4289 44 27.2251Z" fill="#E81E1E"/>
<path d="M5.5 26.5C5.5 14.902 14.902 5.5 26.5 5.5C38.098 5.5 47.5 14.902 47.5 26.5C47.5 34.2291 43.325 40.9851 37.1004 44.6324H15.8996C9.67497 40.9851 5.5 34.2291 5.5 26.5Z" stroke="#3C4D5D" stroke-width="3"/>
<path d="M26.5 45V29M26.5 29L22 24.5M26.5 29L31 24.5" stroke="#E81E1E" stroke-width="3" stroke-linecap="round"/>
<path d="M20.5 58.9999H19.5C17.2909 58.9999 15.5 57.2091 15.5 54.9999L15.5 54.5M20.5 58.9999V58.9999C20.5 61.4852 22.5147 63.4999 25 63.4999H28C30.4853 63.4999 32.5 61.4852 32.5 58.9999V58.9999M20.5 58.9999H32.5M32.5 58.9999H33.5C35.7091 58.9999 37.5 57.2091 37.5 54.9999V54.5M15.5 49.5L15.5 45H37.5V49.5M15.5 49.5H37.5M15.5 49.5V54.5M37.5 49.5V54.5M15.5 54.5H37.5" stroke="#3C4D5D" stroke-width="3"/>
</svg>
