<svg width="100" height="100" style="width: 100px; height: 100px;" viewBox="0 0 100 100" fill="none" xmlns="http://www.w3.org/2000/svg">
<mask id="mask0" mask-type="alpha" maskUnits="userSpaceOnUse" x="7" y="7" width="77" height="77">
<path d="M45.5 83.5003C66.4869 83.5003 83.5001 66.487 83.5001 45.5001C83.5001 24.5132 66.4869 7.5 45.5 7.5C24.5131 7.5 7.49988 24.5132 7.49988 45.5001C7.49988 66.487 24.5131 83.5003 45.5 83.5003Z" fill="#C4C4C4"/>
</mask>
<g mask="url(#mask0)">
<rect x="65.2261" y="42.3535" width="8.7134" height="62.083" rx="1" fill="#E81E1E"/>
<rect x="44.5317" y="63.0479" width="8.7134" height="62.083" rx="1" fill="#E81E1E"/>
<rect x="26.0157" y="53.2451" width="6.53505" height="62.083" rx="1" fill="#E81E1E"/>
<mask id="path-5-inside-1" fill="white">
<rect x="19.4807" y="51.0674" width="14.1593" height="53.3696" rx="1"/>
</mask>
<rect x="19.4807" y="51.0674" width="14.1593" height="53.3696" rx="1" stroke="#3C4D5D" stroke-width="6" stroke-linejoin="round" mask="url(#path-5-inside-1)"/>
<mask id="path-6-inside-2" fill="white">
<rect x="39.0858" y="60.8691" width="14.1593" height="43.567" rx="1"/>
</mask>
<rect x="39.0858" y="60.8691" width="14.1593" height="43.567" rx="1" stroke="#3C4D5D" stroke-width="6" stroke-linejoin="round" mask="url(#path-6-inside-2)"/>
<mask id="path-7-inside-3" fill="white">
<rect x="59.7802" y="40.1748" width="14.1593" height="64.2613" rx="1"/>
</mask>
<rect x="59.7802" y="40.1748" width="14.1593" height="64.2613" rx="1" stroke="#3C4D5D" stroke-width="6" stroke-linejoin="round" mask="url(#path-7-inside-3)"/>
</g>
<path d="M45.5 83.5003C66.4869 83.5003 83.5001 66.487 83.5001 45.5001C83.5001 24.5132 66.4869 7.5 45.5 7.5C24.5131 7.5 7.49988 24.5132 7.49988 45.5001C7.49988 66.487 24.5131 83.5003 45.5 83.5003Z" stroke="#3C4D5D" stroke-width="3" stroke-linecap="round" stroke-linejoin="round"/>
<path d="M92.9999 93.0005L72.3373 72.3379" stroke="#3C4D5D" stroke-width="3" stroke-linecap="round" stroke-linejoin="round"/>
<path d="M72.3058 18.9365L44.5318 46.7105L26.0159 28.1945L7.49988 46.7105" stroke="#3C4D5D" stroke-width="3" stroke-linecap="round" stroke-linejoin="round"/>
<circle cx="26.0159" cy="30.3726" r="3.94588" fill="#E81E1E" stroke="#3C4D5D" stroke-width="3"/>
<circle cx="44.5318" cy="45.6207" r="3.94588" fill="#E81E1E" stroke="#3C4D5D" stroke-width="3"/>
<circle cx="66.3153" cy="24.9263" r="3.94588" fill="#E81E1E" stroke="#3C4D5D" stroke-width="3"/>
</svg>
