<svg width="168" height="64" viewBox="0 0 168 64" fill="none" xmlns="http://www.w3.org/2000/svg">
<path d="M88.434 31.7418C87.3072 31.7418 86.4949 32.1162 85.6715 32.4978V41.1287C86.4604 41.205 86.9125 41.205 87.6612 41.205C90.3658 41.205 90.7365 39.95 90.7365 38.1975V34.075C90.7365 32.7812 90.3127 31.7418 88.434 31.7418ZM70.4732 31.2709C68.597 31.2709 68.1683 32.315 68.1683 33.6075V34.3337H72.7753V33.6075C72.7753 32.315 72.3473 31.2709 70.4732 31.2709ZM35.6796 40.255C35.6796 41.2775 36.1558 41.8087 37.2068 41.8087C38.3342 41.8087 39.0016 41.4362 39.8244 41.0537V39.0062H37.3591C36.1925 39.0062 35.6796 39.2262 35.6796 40.255ZM105.905 31.7418C104.026 31.7418 103.375 32.7812 103.375 34.075V38.7975C103.375 40.095 104.026 41.1375 105.905 41.1375C107.78 41.1375 108.436 40.095 108.436 38.7975V34.075C108.436 32.7812 107.78 31.7418 105.905 31.7418ZM26.469 45.55H20.9442V31.9984H18.1832V27.3287H20.9442V24.525C20.9442 20.7153 22.5025 18.45 26.931 18.45H30.6181V23.1206H28.3135C26.5893 23.1206 26.4758 23.7731 26.4758 24.9912L26.469 27.3287H30.644L30.1555 31.9984H26.469V45.55ZM45.3513 45.585H40.7468L40.5472 44.405C38.4446 45.585 36.5681 45.7762 35.3302 45.7762C31.9534 45.7762 30.1555 43.49 30.1555 40.3287C30.1555 36.5987 32.2528 35.2675 36.0053 35.2675H39.8244V34.4612C39.8244 32.5578 39.6091 31.9984 36.7198 31.9984H31.9956L32.4576 27.3287H37.6215C43.9614 27.3287 45.3513 29.3581 45.3513 34.4987V45.585ZM61.01 32.3409C58.1445 31.8434 57.3217 31.734 55.9429 31.734C53.4662 31.734 52.7178 32.2878 52.7178 34.4187V38.45C52.7178 40.5812 53.4662 41.1375 55.9429 41.1375C57.3217 41.1375 58.1445 41.0262 61.01 40.5262V45.0812C58.5 45.6512 56.865 45.8012 55.4828 45.8012C49.5509 45.8012 47.193 42.64 47.193 38.0737V34.8025C47.193 30.2321 49.5509 27.0656 55.4828 27.0656C56.865 27.0656 58.5 27.2162 61.01 27.7887V32.3409ZM78.3001 38.0737H68.1683V38.45C68.1683 40.5812 68.9174 41.1375 71.3934 41.1375C73.6194 41.1375 74.9778 41.0262 77.8381 40.5262V45.0812C75.0796 45.6512 73.6422 45.8012 70.9355 45.8012C65.0033 45.8012 62.6442 42.64 62.6442 38.0737V34.3337C62.6442 30.3384 64.3946 27.0656 70.4732 27.0656C76.5519 27.0656 78.3001 30.3003 78.3001 34.3337V38.0737ZM96.2603 38.16C96.2603 42.5737 95.0157 45.7925 87.4743 45.7925C84.7513 45.7925 83.1538 45.55 80.1483 45.0812V19.8521L85.6715 18.9181V27.7431C86.865 27.2937 88.41 27.0656 89.8162 27.0656C95.3401 27.0656 96.2603 29.575 96.2603 33.6075V38.16ZM113.965 38.2562C113.965 42.0637 112.414 45.7562 105.924 45.7562C99.4305 45.7562 97.8504 42.0637 97.8504 38.2562V34.58C97.8504 30.7706 99.4305 27.0775 105.924 27.0775C112.414 27.0775 113.965 30.7706 113.965 34.58V38.2562ZM131.658 38.2562C131.658 42.0637 130.105 45.7562 123.616 45.7562C117.123 45.7562 115.543 42.0637 115.543 38.2562V34.58C115.543 30.7706 117.123 27.0775 123.616 27.0775C130.105 27.0775 131.658 30.7706 131.658 34.58V38.2562ZM149.816 45.55H143.829L138.765 36.985V45.55H133.24V19.8521L138.765 18.9181V35.4612L143.829 27.3287H149.816L144.288 36.2037L149.816 45.55ZM123.598 31.7418C121.721 31.7418 121.07 32.7812 121.07 34.075V38.7975C121.07 40.095 121.721 41.1375 123.598 41.1375C125.471 41.1375 126.134 40.095 126.134 38.7975V34.075C126.134 32.7812 125.471 31.7418 123.598 31.7418Z" fill="#3B5998"/>
<path d="M152.969 42.3538C153.899 42.3538 154.641 43.1225 154.641 44.0825C154.641 45.0575 153.899 45.8175 152.962 45.8175C152.03 45.8175 151.274 45.0575 151.274 44.0825C151.274 43.1225 152.03 42.3538 152.962 42.3538H152.969ZM152.962 42.6225C152.213 42.6225 151.599 43.2763 151.599 44.0825C151.599 44.9038 152.213 45.5488 152.969 45.5488C153.726 45.5563 154.33 44.9038 154.33 44.09C154.33 43.2763 153.726 42.6225 152.969 42.6225H152.962ZM152.644 45.0888H152.341V43.16C152.5 43.1375 152.652 43.115 152.879 43.115C153.167 43.115 153.355 43.1763 153.47 43.26C153.582 43.345 153.642 43.475 153.642 43.6588C153.642 43.9138 153.477 44.0663 153.273 44.1288V44.1438C153.439 44.175 153.552 44.3275 153.59 44.6113C153.635 44.9113 153.68 45.0263 153.711 45.0888H153.393C153.348 45.0263 153.302 44.85 153.264 44.5963C153.22 44.3513 153.097 44.2588 152.854 44.2588H152.644V45.0888ZM152.644 44.0213H152.864C153.112 44.0213 153.324 43.9288 153.324 43.69C153.324 43.5213 153.204 43.3525 152.864 43.3525C152.764 43.3525 152.696 43.36 152.644 43.3675V44.0213Z" fill="#3B5998"/>
</svg>
