<svg width="106" height="36" viewBox="0 0 106 36" fill="none" xmlns="http://www.w3.org/2000/svg">
<path d="M45.1084 18.4618C45.1084 23.4588 41.2152 27.141 36.4374 27.141C31.6596 27.141 27.7665 23.4588 27.7665 18.4618C27.7665 13.4297 31.6596 9.78271 36.4374 9.78271C41.2152 9.78271 45.1084 13.4297 45.1084 18.4618ZM41.3127 18.4618C41.3127 15.3392 39.0563 13.2027 36.4374 13.2027C33.8186 13.2027 31.5622 15.3392 31.5622 18.4618C31.5622 21.5531 33.8186 23.721 36.4374 23.721C39.0563 23.721 41.3127 21.5492 41.3127 18.4618Z" fill="#EA4335"/>
<path d="M63.8143 18.4618C63.8143 23.4588 59.9212 27.141 55.1434 27.141C50.3656 27.141 46.4724 23.4588 46.4724 18.4618C46.4724 13.4336 50.3656 9.78271 55.1434 9.78271C59.9212 9.78271 63.8143 13.4297 63.8143 18.4618ZM60.0186 18.4618C60.0186 15.3392 57.7622 13.2027 55.1434 13.2027C52.5245 13.2027 50.2682 15.3392 50.2682 18.4618C50.2682 21.5531 52.5245 23.721 55.1434 23.721C57.7622 23.721 60.0186 21.5492 60.0186 18.4618Z" fill="#FBBC05"/>
<path d="M81.7408 10.3071V25.8888C81.7408 32.2984 77.9763 34.9162 73.5258 34.9162C69.3365 34.9162 66.8151 32.1027 65.8642 29.8018L69.1689 28.4205C69.7574 29.8331 71.1993 31.5001 73.5219 31.5001C76.3707 31.5001 78.136 29.7353 78.136 26.4131V25.1649H78.0035C77.154 26.2175 75.5172 27.1371 73.4518 27.1371C69.1299 27.1371 65.1705 23.3571 65.1705 18.4931C65.1705 13.594 69.1299 9.78271 73.4518 9.78271C75.5133 9.78271 77.1501 10.7023 78.0035 11.7236H78.136V10.311H81.7408V10.3071ZM78.4049 18.4931C78.4049 15.4371 76.3746 13.2027 73.7908 13.2027C71.172 13.2027 68.978 15.4371 68.978 18.4931C68.978 21.5179 71.172 23.721 73.7908 23.721C76.3746 23.721 78.4049 21.5179 78.4049 18.4931Z" fill="#4285F4"/>
<path d="M87.6838 1.17383V26.6086H83.9816V1.17383H87.6838Z" fill="#34A853"/>
<path d="M102.111 21.3181L105.057 23.2903C104.106 24.7029 101.815 27.1368 97.8551 27.1368C92.9448 27.1368 89.2777 23.3255 89.2777 18.4577C89.2777 13.2964 92.976 9.77856 97.4304 9.77856C101.916 9.77856 104.11 13.3629 104.827 15.2999L105.221 16.286L93.6658 21.0912C94.5504 22.8325 95.9261 23.7207 97.8551 23.7207C99.7881 23.7207 101.129 22.766 102.111 21.3181ZM93.0423 18.1955L100.766 14.9751C100.341 13.8912 99.0632 13.136 97.559 13.136C95.6299 13.136 92.9448 14.846 93.0423 18.1955Z" fill="#EA4335"/>
<path d="M13.7527 16.2038V12.5217H26.1103C26.2311 13.1634 26.2934 13.9225 26.2934 14.7443C26.2934 17.5069 25.5413 20.923 23.1173 23.3569C20.7596 25.8221 17.7472 27.1369 13.7566 27.1369C6.35996 27.1369 0.140259 21.0873 0.140259 13.6604C0.140259 6.2334 6.35996 0.183838 13.7566 0.183838C17.8485 0.183838 20.7635 1.79601 22.9536 3.89732L20.366 6.49558C18.7955 5.01645 16.6677 3.86601 13.7527 3.86601C8.35136 3.86601 4.12695 8.23688 4.12695 13.6604C4.12695 19.0838 8.35136 23.4547 13.7527 23.4547C17.2561 23.4547 19.2514 22.0421 20.5297 20.7586C21.5663 19.7177 22.2483 18.2308 22.5172 16.1999L13.7527 16.2038Z" fill="#4285F4"/>
</svg>
