<svg width="385" height="102" viewBox="0 0 385 102" fill="none" xmlns="http://www.w3.org/2000/svg">
<path d="M0.552 12.872C3.624 12.872 6.12 12.536 8.04 11.864C10.056 11.192 11.688 10.28 12.936 9.128C14.184 7.976 15.192 6.632 15.96 5.096C16.728 3.56 17.4 1.92799 17.976 0.199993H28.632V101H12.792V24.104H0.552V12.872ZM57.6458 12.872C60.7178 12.872 63.2138 12.536 65.1338 11.864C67.1498 11.192 68.7818 10.28 70.0298 9.128C71.2778 7.976 72.2858 6.632 73.0538 5.096C73.8218 3.56 74.4938 1.92799 75.0698 0.199993H85.7258V101H69.8858V24.104H57.6458V12.872ZM151.46 0.199993V14.024L128.132 101H112.292L135.476 14.6H103.939V0.199993H151.46Z" fill="#E81E1E"/>
<path d="M218.097 71.768L228.897 0.199993H250.929V101H235.953V28.712L225.009 101H210.033L198.225 29.72V101H184.401V0.199993H206.433L218.097 71.768ZM306.944 14.6H288.512V75.944C288.512 81.032 287.888 85.208 286.64 88.472C285.392 91.736 283.712 94.328 281.6 96.248C279.488 98.072 277.04 99.368 274.256 100.136C271.568 100.904 268.736 101.288 265.76 101.288C264.32 101.288 263.024 101.288 261.872 101.288C260.72 101.288 259.472 101.192 258.128 101V86.6C258.992 86.696 259.904 86.744 260.864 86.744C261.824 86.744 262.736 86.744 263.6 86.744C266.096 86.744 268.208 86.12 269.936 84.872C271.76 83.624 272.672 81.032 272.672 77.096V0.199993H322.784V101H306.944V14.6ZM350.147 101H334.307V0.199993H350.147V43.4H368.147V0.199993H384.275V101H368.147V57.8H350.147V101Z" fill="#3C4D5D"/>
</svg>
