<svg width="838" height="192" viewBox="0 0 838 192" fill="none" xmlns="http://www.w3.org/2000/svg">
<g opacity="0.5">
<rect x="1" y="22" width="261" height="148" rx="17" fill="white" stroke="#CFD6E6" stroke-width="2"/>
<rect x="18" y="65" width="13" height="13" rx="1" fill="white" stroke="#CFD6E6" stroke-width="2"/>
<rect x="121" y="64" width="15" height="15" rx="2" fill="#E81E1E"/>
<path d="M125.444 71.6529L127.583 73.639L132.167 69.0557" stroke="white" stroke-width="2" stroke-linecap="round" stroke-linejoin="round"/>
<path d="M2 40C2 30.6112 9.61116 23 19 23H244C253.389 23 261 30.6112 261 40V55H2V40Z" fill="#FAFAFA"/>
<path d="M237 41.3333L241 37.3333L245 41.3333" stroke="#415A7D" stroke-width="2" stroke-linecap="round" stroke-linejoin="round"/>
<path d="M26.128 44H24.49V36.104H19.632V44H17.994V34.662H26.128V44ZM31.1212 44.168C30.0759 44.168 29.2359 43.8273 28.6012 43.146C27.9665 42.4553 27.6492 41.6107 27.6492 40.612C27.6492 39.6133 27.9665 38.7733 28.6012 38.092C29.2359 37.4107 30.0759 37.07 31.1212 37.07C32.1759 37.07 33.0205 37.4107 33.6552 38.092C34.2899 38.7733 34.6072 39.6133 34.6072 40.612C34.6072 41.62 34.2899 42.4647 33.6552 43.146C33.0205 43.8273 32.1759 44.168 31.1212 44.168ZM31.1212 42.866C31.7279 42.866 32.2039 42.6513 32.5492 42.222C32.9039 41.7833 33.0812 41.2467 33.0812 40.612C33.0812 39.9867 32.9039 39.4593 32.5492 39.03C32.2039 38.5913 31.7279 38.372 31.1212 38.372C30.5239 38.372 30.0479 38.5913 29.6932 39.03C29.3479 39.4593 29.1752 39.9867 29.1752 40.612C29.1752 41.2467 29.3479 41.7833 29.6932 42.222C30.0479 42.6513 30.5239 42.866 31.1212 42.866ZM35.3946 44.168V42.964C35.6839 42.964 35.9126 42.7773 36.0806 42.404C36.2579 42.0307 36.4026 41.4053 36.5146 40.528L36.9206 37.238H42.1426V44H40.6726V38.526H38.2226L37.9846 40.696C37.8539 41.9093 37.5786 42.7913 37.1586 43.342C36.7386 43.8927 36.1506 44.168 35.3946 44.168ZM45.4936 38.806C45.2976 39.002 45.0689 39.1 44.8076 39.1C44.5463 39.1 44.3176 39.002 44.1216 38.806C43.9256 38.61 43.8276 38.3813 43.8276 38.12C43.8276 37.8587 43.9256 37.63 44.1216 37.434C44.3176 37.238 44.5463 37.14 44.8076 37.14C45.0689 37.14 45.2976 37.238 45.4936 37.434C45.6896 37.63 45.7876 37.8587 45.7876 38.12C45.7876 38.3813 45.6896 38.61 45.4936 38.806ZM45.4936 43.874C45.2976 44.0607 45.0689 44.154 44.8076 44.154C44.5463 44.154 44.3176 44.0607 44.1216 43.874C43.9256 43.678 43.8276 43.4447 43.8276 43.174C43.8276 42.9033 43.9256 42.6747 44.1216 42.488C44.3176 42.292 44.5463 42.194 44.8076 42.194C45.0689 42.194 45.2976 42.292 45.4936 42.488C45.6896 42.6747 45.7876 42.9033 45.7876 43.174C45.7876 43.4447 45.6896 43.678 45.4936 43.874Z" fill="#718AAD"/>
<path d="M58.932 44H57.084L59.954 40.304L57.14 37.238H58.96L61.382 39.884V37.238H62.852V39.884L65.274 37.238H67.094L64.28 40.304L67.15 44H65.302L63.23 41.214L62.852 41.606V44H61.382V41.606L61.004 41.214L58.932 44ZM71.2459 44.168C70.2192 44.168 69.3699 43.8413 68.6979 43.188C68.0352 42.5253 67.7039 41.6667 67.7039 40.612C67.7039 39.6227 68.0259 38.7873 68.6699 38.106C69.3232 37.4153 70.1445 37.07 71.1339 37.07C72.1325 37.07 72.9352 37.4153 73.5419 38.106C74.1579 38.7967 74.4659 39.6787 74.4659 40.752V41.102H69.2439C69.2999 41.634 69.5192 42.0773 69.9019 42.432C70.2845 42.7867 70.7839 42.964 71.3999 42.964C71.7452 42.964 72.0905 42.8987 72.4359 42.768C72.7905 42.6373 73.0845 42.4553 73.3179 42.222L73.9899 43.188C73.3085 43.8413 72.3939 44.168 71.2459 44.168ZM73.0379 40.066C73.0192 39.5993 72.8465 39.184 72.5199 38.82C72.2025 38.456 71.7405 38.274 71.1339 38.274C70.5552 38.274 70.1025 38.456 69.7759 38.82C69.4492 39.1747 69.2672 39.59 69.2299 40.066H73.0379ZM77.3868 44H75.9168V37.238H77.3868V39.898H80.4948V37.238H81.9648V44H80.4948V41.186H77.3868V44ZM91.5739 37.238H93.0439V42.712H93.9259V45.722H92.4559V44H83.8739V37.238H85.3439V42.712H87.7239V37.238H89.1939V42.712H91.5739V37.238ZM96.5398 44H95.1258V37.238H96.5958V41.788L99.7038 37.238H101.174V44H99.7038V39.324L96.5398 44ZM104.553 44H103.083V37.238H104.553V39.898H107.661V37.238H109.131V44H107.661V41.186H104.553V44ZM111.04 37.238H112.51V39.688H114.904C115.623 39.688 116.173 39.8933 116.556 40.304C116.948 40.7147 117.144 41.228 117.144 41.844C117.144 42.4507 116.943 42.964 116.542 43.384C116.15 43.7947 115.604 44 114.904 44H111.04V37.238ZM114.722 40.976H112.51V42.712H114.722C115.011 42.712 115.235 42.6327 115.394 42.474C115.562 42.3153 115.646 42.1053 115.646 41.844C115.646 41.5827 115.562 41.3727 115.394 41.214C115.235 41.0553 115.011 40.976 114.722 40.976ZM119.636 44H118.166V37.238H119.636V44Z" fill="#415A7D"/>
<path d="M50.234 76H49.072V68.314L45.894 76H45.418L42.254 68.314V76H41.092V66.662H42.758L45.656 73.69L48.568 66.662H50.234V76ZM51.9923 78.646L52.1603 77.694C52.3283 77.7687 52.5196 77.806 52.7343 77.806C52.977 77.806 53.1776 77.7547 53.3363 77.652C53.495 77.5493 53.6303 77.3627 53.7423 77.092L54.1903 76.07L51.3623 69.238H52.4963L54.7503 74.782L56.9903 69.238H58.1383L54.7503 77.372C54.377 78.268 53.7143 78.7253 52.7623 78.744C52.4823 78.744 52.2256 78.7113 51.9923 78.646ZM59.7236 76H58.3796L61.3896 72.304L58.3936 69.238H59.7236L62.6356 72.22V69.238H63.6856V72.206L66.5976 69.238H67.9276L64.9176 72.304L67.9416 76H66.5976L64.1616 72.962L63.6856 73.438V76H62.6356V73.438L62.1596 72.962L59.7236 76ZM69.0467 69.238H70.0967V71.142C70.0967 71.7487 70.2367 72.1687 70.5167 72.402C70.7967 72.6353 71.2307 72.752 71.8187 72.752C72.5467 72.752 73.1441 72.6307 73.6107 72.388V69.238H74.6607V76H73.6107V73.242C73.0134 73.5407 72.3274 73.69 71.5527 73.69C70.6754 73.69 70.0361 73.5127 69.6347 73.158C69.2427 72.8033 69.0467 72.2387 69.0467 71.464V69.238ZM77.7689 76H76.7609V69.238H77.8109V74.404L81.3529 69.238H82.3889V76H81.3389V70.736L77.7689 76ZM85.5355 76H84.4855V69.238H85.5355V72.052H89.0635V69.238H90.1135V76H89.0635V72.976H85.5355V76ZM92.2102 69.238H93.2602V71.856H95.7942C96.4662 71.856 96.9888 72.0567 97.3622 72.458C97.7355 72.85 97.9222 73.34 97.9222 73.928C97.9222 74.516 97.7308 75.0107 97.3482 75.412C96.9748 75.804 96.4568 76 95.7942 76H92.2102V69.238ZM95.6822 72.78H93.2602V75.076H95.6822C96.0555 75.076 96.3402 74.9733 96.5362 74.768C96.7415 74.5533 96.8442 74.2733 96.8442 73.928C96.8442 73.5827 96.7415 73.3073 96.5362 73.102C96.3402 72.8873 96.0555 72.78 95.6822 72.78ZM100.078 76H99.0282V69.238H100.078V76Z" fill="black"/>
<path d="M143.68 76H142.238L146.466 71.1L142.574 66.662H144.03L147.782 71.058V66.662H148.944V71.058L152.71 66.662H154.166L150.26 71.1L154.502 76H153.046L149.504 71.8L148.944 72.444V76H147.782V72.444L147.222 71.8L143.68 76ZM158.352 76.168C157.344 76.168 156.518 75.8413 155.874 75.188C155.23 74.5253 154.908 73.6667 154.908 72.612C154.908 71.6227 155.225 70.7873 155.86 70.106C156.495 69.4153 157.288 69.07 158.24 69.07C159.239 69.07 160.027 69.4153 160.606 70.106C161.194 70.7873 161.488 71.6507 161.488 72.696V72.962H156.014C156.061 73.6247 156.303 74.18 156.742 74.628C157.181 75.076 157.75 75.3 158.45 75.3C159.29 75.3 159.985 75.0153 160.536 74.446L161.04 75.132C160.349 75.8227 159.453 76.168 158.352 76.168ZM160.452 72.192C160.443 71.6133 160.247 71.0953 159.864 70.638C159.481 70.1713 158.935 69.938 158.226 69.938C157.554 69.938 157.022 70.1667 156.63 70.624C156.247 71.0813 156.042 71.604 156.014 72.192H160.452ZM164.239 76H163.189V69.238H164.239V72.052H167.767V69.238H168.817V76H167.767V72.976H164.239V76ZM178.725 69.238H179.775V75.076H180.643V77.722H179.593V76H170.913V69.238H171.963V75.076H174.819V69.238H175.869V75.076H178.725V69.238ZM183.091 76H182.083V69.238H183.133V74.404L186.675 69.238H187.711V76H186.661V70.736L183.091 76ZM190.858 76H189.808V69.238H190.858V72.052H194.386V69.238H195.436V76H194.386V72.976H190.858V76ZM197.532 69.238H198.582V71.856H201.116C201.788 71.856 202.311 72.0567 202.684 72.458C203.058 72.85 203.244 73.34 203.244 73.928C203.244 74.516 203.053 75.0107 202.67 75.412C202.297 75.804 201.779 76 201.116 76H197.532V69.238ZM201.004 72.78H198.582V75.076H201.004C201.378 75.076 201.662 74.9733 201.858 74.768C202.064 74.5533 202.166 74.2733 202.166 73.928C202.166 73.5827 202.064 73.3073 201.858 73.102C201.662 72.8873 201.378 72.78 201.004 72.78ZM205.4 76H204.35V69.238H205.4V76Z" fill="black"/>
<path d="M2 89H261V121H2V89Z" fill="#FAFAFA"/>
<path d="M237 106.333L241 102.333L245 106.333" stroke="#415A7D" stroke-width="2" stroke-linecap="round" stroke-linejoin="round"/>
<path d="M26.128 108H24.49V100.104H19.632V108H17.994V98.662H26.128V108ZM31.1212 108.168C30.0759 108.168 29.2359 107.827 28.6012 107.146C27.9665 106.455 27.6492 105.611 27.6492 104.612C27.6492 103.613 27.9665 102.773 28.6012 102.092C29.2359 101.411 30.0759 101.07 31.1212 101.07C32.1759 101.07 33.0205 101.411 33.6552 102.092C34.2899 102.773 34.6072 103.613 34.6072 104.612C34.6072 105.62 34.2899 106.465 33.6552 107.146C33.0205 107.827 32.1759 108.168 31.1212 108.168ZM31.1212 106.866C31.7279 106.866 32.2039 106.651 32.5492 106.222C32.9039 105.783 33.0812 105.247 33.0812 104.612C33.0812 103.987 32.9039 103.459 32.5492 103.03C32.2039 102.591 31.7279 102.372 31.1212 102.372C30.5239 102.372 30.0479 102.591 29.6932 103.03C29.3479 103.459 29.1752 103.987 29.1752 104.612C29.1752 105.247 29.3479 105.783 29.6932 106.222C30.0479 106.651 30.5239 106.866 31.1212 106.866ZM35.3946 108.168V106.964C35.6839 106.964 35.9126 106.777 36.0806 106.404C36.2579 106.031 36.4026 105.405 36.5146 104.528L36.9206 101.238H42.1426V108H40.6726V102.526H38.2226L37.9846 104.696C37.8539 105.909 37.5786 106.791 37.1586 107.342C36.7386 107.893 36.1506 108.168 35.3946 108.168ZM45.4936 102.806C45.2976 103.002 45.0689 103.1 44.8076 103.1C44.5463 103.1 44.3176 103.002 44.1216 102.806C43.9256 102.61 43.8276 102.381 43.8276 102.12C43.8276 101.859 43.9256 101.63 44.1216 101.434C44.3176 101.238 44.5463 101.14 44.8076 101.14C45.0689 101.14 45.2976 101.238 45.4936 101.434C45.6896 101.63 45.7876 101.859 45.7876 102.12C45.7876 102.381 45.6896 102.61 45.4936 102.806ZM45.4936 107.874C45.2976 108.061 45.0689 108.154 44.8076 108.154C44.5463 108.154 44.3176 108.061 44.1216 107.874C43.9256 107.678 43.8276 107.445 43.8276 107.174C43.8276 106.903 43.9256 106.675 44.1216 106.488C44.3176 106.292 44.5463 106.194 44.8076 106.194C45.0689 106.194 45.2976 106.292 45.4936 106.488C45.6896 106.675 45.7876 106.903 45.7876 107.174C45.7876 107.445 45.6896 107.678 45.4936 107.874Z" fill="#718AAD"/>
<path d="M21.326 147H19.688V139.79L18.162 141.372L17.21 140.378L19.898 137.662H21.326V147ZM29.7804 147H23.0184V145.712C24.969 144.237 26.2944 143.145 26.9944 142.436C27.7037 141.717 28.0584 141.041 28.0584 140.406C28.0584 139.949 27.8904 139.599 27.5544 139.356C27.2277 139.104 26.831 138.978 26.3644 138.978C25.3377 138.978 24.4977 139.351 23.8444 140.098L22.8924 139.02C23.2937 138.535 23.7977 138.166 24.4044 137.914C25.0204 137.653 25.6644 137.522 26.3364 137.522C27.2884 137.522 28.091 137.779 28.7444 138.292C29.3977 138.805 29.7244 139.51 29.7244 140.406C29.7244 141.209 29.3884 142.007 28.7164 142.8C28.0444 143.593 27.0177 144.513 25.6364 145.558H29.7804V147Z" fill="#718AAD"/>
<path d="M237.486 147H235.694L239.222 139.104H234.378V137.662H241.112V138.796L237.486 147ZM245.707 147.168C244.205 147.168 243.047 146.687 242.235 145.726L243.173 144.606C243.827 145.343 244.667 145.712 245.693 145.712C246.272 145.712 246.734 145.558 247.079 145.25C247.434 144.933 247.611 144.541 247.611 144.074C247.611 143.57 247.439 143.169 247.093 142.87C246.757 142.562 246.305 142.408 245.735 142.408C244.942 142.408 244.261 142.679 243.691 143.22L242.529 142.884V137.662H248.647V139.104H244.167V141.806C244.709 141.265 245.413 140.994 246.281 140.994C247.103 140.994 247.803 141.269 248.381 141.82C248.969 142.361 249.263 143.089 249.263 144.004C249.263 144.965 248.932 145.735 248.269 146.314C247.616 146.883 246.762 147.168 245.707 147.168Z" fill="#718AAD"/>
<path d="M63.396 108H57.6V106.896C59.272 105.632 60.408 104.696 61.008 104.088C61.616 103.472 61.92 102.892 61.92 102.348C61.92 101.956 61.776 101.656 61.488 101.448C61.208 101.232 60.868 101.124 60.468 101.124C59.588 101.124 58.868 101.444 58.308 102.084L57.492 101.16C57.836 100.744 58.268 100.428 58.788 100.212C59.316 99.988 59.868 99.876 60.444 99.876C61.26 99.876 61.948 100.096 62.508 100.536C63.068 100.976 63.348 101.58 63.348 102.348C63.348 103.036 63.06 103.72 62.484 104.4C61.908 105.08 61.028 105.868 59.844 106.764H63.396V108ZM69.2727 107.784C68.8487 108.024 68.3687 108.144 67.8327 108.144C67.2967 108.144 66.8167 108.024 66.3927 107.784C65.9687 107.544 65.6327 107.224 65.3847 106.824C65.1367 106.424 64.9487 105.984 64.8207 105.504C64.6927 105.024 64.6287 104.524 64.6287 104.004C64.6287 103.484 64.6927 102.984 64.8207 102.504C64.9487 102.024 65.1367 101.588 65.3847 101.196C65.6327 100.796 65.9687 100.476 66.3927 100.236C66.8167 99.996 67.2967 99.876 67.8327 99.876C68.3687 99.876 68.8487 99.996 69.2727 100.236C69.6967 100.476 70.0327 100.796 70.2807 101.196C70.5287 101.588 70.7167 102.024 70.8447 102.504C70.9727 102.984 71.0367 103.484 71.0367 104.004C71.0367 104.524 70.9727 105.024 70.8447 105.504C70.7167 105.984 70.5287 106.424 70.2807 106.824C70.0327 107.224 69.6967 107.544 69.2727 107.784ZM66.4887 106.08C66.7767 106.624 67.2247 106.896 67.8327 106.896C68.4407 106.896 68.8887 106.624 69.1767 106.08C69.4647 105.536 69.6087 104.844 69.6087 104.004C69.6087 103.468 69.5527 102.992 69.4407 102.576C69.3367 102.16 69.1447 101.816 68.8647 101.544C68.5927 101.264 68.2487 101.124 67.8327 101.124C67.4167 101.124 67.0687 101.264 66.7887 101.544C66.5167 101.816 66.3247 102.16 66.2127 102.576C66.1087 102.992 66.0567 103.468 66.0567 104.004C66.0567 104.844 66.2007 105.536 66.4887 106.08ZM74.7713 105.636H71.8913V104.556H74.7713V105.636ZM81.5249 108H75.7289V106.896C77.4009 105.632 78.5369 104.696 79.1369 104.088C79.7449 103.472 80.0489 102.892 80.0489 102.348C80.0489 101.956 79.9049 101.656 79.6169 101.448C79.3369 101.232 78.9969 101.124 78.5969 101.124C77.7169 101.124 76.9969 101.444 76.4369 102.084L75.6209 101.16C75.9649 100.744 76.3969 100.428 76.9169 100.212C77.4449 99.988 77.9969 99.876 78.5729 99.876C79.3889 99.876 80.0769 100.096 80.6369 100.536C81.1969 100.976 81.4769 101.58 81.4769 102.348C81.4769 103.036 81.1889 103.72 80.6129 104.4C80.0369 105.08 79.1569 105.868 77.9729 106.764H81.5249V108ZM88.0136 107.568C87.4296 107.952 86.7056 108.144 85.8416 108.144C84.9776 108.144 84.2496 107.952 83.6576 107.568C83.0656 107.176 82.7696 106.636 82.7696 105.948C82.7696 105.46 82.9376 105.036 83.2736 104.676C83.6176 104.316 84.0496 104.048 84.5696 103.872C84.0736 103.712 83.6696 103.476 83.3576 103.164C83.0536 102.852 82.9016 102.456 82.9016 101.976C82.9016 101.624 82.9856 101.308 83.1536 101.028C83.3296 100.748 83.5576 100.528 83.8376 100.368C84.1256 100.208 84.4376 100.088 84.7736 100.008C85.1176 99.92 85.4736 99.876 85.8416 99.876C86.2096 99.876 86.5616 99.92 86.8976 100.008C87.2336 100.088 87.5456 100.208 87.8336 100.368C88.1216 100.528 88.3496 100.748 88.5176 101.028C88.6936 101.308 88.7816 101.624 88.7816 101.976C88.7816 102.88 88.2216 103.512 87.1016 103.872C87.6216 104.048 88.0496 104.316 88.3856 104.676C88.7296 105.036 88.9016 105.46 88.9016 105.948C88.9016 106.636 88.6056 107.176 88.0136 107.568ZM85.8416 103.32C86.0576 103.28 86.2656 103.228 86.4656 103.164C86.6656 103.092 86.8616 102.972 87.0536 102.804C87.2536 102.628 87.3536 102.424 87.3536 102.192C87.3536 101.864 87.2096 101.604 86.9216 101.412C86.6416 101.22 86.2816 101.124 85.8416 101.124C85.3936 101.124 85.0256 101.22 84.7376 101.412C84.4576 101.604 84.3176 101.864 84.3176 102.192C84.3176 102.424 84.4176 102.628 84.6176 102.804C84.8176 102.972 85.0176 103.092 85.2176 103.164C85.4176 103.228 85.6256 103.28 85.8416 103.32ZM85.8416 106.896C86.2976 106.896 86.6856 106.792 87.0056 106.584C87.3256 106.376 87.4856 106.104 87.4856 105.768C87.4856 105.408 87.2976 105.12 86.9216 104.904C86.5536 104.68 86.1936 104.548 85.8416 104.508C85.6336 104.532 85.4136 104.588 85.1816 104.676C84.9496 104.756 84.7256 104.896 84.5096 105.096C84.2936 105.288 84.1856 105.512 84.1856 105.768C84.1856 106.104 84.3416 106.376 84.6536 106.584C84.9736 106.792 85.3696 106.896 85.8416 106.896ZM93.25 108.168V106.964C93.5394 106.964 93.768 106.777 93.936 106.404C94.1134 106.031 94.258 105.405 94.37 104.528L94.776 101.238H99.998V108H98.528V102.526H96.078L95.84 104.696C95.7094 105.909 95.434 106.791 95.014 107.342C94.594 107.893 94.006 108.168 93.25 108.168ZM105.029 108.168C104.002 108.168 103.153 107.841 102.481 107.188C101.818 106.525 101.487 105.667 101.487 104.612C101.487 103.623 101.809 102.787 102.453 102.106C103.106 101.415 103.928 101.07 104.917 101.07C105.916 101.07 106.718 101.415 107.325 102.106C107.941 102.797 108.249 103.679 108.249 104.752V105.102H103.027C103.083 105.634 103.302 106.077 103.685 106.432C104.068 106.787 104.567 106.964 105.183 106.964C105.528 106.964 105.874 106.899 106.219 106.768C106.574 106.637 106.868 106.455 107.101 106.222L107.773 107.188C107.092 107.841 106.177 108.168 105.029 108.168ZM106.821 104.066C106.802 103.599 106.63 103.184 106.303 102.82C105.986 102.456 105.524 102.274 104.917 102.274C104.338 102.274 103.886 102.456 103.559 102.82C103.232 103.175 103.05 103.59 103.013 104.066H106.821ZM112.402 108H110.932V102.526H109V101.238H114.348V102.526H112.402V108Z" fill="#415A7D"/>
<rect x="38" y="141" width="185" height="6" rx="3" fill="#E1E6F2"/>
<rect x="69" y="141" width="73" height="6" rx="3" fill="#E81E1E"/>
<circle cx="139" cy="144" r="7" fill="white" stroke="#E81E1E" stroke-width="2"/>
<circle cx="73" cy="144" r="7" fill="white" stroke="#E81E1E" stroke-width="2"/>
</g>
<g opacity="0.5">
<rect x="576" y="22" width="261" height="148" rx="17" fill="white" stroke="#CFD6E6" stroke-width="2"/>
<rect x="693" y="111" width="130" height="40" rx="5" fill="white" stroke="#CFD6E6" stroke-width="2"/>
<path d="M810 129.667L806 133.667L802 129.667" stroke="#415A7D" stroke-width="2" stroke-linecap="round" stroke-linejoin="round"/>
<path d="M704.448 135.722V133.062C704.859 133.034 705.185 132.936 705.428 132.768C705.671 132.6 705.89 132.245 706.086 131.704C706.291 131.163 706.459 130.379 706.59 129.352L707.164 124.662H712.876V132.964H713.73V135.722H712.568V134H705.61V135.722H704.448ZM707.738 129.436C707.523 131.237 707.047 132.413 706.31 132.964H711.714V125.698H708.2L707.738 129.436ZM720.543 133.146C719.937 133.827 719.129 134.168 718.121 134.168C717.113 134.168 716.301 133.827 715.685 133.146C715.079 132.465 714.775 131.62 714.775 130.612C714.775 129.604 715.079 128.764 715.685 128.092C716.301 127.411 717.113 127.07 718.121 127.07C719.129 127.07 719.937 127.411 720.543 128.092C721.159 128.764 721.467 129.604 721.467 130.612C721.467 131.62 721.159 132.465 720.543 133.146ZM716.469 132.474C716.88 132.978 717.431 133.23 718.121 133.23C718.812 133.23 719.358 132.978 719.759 132.474C720.161 131.961 720.361 131.34 720.361 130.612C720.361 129.884 720.161 129.268 719.759 128.764C719.358 128.26 718.812 128.008 718.121 128.008C717.431 128.008 716.88 128.265 716.469 128.778C716.068 129.282 715.867 129.893 715.867 130.612C715.867 131.34 716.068 131.961 716.469 132.474ZM722.381 134.168V133.3C722.698 133.3 722.96 133.09 723.165 132.67C723.37 132.25 723.538 131.55 723.669 130.57L724.103 127.238H728.807V134H727.757V128.162H725.027L724.719 130.696C724.57 131.937 724.308 132.829 723.935 133.37C723.562 133.902 723.044 134.168 722.381 134.168ZM731.394 134H730.05L733.06 130.304L730.064 127.238H731.394L734.306 130.22V127.238H735.356V130.206L738.268 127.238H739.598L736.588 130.304L739.612 134H738.268L735.832 130.962L735.356 131.438V134H734.306V131.438L733.83 130.962L731.394 134ZM741.907 134H740.857V127.238H741.907V130.052H745.435V127.238H746.485V134H745.435V130.976H741.907V134ZM753.957 133.146C753.351 133.827 752.543 134.168 751.535 134.168C750.527 134.168 749.715 133.827 749.099 133.146C748.493 132.465 748.189 131.62 748.189 130.612C748.189 129.604 748.493 128.764 749.099 128.092C749.715 127.411 750.527 127.07 751.535 127.07C752.543 127.07 753.351 127.411 753.957 128.092C754.573 128.764 754.881 129.604 754.881 130.612C754.881 131.62 754.573 132.465 753.957 133.146ZM749.883 132.474C750.294 132.978 750.845 133.23 751.535 133.23C752.226 133.23 752.772 132.978 753.173 132.474C753.575 131.961 753.775 131.34 753.775 130.612C753.775 129.884 753.575 129.268 753.173 128.764C752.772 128.26 752.226 128.008 751.535 128.008C750.845 128.008 750.294 128.265 749.883 128.778C749.482 129.282 749.281 129.893 749.281 130.612C749.281 131.34 749.482 131.961 749.883 132.474ZM759.575 134.168C758.576 134.168 757.764 133.832 757.139 133.16C756.514 132.479 756.201 131.629 756.201 130.612C756.201 129.595 756.514 128.75 757.139 128.078C757.764 127.406 758.576 127.07 759.575 127.07C760.62 127.07 761.446 127.462 762.053 128.246L761.353 128.89C760.924 128.302 760.35 128.008 759.631 128.008C758.922 128.008 758.352 128.251 757.923 128.736C757.503 129.221 757.293 129.847 757.293 130.612C757.293 131.377 757.503 132.007 757.923 132.502C758.352 132.987 758.922 133.23 759.631 133.23C760.34 133.23 760.914 132.936 761.353 132.348L762.053 132.992C761.446 133.776 760.62 134.168 759.575 134.168ZM765.807 134H764.757V128.162H762.797V127.238H767.781V128.162H765.807V134ZM769.157 127.238H770.207V129.856H772.741C773.413 129.856 773.936 130.057 774.309 130.458C774.683 130.85 774.869 131.34 774.869 131.928C774.869 132.516 774.678 133.011 774.295 133.412C773.922 133.804 773.404 134 772.741 134H769.157V127.238ZM772.629 130.78H770.207V133.076H772.629C773.003 133.076 773.287 132.973 773.483 132.768C773.689 132.553 773.791 132.273 773.791 131.928C773.791 131.583 773.689 131.307 773.483 131.102C773.287 130.887 773.003 130.78 772.629 130.78Z" fill="#CFD6E6"/>
<rect x="592" y="71" width="15" height="15" rx="7.5" fill="white" stroke="#CFD6E6" stroke-width="2"/>
<path d="M577 40C577 30.6112 584.611 23 594 23H819C828.389 23 836 30.6112 836 40V55H577V40Z" fill="#FAFAFA"/>
<path d="M812 41.3333L816 37.3333L820 41.3333" stroke="#415A7D" stroke-width="2" stroke-linecap="round" stroke-linejoin="round"/>
<path d="M600.778 42.81C599.882 43.7153 598.739 44.168 597.348 44.168C595.957 44.168 594.814 43.7153 593.918 42.81C593.022 41.8953 592.574 40.738 592.574 39.338C592.574 37.938 593.022 36.7853 593.918 35.88C594.814 34.9653 595.957 34.508 597.348 34.508C598.739 34.508 599.882 34.9653 600.778 35.88C601.674 36.7853 602.122 37.938 602.122 39.338C602.122 40.738 601.674 41.8953 600.778 42.81ZM597.348 42.712C598.272 42.712 599.019 42.3947 599.588 41.76C600.157 41.116 600.442 40.3087 600.442 39.338C600.442 38.358 600.157 37.5507 599.588 36.916C599.019 36.2813 598.272 35.964 597.348 35.964C596.415 35.964 595.663 36.2813 595.094 36.916C594.534 37.5507 594.254 38.358 594.254 39.338C594.254 40.318 594.534 41.1253 595.094 41.76C595.663 42.3947 596.415 42.712 597.348 42.712ZM606.709 42.866C607.316 42.866 607.792 42.6467 608.137 42.208C608.492 41.7693 608.669 41.228 608.669 40.584C608.669 39.968 608.492 39.4453 608.137 39.016C607.792 38.5867 607.316 38.372 606.709 38.372C606.112 38.372 605.636 38.5867 605.281 39.016C604.936 39.4453 604.763 39.968 604.763 40.584C604.763 41.228 604.936 41.7693 605.281 42.208C605.636 42.6467 606.112 42.866 606.709 42.866ZM609.243 43.132C608.618 43.8227 607.773 44.168 606.709 44.168C605.645 44.168 604.8 43.8087 604.175 43.09C603.559 42.362 603.251 41.4333 603.251 40.304C603.251 38.6893 603.526 37.4853 604.077 36.692C604.637 35.8987 605.496 35.432 606.653 35.292C607.353 35.1893 607.834 35.0913 608.095 34.998C608.366 34.9047 608.501 34.7927 608.501 34.662H609.943C609.943 35.642 608.982 36.2393 607.059 36.454C606.303 36.538 605.72 36.748 605.309 37.084C604.908 37.4107 604.656 37.8027 604.553 38.26C604.824 37.8867 605.174 37.5973 605.603 37.392C606.042 37.1773 606.504 37.07 606.989 37.07C607.922 37.07 608.688 37.4153 609.285 38.106C609.882 38.7967 610.181 39.6273 610.181 40.598C610.181 41.5967 609.868 42.4413 609.243 43.132ZM615.377 44.168C614.481 44.168 613.758 43.7993 613.207 43.062V46.576H611.737V37.238H613.207V38.162C613.748 37.434 614.472 37.07 615.377 37.07C616.264 37.07 616.982 37.3873 617.533 38.022C618.093 38.6567 618.373 39.52 618.373 40.612C618.373 41.704 618.093 42.572 617.533 43.216C616.982 43.8507 616.264 44.168 615.377 44.168ZM614.943 42.866C615.522 42.866 615.984 42.656 616.329 42.236C616.674 41.816 616.847 41.2747 616.847 40.612C616.847 39.9493 616.674 39.4127 616.329 39.002C615.984 38.582 615.522 38.372 614.943 38.372C614.607 38.372 614.276 38.4607 613.949 38.638C613.622 38.8153 613.375 39.03 613.207 39.282V41.956C613.375 42.208 613.622 42.4227 613.949 42.6C614.276 42.7773 614.607 42.866 614.943 42.866ZM625.431 44H623.961V43.272C623.438 43.8693 622.71 44.168 621.777 44.168C621.161 44.168 620.615 43.972 620.139 43.58C619.663 43.1787 619.425 42.628 619.425 41.928C619.425 41.2093 619.658 40.6633 620.125 40.29C620.601 39.9167 621.152 39.73 621.777 39.73C622.738 39.73 623.466 40.0193 623.961 40.598V39.59C623.961 39.198 623.816 38.89 623.527 38.666C623.238 38.442 622.855 38.33 622.379 38.33C621.623 38.33 620.956 38.6147 620.377 39.184L619.775 38.162C620.54 37.434 621.488 37.07 622.617 37.07C623.448 37.07 624.124 37.266 624.647 37.658C625.17 38.05 625.431 38.6707 625.431 39.52V44ZM622.351 43.16C623.088 43.16 623.625 42.9267 623.961 42.46V41.438C623.625 40.9713 623.088 40.738 622.351 40.738C621.931 40.738 621.586 40.85 621.315 41.074C621.044 41.298 620.909 41.592 620.909 41.956C620.909 42.32 621.044 42.614 621.315 42.838C621.586 43.0527 621.931 43.16 622.351 43.16ZM629.773 44.168C628.447 44.168 627.411 43.804 626.665 43.076L627.351 42.138C627.967 42.6887 628.774 42.964 629.773 42.964C630.286 42.964 630.687 42.8847 630.977 42.726C631.275 42.558 631.425 42.334 631.425 42.054C631.425 41.466 630.832 41.172 629.647 41.172H628.205V39.996H629.647C630.16 39.996 630.561 39.9213 630.851 39.772C631.149 39.6227 631.299 39.4033 631.299 39.114C631.299 38.8713 631.145 38.6707 630.837 38.512C630.529 38.3533 630.141 38.274 629.675 38.274C628.769 38.274 628.046 38.5447 627.505 39.086L626.777 38.19C627.495 37.4527 628.438 37.084 629.605 37.084C630.603 37.0747 631.387 37.238 631.957 37.574C632.535 37.9007 632.825 38.3487 632.825 38.918C632.825 39.3473 632.643 39.7113 632.279 40.01C631.924 40.2993 631.509 40.4767 631.033 40.542C631.509 40.5793 631.947 40.738 632.349 41.018C632.759 41.298 632.965 41.6807 632.965 42.166C632.965 42.754 632.675 43.2347 632.097 43.608C631.527 43.9813 630.753 44.168 629.773 44.168ZM637.498 44.168C636.453 44.168 635.613 43.8273 634.978 43.146C634.343 42.4553 634.026 41.6107 634.026 40.612C634.026 39.6133 634.343 38.7733 634.978 38.092C635.613 37.4107 636.453 37.07 637.498 37.07C638.553 37.07 639.397 37.4107 640.032 38.092C640.667 38.7733 640.984 39.6133 640.984 40.612C640.984 41.62 640.667 42.4647 640.032 43.146C639.397 43.8273 638.553 44.168 637.498 44.168ZM637.498 42.866C638.105 42.866 638.581 42.6513 638.926 42.222C639.281 41.7833 639.458 41.2467 639.458 40.612C639.458 39.9867 639.281 39.4593 638.926 39.03C638.581 38.5913 638.105 38.372 637.498 38.372C636.901 38.372 636.425 38.5913 636.07 39.03C635.725 39.4593 635.552 39.9867 635.552 40.612C635.552 41.2467 635.725 41.7833 636.07 42.222C636.425 42.6513 636.901 42.866 637.498 42.866ZM646.616 44H642.472V37.238H646.518C647.143 37.238 647.633 37.4013 647.988 37.728C648.342 38.0547 648.52 38.47 648.52 38.974C648.52 39.366 648.412 39.6973 648.198 39.968C647.983 40.2387 647.712 40.4207 647.386 40.514C647.75 40.598 648.053 40.7987 648.296 41.116C648.538 41.424 648.66 41.774 648.66 42.166C648.66 42.7073 648.478 43.1507 648.114 43.496C647.759 43.832 647.26 44 646.616 44ZM646.308 42.712C646.569 42.712 646.774 42.6467 646.924 42.516C647.073 42.376 647.148 42.1893 647.148 41.956C647.148 41.7413 647.073 41.5593 646.924 41.41C646.774 41.2607 646.569 41.186 646.308 41.186H643.942V42.712H646.308ZM646.266 39.898C646.499 39.898 646.681 39.8373 646.812 39.716C646.952 39.5853 647.022 39.422 647.022 39.226C647.022 39.0113 646.952 38.8433 646.812 38.722C646.681 38.5913 646.499 38.526 646.266 38.526H643.942V39.898H646.266ZM656.083 44H654.613V43.272C654.091 43.8693 653.363 44.168 652.429 44.168C651.813 44.168 651.267 43.972 650.791 43.58C650.315 43.1787 650.077 42.628 650.077 41.928C650.077 41.2093 650.311 40.6633 650.777 40.29C651.253 39.9167 651.804 39.73 652.429 39.73C653.391 39.73 654.119 40.0193 654.613 40.598V39.59C654.613 39.198 654.469 38.89 654.179 38.666C653.89 38.442 653.507 38.33 653.031 38.33C652.275 38.33 651.608 38.6147 651.029 39.184L650.427 38.162C651.193 37.434 652.14 37.07 653.269 37.07C654.1 37.07 654.777 37.266 655.299 37.658C655.822 38.05 656.083 38.6707 656.083 39.52V44ZM653.003 43.16C653.741 43.16 654.277 42.9267 654.613 42.46V41.438C654.277 40.9713 653.741 40.738 653.003 40.738C652.583 40.738 652.238 40.85 651.967 41.074C651.697 41.298 651.561 41.592 651.561 41.956C651.561 42.32 651.697 42.614 651.967 42.838C652.238 43.0527 652.583 43.16 653.003 43.16ZM659.459 44H657.989V37.238H659.459V39.898H662.567V37.238H664.037V44H662.567V41.186H659.459V44ZM667.36 44H665.946V37.238H667.416V41.788L670.524 37.238H671.994V44H670.524V39.324L667.36 44ZM677.025 44.168C675.999 44.168 675.149 43.8413 674.477 43.188C673.815 42.5253 673.483 41.6667 673.483 40.612C673.483 39.6227 673.805 38.7873 674.449 38.106C675.103 37.4153 675.924 37.07 676.913 37.07C677.912 37.07 678.715 37.4153 679.321 38.106C679.937 38.7967 680.245 39.6787 680.245 40.752V41.102H675.023C675.079 41.634 675.299 42.0773 675.681 42.432C676.064 42.7867 676.563 42.964 677.179 42.964C677.525 42.964 677.87 42.8987 678.215 42.768C678.57 42.6373 678.864 42.4553 679.097 42.222L679.769 43.188C679.088 43.8413 678.173 44.168 677.025 44.168ZM678.817 40.066C678.799 39.5993 678.626 39.184 678.299 38.82C677.982 38.456 677.52 38.274 676.913 38.274C676.335 38.274 675.882 38.456 675.555 38.82C675.229 39.1747 675.047 39.59 675.009 40.066H678.817ZM686.706 44H685.292V37.238H686.762V41.788L689.87 37.238H691.34V44H689.87V39.324L686.706 44ZM700.485 44.168C699.589 44.168 698.865 43.7993 698.315 43.062V46.576H696.845V37.238H698.315V38.162C698.856 37.434 699.579 37.07 700.485 37.07C701.371 37.07 702.09 37.3873 702.641 38.022C703.201 38.6567 703.481 39.52 703.481 40.612C703.481 41.704 703.201 42.572 702.641 43.216C702.09 43.8507 701.371 44.168 700.485 44.168ZM700.051 42.866C700.629 42.866 701.091 42.656 701.437 42.236C701.782 41.816 701.955 41.2747 701.955 40.612C701.955 39.9493 701.782 39.4127 701.437 39.002C701.091 38.582 700.629 38.372 700.051 38.372C699.715 38.372 699.383 38.4607 699.057 38.638C698.73 38.8153 698.483 39.03 698.315 39.282V41.956C698.483 42.208 698.73 42.4227 699.057 42.6C699.383 42.7773 699.715 42.866 700.051 42.866ZM710.538 44H709.068V43.272C708.546 43.8693 707.818 44.168 706.884 44.168C706.268 44.168 705.722 43.972 705.246 43.58C704.77 43.1787 704.532 42.628 704.532 41.928C704.532 41.2093 704.766 40.6633 705.232 40.29C705.708 39.9167 706.259 39.73 706.884 39.73C707.846 39.73 708.574 40.0193 709.068 40.598V39.59C709.068 39.198 708.924 38.89 708.634 38.666C708.345 38.442 707.962 38.33 707.486 38.33C706.73 38.33 706.063 38.6147 705.484 39.184L704.882 38.162C705.648 37.434 706.595 37.07 707.724 37.07C708.555 37.07 709.232 37.266 709.754 37.658C710.277 38.05 710.538 38.6707 710.538 39.52V44ZM707.458 43.16C708.196 43.16 708.732 42.9267 709.068 42.46V41.438C708.732 40.9713 708.196 40.738 707.458 40.738C707.038 40.738 706.693 40.85 706.422 41.074C706.152 41.298 706.016 41.592 706.016 41.956C706.016 42.32 706.152 42.614 706.422 42.838C706.693 43.0527 707.038 43.16 707.458 43.16ZM715.496 42.866C716.103 42.866 716.579 42.6467 716.924 42.208C717.279 41.7693 717.456 41.228 717.456 40.584C717.456 39.968 717.279 39.4453 716.924 39.016C716.579 38.5867 716.103 38.372 715.496 38.372C714.899 38.372 714.423 38.5867 714.068 39.016C713.723 39.4453 713.55 39.968 713.55 40.584C713.55 41.228 713.723 41.7693 714.068 42.208C714.423 42.6467 714.899 42.866 715.496 42.866ZM718.03 43.132C717.405 43.8227 716.56 44.168 715.496 44.168C714.432 44.168 713.588 43.8087 712.962 43.09C712.346 42.362 712.038 41.4333 712.038 40.304C712.038 38.6893 712.314 37.4853 712.864 36.692C713.424 35.8987 714.283 35.432 715.44 35.292C716.14 35.1893 716.621 35.0913 716.882 34.998C717.153 34.9047 717.288 34.7927 717.288 34.662H718.73C718.73 35.642 717.769 36.2393 715.846 36.454C715.09 36.538 714.507 36.748 714.096 37.084C713.695 37.4107 713.443 37.8027 713.34 38.26C713.611 37.8867 713.961 37.5973 714.39 37.392C714.829 37.1773 715.291 37.07 715.776 37.07C716.71 37.07 717.475 37.4153 718.072 38.106C718.67 38.7967 718.968 39.6273 718.968 40.598C718.968 41.5967 718.656 42.4413 718.03 43.132ZM723.576 44.168C722.531 44.168 721.691 43.8273 721.056 43.146C720.422 42.4553 720.104 41.6107 720.104 40.612C720.104 39.6133 720.422 38.7733 721.056 38.092C721.691 37.4107 722.531 37.07 723.576 37.07C724.631 37.07 725.476 37.4107 726.11 38.092C726.745 38.7733 727.062 39.6133 727.062 40.612C727.062 41.62 726.745 42.4647 726.11 43.146C725.476 43.8273 724.631 44.168 723.576 44.168ZM723.576 42.866C724.183 42.866 724.659 42.6513 725.004 42.222C725.359 41.7833 725.536 41.2467 725.536 40.612C725.536 39.9867 725.359 39.4593 725.004 39.03C724.659 38.5913 724.183 38.372 723.576 38.372C722.979 38.372 722.503 38.5913 722.148 39.03C721.803 39.4593 721.63 39.9867 721.63 40.612C721.63 41.2467 721.803 41.7833 722.148 42.222C722.503 42.6513 722.979 42.866 723.576 42.866ZM731.252 44H729.782V38.526H727.85V37.238H733.198V38.526H731.252V44ZM740.001 44H738.531V43.272C738.009 43.8693 737.281 44.168 736.347 44.168C735.731 44.168 735.185 43.972 734.709 43.58C734.233 43.1787 733.995 42.628 733.995 41.928C733.995 41.2093 734.229 40.6633 734.695 40.29C735.171 39.9167 735.722 39.73 736.347 39.73C737.309 39.73 738.037 40.0193 738.531 40.598V39.59C738.531 39.198 738.387 38.89 738.097 38.666C737.808 38.442 737.425 38.33 736.949 38.33C736.193 38.33 735.526 38.6147 734.947 39.184L734.345 38.162C735.111 37.434 736.058 37.07 737.187 37.07C738.018 37.07 738.695 37.266 739.217 37.658C739.74 38.05 740.001 38.6707 740.001 39.52V44ZM736.921 43.16C737.659 43.16 738.195 42.9267 738.531 42.46V41.438C738.195 40.9713 737.659 40.738 736.921 40.738C736.501 40.738 736.156 40.85 735.885 41.074C735.615 41.298 735.479 41.592 735.479 41.956C735.479 42.32 735.615 42.614 735.885 42.838C736.156 43.0527 736.501 43.16 736.921 43.16ZM743.349 38.806C743.153 39.002 742.924 39.1 742.663 39.1C742.402 39.1 742.173 39.002 741.977 38.806C741.781 38.61 741.683 38.3813 741.683 38.12C741.683 37.8587 741.781 37.63 741.977 37.434C742.173 37.238 742.402 37.14 742.663 37.14C742.924 37.14 743.153 37.238 743.349 37.434C743.545 37.63 743.643 37.8587 743.643 38.12C743.643 38.3813 743.545 38.61 743.349 38.806ZM743.349 43.874C743.153 44.0607 742.924 44.154 742.663 44.154C742.402 44.154 742.173 44.0607 741.977 43.874C741.781 43.678 741.683 43.4447 741.683 43.174C741.683 42.9033 741.781 42.6747 741.977 42.488C742.173 42.292 742.402 42.194 742.663 42.194C742.924 42.194 743.153 42.292 743.349 42.488C743.545 42.6747 743.643 42.9033 743.643 43.174C743.643 43.4447 743.545 43.678 743.349 43.874Z" fill="#718AAD"/>
<path d="M697.712 83H692.994V73.662H697.586C698.417 73.662 699.065 73.8907 699.532 74.348C700.008 74.796 700.246 75.3607 700.246 76.042C700.246 76.602 700.087 77.078 699.77 77.47C699.462 77.8527 699.079 78.0907 698.622 78.184C699.126 78.2587 699.551 78.52 699.896 78.968C700.251 79.4067 700.428 79.9107 700.428 80.48C700.428 81.2267 700.185 81.8333 699.7 82.3C699.224 82.7667 698.561 83 697.712 83ZM697.25 77.526C697.661 77.526 697.983 77.414 698.216 77.19C698.449 76.966 698.566 76.6767 698.566 76.322C698.566 75.958 698.449 75.664 698.216 75.44C697.983 75.216 697.661 75.104 697.25 75.104H694.632V77.526H697.25ZM697.32 81.558C697.768 81.558 698.118 81.446 698.37 81.222C698.622 80.9887 698.748 80.6667 698.748 80.256C698.748 79.892 698.622 79.5887 698.37 79.346C698.118 79.094 697.768 78.968 697.32 78.968H694.632V81.558H697.32ZM706.174 83H702.03V76.238H706.076C706.701 76.238 707.191 76.4013 707.546 76.728C707.901 77.0547 708.078 77.47 708.078 77.974C708.078 78.366 707.971 78.6973 707.756 78.968C707.541 79.2387 707.271 79.4207 706.944 79.514C707.308 79.598 707.611 79.7987 707.854 80.116C708.097 80.424 708.218 80.774 708.218 81.166C708.218 81.7073 708.036 82.1507 707.672 82.496C707.317 82.832 706.818 83 706.174 83ZM705.866 81.712C706.127 81.712 706.333 81.6467 706.482 81.516C706.631 81.376 706.706 81.1893 706.706 80.956C706.706 80.7413 706.631 80.5593 706.482 80.41C706.333 80.2607 706.127 80.186 705.866 80.186H703.5V81.712H705.866ZM705.824 78.898C706.057 78.898 706.239 78.8373 706.37 78.716C706.51 78.5853 706.58 78.422 706.58 78.226C706.58 78.0113 706.51 77.8433 706.37 77.722C706.239 77.5913 706.057 77.526 705.824 77.526H703.5V78.898H705.824ZM713.164 83.168C712.137 83.168 711.288 82.8413 710.616 82.188C709.953 81.5253 709.622 80.6667 709.622 79.612C709.622 78.6227 709.944 77.7873 710.588 77.106C711.241 76.4153 712.063 76.07 713.052 76.07C714.051 76.07 714.853 76.4153 715.46 77.106C716.076 77.7967 716.384 78.6787 716.384 79.752V80.102H711.162C711.218 80.634 711.437 81.0773 711.82 81.432C712.203 81.7867 712.702 81.964 713.318 81.964C713.663 81.964 714.009 81.8987 714.354 81.768C714.709 81.6373 715.003 81.4553 715.236 81.222L715.908 82.188C715.227 82.8413 714.312 83.168 713.164 83.168ZM714.956 79.066C714.937 78.5993 714.765 78.184 714.438 77.82C714.121 77.456 713.659 77.274 713.052 77.274C712.473 77.274 712.021 77.456 711.694 77.82C711.367 78.1747 711.185 78.59 711.148 79.066H714.956ZM717.135 84.722V81.782C717.452 81.7073 717.69 81.5253 717.849 81.236C718.017 80.9373 718.152 80.368 718.255 79.528L718.661 76.238H723.883V81.712H724.625V84.722H723.155V83H718.605V84.722H717.135ZM719.963 77.526L719.725 79.696C719.631 80.592 719.333 81.264 718.829 81.712H722.413V77.526H719.963ZM727.247 83H725.833V76.238H727.303V80.788L730.411 76.238H731.881V83H730.411V78.324L727.247 83ZM736.492 83H735.022V77.526H733.09V76.238H738.438V77.526H736.492V83ZM742.763 83.168C741.737 83.168 740.887 82.8413 740.215 82.188C739.553 81.5253 739.221 80.6667 739.221 79.612C739.221 78.6227 739.543 77.7873 740.187 77.106C740.841 76.4153 741.662 76.07 742.651 76.07C743.65 76.07 744.453 76.4153 745.059 77.106C745.675 77.7967 745.983 78.6787 745.983 79.752V80.102H740.761C740.817 80.634 741.037 81.0773 741.419 81.432C741.802 81.7867 742.301 81.964 742.917 81.964C743.263 81.964 743.608 81.8987 743.953 81.768C744.308 81.6373 744.602 81.4553 744.835 81.222L745.507 82.188C744.826 82.8413 743.911 83.168 742.763 83.168ZM744.555 79.066C744.537 78.5993 744.364 78.184 744.037 77.82C743.72 77.456 743.258 77.274 742.651 77.274C742.073 77.274 741.62 77.456 741.293 77.82C740.967 78.1747 740.785 78.59 740.747 79.066H744.555ZM750.33 84.722V81.782C750.647 81.7073 750.885 81.5253 751.044 81.236C751.212 80.9373 751.347 80.368 751.45 79.528L751.856 76.238H757.078V81.712H757.82V84.722H756.35V83H751.8V84.722H750.33ZM753.158 77.526L752.92 79.696C752.827 80.592 752.528 81.264 752.024 81.712H755.608V77.526H753.158ZM762.08 83.168C761.035 83.168 760.195 82.8273 759.56 82.146C758.926 81.4553 758.608 80.6107 758.608 79.612C758.608 78.6133 758.926 77.7733 759.56 77.092C760.195 76.4107 761.035 76.07 762.08 76.07C763.135 76.07 763.98 76.4107 764.614 77.092C765.249 77.7733 765.566 78.6133 765.566 79.612C765.566 80.62 765.249 81.4647 764.614 82.146C763.98 82.8273 763.135 83.168 762.08 83.168ZM762.08 81.866C762.687 81.866 763.163 81.6513 763.508 81.222C763.863 80.7833 764.04 80.2467 764.04 79.612C764.04 78.9867 763.863 78.4593 763.508 78.03C763.163 77.5913 762.687 77.372 762.08 77.372C761.483 77.372 761.007 77.5913 760.652 78.03C760.307 78.4593 760.134 78.9867 760.134 79.612C760.134 80.2467 760.307 80.7833 760.652 81.222C761.007 81.6513 761.483 81.866 762.08 81.866ZM766.354 83.168V81.964C766.643 81.964 766.872 81.7773 767.04 81.404C767.217 81.0307 767.362 80.4053 767.474 79.528L767.88 76.238H773.102V83H771.632V77.526H769.182L768.944 79.696C768.813 80.9093 768.538 81.7913 768.118 82.342C767.698 82.8927 767.11 83.168 766.354 83.168ZM775.991 83H774.143L777.013 79.304L774.199 76.238H776.019L778.441 78.884V76.238H779.911V78.884L782.333 76.238H784.153L781.339 79.304L784.209 83H782.361L780.289 80.214L779.911 80.606V83H778.441V80.606L778.063 80.214L775.991 83ZM786.721 83H785.251V76.238H786.721V78.898H789.829V76.238H791.299V83H789.829V80.186H786.721V83ZM796.26 83.168C795.215 83.168 794.375 82.8273 793.74 82.146C793.105 81.4553 792.788 80.6107 792.788 79.612C792.788 78.6133 793.105 77.7733 793.74 77.092C794.375 76.4107 795.215 76.07 796.26 76.07C797.315 76.07 798.159 76.4107 798.794 77.092C799.429 77.7733 799.746 78.6133 799.746 79.612C799.746 80.62 799.429 81.4647 798.794 82.146C798.159 82.8273 797.315 83.168 796.26 83.168ZM796.26 81.866C796.867 81.866 797.343 81.6513 797.688 81.222C798.043 80.7833 798.22 80.2467 798.22 79.612C798.22 78.9867 798.043 78.4593 797.688 78.03C797.343 77.5913 796.867 77.372 796.26 77.372C795.663 77.372 795.187 77.5913 794.832 78.03C794.487 78.4593 794.314 78.9867 794.314 79.612C794.314 80.2467 794.487 80.7833 794.832 81.222C795.187 81.6513 795.663 81.866 796.26 81.866ZM804.313 83.168C803.287 83.168 802.447 82.8367 801.793 82.174C801.14 81.502 800.813 80.648 800.813 79.612C800.813 78.5853 801.14 77.7407 801.793 77.078C802.447 76.406 803.287 76.07 804.313 76.07C805.443 76.07 806.306 76.4713 806.903 77.274L805.937 78.17C805.564 77.638 805.046 77.372 804.383 77.372C803.767 77.372 803.273 77.582 802.899 78.002C802.526 78.4127 802.339 78.9493 802.339 79.612C802.339 80.2747 802.526 80.816 802.899 81.236C803.273 81.656 803.767 81.866 804.383 81.866C805.027 81.866 805.545 81.6 805.937 81.068L806.903 81.964C806.306 82.7667 805.443 83.168 804.313 83.168ZM810.894 83H809.424V77.526H807.492V76.238H812.84V77.526H810.894V83ZM814.044 76.238H815.514V78.688H817.908C818.626 78.688 819.177 78.8933 819.56 79.304C819.952 79.7147 820.148 80.228 820.148 80.844C820.148 81.4507 819.947 81.964 819.546 82.384C819.154 82.7947 818.608 83 817.908 83H814.044V76.238ZM817.726 79.976H815.514V81.712H817.726C818.015 81.712 818.239 81.6327 818.398 81.474C818.566 81.3153 818.65 81.1053 818.65 80.844C818.65 80.5827 818.566 80.3727 818.398 80.214C818.239 80.0553 818.015 79.976 817.726 79.976Z" fill="#718AAD"/>
<path d="M615.448 83.168V82.132C615.849 82.132 616.176 82.0387 616.428 81.852C616.68 81.6653 616.904 81.2967 617.1 80.746C617.296 80.186 617.459 79.388 617.59 78.352L618.164 73.662H623.876V83H622.714V74.698H619.2L618.738 78.436C618.617 79.4347 618.453 80.256 618.248 80.9C618.052 81.544 617.805 82.0293 617.506 82.356C617.217 82.6733 616.913 82.888 616.596 83C616.288 83.112 615.905 83.168 615.448 83.168ZM631.687 83.168C630.753 83.168 629.983 82.8693 629.377 82.272C628.779 81.6653 628.443 80.9 628.369 79.976H627.067V83H626.017V76.238H627.067V79.052H628.383C628.495 78.184 628.845 77.47 629.433 76.91C630.03 76.35 630.781 76.07 631.687 76.07C632.695 76.07 633.507 76.4107 634.123 77.092C634.739 77.764 635.047 78.604 635.047 79.612C635.047 80.62 634.739 81.4647 634.123 82.146C633.507 82.8273 632.695 83.168 631.687 83.168ZM631.687 82.23C632.387 82.23 632.937 81.978 633.339 81.474C633.74 80.9607 633.941 80.34 633.941 79.612C633.941 78.884 633.74 78.268 633.339 77.764C632.937 77.26 632.387 77.008 631.687 77.008C631.005 77.008 630.459 77.2647 630.049 77.778C629.647 78.282 629.447 78.8933 629.447 79.612C629.447 80.34 629.647 80.9607 630.049 81.474C630.45 81.978 630.996 82.23 631.687 82.23ZM638.051 81.474C638.462 81.978 639.013 82.23 639.703 82.23C640.394 82.23 640.94 81.978 641.341 81.474C641.743 80.9607 641.943 80.3353 641.943 79.598C641.943 78.8793 641.743 78.268 641.341 77.764C640.94 77.26 640.394 77.008 639.703 77.008C639.013 77.008 638.462 77.26 638.051 77.764C637.65 78.268 637.449 78.8793 637.449 79.598C637.449 80.3353 637.65 80.9607 638.051 81.474ZM639.703 83.168C638.686 83.168 637.874 82.8087 637.267 82.09C636.661 81.3713 636.357 80.4427 636.357 79.304C636.357 77.6987 636.647 76.5133 637.225 75.748C637.804 74.9733 638.695 74.5067 639.899 74.348C640.618 74.236 641.113 74.1287 641.383 74.026C641.663 73.9233 641.803 73.802 641.803 73.662H642.825C642.825 73.9233 642.746 74.152 642.587 74.348C642.429 74.5347 642.2 74.684 641.901 74.796C641.612 74.908 641.337 74.9967 641.075 75.062C640.823 75.118 640.52 75.1693 640.165 75.216C639.232 75.3467 638.555 75.6033 638.135 75.986C637.725 76.3687 637.454 76.8773 637.323 77.512C637.939 76.5507 638.789 76.07 639.871 76.07C640.805 76.07 641.565 76.4107 642.153 77.092C642.741 77.7733 643.035 78.6087 643.035 79.598C643.035 80.606 642.732 81.4553 642.125 82.146C641.519 82.8273 640.711 83.168 639.703 83.168ZM650.205 82.146C649.599 82.8273 648.791 83.168 647.783 83.168C646.775 83.168 645.963 82.8273 645.347 82.146C644.741 81.4647 644.437 80.62 644.437 79.612C644.437 78.604 644.741 77.764 645.347 77.092C645.963 76.4107 646.775 76.07 647.783 76.07C648.791 76.07 649.599 76.4107 650.205 77.092C650.821 77.764 651.129 78.604 651.129 79.612C651.129 80.62 650.821 81.4647 650.205 82.146ZM646.131 81.474C646.542 81.978 647.093 82.23 647.783 82.23C648.474 82.23 649.02 81.978 649.421 81.474C649.823 80.9607 650.023 80.34 650.023 79.612C650.023 78.884 649.823 78.268 649.421 77.764C649.02 77.26 648.474 77.008 647.783 77.008C647.093 77.008 646.542 77.2647 646.131 77.778C645.73 78.282 645.529 78.8933 645.529 79.612C645.529 80.34 645.73 80.9607 646.131 81.474ZM655.893 83.168C654.885 83.168 654.059 82.8413 653.415 82.188C652.771 81.5253 652.449 80.6667 652.449 79.612C652.449 78.6227 652.766 77.7873 653.401 77.106C654.036 76.4153 654.829 76.07 655.781 76.07C656.78 76.07 657.568 76.4153 658.147 77.106C658.735 77.7873 659.029 78.6507 659.029 79.696V79.962H653.555C653.602 80.6247 653.844 81.18 654.283 81.628C654.722 82.076 655.291 82.3 655.991 82.3C656.831 82.3 657.526 82.0153 658.077 81.446L658.581 82.132C657.89 82.8227 656.994 83.168 655.893 83.168ZM657.993 79.192C657.984 78.6133 657.788 78.0953 657.405 77.638C657.022 77.1713 656.476 76.938 655.767 76.938C655.095 76.938 654.563 77.1667 654.171 77.624C653.788 78.0813 653.583 78.604 653.555 79.192H657.993Z" fill="black"/>
<rect x="593.5" y="104.5" width="12" height="12" rx="6" fill="white" stroke="#E81E1E" stroke-width="5"/>
<path d="M620.516 115.168C619.153 115.168 618.01 114.72 617.086 113.824C616.171 112.919 615.714 111.757 615.714 110.338C615.714 108.919 616.171 107.762 617.086 106.866C618.01 105.961 619.153 105.508 620.516 105.508C622.009 105.508 623.19 106.124 624.058 107.356L623.078 107.902C622.807 107.501 622.443 107.174 621.986 106.922C621.529 106.67 621.039 106.544 620.516 106.544C619.489 106.544 618.631 106.903 617.94 107.622C617.259 108.331 616.918 109.237 616.918 110.338C616.918 111.439 617.259 112.349 617.94 113.068C618.631 113.777 619.489 114.132 620.516 114.132C621.039 114.132 621.529 114.011 621.986 113.768C622.443 113.516 622.807 113.185 623.078 112.774L624.072 113.32C623.167 114.552 621.981 115.168 620.516 115.168ZM628.843 115.168C627.891 115.168 627.13 114.771 626.561 113.978V117.576H625.511V108.238H626.561V109.246C626.813 108.891 627.14 108.607 627.541 108.392C627.942 108.177 628.376 108.07 628.843 108.07C629.739 108.07 630.462 108.392 631.013 109.036C631.573 109.671 631.853 110.529 631.853 111.612C631.853 112.695 631.573 113.558 631.013 114.202C630.462 114.846 629.739 115.168 628.843 115.168ZM628.577 114.23C629.24 114.23 629.767 113.987 630.159 113.502C630.551 113.007 630.747 112.377 630.747 111.612C630.747 110.847 630.551 110.221 630.159 109.736C629.767 109.251 629.24 109.008 628.577 109.008C628.176 109.008 627.784 109.115 627.401 109.33C627.028 109.535 626.748 109.787 626.561 110.086V113.138C626.748 113.446 627.028 113.707 627.401 113.922C627.784 114.127 628.176 114.23 628.577 114.23ZM636.575 115.168C635.567 115.168 634.741 114.841 634.097 114.188C633.453 113.525 633.131 112.667 633.131 111.612C633.131 110.623 633.448 109.787 634.083 109.106C634.717 108.415 635.511 108.07 636.463 108.07C637.461 108.07 638.25 108.415 638.829 109.106C639.417 109.787 639.711 110.651 639.711 111.696V111.962H634.237C634.283 112.625 634.526 113.18 634.965 113.628C635.403 114.076 635.973 114.3 636.673 114.3C637.513 114.3 638.208 114.015 638.759 113.446L639.263 114.132C638.572 114.823 637.676 115.168 636.575 115.168ZM638.675 111.192C638.665 110.613 638.469 110.095 638.087 109.638C637.704 109.171 637.158 108.938 636.449 108.938C635.777 108.938 635.245 109.167 634.853 109.624C634.47 110.081 634.265 110.604 634.237 111.192H638.675ZM640.613 116.722V114.132C640.959 114.067 641.229 113.861 641.425 113.516C641.621 113.161 641.78 112.513 641.901 111.57L642.335 108.238H647.039V114.076H647.823V116.722H646.773V115H641.663V116.722H640.613ZM643.259 109.162L642.951 111.696C642.793 112.881 642.466 113.675 641.971 114.076H645.989V109.162H643.259ZM650.309 115H649.259V108.238H650.309V111.052H653.837V108.238H654.887V115H653.837V111.976H650.309V115ZM660.036 115.168C659.028 115.168 658.202 114.841 657.558 114.188C656.914 113.525 656.592 112.667 656.592 111.612C656.592 110.623 656.909 109.787 657.544 109.106C658.178 108.415 658.972 108.07 659.924 108.07C660.922 108.07 661.711 108.415 662.29 109.106C662.878 109.787 663.172 110.651 663.172 111.696V111.962H657.698C657.744 112.625 657.987 113.18 658.426 113.628C658.864 114.076 659.434 114.3 660.134 114.3C660.974 114.3 661.669 114.015 662.22 113.446L662.724 114.132C662.033 114.823 661.137 115.168 660.036 115.168ZM662.136 111.192C662.126 110.613 661.93 110.095 661.548 109.638C661.165 109.171 660.619 108.938 659.91 108.938C659.238 108.938 658.706 109.167 658.314 109.624C657.931 110.081 657.726 110.604 657.698 111.192H662.136ZM667.924 115.168C666.916 115.168 666.09 114.841 665.446 114.188C664.802 113.525 664.48 112.667 664.48 111.612C664.48 110.623 664.798 109.787 665.432 109.106C666.067 108.415 666.86 108.07 667.812 108.07C668.811 108.07 669.6 108.415 670.178 109.106C670.766 109.787 671.06 110.651 671.06 111.696V111.962H665.586C665.633 112.625 665.876 113.18 666.314 113.628C666.753 114.076 667.322 114.3 668.022 114.3C668.862 114.3 669.558 114.015 670.108 113.446L670.612 114.132C669.922 114.823 669.026 115.168 667.924 115.168ZM670.024 111.192C670.015 110.613 669.819 110.095 669.436 109.638C669.054 109.171 668.508 108.938 667.798 108.938C667.126 108.938 666.594 109.167 666.202 109.624C665.82 110.081 665.614 110.604 665.586 111.192H670.024Z" fill="black"/>
<rect x="592" y="135" width="15" height="15" rx="7.5" fill="white" stroke="#CFD6E6" stroke-width="2"/>
<path d="M620.348 147H616.092V137.662H620.25C621.053 137.662 621.687 137.881 622.154 138.32C622.63 138.759 622.868 139.333 622.868 140.042C622.868 140.602 622.709 141.078 622.392 141.47C622.075 141.853 621.687 142.091 621.23 142.184C621.725 142.259 622.149 142.52 622.504 142.968C622.868 143.416 623.05 143.92 623.05 144.48C623.05 145.236 622.807 145.847 622.322 146.314C621.846 146.771 621.188 147 620.348 147ZM620.054 141.708C620.567 141.708 620.964 141.568 621.244 141.288C621.524 141.008 621.664 140.649 621.664 140.21C621.664 139.771 621.519 139.412 621.23 139.132C620.95 138.843 620.558 138.698 620.054 138.698H617.254V141.708H620.054ZM620.11 145.964C620.651 145.964 621.076 145.819 621.384 145.53C621.692 145.241 621.846 144.849 621.846 144.354C621.846 143.897 621.692 143.514 621.384 143.206C621.085 142.898 620.661 142.744 620.11 142.744H617.254V145.964H620.11ZM624.855 140.238H625.905V142.856H628.439C629.111 142.856 629.633 143.057 630.007 143.458C630.38 143.85 630.567 144.34 630.567 144.928C630.567 145.516 630.375 146.011 629.993 146.412C629.619 146.804 629.101 147 628.439 147H624.855V140.238ZM628.327 143.78H625.905V146.076H628.327C628.7 146.076 628.985 145.973 629.181 145.768C629.386 145.553 629.489 145.273 629.489 144.928C629.489 144.583 629.386 144.307 629.181 144.102C628.985 143.887 628.7 143.78 628.327 143.78ZM632.723 147H631.673V140.238H632.723V147ZM637.803 147.168C636.805 147.168 635.993 146.832 635.367 146.16C634.742 145.479 634.429 144.629 634.429 143.612C634.429 142.595 634.742 141.75 635.367 141.078C635.993 140.406 636.805 140.07 637.803 140.07C638.849 140.07 639.675 140.462 640.281 141.246L639.581 141.89C639.152 141.302 638.578 141.008 637.859 141.008C637.15 141.008 636.581 141.251 636.151 141.736C635.731 142.221 635.521 142.847 635.521 143.612C635.521 144.377 635.731 145.007 636.151 145.502C636.581 145.987 637.15 146.23 637.859 146.23C638.569 146.23 639.143 145.936 639.581 145.348L640.281 145.992C639.675 146.776 638.849 147.168 637.803 147.168ZM649.565 140.238H650.615V147H641.753V140.238H642.803V146.076H645.659V140.238H646.709V146.076H649.565V140.238ZM655.77 147.168C654.762 147.168 653.936 146.841 653.292 146.188C652.648 145.525 652.326 144.667 652.326 143.612C652.326 142.623 652.643 141.787 653.278 141.106C653.913 140.415 654.706 140.07 655.658 140.07C656.657 140.07 657.445 140.415 658.024 141.106C658.612 141.787 658.906 142.651 658.906 143.696V143.962H653.432C653.479 144.625 653.721 145.18 654.16 145.628C654.599 146.076 655.168 146.3 655.868 146.3C656.708 146.3 657.403 146.015 657.954 145.446L658.458 146.132C657.767 146.823 656.871 147.168 655.77 147.168ZM657.87 143.192C657.861 142.613 657.665 142.095 657.282 141.638C656.899 141.171 656.353 140.938 655.644 140.938C654.972 140.938 654.44 141.167 654.048 141.624C653.665 142.081 653.46 142.604 653.432 143.192H657.87ZM663.659 147.168C662.651 147.168 661.825 146.841 661.181 146.188C660.537 145.525 660.215 144.667 660.215 143.612C660.215 142.623 660.532 141.787 661.167 141.106C661.801 140.415 662.595 140.07 663.547 140.07C664.545 140.07 665.334 140.415 665.913 141.106C666.501 141.787 666.795 142.651 666.795 143.696V143.962H661.321C661.367 144.625 661.61 145.18 662.049 145.628C662.487 146.076 663.057 146.3 663.757 146.3C664.597 146.3 665.292 146.015 665.843 145.446L666.347 146.132C665.656 146.823 664.76 147.168 663.659 147.168ZM665.759 143.192C665.749 142.613 665.553 142.095 665.171 141.638C664.788 141.171 664.242 140.938 663.533 140.938C662.861 140.938 662.329 141.167 661.937 141.624C661.554 142.081 661.349 142.604 661.321 143.192H665.759Z" fill="black"/>
</g>
<rect x="252.28" y="1.28" width="333.44" height="189.075" rx="21.76" fill="white" stroke="#CFD6E6" stroke-width="2.56"/>
<rect x="273" y="55" width="19.1635" height="19.1635" rx="2.56" fill="#E81E1E"/>
<path d="M278.678 64.7771L281.41 67.3145L287.266 61.459" stroke="white" stroke-width="2.56" stroke-linecap="round" stroke-linejoin="round"/>
<rect x="274.28" y="102.28" width="16.6035" height="16.6035" rx="1.28" fill="white" stroke="#CFD6E6" stroke-width="2.56"/>
<path d="M253.556 24.3152C253.556 12.2975 263.298 2.55518 275.316 2.55518H562.685C574.703 2.55518 584.445 12.2975 584.445 24.3152V43.4373H253.556V24.3152Z" fill="#FAFAFA"/>
<path d="M553.783 25.977L558.894 20.8667L564.004 25.977" stroke="#415A7D" stroke-width="2.56" stroke-linecap="round" stroke-linejoin="round"/>
<path d="M276.297 30H274.272V18.0474H276.369V26.3443L282.48 18.0474H284.63V30H282.533V21.4701L276.297 30ZM288.998 30H287.116V21.3446H288.998V24.7494H292.976V21.3446H294.858V30H292.976V26.3981H288.998V30ZM300.76 30H298.878V22.9933H296.405V21.3446H303.251V22.9933H300.76V30ZM308.787 30.215C307.473 30.215 306.386 29.7969 305.526 28.9606C304.678 28.1124 304.253 27.0133 304.253 25.6634C304.253 24.397 304.666 23.3278 305.49 22.4557C306.326 21.5716 307.378 21.1296 308.644 21.1296C309.922 21.1296 310.95 21.5716 311.726 22.4557C312.515 23.3397 312.909 24.4687 312.909 25.8426V26.2906H306.225C306.296 26.9715 306.577 27.539 307.067 27.993C307.557 28.4469 308.196 28.6739 308.984 28.6739C309.426 28.6739 309.868 28.5903 310.31 28.423C310.764 28.2558 311.141 28.0228 311.439 27.7242L312.3 28.9606C311.427 29.7969 310.257 30.215 308.787 30.215ZM311.081 24.9645C311.057 24.3671 310.836 23.8355 310.418 23.3696C310.012 22.9037 309.42 22.6707 308.644 22.6707C307.903 22.6707 307.324 22.9037 306.906 23.3696C306.487 23.8236 306.255 24.3552 306.207 24.9645H311.081ZM319.425 30.215C318.278 30.215 317.353 29.7431 316.648 28.7994V33.2973H314.766V21.3446H316.648V22.5274C317.341 21.5955 318.266 21.1296 319.425 21.1296C320.56 21.1296 321.48 21.5358 322.185 22.3482C322.902 23.1605 323.26 24.2656 323.26 25.6634C323.26 27.0611 322.902 28.1722 322.185 28.9965C321.48 29.8089 320.56 30.215 319.425 30.215ZM318.87 28.5485C319.61 28.5485 320.202 28.2797 320.644 27.7421C321.086 27.2045 321.307 26.5116 321.307 25.6634C321.307 24.8151 321.086 24.1282 320.644 23.6026C320.202 23.065 319.61 22.7962 318.87 22.7962C318.44 22.7962 318.016 22.9097 317.597 23.1366C317.179 23.3636 316.863 23.6384 316.648 23.961V27.3837C316.863 27.7062 317.179 27.981 317.597 28.208C318.016 28.435 318.44 28.5485 318.87 28.5485ZM329.122 30.215C327.808 30.215 326.721 29.7969 325.861 28.9606C325.013 28.1124 324.588 27.0133 324.588 25.6634C324.588 24.397 325.001 23.3278 325.825 22.4557C326.661 21.5716 327.713 21.1296 328.979 21.1296C330.257 21.1296 331.285 21.5716 332.061 22.4557C332.85 23.3397 333.244 24.4687 333.244 25.8426V26.2906H326.56C326.631 26.9715 326.912 27.539 327.402 27.993C327.892 28.4469 328.531 28.6739 329.319 28.6739C329.761 28.6739 330.203 28.5903 330.645 28.423C331.099 28.2558 331.476 28.0228 331.774 27.7242L332.635 28.9606C331.762 29.7969 330.592 30.215 329.122 30.215ZM331.416 24.9645C331.392 24.3671 331.171 23.8355 330.753 23.3696C330.347 22.9037 329.755 22.6707 328.979 22.6707C328.238 22.6707 327.659 22.9037 327.241 23.3696C326.822 23.8236 326.59 24.3552 326.542 24.9645H331.416ZM339.043 30.215C337.729 30.215 336.654 29.7909 335.818 28.9427C334.982 28.0826 334.563 26.9894 334.563 25.6634C334.563 24.3492 334.982 23.2681 335.818 22.4198C336.654 21.5597 337.729 21.1296 339.043 21.1296C340.489 21.1296 341.594 21.6433 342.359 22.6707L341.122 23.8176C340.644 23.1366 339.981 22.7962 339.133 22.7962C338.345 22.7962 337.711 23.065 337.234 23.6026C336.756 24.1282 336.517 24.8151 336.517 25.6634C336.517 26.5116 336.756 27.2045 337.234 27.7421C337.711 28.2797 338.345 28.5485 339.133 28.5485C339.957 28.5485 340.62 28.208 341.122 27.527L342.359 28.6739C341.594 29.7013 340.489 30.215 339.043 30.215ZM344.009 21.3446H345.89V24.4806H348.954C349.874 24.4806 350.579 24.7435 351.069 25.2691C351.571 25.7948 351.822 26.4518 351.822 27.2403C351.822 28.0169 351.565 28.6739 351.051 29.2115C350.549 29.7372 349.85 30 348.954 30H344.009V21.3446ZM348.722 26.1293H345.89V28.3514H348.722C349.092 28.3514 349.379 28.2498 349.582 28.0467C349.797 27.8436 349.904 27.5748 349.904 27.2403C349.904 26.9058 349.797 26.637 349.582 26.4339C349.379 26.2308 349.092 26.1293 348.722 26.1293ZM355.011 30H353.13V21.3446H355.011V30ZM359.294 23.3517C359.043 23.6026 358.751 23.728 358.416 23.728C358.082 23.728 357.789 23.6026 357.538 23.3517C357.287 23.1008 357.162 22.8081 357.162 22.4736C357.162 22.1391 357.287 21.8464 357.538 21.5955C357.789 21.3446 358.082 21.2192 358.416 21.2192C358.751 21.2192 359.043 21.3446 359.294 21.5955C359.545 21.8464 359.671 22.1391 359.671 22.4736C359.671 22.8081 359.545 23.1008 359.294 23.3517ZM359.294 29.8387C359.043 30.0777 358.751 30.1971 358.416 30.1971C358.082 30.1971 357.789 30.0777 357.538 29.8387C357.287 29.5878 357.162 29.2892 357.162 28.9427C357.162 28.5963 357.287 28.3036 357.538 28.0646C357.789 27.8138 358.082 27.6883 358.416 27.6883C358.751 27.6883 359.043 27.8138 359.294 28.0646C359.545 28.3036 359.671 28.5963 359.671 28.9427C359.671 29.2892 359.545 29.5878 359.294 29.8387Z" fill="#718AAD"/>
<path d="M372.028 30H370.219V21.3446H372.1V27.1686L376.078 21.3446H377.96V30H376.078V24.0147L372.028 30ZM386.962 21.3446V22.9933H382.285V30H380.404V21.3446H386.962ZM393.165 30.215C392.018 30.215 391.093 29.7431 390.388 28.7994V33.2973H388.506V21.3446H390.388V22.5274C391.081 21.5955 392.006 21.1296 393.165 21.1296C394.3 21.1296 395.22 21.5358 395.925 22.3482C396.642 23.1605 397 24.2656 397 25.6634C397 27.0611 396.642 28.1722 395.925 28.9965C395.22 29.8089 394.3 30.215 393.165 30.215ZM392.61 28.5485C393.35 28.5485 393.942 28.2797 394.384 27.7421C394.826 27.2045 395.047 26.5116 395.047 25.6634C395.047 24.8151 394.826 24.1282 394.384 23.6026C393.942 23.065 393.35 22.7962 392.61 22.7962C392.18 22.7962 391.756 22.9097 391.337 23.1366C390.919 23.3636 390.603 23.6384 390.388 23.961V27.3837C390.603 27.7062 390.919 27.981 391.337 28.208C391.756 28.435 392.18 28.5485 392.61 28.5485ZM398.866 21.3446H400.748V24.4806H403.812C404.732 24.4806 405.437 24.7435 405.927 25.2691C406.428 25.7948 406.679 26.4518 406.679 27.2403C406.679 28.0169 406.422 28.6739 405.909 29.2115C405.407 29.7372 404.708 30 403.812 30H398.866V21.3446ZM403.579 26.1293H400.748V28.3514H403.579C403.949 28.3514 404.236 28.2498 404.439 28.0467C404.654 27.8436 404.762 27.5748 404.762 27.2403C404.762 26.9058 404.654 26.637 404.439 26.4339C404.236 26.2308 403.949 26.1293 403.579 26.1293ZM409.869 30H407.987V21.3446H409.869V30ZM414.636 29.319C414.636 29.9164 414.48 30.4838 414.17 31.0214C413.871 31.571 413.465 32.025 412.951 32.3834L412.109 31.6845C412.408 31.5053 412.682 31.2544 412.933 30.9318C413.184 30.6093 413.339 30.2987 413.399 30C413.292 30.0358 413.19 30.0538 413.095 30.0538C412.784 30.0538 412.527 29.9522 412.324 29.7491C412.121 29.5341 412.019 29.2593 412.019 28.9248C412.019 28.5903 412.139 28.3036 412.378 28.0646C412.617 27.8138 412.903 27.6883 413.238 27.6883C413.62 27.6883 413.949 27.8377 414.224 28.1363C414.498 28.423 414.636 28.8173 414.636 29.319ZM425.208 28.5485C425.984 28.5485 426.593 28.2677 427.035 27.7062C427.489 27.1447 427.716 26.4518 427.716 25.6275C427.716 24.839 427.489 24.17 427.035 23.6205C426.593 23.0709 425.984 22.7962 425.208 22.7962C424.443 22.7962 423.834 23.0709 423.38 23.6205C422.938 24.17 422.717 24.839 422.717 25.6275C422.717 26.4518 422.938 27.1447 423.38 27.7062C423.834 28.2677 424.443 28.5485 425.208 28.5485ZM428.451 28.889C427.651 29.773 426.57 30.215 425.208 30.215C423.846 30.215 422.765 29.7551 421.964 28.8352C421.176 27.9034 420.781 26.7147 420.781 25.2691C420.781 23.2023 421.134 21.6612 421.839 20.6458C422.555 19.6303 423.655 19.033 425.136 18.8538C426.032 18.7223 426.647 18.5969 426.982 18.4774C427.328 18.358 427.501 18.2146 427.501 18.0474H429.347C429.347 19.3018 428.117 20.0663 425.656 20.3411C424.688 20.4486 423.941 20.7174 423.416 21.1475C422.902 21.5657 422.579 22.0674 422.448 22.6528C422.794 22.1749 423.242 21.8046 423.792 21.5418C424.353 21.267 424.945 21.1296 425.566 21.1296C426.761 21.1296 427.74 21.5716 428.505 22.4557C429.269 23.3397 429.652 24.403 429.652 25.6454C429.652 26.9237 429.252 28.0049 428.451 28.889ZM433.453 30H431.644V21.3446H433.525V27.1686L437.503 21.3446H439.385V30H437.503V24.0147L433.453 30ZM444.947 30.215C443.25 30.215 441.924 29.7491 440.968 28.8173L441.846 27.6166C442.635 28.3215 443.668 28.6739 444.947 28.6739C445.604 28.6739 446.117 28.5724 446.488 28.3693C446.87 28.1542 447.061 27.8675 447.061 27.5091C447.061 26.7565 446.303 26.3802 444.785 26.3802H442.94V24.8749H444.785C445.442 24.8749 445.956 24.7793 446.326 24.5882C446.709 24.397 446.9 24.1163 446.9 23.7459C446.9 23.4353 446.703 23.1785 446.309 22.9754C445.914 22.7723 445.419 22.6707 444.821 22.6707C443.662 22.6707 442.737 23.0172 442.044 23.7101L441.112 22.5632C442.032 21.6194 443.238 21.1475 444.732 21.1475C446.01 21.1356 447.013 21.3446 447.742 21.7747C448.483 22.1929 448.853 22.7663 448.853 23.495C448.853 24.0446 448.62 24.5105 448.154 24.8928C447.7 25.2631 447.169 25.4901 446.559 25.5738C447.169 25.6215 447.73 25.8246 448.244 26.183C448.77 26.5414 449.032 27.0313 449.032 27.6525C449.032 28.4051 448.662 29.0204 447.921 29.4982C447.193 29.9761 446.201 30.215 444.947 30.215ZM452.81 30H450.929V21.3446H452.81V24.7494H456.788V21.3446H458.67V30H456.788V26.3981H452.81V30ZM465.11 30.215C463.796 30.215 462.708 29.7969 461.848 28.9606C461 28.1124 460.576 27.0133 460.576 25.6634C460.576 24.397 460.988 23.3278 461.812 22.4557C462.649 21.5716 463.7 21.1296 464.966 21.1296C466.245 21.1296 467.272 21.5716 468.049 22.4557C468.837 23.3397 469.231 24.4687 469.231 25.8426V26.2906H462.547C462.619 26.9715 462.9 27.539 463.389 27.993C463.879 28.4469 464.518 28.6739 465.307 28.6739C465.749 28.6739 466.191 28.5903 466.633 28.423C467.087 28.2558 467.463 28.0228 467.762 27.7242L468.622 28.9606C467.75 29.7969 466.579 30.215 465.11 30.215ZM467.403 24.9645C467.38 24.3671 467.159 23.8355 466.74 23.3696C466.334 22.9037 465.743 22.6707 464.966 22.6707C464.226 22.6707 463.646 22.9037 463.228 23.3696C462.81 23.8236 462.577 24.3552 462.529 24.9645H467.403ZM475.031 30.215C473.717 30.215 472.642 29.7909 471.805 28.9427C470.969 28.0826 470.551 26.9894 470.551 25.6634C470.551 24.3492 470.969 23.2681 471.805 22.4198C472.642 21.5597 473.717 21.1296 475.031 21.1296C476.477 21.1296 477.582 21.6433 478.346 22.6707L477.11 23.8176C476.632 23.1366 475.969 22.7962 475.121 22.7962C474.332 22.7962 473.699 23.065 473.221 23.6026C472.743 24.1282 472.504 24.8151 472.504 25.6634C472.504 26.5116 472.743 27.2045 473.221 27.7421C473.699 28.2797 474.332 28.5485 475.121 28.5485C475.945 28.5485 476.608 28.208 477.11 27.527L478.346 28.6739C477.582 29.7013 476.477 30.215 475.031 30.215ZM482.326 29.319C482.326 29.9164 482.17 30.4838 481.86 31.0214C481.561 31.571 481.155 32.025 480.641 32.3834L479.799 31.6845C480.098 31.5053 480.372 31.2544 480.623 30.9318C480.874 30.6093 481.029 30.2987 481.089 30C480.982 30.0358 480.88 30.0538 480.785 30.0538C480.474 30.0538 480.217 29.9522 480.014 29.7491C479.811 29.5341 479.709 29.2593 479.709 28.9248C479.709 28.5903 479.829 28.3036 480.068 28.0646C480.307 27.8138 480.593 27.6883 480.928 27.6883C481.31 27.6883 481.639 27.8377 481.914 28.1363C482.188 28.423 482.326 28.8173 482.326 29.319ZM496.159 30H494.277V29.0682C493.608 29.8327 492.677 30.215 491.482 30.215C490.693 30.215 489.995 29.9642 489.385 29.4624C488.776 28.9487 488.471 28.2438 488.471 27.3478C488.471 26.4279 488.77 25.7291 489.367 25.2512C489.977 24.7733 490.682 24.5344 491.482 24.5344C492.712 24.5344 493.644 24.9047 494.277 25.6454V24.3552C494.277 23.8534 494.092 23.4592 493.722 23.1725C493.352 22.8858 492.862 22.7424 492.252 22.7424C491.285 22.7424 490.431 23.1068 489.69 23.8355L488.919 22.5274C489.899 21.5955 491.112 21.1296 492.557 21.1296C493.62 21.1296 494.487 21.3805 495.156 21.8822C495.825 22.384 496.159 23.1785 496.159 24.2656V30ZM492.217 28.9248C493.16 28.9248 493.847 28.6261 494.277 28.0288V26.7206C493.847 26.1233 493.16 25.8246 492.217 25.8246C491.679 25.8246 491.237 25.968 490.891 26.2547C490.544 26.5414 490.371 26.9178 490.371 27.3837C490.371 27.8496 490.544 28.2259 490.891 28.5126C491.237 28.7874 491.679 28.9248 492.217 28.9248ZM503.903 30H498.599V21.3446H503.777C504.578 21.3446 505.205 21.5537 505.659 21.9718C506.113 22.39 506.34 22.9216 506.34 23.5667C506.34 24.0685 506.203 24.4926 505.928 24.839C505.653 25.1855 505.307 25.4185 504.888 25.5379C505.354 25.6454 505.743 25.9023 506.053 26.3085C506.364 26.7027 506.519 27.1507 506.519 27.6525C506.519 28.3454 506.286 28.9129 505.82 29.3549C505.366 29.785 504.727 30 503.903 30ZM503.509 28.3514C503.843 28.3514 504.106 28.2677 504.297 28.1005C504.488 27.9213 504.584 27.6823 504.584 27.3837C504.584 27.1089 504.488 26.8759 504.297 26.6848C504.106 26.4937 503.843 26.3981 503.509 26.3981H500.48V28.3514H503.509ZM503.455 24.7494C503.754 24.7494 503.987 24.6718 504.154 24.5165C504.333 24.3492 504.423 24.1402 504.423 23.8893C504.423 23.6145 504.333 23.3995 504.154 23.2442C503.987 23.0769 503.754 22.9933 503.455 22.9933H500.48V24.7494H503.455ZM512.312 30H510.431V22.9933H507.958V21.3446H514.803V22.9933H512.312V30ZM520.25 30.215C518.912 30.215 517.837 29.779 517.025 28.9069C516.212 28.0228 515.806 26.9417 515.806 25.6634C515.806 24.3851 516.212 23.3099 517.025 22.4378C517.837 21.5657 518.912 21.1296 520.25 21.1296C521.6 21.1296 522.681 21.5657 523.494 22.4378C524.306 23.3099 524.712 24.3851 524.712 25.6634C524.712 26.9536 524.306 28.0348 523.494 28.9069C522.681 29.779 521.6 30.215 520.25 30.215ZM520.25 28.5485C521.027 28.5485 521.636 28.2737 522.078 27.7242C522.532 27.1627 522.759 26.4757 522.759 25.6634C522.759 24.8629 522.532 24.1879 522.078 23.6384C521.636 23.0769 521.027 22.7962 520.25 22.7962C519.486 22.7962 518.876 23.0769 518.422 23.6384C517.98 24.1879 517.759 24.8629 517.759 25.6634C517.759 26.4757 517.98 27.1627 518.422 27.7242C518.876 28.2737 519.486 28.5485 520.25 28.5485ZM528.374 29.8387C528.123 30.0777 527.831 30.1971 527.496 30.1971C527.162 30.1971 526.869 30.0777 526.618 29.8387C526.367 29.5878 526.242 29.2892 526.242 28.9427C526.242 28.5963 526.367 28.3036 526.618 28.0646C526.869 27.8138 527.162 27.6883 527.496 27.6883C527.831 27.6883 528.123 27.8138 528.374 28.0646C528.625 28.3036 528.751 28.5963 528.751 28.9427C528.751 29.2892 528.625 29.5878 528.374 29.8387ZM532.767 29.8387C532.516 30.0777 532.223 30.1971 531.889 30.1971C531.554 30.1971 531.262 30.0777 531.011 29.8387C530.76 29.5878 530.634 29.2892 530.634 28.9427C530.634 28.5963 530.76 28.3036 531.011 28.0646C531.262 27.8138 531.554 27.6883 531.889 27.6883C532.223 27.6883 532.516 27.8138 532.767 28.0646C533.018 28.3036 533.143 28.5963 533.143 28.9427C533.143 29.2892 533.018 29.5878 532.767 29.8387ZM537.159 29.8387C536.908 30.0777 536.616 30.1971 536.281 30.1971C535.947 30.1971 535.654 30.0777 535.403 29.8387C535.152 29.5878 535.027 29.2892 535.027 28.9427C535.027 28.5963 535.152 28.3036 535.403 28.0646C535.654 27.8138 535.947 27.6883 536.281 27.6883C536.616 27.6883 536.908 27.8138 537.159 28.0646C537.41 28.3036 537.536 28.5963 537.536 28.9427C537.536 29.2892 537.41 29.5878 537.159 29.8387Z" fill="#415A7D"/>
<path d="M304.933 70.6577H303.499V58.7051H304.987V68.0414L311.868 58.7051H313.391V70.6577H311.904V61.1243L304.933 70.6577ZM322.19 62.0024V63.1851H317.477V70.6577H316.133V62.0024H322.19ZM328.203 70.8728C326.984 70.8728 326.011 70.365 325.282 69.3496V73.955H323.938V62.0024H325.282V63.2926C325.605 62.8386 326.023 62.4742 326.536 62.1995C327.05 61.9247 327.606 61.7873 328.203 61.7873C329.35 61.7873 330.276 62.1995 330.981 63.0238C331.697 63.8362 332.056 64.9353 332.056 66.3211C332.056 67.7069 331.697 68.812 330.981 69.6363C330.276 70.4606 329.35 70.8728 328.203 70.8728ZM327.863 69.6721C328.711 69.6721 329.386 69.3615 329.888 68.7403C330.389 68.1071 330.64 67.3007 330.64 66.3211C330.64 65.3414 330.389 64.541 329.888 63.9198C329.386 63.2986 328.711 62.988 327.863 62.988C327.349 62.988 326.847 63.1253 326.357 63.4001C325.879 63.6629 325.521 63.9855 325.282 64.3678V68.2744C325.521 68.6686 325.879 69.0031 326.357 69.2779C326.847 69.5407 327.349 69.6721 327.863 69.6721ZM334.193 62.0024H335.537V65.3534H338.781C339.641 65.3534 340.31 65.6102 340.788 66.124C341.265 66.6257 341.504 67.2529 341.504 68.0056C341.504 68.7582 341.26 69.3914 340.77 69.9051C340.292 70.4068 339.629 70.6577 338.781 70.6577H334.193V62.0024ZM338.637 66.5361H335.537V69.475H338.637C339.115 69.475 339.479 69.3436 339.73 69.0808C339.993 68.806 340.125 68.4476 340.125 68.0056C340.125 67.5635 339.993 67.2111 339.73 66.9483C339.479 66.6735 339.115 66.5361 338.637 66.5361ZM344.264 70.6577H342.92V62.0024H344.264V70.6577Z" fill="black"/>
<path d="M305.67 117H304.183V106.373H300.402V105.047H309.469V106.373H305.67V117ZM316.45 117H315.106V116.014C314.378 116.815 313.422 117.215 312.239 117.215C311.439 117.215 310.734 116.958 310.125 116.444C309.515 115.931 309.211 115.232 309.211 114.348C309.211 113.44 309.509 112.741 310.107 112.251C310.716 111.749 311.427 111.499 312.239 111.499C313.47 111.499 314.426 111.893 315.106 112.681V111.122C315.106 110.549 314.903 110.101 314.497 109.778C314.091 109.456 313.565 109.294 312.92 109.294C311.905 109.294 311.021 109.695 310.268 110.495L309.641 109.563C310.561 108.607 311.714 108.13 313.099 108.13C314.091 108.13 314.897 108.369 315.519 108.846C316.14 109.324 316.45 110.059 316.45 111.051V117ZM312.723 116.247C313.798 116.247 314.593 115.889 315.106 115.172V113.541C314.593 112.825 313.798 112.466 312.723 112.466C312.102 112.466 311.588 112.645 311.182 113.004C310.788 113.35 310.591 113.804 310.591 114.366C310.591 114.915 310.788 115.369 311.182 115.728C311.588 116.074 312.102 116.247 312.723 116.247ZM320.489 117H319.145V108.345H320.489V111.947H325.004V108.345H326.348V117H325.004V113.129H320.489V117ZM335.895 119.204V117H329.032V108.345H330.376V115.817H334.892V108.345H336.236V115.817H337.239V119.204H335.895ZM339.077 108.345H340.421V111.696H343.665C344.525 111.696 345.194 111.953 345.672 112.466C346.15 112.968 346.388 113.595 346.388 114.348C346.388 115.1 346.144 115.734 345.654 116.247C345.176 116.749 344.513 117 343.665 117H339.077V108.345ZM343.521 112.878H340.421V115.817H343.521C343.999 115.817 344.364 115.686 344.614 115.423C344.877 115.148 345.009 114.79 345.009 114.348C345.009 113.906 344.877 113.553 344.614 113.291C344.364 113.016 343.999 112.878 343.521 112.878ZM349.148 117H347.804V108.345H349.148V117Z" fill="black"/>
<path d="M254 87H584V89H254V87Z" fill="#FAFAFA"/>
<path d="M254 133H584V135H254V133Z" fill="#FAFAFA"/>
<rect x="273" y="147.278" width="19.1635" height="19.1635" rx="2.56" fill="#E81E1E"/>
<path d="M278.678 157.055L281.41 159.592L287.266 153.737" stroke="white" stroke-width="2.56" stroke-linecap="round" stroke-linejoin="round"/>
<path d="M301.226 151.047H308.985V152.373H302.713V155.796H306.028C307.175 155.796 308.083 156.143 308.752 156.836C309.433 157.528 309.774 158.383 309.774 159.398C309.774 160.414 309.439 161.268 308.77 161.961C308.101 162.654 307.187 163 306.028 163H301.226V151.047ZM305.849 157.122H302.713V161.674H305.849C306.554 161.674 307.128 161.465 307.57 161.047C308.012 160.617 308.233 160.067 308.233 159.398C308.233 158.729 308.012 158.185 307.57 157.767C307.128 157.337 306.554 157.122 305.849 157.122ZM312.98 163H311.69V154.345H313.034V160.957L317.567 154.345H318.893V163H317.549V156.262L312.98 163ZM324.641 163.215C322.981 163.215 321.679 162.743 320.735 161.799L321.398 160.939C322.21 161.716 323.291 162.104 324.641 162.104C325.418 162.104 326.033 161.967 326.487 161.692C326.953 161.417 327.186 161.053 327.186 160.599C327.186 159.643 326.278 159.165 324.462 159.165H322.527V158.072H324.462C325.215 158.072 325.83 157.953 326.308 157.714C326.786 157.463 327.025 157.098 327.025 156.62C327.025 156.214 326.786 155.886 326.308 155.635C325.83 155.372 325.227 155.241 324.498 155.241C323.291 155.241 322.324 155.611 321.595 156.352L320.896 155.527C321.792 154.607 322.975 154.148 324.444 154.148C325.627 154.136 326.583 154.339 327.312 154.757C328.052 155.163 328.423 155.73 328.423 156.459C328.423 157.057 328.178 157.54 327.688 157.911C327.21 158.281 326.678 158.502 326.093 158.574C326.702 158.622 327.27 158.825 327.795 159.183C328.333 159.541 328.602 160.043 328.602 160.688C328.602 161.429 328.243 162.038 327.527 162.516C326.822 162.982 325.86 163.215 324.641 163.215ZM332.126 163H330.782V154.345H332.126V157.947H336.642V154.345H337.986V163H336.642V159.129H332.126V163ZM344.576 163.215C343.286 163.215 342.229 162.797 341.404 161.961C340.58 161.112 340.168 160.013 340.168 158.663C340.168 157.397 340.574 156.328 341.386 155.456C342.199 154.572 343.214 154.13 344.433 154.13C345.711 154.13 346.721 154.572 347.461 155.456C348.214 156.328 348.59 157.433 348.59 158.771V159.111H341.584C341.643 159.96 341.954 160.67 342.515 161.244C343.077 161.817 343.806 162.104 344.702 162.104C345.777 162.104 346.667 161.74 347.372 161.011L348.017 161.889C347.133 162.773 345.986 163.215 344.576 163.215ZM347.264 158.126C347.252 157.385 347.001 156.722 346.512 156.137C346.022 155.539 345.323 155.241 344.415 155.241C343.555 155.241 342.874 155.533 342.372 156.119C341.882 156.704 341.619 157.373 341.584 158.126H347.264ZM354.584 163.215C353.306 163.215 352.266 162.785 351.466 161.925C350.666 161.053 350.265 159.966 350.265 158.663C350.265 157.361 350.666 156.28 351.466 155.42C352.266 154.56 353.306 154.13 354.584 154.13C355.922 154.13 356.979 154.631 357.756 155.635L356.86 156.459C356.31 155.707 355.576 155.33 354.656 155.33C353.748 155.33 353.019 155.641 352.47 156.262C351.932 156.883 351.663 157.684 351.663 158.663C351.663 159.643 351.932 160.449 352.47 161.083C353.019 161.704 353.748 162.014 354.656 162.014C355.564 162.014 356.298 161.638 356.86 160.885L357.756 161.71C356.979 162.713 355.922 163.215 354.584 163.215Z" fill="black"/>
<rect x="397.28" y="56.28" width="16.6035" height="16.6035" rx="1.28" fill="white" stroke="#CFD6E6" stroke-width="2.56"/>
<rect x="396" y="101" width="19.1635" height="19.1635" rx="2.56" fill="#E81E1E"/>
<path d="M401.678 110.777L404.41 113.314L410.266 107.459" stroke="white" stroke-width="2.56" stroke-linecap="round" stroke-linejoin="round"/>
<path d="M427.987 70.6577H426.499V58.7051H431.302C432.461 58.7051 433.375 59.0515 434.044 59.7444C434.713 60.4373 435.047 61.2915 435.047 62.307C435.047 63.3225 434.707 64.1766 434.026 64.8696C433.357 65.5625 432.449 65.9089 431.302 65.9089H427.987V70.6577ZM431.123 64.5828C431.828 64.5828 432.401 64.3738 432.843 63.9556C433.285 63.5256 433.506 62.976 433.506 62.307C433.506 61.638 433.285 61.0944 432.843 60.6763C432.401 60.2462 431.828 60.0312 431.123 60.0312H427.987V64.5828H431.123ZM436.963 62.0024H438.307V65.3534H441.551C442.411 65.3534 443.08 65.6102 443.558 66.124C444.035 66.6257 444.274 67.2529 444.274 68.0056C444.274 68.7582 444.03 69.3914 443.54 69.9051C443.062 70.4068 442.399 70.6577 441.551 70.6577H436.963V62.0024ZM441.407 66.5361H438.307V69.475H441.407C441.885 69.475 442.249 69.3436 442.5 69.0808C442.763 68.806 442.895 68.4476 442.895 68.0056C442.895 67.5635 442.763 67.2111 442.5 66.9483C442.249 66.6735 441.885 66.5361 441.407 66.5361ZM447.034 70.6577H445.69V62.0024H447.034V70.6577ZM451.387 68.7044C451.913 69.3496 452.618 69.6721 453.502 69.6721C454.386 69.6721 455.085 69.3496 455.598 68.7044C456.112 68.0474 456.369 67.2469 456.369 66.3032C456.369 65.3833 456.112 64.6008 455.598 63.9556C455.085 63.3105 454.386 62.988 453.502 62.988C452.618 62.988 451.913 63.3105 451.387 63.9556C450.873 64.6008 450.617 65.3833 450.617 66.3032C450.617 67.2469 450.873 68.0474 451.387 68.7044ZM453.502 70.8728C452.199 70.8728 451.16 70.4128 450.384 69.4929C449.607 68.573 449.219 67.3843 449.219 65.9268C449.219 63.872 449.589 62.3548 450.33 61.3752C451.071 60.3836 452.211 59.7862 453.753 59.5832C454.672 59.4398 455.306 59.3024 455.652 59.171C456.01 59.0396 456.19 58.8843 456.19 58.7051H457.498C457.498 59.0396 457.396 59.3323 457.193 59.5832C456.99 59.8221 456.697 60.0132 456.315 60.1566C455.945 60.3 455.592 60.4134 455.258 60.4971C454.935 60.5688 454.547 60.6345 454.093 60.6942C452.898 60.8614 452.032 61.19 451.495 61.6798C450.969 62.1696 450.623 62.8207 450.455 63.6331C451.244 62.4026 452.331 61.7873 453.717 61.7873C454.911 61.7873 455.885 62.2234 456.638 63.0955C457.39 63.9676 457.767 65.0368 457.767 66.3032C457.767 67.5934 457.378 68.6805 456.602 69.5646C455.825 70.4367 454.792 70.8728 453.502 70.8728ZM466.819 70.6577H465.475V69.6721C464.746 70.4725 463.79 70.8728 462.608 70.8728C461.807 70.8728 461.102 70.6159 460.493 70.1022C459.884 69.5885 459.579 68.8896 459.579 68.0056C459.579 67.0976 459.878 66.3987 460.475 65.9089C461.085 65.4072 461.795 65.1563 462.608 65.1563C463.838 65.1563 464.794 65.5505 465.475 66.339V64.78C465.475 64.2065 465.272 63.7585 464.866 63.436C464.459 63.1134 463.934 62.9521 463.289 62.9521C462.273 62.9521 461.389 63.3523 460.637 64.1528L460.009 63.2209C460.929 62.2652 462.082 61.7873 463.468 61.7873C464.459 61.7873 465.266 62.0262 465.887 62.5041C466.508 62.982 466.819 63.7167 466.819 64.7083V70.6577ZM463.092 69.9051C464.167 69.9051 464.961 69.5467 465.475 68.8299V67.1992C464.961 66.4824 464.167 66.124 463.092 66.124C462.47 66.124 461.957 66.3032 461.55 66.6616C461.156 67.008 460.959 67.462 460.959 68.0235C460.959 68.573 461.156 69.027 461.55 69.3854C461.957 69.7318 462.47 69.9051 463.092 69.9051ZM468.492 70.8728V69.7617C468.898 69.7617 469.232 69.4929 469.495 68.9553C469.758 68.4177 469.973 67.5217 470.14 66.2673L470.696 62.0024H476.717V70.6577H475.373V63.1851H471.879L471.484 66.4286C471.293 68.0175 470.959 69.1584 470.481 69.8513C470.003 70.5323 469.34 70.8728 468.492 70.8728ZM487.017 70.6577H485.296L482.178 66.7691L480.745 68.1848V70.6577H479.401V62.0024H480.745V66.6078L485.296 62.0024H486.999L483.164 65.9268L487.017 70.6577ZM495.361 70.6577H494.017V69.6721C493.289 70.4725 492.333 70.8728 491.15 70.8728C490.35 70.8728 489.645 70.6159 489.036 70.1022C488.426 69.5885 488.122 68.8896 488.122 68.0056C488.122 67.0976 488.42 66.3987 489.018 65.9089C489.627 65.4072 490.338 65.1563 491.15 65.1563C492.381 65.1563 493.336 65.5505 494.017 66.339V64.78C494.017 64.2065 493.814 63.7585 493.408 63.436C493.002 63.1134 492.476 62.9521 491.831 62.9521C490.816 62.9521 489.932 63.3523 489.179 64.1528L488.552 63.2209C489.472 62.2652 490.625 61.7873 492.01 61.7873C493.002 61.7873 493.808 62.0262 494.43 62.5041C495.051 62.982 495.361 63.7167 495.361 64.7083V70.6577ZM491.634 69.9051C492.709 69.9051 493.504 69.5467 494.017 68.8299V67.1992C493.504 66.4824 492.709 66.124 491.634 66.124C491.013 66.124 490.499 66.3032 490.093 66.6616C489.699 67.008 489.502 67.462 489.502 68.0235C489.502 68.573 489.699 69.027 490.093 69.3854C490.499 69.7318 491.013 69.9051 491.634 69.9051Z" fill="black"/>
<path d="M434.63 117H432.928L431.87 114.348H425.921L424.864 117H423.161L427.964 105.047H429.81L434.63 117ZM431.422 113.022L428.896 106.588L426.351 113.022H431.422ZM440.995 117H436.139V108.345H440.906C441.658 108.345 442.25 108.548 442.68 108.954C443.122 109.36 443.343 109.898 443.343 110.567C443.343 111.057 443.205 111.481 442.931 111.839C442.668 112.185 442.339 112.418 441.945 112.538C442.387 112.645 442.757 112.902 443.056 113.308C443.367 113.715 443.522 114.163 443.522 114.652C443.522 115.357 443.295 115.925 442.841 116.355C442.399 116.785 441.784 117 440.995 117ZM440.727 115.817C441.157 115.817 441.497 115.698 441.748 115.459C441.999 115.22 442.124 114.897 442.124 114.491C442.124 114.121 441.999 113.804 441.748 113.541C441.497 113.279 441.157 113.147 440.727 113.147H437.483V115.817H440.727ZM440.673 111.964C441.079 111.964 441.396 111.857 441.623 111.642C441.85 111.415 441.963 111.122 441.963 110.764C441.963 110.382 441.85 110.083 441.623 109.868C441.396 109.641 441.079 109.527 440.673 109.527H437.483V111.964H440.673ZM448.982 117H447.638V109.527H445.13V108.345H451.509V109.527H448.982V117ZM460.153 115.907C459.376 116.779 458.343 117.215 457.053 117.215C455.762 117.215 454.723 116.779 453.935 115.907C453.158 115.035 452.77 113.954 452.77 112.663C452.77 111.373 453.158 110.298 453.935 109.438C454.723 108.566 455.762 108.13 457.053 108.13C458.343 108.13 459.376 108.566 460.153 109.438C460.941 110.298 461.336 111.373 461.336 112.663C461.336 113.954 460.941 115.035 460.153 115.907ZM454.938 115.047C455.464 115.692 456.169 116.014 457.053 116.014C457.937 116.014 458.636 115.692 459.149 115.047C459.663 114.39 459.92 113.595 459.92 112.663C459.92 111.732 459.663 110.943 459.149 110.298C458.636 109.653 457.937 109.33 457.053 109.33C456.169 109.33 455.464 109.659 454.938 110.316C454.424 110.961 454.167 111.743 454.167 112.663C454.167 113.595 454.424 114.39 454.938 115.047ZM472.361 117H471.017V110.208L468.204 117H467.702L464.87 110.208V117H463.526V108.345H465.301L467.953 114.76L470.569 108.345H472.361V117ZM481.923 115.907C481.146 116.779 480.113 117.215 478.823 117.215C477.532 117.215 476.493 116.779 475.705 115.907C474.928 115.035 474.54 113.954 474.54 112.663C474.54 111.373 474.928 110.298 475.705 109.438C476.493 108.566 477.532 108.13 478.823 108.13C480.113 108.13 481.146 108.566 481.923 109.438C482.711 110.298 483.106 111.373 483.106 112.663C483.106 113.954 482.711 115.035 481.923 115.907ZM476.708 115.047C477.234 115.692 477.939 116.014 478.823 116.014C479.707 116.014 480.406 115.692 480.919 115.047C481.433 114.39 481.69 113.595 481.69 112.663C481.69 111.732 481.433 110.943 480.919 110.298C480.406 109.653 479.707 109.33 478.823 109.33C477.939 109.33 477.234 109.659 476.708 110.316C476.194 110.961 475.938 111.743 475.938 112.663C475.938 113.595 476.194 114.39 476.708 115.047ZM486.963 115.047C487.489 115.692 488.194 116.014 489.078 116.014C489.962 116.014 490.661 115.692 491.174 115.047C491.688 114.39 491.945 113.589 491.945 112.645C491.945 111.726 491.688 110.943 491.174 110.298C490.661 109.653 489.962 109.33 489.078 109.33C488.194 109.33 487.489 109.653 486.963 110.298C486.449 110.943 486.192 111.726 486.192 112.645C486.192 113.589 486.449 114.39 486.963 115.047ZM489.078 117.215C487.775 117.215 486.736 116.755 485.96 115.835C485.183 114.915 484.795 113.727 484.795 112.269C484.795 110.214 485.165 108.697 485.906 107.717C486.646 106.726 487.787 106.129 489.328 105.925C490.248 105.782 490.882 105.645 491.228 105.513C491.586 105.382 491.766 105.227 491.766 105.047H493.074C493.074 105.382 492.972 105.675 492.769 105.925C492.566 106.164 492.273 106.356 491.891 106.499C491.521 106.642 491.168 106.756 490.834 106.839C490.511 106.911 490.123 106.977 489.669 107.036C488.474 107.204 487.608 107.532 487.071 108.022C486.545 108.512 486.198 109.163 486.031 109.975C486.82 108.745 487.907 108.13 489.293 108.13C490.487 108.13 491.461 108.566 492.214 109.438C492.966 110.31 493.343 111.379 493.343 112.645C493.343 113.936 492.954 115.023 492.178 115.907C491.401 116.779 490.368 117.215 489.078 117.215ZM496.929 117H495.639V108.345H496.983V114.957L501.517 108.345H502.843V117H501.499V110.262L496.929 117ZM504.505 117.215V116.104C504.911 116.104 505.246 115.835 505.509 115.298C505.771 114.76 505.986 113.864 506.154 112.61L506.709 108.345H512.73V117H511.386V109.527H507.892L507.498 112.771C507.307 114.36 506.972 115.501 506.494 116.194C506.016 116.875 505.353 117.215 504.505 117.215ZM516.704 117H515.414V108.345H516.758V114.957L521.292 108.345H522.618V117H521.274V110.262L516.704 117Z" fill="black"/>
<rect x="396" y="147.278" width="19.1635" height="19.1635" rx="2.56" fill="#E81E1E"/>
<path d="M401.678 157.055L404.41 159.592L410.266 153.737" stroke="white" stroke-width="2.56" stroke-linecap="round" stroke-linejoin="round"/>
<path d="M434.361 163H432.874V157.516H425.885V163H424.398V151.047H425.885V156.19H432.874V151.047H434.361V163ZM441.008 163.215C439.718 163.215 438.661 162.797 437.836 161.961C437.012 161.112 436.6 160.013 436.6 158.663C436.6 157.397 437.006 156.328 437.818 155.456C438.631 154.572 439.646 154.13 440.865 154.13C442.143 154.13 443.152 154.572 443.893 155.456C444.646 156.328 445.022 157.433 445.022 158.771V159.111H438.015C438.075 159.96 438.386 160.67 438.947 161.244C439.509 161.817 440.237 162.104 441.133 162.104C442.209 162.104 443.099 161.74 443.804 161.011L444.449 161.889C443.565 162.773 442.418 163.215 441.008 163.215ZM443.696 158.126C443.684 157.385 443.433 156.722 442.943 156.137C442.454 155.539 441.755 155.241 440.847 155.241C439.987 155.241 439.306 155.533 438.804 156.119C438.314 156.704 438.051 157.373 438.015 158.126H443.696ZM446.178 165.204V161.889C446.62 161.805 446.966 161.543 447.217 161.1C447.468 160.647 447.671 159.816 447.826 158.61L448.382 154.345H454.403V161.817H455.406V165.204H454.062V163H447.522V165.204H446.178ZM449.564 155.527L449.17 158.771C448.967 160.288 448.549 161.304 447.916 161.817H453.059V155.527H449.564ZM462.1 163H457.244V154.345H462.011C462.763 154.345 463.355 154.548 463.785 154.954C464.227 155.36 464.448 155.898 464.448 156.567C464.448 157.057 464.31 157.481 464.036 157.839C463.773 158.185 463.444 158.418 463.05 158.538C463.492 158.645 463.862 158.902 464.161 159.308C464.472 159.715 464.627 160.163 464.627 160.652C464.627 161.357 464.4 161.925 463.946 162.355C463.504 162.785 462.889 163 462.1 163ZM461.832 161.817C462.262 161.817 462.602 161.698 462.853 161.459C463.104 161.22 463.229 160.897 463.229 160.491C463.229 160.121 463.104 159.804 462.853 159.541C462.602 159.279 462.262 159.147 461.832 159.147H458.588V161.817H461.832ZM461.778 157.964C462.184 157.964 462.501 157.857 462.728 157.642C462.955 157.415 463.068 157.122 463.068 156.764C463.068 156.382 462.955 156.083 462.728 155.868C462.501 155.641 462.184 155.527 461.778 155.527H458.588V157.964H461.778ZM468.457 163H467.166V154.345H468.51V160.957L473.044 154.345H474.37V163H473.026V156.262L468.457 163ZM477.681 163H475.961L479.814 158.269L475.979 154.345H477.681L481.409 158.162V154.345H482.753V158.144L486.48 154.345H488.182L484.33 158.269L488.2 163H486.48L483.362 159.111L482.753 159.721V163H481.409V159.721L480.799 159.111L477.681 163ZM491.084 163H489.794V154.345H491.138V160.957L495.672 154.345H496.998V163H495.654V156.262L491.084 163ZM508.516 163H507.172V156.208L504.359 163H503.857L501.026 156.208V163H499.682V154.345H501.456L504.108 160.76L506.724 154.345H508.516V163ZM518.078 161.907C517.301 162.779 516.268 163.215 514.978 163.215C513.687 163.215 512.648 162.779 511.86 161.907C511.083 161.035 510.695 159.954 510.695 158.663C510.695 157.373 511.083 156.298 511.86 155.438C512.648 154.566 513.687 154.13 514.978 154.13C516.268 154.13 517.301 154.566 518.078 155.438C518.866 156.298 519.261 157.373 519.261 158.663C519.261 159.954 518.866 161.035 518.078 161.907ZM512.863 161.047C513.389 161.692 514.094 162.014 514.978 162.014C515.862 162.014 516.561 161.692 517.074 161.047C517.588 160.39 517.845 159.595 517.845 158.663C517.845 157.732 517.588 156.943 517.074 156.298C516.561 155.653 515.862 155.33 514.978 155.33C514.094 155.33 513.389 155.659 512.863 156.316C512.349 156.961 512.093 157.743 512.093 158.663C512.093 159.595 512.349 160.39 512.863 161.047ZM525.268 163.215C523.99 163.215 522.951 162.785 522.15 161.925C521.35 161.053 520.95 159.966 520.95 158.663C520.95 157.361 521.35 156.28 522.15 155.42C522.951 154.56 523.99 154.13 525.268 154.13C526.606 154.13 527.664 154.631 528.44 155.635L527.544 156.459C526.995 155.707 526.26 155.33 525.34 155.33C524.432 155.33 523.703 155.641 523.154 156.262C522.616 156.883 522.347 157.684 522.347 158.663C522.347 159.643 522.616 160.449 523.154 161.083C523.703 161.704 524.432 162.014 525.34 162.014C526.248 162.014 526.983 161.638 527.544 160.885L528.44 161.71C527.664 162.713 526.606 163.215 525.268 163.215ZM533.245 163H531.901V155.527H529.392V154.345H535.772V155.527H533.245V163ZM537.534 154.345H538.878V157.696H542.122C542.982 157.696 543.651 157.953 544.129 158.466C544.606 158.968 544.845 159.595 544.845 160.348C544.845 161.1 544.6 161.734 544.111 162.247C543.633 162.749 542.97 163 542.122 163H537.534V154.345ZM541.978 158.878H538.878V161.817H541.978C542.456 161.817 542.82 161.686 543.071 161.423C543.334 161.148 543.466 160.79 543.466 160.348C543.466 159.906 543.334 159.553 543.071 159.291C542.82 159.016 542.456 158.878 541.978 158.878Z" fill="black"/>
<path d="M258 179H580V181H258V179Z" fill="#FAFAFA"/>
</svg>
