<svg width="54" height="54" viewBox="0 0 54 54" fill="none" xmlns="http://www.w3.org/2000/svg">
<g clip-path="url(#clip0)">
<path d="M53.7137 39.4198C53.6483 39.2788 53.5874 39.162 53.5308 39.0683C52.5939 37.3809 50.8035 35.3098 48.1607 32.8543L48.1048 32.7981L48.0769 32.7705L48.0486 32.7422H48.0203C46.8208 31.5988 46.0613 30.83 45.7432 30.4364C45.1612 29.6866 45.0308 28.9277 45.3489 28.1587C45.5736 27.5777 46.4178 26.3506 47.8793 24.476C48.6481 23.4824 49.257 22.6862 49.7067 22.0862C52.9496 17.775 54.3555 15.02 53.9242 13.8203L53.7567 13.5399C53.6441 13.3711 53.3536 13.2167 52.8856 13.0759C52.4164 12.9354 51.8168 12.9121 51.0856 13.0058L42.9885 13.0617C42.8574 13.0152 42.6701 13.0196 42.426 13.0759C42.1823 13.1322 42.0604 13.1605 42.0604 13.1605L41.9195 13.2309L41.8076 13.3155C41.7139 13.3714 41.6108 13.4698 41.4982 13.6104C41.3862 13.7506 41.2926 13.915 41.2177 14.1024C40.3362 16.3704 39.3339 18.4791 38.209 20.4283C37.5154 21.5906 36.8785 22.5979 36.2968 23.4508C35.7159 24.3034 35.2285 24.9316 34.8352 25.3343C34.4413 25.7373 34.0858 26.0602 33.7666 26.3042C33.4478 26.5482 33.2045 26.6513 33.036 26.6136C32.8671 26.5759 32.7081 26.5384 32.5575 26.501C32.2952 26.3322 32.0843 26.1027 31.9253 25.8122C31.7655 25.5217 31.658 25.156 31.6018 24.7156C31.5458 24.2748 31.5128 23.8956 31.5033 23.5769C31.4945 23.2585 31.4986 22.8082 31.5176 22.2272C31.5371 21.6459 31.5458 21.2526 31.5458 21.0463C31.5458 20.334 31.5597 19.5608 31.5876 18.7267C31.616 17.8927 31.6389 17.2318 31.6581 16.7449C31.6772 16.2576 31.6861 15.7419 31.6861 15.1984C31.6861 14.6548 31.653 14.2285 31.5876 13.9191C31.523 13.61 31.4238 13.3101 31.2932 13.0193C31.1617 12.7288 30.9693 12.5041 30.7168 12.3445C30.4638 12.1852 30.1493 12.0588 29.775 11.9648C28.7814 11.74 27.5163 11.6184 25.979 11.5995C22.4929 11.562 20.2528 11.7872 19.2594 12.2745C18.8658 12.4804 18.5096 12.7618 18.1911 13.1177C17.8537 13.5302 17.8066 13.7553 18.0502 13.7923C19.175 13.9608 19.9713 14.3639 20.4399 15.0011L20.6088 15.3388C20.7402 15.5824 20.8714 16.0137 21.0026 16.6322C21.1337 17.2506 21.2183 17.9347 21.2555 18.6841C21.3491 20.0526 21.3491 21.2241 21.2555 22.1986C21.1617 23.1735 21.073 23.9325 20.9884 24.4761C20.9039 25.0196 20.7774 25.4601 20.6088 25.7974C20.4399 26.1348 20.3276 26.341 20.2712 26.4158C20.215 26.4907 20.1681 26.5378 20.1309 26.5564C19.8873 26.6497 19.6339 26.6973 19.3717 26.6973C19.109 26.6973 18.7906 26.5659 18.4158 26.3034C18.0411 26.0408 17.6522 25.6802 17.2491 25.2209C16.8461 24.7615 16.3915 24.1196 15.8852 23.2949C15.3794 22.4703 14.8545 21.4957 14.3109 20.3711L13.8612 19.5555C13.58 19.0308 13.196 18.2669 12.7086 17.2643C12.2209 16.2613 11.7899 15.2911 11.4152 14.3539C11.2654 13.9603 11.0404 13.6607 10.7406 13.4544L10.5998 13.3699C10.5063 13.295 10.3561 13.2155 10.1501 13.1309C9.94379 13.0463 9.72852 12.9856 9.50341 12.9483L1.79974 13.0042C1.01253 13.0042 0.478396 13.1826 0.197149 13.5387L0.0845907 13.7072C0.028361 13.8011 0 13.951 0 14.1573C0 14.3635 0.0562297 14.6166 0.168788 14.9162C1.29338 17.5593 2.51635 20.1084 3.8377 22.5638C5.15905 25.0192 6.30728 26.997 7.2817 28.4956C8.25631 29.9953 9.24974 31.4107 10.262 32.7411C11.2742 34.072 11.9442 34.9249 12.2721 35.2996C12.6003 35.675 12.8581 35.9557 13.0455 36.1431L13.7485 36.8177C14.1983 37.2677 14.8589 37.8065 15.7305 38.4343C16.6023 39.0625 17.5675 39.6809 18.6265 40.2906C19.6857 40.8993 20.9179 41.396 22.3239 41.7801C23.7296 42.1647 25.0978 42.319 26.4287 42.2445H29.6621C30.3179 42.1879 30.8147 41.9817 31.1523 41.6258L31.2642 41.4849C31.3394 41.373 31.4098 41.1992 31.4748 40.9653C31.5406 40.7311 31.5733 40.473 31.5733 40.1922C31.5541 39.3864 31.6155 38.6601 31.7557 38.0135C31.8958 37.3671 32.0556 36.8798 32.2342 36.5516C32.4127 36.2236 32.6142 35.9469 32.8384 35.7226C33.0632 35.4978 33.2233 35.3616 33.3172 35.3147C33.4106 35.2675 33.4851 35.2355 33.5414 35.2163C33.9912 35.0664 34.5206 35.2116 35.1304 35.6525C35.7396 36.093 36.3111 36.6368 36.8456 37.2832C37.3798 37.9302 38.0217 38.6561 38.7713 39.4619C39.5214 40.268 40.1772 40.8673 40.7393 41.2615L41.3014 41.5988C41.6768 41.824 42.1642 42.0302 42.7641 42.2176C43.3629 42.4049 43.8876 42.4517 44.3381 42.3581L51.5354 42.2458C52.2473 42.2458 52.8013 42.128 53.1942 41.8941C53.5879 41.6598 53.8218 41.4017 53.8972 41.1209C53.9724 40.8399 53.9765 40.521 53.9115 40.1645C53.8448 39.8089 53.7791 39.5603 53.7137 39.4198Z" fill="#5181B8"/>
</g>
<defs>
<clipPath id="clip0">
<rect width="54" height="54" fill="white"/>
</clipPath>
</defs>
</svg>
