<svg width="90" height="35" viewBox="0 0 90 35" fill="none" xmlns="http://www.w3.org/2000/svg">
<path d="M39.6072 13.2624C37.5476 13.2624 35.4003 14.7462 35.4003 14.7462V13.7926C35.4003 13.5835 35.3156 13.4998 35.1038 13.4998H32.475C32.2629 13.4998 32.1358 13.6253 32.1358 13.7926V34.1289C32.1358 34.3388 32.2206 34.4643 32.4326 34.4643H35.1036C35.2729 34.4643 35.4 34.3388 35.4 34.1289V16.7213C35.4 16.7213 36.6398 15.946 38.1456 15.946C39.5791 15.946 40.7109 16.6483 40.7109 18.0882V34.1281C40.7109 34.338 40.8377 34.4635 41.0501 34.4635H43.6783C43.8904 34.4635 43.975 34.2956 43.975 34.1281V17.1767C43.9748 14.6237 42.3846 13.2624 39.6072 13.2624ZM60.0547 3.06152H57.4259C57.2136 3.06152 57.0869 3.18684 57.0869 3.35456V13.6137C56.0776 13.2318 55.1589 13.0299 54.4164 13.0299C50.1472 13.0299 47.2165 17.0582 47.2165 24.8041C47.2165 31.4401 50.0674 34.9989 53.788 34.9989C55.356 34.9989 56.6509 34.112 57.5987 33.28L58.1726 34.2404C58.2694 34.4064 58.3486 34.4633 58.5432 34.4633L60.0551 34.4648C60.2246 34.4648 60.352 34.3392 60.352 34.1293V3.35456C60.3516 3.14507 60.2663 3.06152 60.0547 3.06152ZM50.6926 24.1188C50.6926 19.8504 51.9583 15.6242 54.5427 15.6242C55.4183 15.6242 56.2589 15.9086 57.0873 16.5579V31.5948C56.4397 31.9426 55.6251 32.2628 54.7449 32.2628C51.9344 32.2628 50.6926 28.973 50.6926 24.1188ZM70.1237 13.0719C65.7461 13.0719 63.5855 18.7242 63.5855 24.875C63.5855 31.3135 66.6671 34.922 70.6291 34.922C72.3706 34.922 74.1044 34.2456 75.2412 33.622C75.4153 33.5263 75.4468 33.3917 75.4051 33.2252L75.0726 31.8651C75.0311 31.6986 74.9462 31.6159 74.7361 31.6159C74.6437 31.6159 73.2072 32.0305 71.8099 32.0305C68.5674 32.0305 67.0807 29.1856 67.0807 25.4073V24.4891C67.0807 24.4891 68.6921 24.709 69.6603 24.709H75.7774V22.964C75.7776 16.5217 73.492 13.0719 70.1237 13.0719ZM69.9132 22.0907C68.945 22.0907 67.1829 22.327 67.1829 22.327C67.1829 22.327 67.2064 21.6334 67.291 20.969C67.6703 17.4362 68.5239 15.649 69.9974 15.649C71.2786 15.649 72.1567 17.4774 72.3675 20.6776C72.4092 21.3427 72.4092 22.0907 72.4092 22.0907H69.9132ZM27.1436 15.7136C26.1714 13.823 24.4401 12.9968 22.4568 12.9968C21.1828 12.9968 19.1944 13.4776 17.8663 14.067C17.6065 14.1824 17.4424 14.2837 17.4424 14.4854C17.4424 14.6053 17.503 14.743 17.5694 14.862L18.4643 16.7529C18.5564 16.9664 18.7044 17.0154 18.8265 17.0154C18.9589 17.0154 19.0666 16.9535 19.1852 16.8785C20.4807 16.0616 21.4294 15.6122 22.1805 15.6122C23.1742 15.6122 23.8491 16.2628 24.2652 17.2414C24.653 18.1532 24.8028 19.413 24.8028 20.8687C24.8028 21.0542 24.8039 21.2963 24.8039 21.2963C23.9876 20.7922 22.5733 20.5144 21.8673 20.5144C18.0693 20.5144 16.0215 24.0761 16.0215 27.885C16.0215 31.9889 18.4152 34.9987 21.2917 34.9987C22.8937 34.9987 24.344 34.0708 25.3153 32.9005C25.3153 32.9005 25.8326 34.1175 25.9001 34.2635C25.9682 34.4091 26.0398 34.4631 26.2345 34.4631L27.7717 34.4646C27.941 34.4646 28.0682 34.339 28.0682 34.1291V22.3322C28.0675 19.4331 27.9192 17.2218 27.1436 15.7136ZM24.8034 31.1688C24.0502 31.8868 23.1485 32.2628 22.3368 32.2628C21.5253 32.2628 20.8982 31.8928 20.3952 31.2072C19.783 30.3736 19.4974 29.0898 19.4974 27.667C19.4974 25.417 20.339 23.1083 22.1227 23.1083C23.0056 23.1083 23.9754 23.3921 24.8032 24.042L24.8034 31.1688ZM89.6596 13.4969H87.3164C87.0547 13.4969 86.921 13.6321 86.8538 13.8077C86.3369 15.1486 85.8219 16.4903 85.309 17.8326C85.0194 18.5945 84.2396 20.7758 84.2396 20.7758L84.1489 20.7752C84.1455 20.7673 83.575 19.1882 83.2658 18.3974C83.0158 17.7561 81.7101 14.3625 81.5452 13.9444C81.4568 13.7196 81.3581 13.4969 81.0229 13.4969H78.458C78.1759 13.4969 78.0165 13.8023 78.1072 13.9917C78.199 14.1818 82.2856 23.3701 82.2856 23.3701C82.2856 23.3701 77.8969 33.6589 77.7682 33.8897C77.64 34.1206 77.8009 34.4627 78.1131 34.4627H80.361C80.7434 34.4627 80.8944 34.2648 81.0093 33.9461C81.3323 33.0527 81.8134 31.8105 82.4947 29.8903C82.9458 28.6181 83.6599 26.3849 83.6599 26.3849H83.7384C83.7384 26.3849 84.52 28.6609 84.811 29.405C85.5453 31.2869 86.4846 33.7447 86.5845 34.0042C86.6883 34.2755 86.8335 34.4629 87.0962 34.4629H89.6454C89.8977 34.4629 90.0146 34.1788 89.8956 33.9314C89.6119 33.3412 87.1909 27.5353 85.5097 23.7182C85.5097 23.7182 89.8723 14.2155 89.9576 13.9804C90.0443 13.7448 90.0192 13.4969 89.6596 13.4969Z" fill="#272525"/>
<path d="M18.676 0.00195312H15.7205C15.4588 0.00195312 15.2956 0.128515 15.2577 0.312567C15.2202 0.497447 10.8262 13.7215 10.5067 14.8231C10.2802 15.6038 9.54206 18.3571 9.3648 19.0183L7.83658 14.9001C7.46552 13.7668 3.90602 3.95246 3.80189 3.56037C3.74448 3.34488 3.64391 3.07687 3.26112 3.07687H0.376264C0.0938337 3.07687 -0.0651906 3.38252 0.0255308 3.57195C0.0984431 3.72332 5.30958 17.4075 7.41503 22.6354V34.1294C7.41503 34.3393 7.49988 34.4648 7.71191 34.4648H10.4445C10.614 34.4648 10.7411 34.3393 10.7411 34.1294V22.7258C12.4956 17.8877 18.9063 0.67819 18.976 0.485452C19.0609 0.2497 19.0357 0.00195312 18.676 0.00195312Z" fill="#FF0000"/>
</svg>
