<svg width="100" height="100" style="width: 100px; height: 100px;" viewBox="0 0 100 100" fill="none" xmlns="http://www.w3.org/2000/svg">
<mask id="mask0" mask-type="alpha" maskUnits="userSpaceOnUse" x="0" y="0" width="100" height="100">
<rect width="100" height="100" fill="white"/>
</mask>
<g mask="url(#mask0)">
<path d="M41.6893 57.9654L25.1186 62.4055C22.3317 63.1522 19.4671 61.4984 18.7204 58.7115L16.2371 59.3769C11.7781 60.5717 7.19478 57.9255 6 53.4666C7.29565 54.6467 11.6503 56.3071 18.7037 53.5079L39.1038 48.3162C44.9109 47.4115 57.7769 46.9293 62.7848 52.2386C65.7768 54.0107 71.992 53.6812 74.0818 50.1603L76.5729 59.4573C77.3913 62.5114 75.5788 65.6506 72.5248 66.469C69.4707 67.2873 66.3315 65.4749 65.5132 62.4208L65.3807 61.9264C56.9476 56.6133 46.7535 57.3097 41.6893 57.9654Z" fill="#E81E1E"/>
<path d="M35.2363 81.5708L31.2401 67.8344L31.2361 66.5708L27.7796 67.0592C29.2777 72.0597 31.2875 82.5571 33.2699 84.5618C35.748 87.0677 39.7145 84.5827 38.2099 84.5778C37.0063 84.5739 35.726 82.5715 35.2363 81.5708Z" fill="#E81E1E"/>
<path d="M77.6189 29.7373C77.2014 30.4529 77.443 31.3714 78.1586 31.7889C78.8741 32.2064 79.7926 31.9648 80.2101 31.2493L77.6189 29.7373ZM84.3247 24.1976C84.7422 23.482 84.5006 22.5635 83.7851 22.146C83.0695 21.7285 82.151 21.9701 81.7335 22.6856L84.3247 24.1976ZM84.9305 38.686C84.1303 38.9004 83.6554 39.7229 83.8698 40.5231C84.0843 41.3233 84.9068 41.7982 85.707 41.5837L84.9305 38.686ZM93.3459 39.5369C94.1461 39.3225 94.621 38.5 94.4066 37.6998C94.1922 36.8996 93.3697 36.4247 92.5695 36.6391L93.3459 39.5369ZM85.2021 49.8797C84.4828 49.4688 83.5665 49.7188 83.1556 50.4382C82.7447 51.1575 82.9947 52.0737 83.714 52.4847L85.2021 49.8797ZM90.8032 56.5343C91.5226 56.9452 92.4388 56.6952 92.8497 55.9759C93.2607 55.2565 93.0106 54.3403 92.2913 53.9294L90.8032 56.5343ZM24.0699 67.904L28.3159 83.7502L31.2136 82.9738L26.9677 67.1275L24.0699 67.904ZM41.9082 80.1082L37.6622 64.2619L34.7644 65.0384L39.0104 80.8846L41.9082 80.1082ZM34.2609 34.9561L17.9133 39.3364L18.6897 42.2342L35.0373 37.8539L34.2609 34.9561ZM25.3512 69.1136L42.2034 64.598L41.427 61.7003L24.5747 66.2158L25.3512 69.1136ZM43.2641 62.7609L36.098 36.0168L33.2002 36.7932L40.3663 63.5374L43.2641 62.7609ZM42.0103 64.6364C47.153 63.9617 57.0122 63.7687 65.2086 69.2608L66.8786 66.7686C57.7779 60.6705 47.0232 60.9531 41.6201 61.6619L42.0103 64.6364ZM35.2238 37.7905C40.1863 35.7323 49.8293 31.1125 54.6802 21.2433L51.9878 19.92C47.6541 28.7369 38.9366 33.0029 34.0745 35.0194L35.2238 37.7905ZM52.034 21.5257L64.4458 67.8471L67.3436 67.0707L54.9318 20.7493L52.034 21.5257ZM78.5474 64.0686L66.1356 17.7472L63.2378 18.5237L75.6496 64.8451L78.5474 64.0686ZM13.8499 46.3744L11.2291 47.0767L12.0055 49.9744L14.6263 49.2722L13.8499 46.3744ZM12.7892 48.2115L17.1159 64.3589L20.0137 63.5825L15.687 47.4351L12.7892 48.2115ZM16.3322 66.1219L18.953 65.4196L18.1766 62.5218L15.5557 63.2241L16.3322 66.1219ZM80.2101 31.2493L84.3247 24.1976L81.7335 22.6856L77.6189 29.7373L80.2101 31.2493ZM85.707 41.5837L93.3459 39.5369L92.5695 36.6391L84.9305 38.686L85.707 41.5837ZM83.714 52.4847L90.8032 56.5343L92.2913 53.9294L85.2021 49.8797L83.714 52.4847ZM11.2291 47.0767C5.96987 48.4858 2.84883 53.8916 4.25803 59.1508L7.1558 58.3744C6.17543 54.7156 8.34672 50.9548 12.0055 49.9744L11.2291 47.0767ZM64.4458 67.8471C65.4892 71.7412 69.4918 74.0521 73.3858 73.0087L72.6094 70.1109C70.3157 70.7255 67.9582 69.3643 67.3436 67.0707L64.4458 67.8471ZM54.9318 20.7493C54.3172 18.4556 55.6784 16.098 57.972 15.4835L57.1956 12.5857C53.3015 13.6291 50.9906 17.6317 52.034 21.5257L54.9318 20.7493ZM4.25803 59.1508C5.66722 64.41 11.073 67.531 16.3322 66.1219L15.5557 63.2241C11.897 64.2044 8.13617 62.0332 7.1558 58.3744L4.25803 59.1508ZM17.9133 39.3364C14.0475 40.3723 11.7534 44.3458 12.7892 48.2115L15.687 47.4351C15.08 45.1697 16.4243 42.8412 18.6897 42.2342L17.9133 39.3364ZM66.1356 17.7472C65.0922 13.8532 61.0896 11.5423 57.1956 12.5857L57.972 15.4835C60.2656 14.8689 62.6232 16.23 63.2378 18.5237L66.1356 17.7472ZM36.933 88.7254C40.6864 87.7196 42.9139 83.8616 41.9082 80.1082L39.0104 80.8846C39.5873 83.0376 38.3096 85.2507 36.1566 85.8276L36.933 88.7254ZM24.5747 66.2158C22.588 66.7481 20.546 65.5692 20.0137 63.5825L17.1159 64.3589C18.077 67.946 21.7641 70.0747 25.3512 69.1136L24.5747 66.2158ZM73.3858 73.0087C77.2799 71.9653 79.5908 67.9627 78.5474 64.0686L75.6496 64.8451C76.2642 67.1387 74.903 69.4963 72.6094 70.1109L73.3858 73.0087ZM28.3159 83.7502C29.3216 87.5036 33.1796 89.7311 36.933 88.7254L36.1566 85.8276C34.0036 86.4045 31.7905 85.1268 31.2136 82.9738L28.3159 83.7502Z" fill="#3C4D5D"/>
</g>
</svg>
