<svg width="100" height="100" style="width: 100px; height: 100px;" viewBox="0 0 100 100" fill="none" xmlns="http://www.w3.org/2000/svg">
<rect width="100" height="100" fill="white"/>
<path d="M50 22.5V41.5M50 58.5V77M22.5 50H42M60.5 50H77.5M37 37L44 44M56 55.5L63 63" stroke="#3C4D5D" stroke-width="3" stroke-linecap="round"/>
<path d="M46.1662 42.8336L44 44C44.6918 43.5058 45.4204 43.1191 46.1662 42.8336L70 30L56 55.5C61.195 46.0377 52.9664 40.23 46.1662 42.8336Z" fill="#E81E1E"/>
<path d="M44 44L29.5 70.5L56 55.5L70 30L44 44Z" stroke="#3C4D5D" stroke-width="3" stroke-linejoin="round"/>
<path d="M4 50C4 75.4051 24.5949 96 50 96C75.4051 96 96 75.4051 96 50C96 24.5949 75.4051 4 50 4" stroke="#E81E1E" stroke-width="3.5"/>
<circle cx="50" cy="50" r="48.5" stroke="#3C4D5D" stroke-width="3"/>
<path d="M92.5 50C92.5 73.4721 73.4721 92.5 50 92.5C26.5279 92.5 7.5 73.4721 7.5 50C7.5 26.5279 26.5279 7.5 50 7.5C73.4721 7.5 92.5 26.5279 92.5 50Z" stroke="#3C4D5D" stroke-width="3" stroke-linecap="round"/>
<circle cx="50" cy="50" r="7.5" stroke="#3C4D5D" stroke-width="3"/>
<circle cx="50" cy="50" r="3" fill="#3C4D5D"/>
</svg>
