<svg width="100" height="100" viewBox="0 0 100 100" fill="none" xmlns="http://www.w3.org/2000/svg">
<mask id="mask0" mask-type="alpha" maskUnits="userSpaceOnUse" x="0" y="0" width="100" height="100">
<rect width="100" height="100" fill="white"/>
</mask>
<g mask="url(#mask0)">
<path d="M68.546 54.8545C65.9291 58.5182 62.2654 60.6117 59.6484 61.6585L60.6952 66.7398C66.9034 61.1682 68.546 58.3262 68.546 54.8545Z" fill="#E81E1E"/>
<path d="M40.2828 59.0413C45.5166 64.2751 38.3637 71.6025 36.0957 73.1727C42.795 74.0101 45.3422 66.1942 46.5634 62.705C71.1625 49.097 72.7326 22.9277 72.7326 10.8899C67.2894 38.5246 51.2739 54.8542 40.2828 59.0413Z" fill="#E81E1E"/>
<path d="M65.6387 48.4661C70.0373 52.0129 74.6842 61.0615 58.0822 68.8818C58.914 66.7432 59.776 61.7614 56.5686 58.9426L38.8913 48.7366C37.2932 48.0154 33.1829 47.7374 29.5267 52.3953C28.2792 45.833 29.1318 33.1906 42.5224 35.1199" stroke="#3C4D5D" stroke-width="3" stroke-linejoin="round"/>
<circle cx="59.5412" cy="32.8586" r="5.304" transform="rotate(30 59.5412 32.8586)" stroke="#3C4D5D" stroke-width="3"/>
<circle cx="50.1196" cy="49.1761" r="1.57015" transform="rotate(30 50.1196 49.1761)" fill="#3C4D5D"/>
<path d="M54.2734 42.5093L52.7033 45.2289" stroke="#3C4D5D" stroke-width="3" stroke-linecap="round"/>
<path d="M48.3018 63.8394C74.6423 50.0381 76.1205 22.2855 73.0787 10.4568C61.3138 13.7369 37.112 28.37 38.33 58.0822L48.3018 63.8394Z" stroke="#3C4D5D" stroke-width="3" stroke-linejoin="round"/>
<path d="M59.3213 17.0186L74.279 25.6544" stroke="#3C4D5D" stroke-width="3"/>
<path d="M29.1426 58.8215L26.264 63.8074M29.4881 68.6907L23.2075 79.569M43.9926 77.0648L37.712 87.9432M33.2683 79.9384L26.9876 90.8168M52.7123 72.4295L49.8337 77.4154" stroke="#3C4D5D" stroke-width="3" stroke-linecap="round"/>
<path d="M35.6939 74.6909C33.0886 64.9675 37.4248 60.1785 39.9186 58.9995L47.1709 63.1866C47.3967 65.9358 45.4174 72.0856 35.6939 74.6909Z" stroke="#3C4D5D" stroke-width="3" stroke-linejoin="round"/>
</g>
</svg>
