<svg width="100" height="100" viewBox="0 0 100 100" fill="none" xmlns="http://www.w3.org/2000/svg">
<path d="M45.1221 30.9157C44.9536 32.0845 45.0385 33.2759 45.3709 34.409C45.7033 35.5421 46.2755 36.5904 47.0488 37.4829C47.822 38.3755 48.7781 39.0912 49.8523 39.5817C50.9264 40.0722 52.0935 40.326 53.2744 40.3258H60.2621C62.421 40.2883 64.4789 39.4043 65.9924 37.8642C67.5059 36.3242 68.354 34.2513 68.354 32.092C68.354 29.9327 67.5059 27.8598 65.9924 26.3197C64.4789 24.7797 62.421 23.8957 60.2621 23.8582L56.2675 23.8465" stroke="#3C4D5D" stroke-width="3" stroke-linecap="round" stroke-linejoin="round"/>
<path d="M52.1106 33.2448C52.2791 32.076 52.1942 30.8846 51.8618 29.7515C51.5294 28.6184 50.9571 27.5701 50.1839 26.6776C49.4107 25.785 48.4546 25.0693 47.3804 24.5788C46.3063 24.0883 45.1392 23.8345 43.9583 23.8347L36.9706 23.8347C34.8117 23.8722 32.7538 24.7562 31.2403 26.2963C29.7268 27.8363 28.8787 29.9092 28.8787 32.0685C28.8787 34.2278 29.7268 36.3007 31.2403 37.8408C32.7538 39.3808 34.8117 40.2648 36.9706 40.3023L40.9536 40.3023" stroke="#3C4D5D" stroke-width="3" stroke-linecap="round" stroke-linejoin="round"/>
<path d="M50 69.0837L32.08 81.3832C22.28 86.8209 8 83.9281 8 69.0838C8 54.6886 23.12 52.0876 32.08 57.6323L41.04 63.358" stroke="#E81E1E" stroke-width="3" stroke-linecap="round"/>
<path d="M50 69.0837L67.92 57.6323C76.88 52.0876 92 54.6886 92 69.0838C92 83.9281 77.72 86.8209 67.92 81.3832L58.96 75.2335" stroke="#E81E1E" stroke-width="3" stroke-linecap="round"/>
<path d="M50 64.0837L32.08 76.3832C22.28 81.8209 8 78.9281 8 64.0838C8 49.6886 23.12 47.0876 32.08 52.6323L41.04 58.358" stroke="#3C4D5D" stroke-width="3" stroke-linecap="round"/>
<path d="M50 64.0837L67.92 52.6323C76.88 47.0876 92 49.6886 92 64.0838C92 78.9281 77.72 81.8209 67.92 76.3832L58.96 70.2335" stroke="#3C4D5D" stroke-width="3" stroke-linecap="round"/>
</svg>
