<svg width="100" height="100" style="width: 100px; height: 100px;" viewBox="0 0 100 100" fill="none" xmlns="http://www.w3.org/2000/svg">
<path d="M91.6474 34.3847H87.6438V30C87.6438 27.7909 85.853 26 83.6438 26H27.2344C25.0252 26 23.2344 27.7909 23.2344 30V85.2661C23.2344 87.4752 25.0252 89.2661 27.2344 89.2661H91.6474C93.8565 89.2661 95.6474 87.4753 95.6474 85.2661V38.3847C95.6474 36.1755 93.8565 34.3847 91.6474 34.3847Z" fill="white"/>
<path d="M87.6438 34.3847H91.6474C93.8565 34.3847 95.6474 36.1755 95.6474 38.3847V85.2661C95.6474 87.4752 93.8565 89.2661 91.6474 89.2661H27.2344C25.0252 89.2661 23.2344 87.4752 23.2344 85.2661V30C23.2344 27.7909 25.0252 26 27.2344 26H83.6438C85.853 26 87.6438 27.7909 87.6438 30V34.3847ZM87.6438 34.3847V80.787C87.6438 81.8916 88.5393 82.787 89.6438 82.787H89.9306" stroke="#3C4D5D" stroke-width="3" stroke-linecap="round"/>
<path d="M94 85C94 86.6569 92.6569 88 91 88L27 88C25.3431 88 24 86.6569 24 85L94 85Z" fill="#E81E1E"/>
<path d="M89 36C90.6569 36 92 37.3431 92 39V79C92 80.6569 90.6569 82 89 82V36Z" fill="#E81E1E"/>
<path d="M33.5244 36.29H76.9722M76.9722 44.6747H59.4407M76.9722 53.4405H59.4407M76.9722 61.8252H59.4407M76.9722 70.5909H59.4407M76.9722 79.3567H59.4407M51.056 70.5909H33.5244M51.056 79.3567H33.5244M33.5244 45.6747V60.8252C33.5244 61.3774 33.9721 61.8252 34.5244 61.8252H50.056C50.6083 61.8252 51.056 61.3774 51.056 60.8252V45.6747C51.056 45.1224 50.6083 44.6747 50.056 44.6747H34.5244C33.9721 44.6747 33.5244 45.1224 33.5244 45.6747Z" stroke="#3C4D5D" stroke-width="3" stroke-linecap="round"/>
<path d="M73.413 18.3847H69.4095V14C69.4095 11.7909 67.6186 10 65.4095 10H9C6.79086 10 5 11.7909 5 14V69.2661C5 71.4752 6.79086 73.2661 9 73.2661H73.413C75.6222 73.2661 77.413 71.4753 77.413 69.2661V22.3847C77.413 20.1755 75.6222 18.3847 73.413 18.3847Z" fill="white"/>
<path d="M69.4095 18.3847H73.413C75.6222 18.3847 77.413 20.1755 77.413 22.3847V69.2661C77.413 71.4752 75.6222 73.2661 73.413 73.2661H9C6.79086 73.2661 5 71.4752 5 69.2661V14C5 11.7909 6.79086 10 9 10H65.4095C67.6186 10 69.4095 11.7909 69.4095 14V18.3847ZM69.4095 18.3847V64.787C69.4095 65.8916 70.3049 66.787 71.4095 66.787H71.6962" stroke="#3C4D5D" stroke-width="3" stroke-linecap="round"/>
<path d="M76 69C76 70.6569 74.6569 72 73 72L9 72C7.34315 72 6 70.6569 6 69L76 69Z" fill="#E81E1E"/>
<path d="M15.29 20.2903H58.7379M58.7379 28.6749H41.2063M58.7379 37.4407H41.2063M58.7379 45.8254H41.2063M58.7379 54.5912H41.2063M58.7379 63.357H41.2063M32.8216 54.5912H15.29M32.8216 63.357H15.29M15.29 29.6749V44.8254C15.29 45.3777 15.7378 45.8254 16.29 45.8254H31.8216C32.3739 45.8254 32.8216 45.3777 32.8216 44.8254V29.6749C32.8216 29.1227 32.3739 28.6749 31.8216 28.6749H16.29C15.7378 28.6749 15.29 29.1227 15.29 29.6749Z" stroke="#3C4D5D" stroke-width="3" stroke-linecap="round"/>
<path d="M17 30H27V44H17V30Z" fill="#E81E1E"/>
<path d="M71 20C72.6569 20 74 21.3431 74 23V63C74 64.6569 72.6569 66 71 66V20Z" fill="#E81E1E"/>
</svg>
