<svg width="145" height="23" viewBox="0 0 145 23" fill="none" xmlns="http://www.w3.org/2000/svg">
<g clip-path="url(#clip0)">
<path fill-rule="evenodd" clip-rule="evenodd" d="M84.5833 14.8309V23H79.75V0H84.5833V14.8243L90.9118 6.65768H96.6497L89.8509 14.8276L96.6667 23H90.8787L84.5833 14.8309ZM113.583 11.9485C113.583 10.7287 113.973 9.545 114.724 8.52971C115.361 7.64257 116.224 7.07003 117.309 6.80882C118.003 6.64289 119.329 6.57143 120.863 6.57143H124.843L124.288 9.83743H120.545C119.981 9.83743 118.41 10.2679 118.396 12.0824L118.388 19.0029L118.384 22.9688L113.583 22.9704V11.9485ZM99.0833 6.57143H103.917V22.9137H99.0833V6.57143ZM142.583 6.57143V22.9409C142.583 22.9409 131.459 23.0805 130.83 22.931C129.79 22.6731 128.961 22.2057 128.335 21.3358C127.636 20.355 127.278 19.2198 127.278 17.9589V6.57143H132.135V17.6024C132.135 18.1396 132.265 18.6678 132.711 19.0588C133.162 19.4473 133.837 19.711 134.359 19.711L137.751 19.7159V6.57143H142.583ZM51.9462 9.86207L49.7954 9.85221L43.5 9.86946L43.0021 6.57143H51.6562C53.1948 6.57143 54.1083 6.71025 54.8519 6.98543C55.6107 7.24171 56.3204 7.63436 56.8609 8.16829C57.5666 8.88211 58.0266 9.54007 58.3915 10.4289C58.6267 11.2536 58.8216 11.4622 58.8216 13.6973V23H46.9316C45.6121 23 44.4747 22.7133 43.5548 21.813C42.6332 20.916 42.1628 19.2888 42.1628 17.917C42.1628 16.468 42.6888 15.2342 43.5378 14.3027C44.3861 13.349 45.1232 13.1593 46.4056 13.1593L54.2582 13.1535L54.2453 12.2114C54.3202 11.3217 53.3608 9.87686 51.9462 9.86207ZM48.0514 16.4392C48.0514 16.4392 47.2506 16.4483 46.8366 16.7957C46.4467 17.1399 46.1905 17.6049 46.1905 18.1733C46.1905 18.6826 46.4378 19.0916 46.8108 19.4161C47.2015 19.7455 47.5084 19.7135 47.999 19.7135H54.2461L54.2243 16.4286L48.0514 16.4392ZM33.7882 6.57964C35.6893 6.65768 37.29 7.49554 38.5523 9.16714C39.7268 10.7246 40.3148 12.595 40.3148 14.7389C40.3148 16.9748 39.7268 18.9019 38.57 20.5332C37.3101 22.2952 35.7103 23 33.7326 23H23.4175V0H28.1944V6.57964H33.7882ZM32.1288 9.85714H28.1703V19.7143H32.3374C33.3991 19.7143 34.2522 19.2157 34.8966 18.2464C35.5556 17.2746 35.8875 16.1271 35.8875 14.8514C35.8875 13.5388 35.5395 12.3732 34.8241 11.3661C34.1153 10.3508 33.2251 9.85714 32.1296 9.85714H32.1288ZM76.249 8.52889C76.9636 9.54418 77.3237 10.6704 77.3237 11.8902L77.3333 23H72.5L72.5177 12.4759C72.5089 9.76761 69.8312 9.84236 69.8312 9.84236L66.0555 9.84893V23L61.2222 22.9803V6.55171L70.5618 6.57143C72.032 6.57143 73.109 6.64207 73.7728 6.80882C74.8144 7.07003 75.6384 7.64257 76.249 8.52889Z" fill="#223046"/>
<path fill-rule="evenodd" clip-rule="evenodd" d="M99.0835 0.821411H103.917V4.92855H99.0835V0.821411Z" fill="#3498DB"/>
<path fill-rule="evenodd" clip-rule="evenodd" d="M106.333 18.8928H111.167V23H106.333V18.8928Z" fill="#F57C00"/>
<path fill-rule="evenodd" clip-rule="evenodd" d="M10.4722 0H19.3333V4.92857H10.4722V0Z" fill="#039BE5"/>
<path fill-rule="evenodd" clip-rule="evenodd" d="M5.63867 9.03577H19.3331V13.9643H5.63867V9.03577Z" fill="#1BAF5D"/>
<path fill-rule="evenodd" clip-rule="evenodd" d="M0 18.0714H19.3333V23H0V18.0714Z" fill="#F57C00"/>
</g>
<defs>
<clipPath id="clip0">
<rect width="145" height="23" fill="white"/>
</clipPath>
</defs>
</svg>
