<svg width="182" height="26" viewBox="0 0 182 26" fill="none" xmlns="http://www.w3.org/2000/svg">
<g clip-path="url(#clip0)">
<path d="M180.759 4.32525C180.759 3.10658 179.756 2.11788 178.521 2.11788C177.294 2.11803 176.284 3.11459 176.284 4.3251C176.284 5.53577 177.295 6.53172 178.521 6.53203C179.749 6.53248 180.758 5.53607 180.759 4.32525ZM175.905 4.3251C175.905 2.90863 177.085 1.74387 178.521 1.74387C179.964 1.74387 181.137 2.90093 181.138 4.3245C181.138 5.74067 179.957 6.90559 178.522 6.90604C177.086 6.90649 175.905 5.74157 175.905 4.3251Z" fill="#7F7F7F"/>
<path fill-rule="evenodd" clip-rule="evenodd" d="M178.445 2.42877C178.513 3.06128 179.029 2.70192 179.252 2.52525C179.333 2.46169 179.433 2.34467 179.487 2.31175C179.523 2.29121 179.575 2.30571 179.596 2.34874C179.616 2.41231 179.625 2.49249 179.585 2.60951C179.537 2.74706 179.456 2.88054 179.411 2.95242C179.292 3.14131 179.175 3.30755 179.036 3.4821C178.809 3.76144 178.522 3.9831 178.285 4.25625C177.92 4.6751 177.714 5.32196 177.827 5.8681C177.856 6.00762 177.923 6.18428 178.058 6.25812C178.861 6.69766 179.45 4.81266 179.178 4.25625C179.14 4.18437 179.065 4.05497 178.965 4.07354C178.462 4.16595 178.228 5.77977 178.543 5.89679C178.527 6.0878 178.22 6.20482 178.131 5.85165C178.101 5.72843 178.095 5.59903 178.099 5.47175C178.115 4.93376 178.551 4.12065 179.051 3.87227C179.277 3.75721 179.598 3.75933 179.725 4.01602C180.172 4.92968 178.963 6.61749 177.916 6.46347C177.411 6.38752 177.227 5.90917 177.267 5.45529C177.298 5.08173 177.456 4.72644 177.675 4.42249C178.116 3.81066 178.811 3.63204 179.148 3.15158C179.148 3.15158 179.161 3.13315 179.164 3.12289C179.169 3.10779 179.151 3.08997 179.128 3.10779C179.091 3.1407 178.897 3.2393 178.762 3.25561C178.489 3.28641 178.341 2.91889 178.296 2.71566C178.285 2.67051 178.283 2.63563 178.239 2.69301C178.106 2.86348 178.004 3.81625 177.869 3.86955L177.34 4.07702C177.34 4.07702 177.317 4.08758 177.309 4.05648C177.249 3.83467 177.794 3.06475 177.946 2.80595C177.967 2.77319 178.092 2.53295 178.115 2.51438C178.154 2.48162 178.396 2.42001 178.446 2.42816L178.445 2.42877Z" fill="#7F7F7F"/>
<path d="M20.1362 20.5329H12.8558L8.39697 13.239L6.94823 14.7262V20.5329H0.862305V2.18222H6.94823V8.10495L12.1665 2.18222H19.3043L12.6119 9.02661L20.1362 20.5329ZM28.2848 13.7251C28.2848 12.886 28.0853 12.1252 27.6857 11.4513C27.2862 10.7774 26.6696 10.4383 25.8272 10.4383C25.0759 10.4383 24.5072 10.7774 24.125 11.4557C23.7429 12.1381 23.5519 12.8948 23.5519 13.7251C23.5519 14.6164 23.7559 15.4599 24.1642 16.2468C24.5679 17.038 25.1931 17.4336 26.0312 17.4336C26.839 17.4336 27.4165 17.051 27.7639 16.2816C28.1113 15.5121 28.2848 14.6599 28.2848 13.7251ZM32.5059 17.8596C31.0679 19.9634 28.603 20.9479 26.0537 20.9479C23.4265 20.9479 20.8943 19.9717 19.426 17.7842C18.0792 15.7775 17.9069 12.5055 19.0414 10.3644C19.9142 8.71662 21.514 7.52559 23.3483 7.04165C25.3687 6.48841 27.5554 6.608 29.4951 7.39739C31.3091 8.13273 32.6585 9.64569 33.246 11.4442C33.8876 13.4078 33.6586 16.1728 32.5059 17.8596ZM79.6689 12.379C79.4785 11.505 79.1654 10.8992 78.7335 10.5616C78.2976 10.219 77.7474 10.0502 77.0745 10.0502C76.4226 10.0502 75.9062 10.2142 75.5253 10.5467C75.1444 10.8745 74.8565 11.4852 74.6575 12.379H79.6689ZM84.8751 14.9706H74.7102C74.7102 15.3837 74.7821 15.7463 74.926 16.0622C75.3634 17.0229 76.1548 17.6715 77.2878 17.6715C78.1199 17.6715 79.0795 17.3409 79.2584 16.4493H84.4645C84.2669 17.7145 83.4484 18.8308 82.3948 19.5643C81.3319 20.3021 80.0266 20.7131 78.7378 20.8582C77.0849 21.0585 75.1725 21.004 73.6418 20.3735C71.8609 19.6433 70.5311 18.2932 69.807 16.5511C69.1419 14.853 69.1328 12.9695 69.7775 11.2578C70.4461 9.48216 71.8228 8.10887 73.6079 7.38063C75.7789 6.49883 78.8184 6.55862 80.9176 7.59127C82.7802 8.50418 84.0507 10.0605 84.5788 12.0247C84.8395 13.0128 84.9385 13.9596 84.8751 14.9706H84.8751ZM99.4567 17.8851C98.4565 19.766 96.6094 20.9409 94.3829 20.9409C92.7838 20.9409 91.7319 20.4281 90.6513 19.3339V25.088H85.2282V7.20684H90.0301V9.20056C91.0717 7.15293 93.6496 6.40899 95.7295 6.92554C97.9956 7.48316 99.5217 9.36288 100.065 11.4756C100.573 13.4393 100.397 16.1309 99.4567 17.8851ZM95.0394 13.5374C95.0394 12.9722 94.8495 12.3553 94.4649 11.6907C94.0805 11.0264 93.5232 10.6942 92.7975 10.6942C92.0761 10.6942 91.5189 11.0048 91.1302 11.6303C90.7413 12.2517 90.5469 12.8859 90.5469 13.5374C90.5469 14.3357 90.6981 15.0821 91.0005 15.7724C91.3071 16.4628 91.9034 16.8079 92.7975 16.8079C93.6701 16.8079 94.2577 16.4498 94.573 15.7336C94.8584 15.0424 95.0394 14.2865 95.0394 13.5374ZM112.01 20.3795C109.903 21.1076 107.039 21.2194 104.941 20.3581C103.62 19.8159 102.449 18.9009 101.709 17.6841C100.987 16.5156 100.611 15.1693 100.611 13.7989C100.611 12.8862 100.806 11.9893 101.133 11.1377C101.891 9.22276 103.201 8.12398 105.094 7.36282C107.259 6.49158 110.476 6.52329 112.532 7.62721C114.492 8.67933 115.518 10.1283 115.787 12.2636H110.238C110.14 11.6068 109.952 11.2008 109.678 10.8544C108.901 9.87263 107.141 10.3523 106.58 11.3211C105.864 12.5573 105.745 14.3833 106.198 15.7383C106.497 16.6314 107.48 17.3886 108.436 17.3886C109.79 17.3886 110.071 16.489 110.424 15.3708H115.787C115.731 17.6067 114.376 19.562 112.01 20.3795ZM125.679 15.2929C125.679 15.0448 125.656 14.8411 125.611 14.686C125.239 14.8897 124.658 15.067 123.868 15.2175C123.267 15.3259 122.627 15.4585 122.089 15.7492C121.327 16.1211 121.368 17.1875 122.035 17.6183C122.806 18.0761 124.1 18.0384 124.749 17.3969C125.366 16.8165 125.679 16.1168 125.679 15.2929H125.679ZM131.713 20.5329H126.162L125.951 19.1214C125.546 19.6374 124.642 20.0624 123.729 20.4093C123.284 20.5784 122.826 20.7122 122.358 20.7973C121.89 20.8784 121.392 20.9211 120.873 20.9211C119.937 20.9211 119.081 20.7591 118.305 20.4349C117.529 20.1108 116.942 19.6033 116.538 18.9209C116.175 18.1703 115.993 17.4111 115.993 16.635C115.993 15.654 116.457 14.8452 117.093 14.1201C117.456 13.7065 117.811 13.4741 118.452 13.2312C118.756 13.1161 119.056 13.0162 119.351 12.9327C119.642 12.8499 119.919 12.7711 120.182 12.7321L122.455 12.3953C123.42 12.2523 124.353 12.1289 124.766 11.9944C125.019 11.9115 125.319 11.6409 125.466 11.4703C125.614 11.2998 125.592 11.1206 125.592 10.9373C125.592 10.6856 125.47 10.4766 125.221 10.3061C124.972 10.1355 124.618 10.0502 124.158 10.0502C123.606 10.0502 122.919 10.1313 122.586 10.2933C122.252 10.4553 122.037 10.7795 121.936 11.2613H116.794C116.967 10.3871 116.936 9.87671 117.187 9.34279C117.438 8.81054 117.832 8.35348 118.372 7.97388C118.912 7.59444 119.653 7.2994 120.603 7.10386C121.062 7.00949 121.607 6.94366 122.227 6.89488C122.851 6.84566 123.543 6.81818 124.311 6.81818C126.179 6.81818 127.579 7.03742 128.511 7.47485C129.443 7.91168 130.05 8.26364 130.334 8.92001C130.615 9.57291 130.806 10.4212 130.894 11.4618V18.5072C130.894 19.2323 131.169 19.7697 131.713 20.1194V20.5329V20.5329ZM146.797 20.5329H141.442V15.5524H137.476V20.5329H132.173L132.168 7.41461L132.173 7.21409H137.476V11.6769H141.382V7.21409H146.797L146.792 20.2942L146.797 20.5329ZM161.676 11.1395H157.065V20.5329H151.694V11.1395H147.044V7.21409H161.676V11.1395ZM179.069 16.2708C179.069 17.4407 178.504 18.4686 177.597 19.2016C176.403 20.1758 174.752 20.5329 173.236 20.5329H164.947V11.1395H161.851V7.21409H170.115V11.8887H172.942C174.516 11.8887 176.261 12.1923 177.508 13.2122C178.446 13.9788 179.069 15.051 179.069 16.2708ZM173.731 16.2844C173.731 15.4429 173.259 15.0899 172.447 14.994C172.283 14.994 171.957 14.9804 171.474 14.9601C170.991 14.9388 170.344 14.9303 170.115 14.9303V17.5026L171.458 17.5282C171.824 17.5358 172.126 17.5206 172.359 17.5026C173.184 17.4422 173.731 17.2212 173.731 16.2844V16.2844ZM43.9907 20.5328H41.388L38.5441 11.6355L38.9833 15.1228V20.5328H34.2342V7.13723H40.3249L42.6893 14.5367L45.0538 7.13723H51.1446V20.5328H46.3954V15.1228L46.8346 11.6355L43.9907 20.5328ZM61.7754 20.5328H59.1727L56.3288 11.6355L56.768 15.1228V20.5328H52.0188V7.13723H58.1096L60.474 14.5367L62.8385 7.13723H68.9291V20.5328H64.1801V15.1228L64.6193 11.6355L61.7754 20.5328Z" fill="black"/>
</g>
<defs>
<clipPath id="clip0">
<rect x="0.5" y="0.802246" width="181" height="25" fill="white"/>
</clipPath>
</defs>
</svg>
