<svg width="128" height="39" viewBox="0 0 128 39" fill="none" xmlns="http://www.w3.org/2000/svg">
<path d="M115.2 27.5153L109.12 20.0981L115.04 13.7178H110.56L105.68 19.0613V13.7178H102V27.5153H105.68V21.5337L110.64 27.5153H115.2Z" fill="#009CAB"/>
<path d="M13.5999 27.5153H9.99989V25.6012C8.95989 27.1165 7.43989 27.9141 5.43989 27.9141C2.47989 27.9141 0.639893 26.319 0.639893 22.9693V13.7178H4.47989V21.6135C4.47989 23.3681 4.63989 24.7239 6.79989 24.7239C9.19989 24.7239 9.83989 22.8896 9.83989 20.8159V13.7178H13.5999V27.5153Z" fill="#009CAB"/>
<path d="M24.3998 27.5153V21.6932H19.0398V27.5153H15.2798V13.7178H19.0398V18.7423H24.3998V13.7178H28.1598V27.5153H24.3998Z" fill="#009CAB"/>
<path d="M36.8799 16.6687V27.5153H33.12V16.6687H29.2V13.7178H40.7999V16.6687H36.8799Z" fill="#009CAB"/>
<path d="M47.76 27.914C43.52 27.914 40.72 25.0429 40.72 20.7361C40.72 16.4294 43.68 13.3987 47.68 13.3987C51.84 13.3987 54.48 16.4294 54.48 21.2944V21.6932H44.56C44.64 24.0858 45.76 25.3619 47.84 25.3619C49.2 25.3619 50.08 24.7238 50.64 23.368H54.32C53.44 26.2392 50.88 27.914 47.76 27.914ZM47.68 16.1103C46 16.1103 44.8 17.3067 44.56 19.2208H50.64C50.48 17.4662 49.52 16.1103 47.68 16.1103Z" fill="#009CAB"/>
<path d="M58.9599 15.4723C59.9999 14.0367 61.5199 13.3987 63.2799 13.3987C67.0399 13.3987 69.4399 16.3496 69.4399 20.7361C69.4399 25.0429 67.0399 27.914 63.4399 27.914C61.6799 27.914 60.1599 27.276 59.1999 25.8404V31.822H55.4399V13.7177H59.0399V15.4723H58.9599ZM59.0399 20.6564C59.0399 23.368 60.2399 24.8833 62.3999 24.8833C64.3999 24.8833 65.6799 23.2883 65.6799 20.6564C65.6799 17.9447 64.3999 16.3496 62.3999 16.3496C60.2399 16.4294 59.0399 17.9447 59.0399 20.6564Z" fill="#009CAB"/>
<path d="M120.72 27.8344C116.48 27.8344 113.68 24.9633 113.68 20.7363C113.68 16.27 116.48 13.3191 120.8 13.3191C124.48 13.3191 126.96 15.313 127.28 18.5031H123.52C123.28 16.9878 122.24 16.1105 120.8 16.1105C118.72 16.1105 117.52 17.7853 117.52 20.5768C117.52 23.3682 118.72 24.8835 120.72 24.8835C122.32 24.8835 123.36 23.9265 123.68 22.0921H127.36C126.88 25.7608 124.4 27.8344 120.72 27.8344Z" fill="#009CAB"/>
<path d="M94.2399 13.3988C94.2399 13.3988 93.7599 13.3988 93.0399 13.3988H90.2399C89.5199 13.3988 89.6799 12.6012 89.7599 12.362C91.5199 5.58284 93.0399 3.58897 95.5199 3.74848C96.6399 3.82824 97.0399 4.0675 97.6799 4.62578C98.1599 5.10431 98.1599 5.34357 98.9599 3.98774C99.9199 2.3129 99.9999 2.23314 100.24 1.75462C100.4 1.4356 100.96 0.877315 99.9999 0.877315C88.3199 0.638051 88.1599 5.10431 84.2399 12.681C83.8399 13.3988 83.3599 13.3988 81.9999 13.3988C81.9999 13.3988 79.8399 13.3988 79.1199 13.3988C77.5199 13.3988 75.3599 13.6381 73.5999 14.8344C72.2399 15.7914 70.3199 17.7055 70.3199 20.8957C70.3199 22.7301 71.1999 24.6442 71.9999 25.5215C72.9599 26.5583 73.5199 27.0368 74.3999 27.4356C74.6399 27.5154 74.7199 27.5154 74.7999 27.5154C74.9599 27.5154 75.1199 27.3558 75.2799 27.2761C77.2799 25.5215 77.3599 25.4417 78.1599 24.8037C78.4799 24.4847 78.2399 24.3252 77.8399 24.3252C76.3199 24.1657 75.3599 23.8466 74.7199 23.1288C73.9199 22.3313 73.7599 21.6135 73.6799 20.816C73.5199 18.9019 74.9599 17.3068 76.2399 16.589C77.0399 16.1902 78.0799 15.9509 79.4399 15.9509C81.4399 15.9509 81.9999 16.0307 82.3199 16.27C82.5599 16.5092 82.7999 16.7485 82.4799 17.6258C80.5599 22.4111 79.7599 24.9632 76.0799 31.2638C74.2399 34.3742 70.9599 36.3681 66.3199 34.8528C65.2799 34.5338 65.0399 35.092 64.7999 35.5706C64.5599 35.9693 63.5999 37.3252 63.5199 37.6442C63.2799 38.1227 63.9199 38.2822 64.2399 38.2822C71.6799 38.5215 75.5999 37.1657 79.9999 32.2209C84.0799 27.0368 84.8799 23.0491 87.5199 17.7853C87.9199 16.908 88.5599 16.0307 89.5999 16.0307C92.3199 16.0307 94.1599 16.0307 94.1599 16.0307C95.8399 16.0307 96.6399 16.589 96.6399 17.865C95.5999 17.865 95.0399 17.865 94.6399 17.865C93.9199 17.865 89.5199 17.7853 87.5999 21.2147C87.2799 21.773 86.7199 22.8896 86.8799 24.2454C87.0399 26.0798 88.3999 27.3558 90.2399 27.8344C90.5599 27.9141 90.7999 27.9939 91.0399 27.9939C91.3599 28.0736 91.7599 28.0736 92.1599 28.0736C93.8399 28.0736 95.4399 27.5154 96.6399 26.3988V27.5951H100.32V18.0246C100.32 14.0368 97.0399 13.3988 94.2399 13.3988ZM96.6399 22.6503C96.6399 23.4479 96.2399 24.2454 95.8399 24.6442C94.7999 25.6012 93.1999 25.681 92.4799 25.5215C91.8399 25.362 90.7999 24.7239 90.7999 23.6871C90.7199 22.3313 91.1999 21.6933 92.0799 21.0552C92.9599 20.4969 93.9199 20.3374 94.5599 20.3374C95.3599 20.3374 96.5599 20.3374 96.5599 20.3374C96.5599 20.3374 96.6399 21.8528 96.6399 22.6503Z" fill="#009CAB"/>
</svg>
