<svg width="100" height="100" viewBox="0 0 100 100" fill="none" xmlns="http://www.w3.org/2000/svg">
<path d="M97 77H17C14.2386 77 12 74.7614 12 72V65H97V77Z" fill="#E81E1E"/>
<path d="M59 8.5C58.1716 8.5 57.5 9.17157 57.5 10C57.5 10.8284 58.1716 11.5 59 11.5V8.5ZM41.5 11.5C42.3284 11.5 43 10.8284 43 10C43 9.17157 42.3284 8.5 41.5 8.5V11.5ZM28 27.5C28 26.6716 27.3284 26 26.5 26C25.6716 26 25 26.6716 25 27.5H28ZM26.5 45H25C25 45.8284 25.6716 46.5 26.5 46.5V45ZM34.5 46.5C35.3284 46.5 36 45.8284 36 45C36 44.1716 35.3284 43.5 34.5 43.5V46.5ZM44 27.5C44 26.6716 43.3284 26 42.5 26C41.6716 26 41 26.6716 41 27.5H44ZM41 45C41 45.8284 41.6716 46.5 42.5 46.5C43.3284 46.5 44 45.8284 44 45H41ZM51.8927 26.9429C51.585 26.1737 50.7121 25.7996 49.9429 26.1073C49.1737 26.415 48.7996 27.2879 49.1073 28.0571L51.8927 26.9429ZM57.5 45L56.1073 45.5571C56.3326 46.1204 56.8751 46.4925 57.4817 46.4999C58.0884 46.5073 58.6397 46.1485 58.8787 45.5909L57.5 45ZM66.3787 28.0909C66.705 27.3294 66.3523 26.4476 65.5909 26.1213C64.8294 25.7949 63.9476 26.1477 63.6213 26.9091L66.3787 28.0909ZM73.5 27.5V26C72.6716 26 72 26.6716 72 27.5H73.5ZM73.5 45H72C72 45.8284 72.6716 46.5 73.5 46.5V45ZM83 46.5C83.8284 46.5 84.5 45.8284 84.5 45C84.5 44.1716 83.8284 43.5 83 43.5V46.5ZM83 37.75C83.8284 37.75 84.5 37.0784 84.5 36.25C84.5 35.4216 83.8284 34.75 83 34.75V37.75ZM83 29C83.8284 29 84.5 28.3284 84.5 27.5C84.5 26.6716 83.8284 26 83 26V29ZM30 90.5C29.1716 90.5 28.5 91.1716 28.5 92C28.5 92.8284 29.1716 93.5 30 93.5V90.5ZM70 93.5C70.8284 93.5 71.5 92.8284 71.5 92C71.5 91.1716 70.8284 90.5 70 90.5V93.5ZM59 11.5H92V8.5H59V11.5ZM8 11.5H41.5V8.5H8V11.5ZM3.5 72V62.5H0.5V72H3.5ZM3.5 62.5V16H0.5V62.5H3.5ZM96.5 16V62.5H99.5V16H96.5ZM96.5 62.5V72H99.5V62.5H96.5ZM2 64H98V61H2V64ZM25 27.5V45H28V27.5H25ZM26.5 46.5H34.5V43.5H26.5V46.5ZM41 27.5V45H44V27.5H41ZM49.1073 28.0571L56.1073 45.5571L58.8927 44.4429L51.8927 26.9429L49.1073 28.0571ZM58.8787 45.5909L66.3787 28.0909L63.6213 26.9091L56.1213 44.4091L58.8787 45.5909ZM73.5 46.5H83V43.5H73.5V46.5ZM72 27.5V36.25H75V27.5H72ZM72 36.25V45H75V36.25H72ZM73.5 37.75H83V34.75H73.5V37.75ZM73.5 29H83V26H73.5V29ZM46 76.5H8V79.5H46V76.5ZM44.5 78V92H47.5V78H44.5ZM46 90.5H30V93.5H46V90.5ZM92 76.5H54V79.5H92V76.5ZM54 76.5H46V79.5H54V76.5ZM46 93.5H54V90.5H46V93.5ZM54 93.5H70V90.5H54V93.5ZM52.5 78V92H55.5V78H52.5ZM8 8.5C3.85786 8.5 0.5 11.8579 0.5 16H3.5C3.5 13.5147 5.51472 11.5 8 11.5V8.5ZM0.5 72C0.5 76.1421 3.85786 79.5 8 79.5V76.5C5.51472 76.5 3.5 74.4853 3.5 72H0.5ZM96.5 72C96.5 74.4853 94.4853 76.5 92 76.5V79.5C96.1421 79.5 99.5 76.1421 99.5 72H96.5ZM92 11.5C94.4853 11.5 96.5 13.5147 96.5 16H99.5C99.5 11.8579 96.1421 8.5 92 8.5V11.5Z" fill="#3C4D5D"/>
<circle cx="14" cy="35" r="5" fill="#E81E1E"/>
<circle cx="50" cy="10" r="2" fill="#3C4D5D"/>
<circle cx="59" cy="70" r="2" fill="#3C4D5D"/>
<circle cx="50" cy="70" r="2" fill="#3C4D5D"/>
<circle cx="41" cy="70" r="2" fill="#3C4D5D"/>
</svg>
