<svg width="100" height="100" viewBox="0 0 100 100" fill="none" xmlns="http://www.w3.org/2000/svg">
<path d="M76.6152 19C76.6152 19 76.6152 18 76.6152 16.5C76.6152 13.5 80 12 80 12L80.9999 12C84.8659 12 87.9999 15.134 87.9999 19L76.6152 19Z" fill="#E81E1E"/>
<path d="M59.5 81L62 88C65.9998 88.0001 24 88 24 88L23.0001 88C19.1341 88 16.0001 84.866 16.0001 81L59.5 81Z" fill="#E81E1E"/>
<path d="M75 21H88C88.5523 21 89 20.5523 89 20V18C89 14 86 11 82.25 11M75 21V82.5C75 86.5 72 89.5 68.25 89.5M75 21C75 13.5 78.25 11 82.25 11M25 79.5H61C61 87 64.25 89.5 68.25 89.5M25 79.5H11.099C11.0443 79.5 11 79.5443 11 79.599V79.599C11 85.0672 15.4328 89.5 20.901 89.5H61H68.25M25 79.5V21C25 15.4772 29.4772 11 35 11H75H82.25" stroke="#3C4D5D" stroke-width="3" stroke-linecap="round" stroke-linejoin="round"/>
<path d="M38 27H62M38 39.5H49.5M38 51.5H54.5" stroke="#3C4D5D" stroke-width="3" stroke-linecap="round"/>
<path d="M86.3074 49.5233C88.6719 47.1588 90.0003 43.9519 90.0003 40.6081C90.0003 37.2642 88.6719 34.0573 86.3074 31.6928C83.943 29.3283 80.7361 28 77.3922 28C74.0483 28 70.8414 29.3283 68.477 31.6928L54.3008 45.869V63.7205H72.1523L86.3074 49.5233Z" fill="white" stroke="#3C4D5D" stroke-width="3" stroke-linecap="round" stroke-linejoin="round"/>
<path d="M84 32C87 37.5 84.5 42 82.5 44L69.5 56.6486H76.8514L86 47.5C90.5 41 87.1667 34.1667 84 32Z" fill="#E81E1E"/>
<path d="M64 62H71.5L75.5 58H68.1111L64 62Z" fill="#E81E1E"/>
<path d="M77.4024 40.6187L48 70.0211" stroke="#3C4D5D" stroke-width="3" stroke-linecap="round" stroke-linejoin="round"/>
<path d="M79.5026 55.3193H62.7012" stroke="#3C4D5D" stroke-width="3" stroke-linecap="round" stroke-linejoin="round"/>
</svg>
