<svg width="101" height="100" viewBox="0 0 101 100" fill="none" xmlns="http://www.w3.org/2000/svg">
<path d="M85.5002 28.5C85.5002 19.3 93.5002 15 98.5002 15C95.2626 15 90.2671 12.7688 87.5002 9C86.7002 14.1426 81.7136 16.6188 79.0703 17C82.5255 19.102 85.5002 22.89 85.5002 28.5Z" fill="#E81E1E"/>
<path d="M85.5 28.5001C85.5 19.3001 77.5 15.0001 72.5 15.0001C77.5 15.0001 85.5 10.7 85.5 1.49999C85.5 10.7 93.5 15 98.5 15C93.5 15 85.5 19.3001 85.5 28.5001Z" stroke="#3C4D5D" stroke-width="3" stroke-linecap="round" stroke-linejoin="round"/>
<path d="M48 89C48 87.8954 48.8954 87 50 87H70V97H48V89Z" fill="#E81E1E"/>
<path d="M44 82H37.5V98H70.5V82H53.5M44 82V70.5H29V98H19V62.5M44 82H53.5M19 62.5V50.5L13 56.5L19 62.5ZM19 62.5L12.5 69L7.07107 63.5711C3.16582 59.6658 3.16582 53.3342 7.07107 49.4289L15.9142 40.5858C16.2893 40.2107 16.798 40 17.3284 40H22.5L27.5 49.5L32.5 40L53.5 25.5L58.5 31.5L35.5 48V59.5H45.5C49.9183 59.5 53.5 63.0817 53.5 67.5V82M54.5 46L57.5 44M63.5 40L78 29.5M63.5 25.5L70.5 21" stroke="#3C4D5D" stroke-width="3" stroke-linecap="round" stroke-linejoin="round"/>
<circle cx="25.5" cy="29.5" r="10" stroke="#3C4D5D" stroke-width="3"/>
</svg>
