<svg width="78" height="81" viewBox="0 0 78 81" fill="none" xmlns="http://www.w3.org/2000/svg">
<path d="M42 63H35.5V79H68.5V63H51.5M42 63V51.5H27V79H17V43.5M42 63H51.5M17 43.5V31.5L11 37.5L17 43.5ZM17 43.5L10.5 50L5.07107 44.5711C1.16582 40.6658 1.16582 34.3342 5.07107 30.4289L13.9142 21.5858C14.2893 21.2107 14.798 21 15.3284 21H20.5L25.5 30.5L30.5 21L51.5 6.5L56.5 12.5L33.5 29V40.5H43.5C47.9183 40.5 51.5 44.0817 51.5 48.5V63M52.5 27L55.5 25M61.5 21L76 10.5M61.5 6.5L68.5 2" stroke="#3C4D5D" stroke-width="3" stroke-linecap="round" stroke-linejoin="round"/>
</svg>
