<svg width="517" height="482" viewBox="0 0 517 482" fill="none" xmlns="http://www.w3.org/2000/svg">
<path d="M0 295.584V189.109C0 186.348 2.23858 184.109 5 184.109H13.6795C16.4409 184.109 18.6795 186.348 18.6795 189.109V225.084H40.3718V173.98C40.3718 172.743 40.8307 171.549 41.6598 170.631L62.6667 147.353V40.8784C62.6667 38.117 64.9052 35.8784 67.6667 35.8784H92.6154C95.3768 35.8784 97.6154 38.117 97.6154 40.8784V139.519H121.115V99.3271C121.115 96.5657 123.354 94.3271 126.115 94.3271H164.321C167.082 94.3271 169.321 96.5657 169.321 99.3271V176.878L212.103 133.494V30.0323C212.103 27.2708 214.341 25.0323 217.103 25.0323H248.679C251.441 25.0323 253.679 27.2708 253.679 30.0323V75.6476H287.423V5.92968C287.423 3.16826 289.662 0.929688 292.423 0.929688H324.603C327.364 0.929688 329.603 3.16826 329.603 5.92969V103.968H361.359C364.12 103.968 366.359 106.207 366.359 108.968V147.353H392.269V50.5194C392.269 47.758 394.508 45.5194 397.269 45.5194H430.654C433.415 45.5194 435.654 47.758 435.654 50.5194V129.276H453.128V106.039C453.128 104.713 453.655 103.441 454.593 102.504L474.561 82.5352C475.499 81.5975 476.771 81.0707 478.097 81.0707H487.897C490.659 81.0707 492.897 83.3093 492.897 86.0707V172.058H512C514.761 172.058 517 174.296 517 177.058V295.584H0Z" fill="url(#paint0_linear)"/>
<path d="M440.475 261.84C442.081 261.639 447.705 258.827 450.718 258.224C458.383 256.691 457.346 258.827 461.564 258.827C465.782 258.827 468.795 256.818 470 258.827C471.808 261.84 465.782 264.25 462.769 264.25C461.529 264.25 460.595 264.148 459.757 264.112C463.975 266.568 473.736 271.24 479.039 270.276C485.667 269.071 482.654 273.891 481.449 274.494C480.244 275.097 478.091 276.904 475.079 276.904C473.109 279.562 460.874 281.093 451.923 278.109C444.958 275.787 443.287 274.896 441.68 275.097L440.475 261.84Z" fill="#FFCBA5"/>
<path d="M459.757 264.112C460.595 264.148 461.529 264.25 462.769 264.25C465.782 264.25 471.808 261.84 470 258.827C468.795 256.818 465.782 258.827 461.564 258.827C457.346 258.827 458.383 256.691 450.718 258.224C447.705 258.827 442.081 261.639 440.475 261.84L441.68 275.097C443.287 274.896 444.958 275.787 451.923 278.109C462.769 281.725 478.436 278.712 474.821 275.097C473.473 273.749 463.372 276.904 459.757 272.686C456.864 269.312 450.517 268.066 447.705 267.865C453.128 267.865 453.731 266.058 456.141 264.853C457.559 264.144 458.56 264.06 459.757 264.112ZM459.757 264.112C463.975 266.568 473.736 271.24 479.039 270.276C485.667 269.071 482.654 273.891 481.449 274.494C480.244 275.097 478.091 276.904 475.079 276.904" stroke="#A05534" stroke-linecap="round" stroke-linejoin="round"/>
<path opacity="0.3" d="M447.706 267.865C453.129 267.865 453.731 266.058 456.141 264.853C457.559 264.144 458.56 264.06 459.757 264.112C463.975 266.568 473.736 271.24 479.039 270.276C485.667 269.071 482.654 273.891 481.449 274.494C480.244 275.096 478.092 276.904 475.079 276.904C475.688 275.998 475.161 275.322 474.821 275.097C473.474 273.749 463.372 276.904 459.757 272.686C456.865 269.312 450.518 268.066 447.706 267.865Z" fill="#A05534"/>
<path d="M440.475 260.635H436.257C434.449 266.661 431.918 278.832 436.257 279.314C440.595 279.797 441.68 277.507 441.68 276.302C443.126 269.071 441.479 262.844 440.475 260.635Z" fill="white" stroke="#7E92A4"/>
<path d="M95.808 265.455C98.8209 266.058 100.758 271.231 102.365 271.432L103.039 286.545C101.432 286.344 94.9403 286.031 87.9747 288.353C71.7055 291.366 65.7705 287.098 65.0773 285.943C63.2696 282.93 58.8793 278.76 62.667 276.904C67.4875 274.542 80.1414 273.148 84.3593 270.692C83.5213 270.728 82.5872 270.83 81.3465 270.83C78.3337 270.83 72.9105 267.263 74.7183 264.25C75.9234 262.242 78.3337 265.407 82.5516 265.407C86.7696 265.407 88.1437 263.922 95.808 265.455Z" fill="#FFCBA5"/>
<path d="M95.1344 277.458C89.7114 277.458 90.385 272.638 87.9747 271.433C86.557 270.724 85.5563 270.64 84.3593 270.692M84.3593 270.692C83.5213 270.728 82.5872 270.83 81.3465 270.83C78.3337 270.83 72.9105 267.263 74.7183 264.25C75.9234 262.242 78.3337 265.407 82.5516 265.407C86.7696 265.407 88.1437 263.922 95.808 265.455C98.8209 266.058 100.758 271.231 102.365 271.432L103.039 286.545C101.432 286.344 94.9403 286.031 87.9747 288.353C71.7055 291.366 65.7705 287.098 65.0773 285.943C63.2696 282.93 58.8793 278.76 62.667 276.904C67.4875 274.542 80.1414 273.148 84.3593 270.692Z" stroke="#A05534" stroke-linecap="round" stroke-linejoin="round"/>
<path opacity="0.3" d="M95.1343 277.458C89.7112 277.458 90.3848 272.638 87.9746 271.432C86.5569 270.724 85.5561 270.64 84.3592 270.692C80.1412 273.148 67.4874 274.542 62.6669 276.904C58.8791 278.76 63.2694 282.93 65.0771 285.943C69.3099 286.48 78.021 287.232 79.0026 285.943C79.9842 284.653 90.1661 279.749 95.1343 277.458Z" fill="#A05534"/>
<path d="M102.365 270.228H106.583C108.391 276.253 110.921 288.425 106.583 288.907C102.245 289.389 101.16 287.1 101.16 285.894C99.7138 278.664 101.361 272.437 102.365 270.228Z" fill="white" stroke="#7E92A4"/>
<path d="M251.872 241.956C239.339 230.868 247.855 204.797 253.68 193.148C259.103 186.921 272.721 178.686 283.808 195.558C297.667 216.648 291.641 239.545 280.193 246.174C271.034 251.476 268.744 265.656 268.744 272.084C268.342 266.661 264.405 253.043 251.872 241.956Z" fill="#DCE9EF" stroke="black"/>
<path d="M253.68 193.148C259.103 186.921 272.721 178.686 283.808 195.558C290 204.982 291.124 215.766 290.667 224.299C266.667 243.299 253.68 228.799 247.167 227.799C246.289 215.859 249.76 200.988 253.68 193.148Z" fill="white"/>
<path d="M212.706 214.84C228.131 210.019 245.244 201.584 253.077 197.366C249.864 202.789 244.28 216.527 247.654 228.096C251.775 242.226 265.675 245.426 268.559 269.731C268.327 264.461 270.351 254.208 280.193 244.366C294.052 230.507 291.039 215.443 282.603 193.75C295.257 200.378 312.731 206.404 327.795 208.814C331.411 211.225 334.554 215.386 336.834 219.66C341.655 228.699 360.022 232.862 376.604 241.955C395.283 252.199 424.808 256.216 436.257 259.43C438.667 268.468 436.859 281.725 433.847 287.75C433.066 289.311 420.238 281.628 406.732 277.507C396.918 274.513 388.655 275.355 385.642 274.494C378.411 272.428 375.398 269.071 359.732 267.866C344.42 266.688 330.259 251.22 329.625 252.11C329.618 252.14 329.61 252.169 329.603 252.199C329.603 258.827 300.68 279.314 319.962 355.84C302.548 363.202 287.757 366.794 275.372 367.88C273.564 364.469 269.708 357.286 268.744 355.84C267.539 354.032 263.562 368.223 261.513 368.052C240.561 366.583 228.887 357.131 224.757 349.814C234.398 264.853 212.706 259.43 211.5 260.635C210.295 261.84 183.764 277.81 181.372 278.109C176.552 278.712 174.141 278.109 169.924 279.314C165.706 280.519 115.693 296.186 112.68 296.186C103.937 296.186 106.825 275.243 107.257 270.276C118.706 267.062 147.267 258.225 169.924 248.584C198.244 236.532 204.27 229.302 206.68 223.276C208.479 218.778 211.3 215.443 212.706 214.84Z" fill="url(#paint1_linear)"/>
<path d="M212.706 214.84C228.131 210.019 245.244 201.584 253.077 197.366C249.864 202.789 244.28 216.527 247.654 228.096C251.872 242.558 266.334 245.571 268.744 271.481C267.941 267.062 269.106 255.453 280.193 244.366C294.052 230.507 291.039 215.443 282.603 193.75C295.257 200.378 312.731 206.404 327.795 208.814M212.706 214.84C211.3 215.443 208.479 218.778 206.68 223.276C204.27 229.302 198.244 236.532 169.924 248.584C147.267 258.225 118.706 267.062 107.257 270.276C106.825 275.243 103.937 296.186 112.68 296.186C115.693 296.186 165.706 280.519 169.924 279.314C174.141 278.109 176.552 278.712 181.372 278.109C183.764 277.81 210.295 261.84 211.5 260.635M212.706 214.84C216.321 221.468 215.718 241.955 211.5 260.635M211.5 260.635C212.706 259.43 234.398 264.853 224.757 349.814C228.887 357.131 240.561 366.583 261.513 368.052C263.562 368.223 267.539 354.032 268.744 355.84C269.708 357.286 273.564 364.469 275.372 367.88C287.757 366.794 302.548 363.202 319.962 355.84C300.68 279.314 329.603 258.827 329.603 252.199M327.795 208.814C329 216.648 334.426 232.916 329.603 252.199M327.795 208.814C331.411 211.225 334.554 215.386 336.834 219.661C341.655 228.699 360.022 232.862 376.604 241.955C395.283 252.199 424.808 256.216 436.257 259.43C438.667 268.468 436.859 281.725 433.847 287.75C433.066 289.311 420.238 281.628 406.732 277.507C396.918 274.513 388.655 275.355 385.642 274.494C378.411 272.428 375.398 269.071 359.732 267.866C344.065 266.66 329.603 250.495 329.603 252.199" stroke="#3C4D5D" stroke-linecap="round"/>
<path d="M211.5 260.635C213.618 251.255 214.825 241.42 215.043 233.112C230.293 230.684 225.433 260.635 268.365 267.338C267.686 279.608 267.262 311.79 269.48 325.777C271.697 339.764 265.093 354.67 261.513 360.374C251.185 354.95 229.829 339.481 227.025 321.003C229.191 263.576 212.552 259.584 211.5 260.635Z" fill="url(#paint2_linear)"/>
<path d="M325.126 260.048C332.605 226.298 327.627 215.619 319.279 214.29C313.009 213.292 316.065 214.72 307.463 208.39C311.979 220.003 306.449 231.782 300.366 241.939C292.777 254.611 280.66 258.445 273.698 268.822C271.989 283.016 270.974 304.119 273.698 328.1C275.341 342.561 272.133 349.113 276.639 360.374C286.967 354.95 307.045 362.022 318.265 355.84C301.621 292.82 324.805 261.5 325.126 260.048Z" fill="url(#paint3_linear)"/>
<ellipse opacity="0.7" cx="272.013" cy="281.817" rx="1.47775" ry="2.21662" fill="#0E161D"/>
<ellipse opacity="0.5" cx="271.757" cy="306.846" rx="1.47775" ry="2.21662" fill="#0E161D"/>
<ellipse opacity="0.3" cx="273.234" cy="333.972" rx="1.47775" ry="2.21662" fill="#0E161D"/>
<path d="M169.775 278.838C165.557 280.043 115.76 295.677 112.748 295.677C108.179 295.677 107.216 290.488 106.989 284.318C131.883 264.178 202.597 268.309 214.52 231.799C214.532 240.643 213.398 249.842 211.035 260.305C209.83 261.51 183.796 277.281 181.404 277.58C176.584 278.183 173.993 277.632 169.775 278.838Z" fill="url(#paint4_linear)"/>
<path d="M354.647 266.318C364.21 267.725 370.253 267.003 386.024 273.906C387.648 274.617 396.931 274.03 405.944 276.499C419.233 280.139 433.385 287.052 433.385 287.052C433.385 287.052 437.084 275.923 437.084 268.728C419.082 271.465 342.894 254.07 331.729 227.764C332.825 236.605 333.663 237.022 330.328 251.536C329.946 253.197 349.175 265.513 354.647 266.318Z" fill="url(#paint5_linear)"/>
<path d="M268.744 271.481C268.141 278.913 267.298 298.115 268.744 315.468C270.552 337.161 268.744 344.994 268.744 356.443" stroke="#3C4D5D"/>
<path d="M294.92 312.977C294.438 312.013 294.719 303.336 294.92 299.118C305.766 296.707 312.997 303.336 312.997 305.143V319.605C308.779 315.387 295.523 314.182 294.92 312.977Z" fill="url(#paint6_linear)" fill-opacity="0.5" stroke="#3C4D5D"/>
<path d="M245.244 312.485C245.726 311.52 245.444 302.844 245.244 298.626C235 298.104 227.167 304.732 227.167 306.54V319.113C231.385 314.895 244.641 313.69 245.244 312.485Z" fill="url(#paint7_linear)" fill-opacity="0.5" stroke="#3C4D5D"/>
<path d="M281.398 190.135C280.916 188.689 280.393 185.917 280.193 184.712C271.556 184.712 254.282 184.953 254.282 185.917C254.282 186.881 253.881 189.934 253.68 191.34C255.287 194.755 260.187 201.704 266.936 202.186C275.372 202.789 282 191.943 281.398 190.135Z" fill="#FFCBA5" stroke="#A05534"/>
<path opacity="0.4" d="M254.282 185.917C254.282 186.881 253.881 189.934 253.68 191.34C254.913 193.961 258.087 198.665 262.549 200.928C261.096 199.473 258.27 194.291 258.583 185.208C255.983 185.383 254.282 185.615 254.282 185.917Z" fill="#D0906D"/>
<path opacity="0.5" d="M280.193 184.712C280.394 185.917 280.916 188.689 281.398 190.135C281.989 191.907 275.631 202.365 267.433 202.209C267.244 202.235 267.076 202.227 266.936 202.186C267.103 202.198 267.268 202.206 267.433 202.209C269.715 201.893 275.137 196.648 272.021 184.712C275.461 184.656 277.606 184.712 280.193 184.712Z" fill="#A05534"/>
<path d="M261.513 202.186C261.728 205.251 262.74 209.576 263.321 209.417C263.935 209.249 268.765 209.576 269.346 209.417C270.771 207.777 271.559 203.93 271.757 202.186C271.154 199.776 262.116 199.776 261.513 202.186Z" fill="#E81E1E" stroke="#600202"/>
<path d="M269.648 208.865C271.073 207.225 271.038 204.193 271.236 202.449C271.065 201.768 270.222 201.28 269.085 200.984C269.344 205.31 269.085 205.595 267.825 206.661C267.306 207.101 265.054 207.783 262.823 207.359C263.106 208.313 263.397 208.927 263.623 208.865C264.237 208.697 269.067 209.025 269.648 208.865Z" fill="#C31616"/>
<path d="M277.18 247.981C275.372 240.148 269.931 211.548 269.347 209.417L263.321 209.417C261.74 212.766 254.148 238.405 254.282 244.366C263.321 255.814 267.12 264.376 268.744 267.263C268.409 252.36 277.857 250.917 277.18 247.981Z" fill="#E81E1E" stroke="#600202"/>
<path opacity="0.7" d="M268.744 267.263C268.409 252.36 277.364 250.917 276.687 247.981C275.664 243.549 274.978 242.471 273.167 233.299C268.667 237.799 260.167 232.299 257.167 231.799C254.916 239.834 254.772 241.173 254.843 244.366C263.882 255.814 267.12 264.376 268.744 267.263Z" fill="#B21313"/>
<path d="M236.205 205.802C241.026 204.596 249.261 199.776 253.68 197.366C243.436 213.032 243.21 226.129 254.282 241.353C263.923 254.609 267.539 254.609 268.744 273.289C266.334 259.43 251.872 254.007 244.641 246.173C233.278 233.863 233.996 222.673 233.193 215.443C236.406 213.635 243.195 211.466 242.231 210.02C241.026 208.212 234.898 206.128 236.205 205.802Z" fill="url(#paint8_linear)" stroke="#3C4D5D" stroke-linecap="round" stroke-linejoin="round"/>
<path d="M300.68 202.789C295.859 201.584 287.624 196.763 283.205 194.353C292.244 218.456 291.641 231.712 280.795 243.763C271.154 254.476 269.949 254.609 268.744 273.289C271.154 259.43 285.013 254.007 292.244 246.174C303.607 233.863 303.492 216.648 304.295 209.417C300.318 208.453 294.654 207.609 294.654 207.609C292.481 207.609 301.987 203.116 300.68 202.789Z" fill="url(#paint9_linear)" stroke="#3C4D5D" stroke-linecap="round" stroke-linejoin="round"/>
<path d="M250.667 197.366C250.667 194.955 252.718 191.742 253.119 191.34C256.132 197.366 261.513 198.571 262.718 200.379C260.308 202.186 250.477 211.916 250.667 210.02C251.269 203.994 250.667 199.271 250.667 197.366Z" fill="white" stroke="#7E92A4"/>
<path d="M285.616 196.161C285.616 193.75 281.799 189.934 281.398 189.532C278.385 195.558 272.962 198.571 271.757 200.379C274.167 202.186 285.203 211.916 285.013 210.02C284.411 203.994 285.616 198.066 285.616 196.161Z" fill="url(#paint10_linear)" stroke="#7E92A4"/>
<path d="M245.244 158.802C246.208 157.838 247.453 160.81 248.257 162.417C248.257 164.827 248.257 169.045 248.859 171.456C249.093 172.391 248.859 172.259 248.257 172.058C243.436 169.045 244.039 160.007 245.244 158.802Z" fill="#FFCBA5" stroke="#A05534"/>
<path d="M287.513 161.4C286.548 160.436 285.816 163.22 285.013 164.827C285.013 167.238 285.013 171.455 284.41 173.866C284.177 174.801 284.41 174.669 285.013 174.468C288.628 170.25 288.718 162.605 287.513 161.4Z" fill="#FFCBA5" stroke="#A05534"/>
<path d="M262.116 137.712C259.705 140.604 256.291 140.122 254.885 139.52C255.286 138.515 256.331 136.386 257.295 135.904C258.5 135.302 257.295 128.071 256.692 128.071C257.898 127.468 256.692 125.058 257.898 125.661C257.416 130.481 263.722 137.453 266.936 140.337C265.056 139.685 263.138 138.479 262.116 137.712Z" stroke="black"/>
<path d="M249.462 172.661C248.498 169.769 248.659 165.832 248.859 164.225C247.654 156.994 245.846 141.985 253.68 137.712C260.308 134.097 267.539 133.494 277.783 138.315C285.977 142.171 286.419 155.99 285.616 162.417L283.808 171.456C284.21 172.862 284.772 176.517 283.808 179.892C282.844 183.266 277.999 186.52 275.696 187.725C275.453 188.389 275.145 188.972 274.77 189.482C273.114 191.729 270.152 192.546 265.731 192.546C262.026 192.546 259.414 191.639 257.295 189.86C254.922 187.866 253.18 185.133 251.27 182.905C247.654 178.687 250.667 176.276 249.462 172.661Z" fill="#FFCBA5"/>
<path d="M276.577 182.905C276.423 184.914 276.15 186.486 275.696 187.725M275.696 187.725C277.999 186.52 282.844 183.266 283.808 179.892C284.772 176.517 284.21 172.862 283.808 171.456L285.616 162.417C286.419 155.99 285.977 142.171 277.783 138.315C267.539 133.494 260.308 134.097 253.68 137.712C245.846 141.985 247.654 156.994 248.859 164.225C248.659 165.832 248.498 169.769 249.462 172.661C250.667 176.276 247.654 178.687 251.27 182.905C253.18 185.133 254.922 187.866 257.295 189.86M275.696 187.725C275.453 188.389 275.145 188.972 274.77 189.482M256.09 183.507C256.09 184.729 256.331 187.711 257.295 189.86M257.295 189.86C259.414 191.639 262.026 192.546 265.731 192.546C270.152 192.546 273.114 191.729 274.77 189.482M257.295 189.86C260.509 188.345 265.61 184.833 260.308 182.905C261.795 182.414 265.206 181.682 268.744 181.95M271.154 182.302C270.358 182.123 269.548 182.011 268.744 181.95M274.77 189.482C271.556 188.862 265.852 186.489 268.744 181.95" stroke="#A05534" stroke-linecap="round" stroke-linejoin="round"/>
<path d="M249.462 172.661C248.498 169.769 248.659 165.832 248.859 164.225C247.654 156.994 245.846 141.985 253.68 137.712C253.331 144.304 252.496 157.683 251.951 158.47C251.27 159.454 251.966 163.488 251.27 165.161C250.573 166.833 250.222 169.884 251.951 172.245C253.334 174.134 253.447 181.857 253.331 185.483C252.64 184.597 251.966 183.717 251.27 182.905C247.654 178.687 250.667 176.277 249.462 172.661Z" fill="#A05534" fill-opacity="0.2"/>
<path d="M276.577 182.905C276.423 184.914 276.15 186.487 275.696 187.725C277.999 186.52 282.844 183.266 283.808 179.892C284.772 176.518 284.21 172.862 283.808 171.456L285.616 162.418C286.419 155.99 285.977 142.171 277.783 138.315L276.577 141.448C274.343 155.125 280.583 154.239 280.583 158.47C280.583 162.701 282.945 165.456 282.059 168.998C281.174 172.54 278.714 174.311 277.783 175.197C277.038 175.905 276.669 180.631 276.577 182.905Z" fill="#A05534" fill-opacity="0.2"/>
<path d="M276.578 182.905C276.423 184.914 276.15 186.487 275.696 187.725C277.999 186.52 282.844 183.266 283.808 179.892C284.772 176.518 284.21 172.862 283.808 171.456L285.616 162.417C286.419 155.99 285.978 142.171 277.783 138.315L276.578 141.448C274.343 155.125 280.583 154.239 280.583 158.47C280.583 162.701 282.945 165.456 282.059 168.998C281.174 172.54 278.714 174.311 277.783 175.197C277.038 175.905 276.669 180.631 276.578 182.905Z" fill="#A05534" fill-opacity="0.2"/>
<path d="M265.731 192.546C262.026 192.546 259.414 191.639 257.295 189.86C260.509 188.345 265.61 184.833 260.308 182.905C261.795 182.414 265.206 181.682 268.744 181.95C265.852 186.489 271.556 188.862 274.77 189.482C273.114 191.729 270.152 192.546 265.731 192.546Z" fill="#6D4133"/>
<path d="M276.578 182.905C276.423 184.914 276.15 186.487 275.696 187.725C275.453 188.389 275.145 188.972 274.77 189.482M256.09 183.507C256.09 184.729 256.331 187.711 257.295 189.86M257.295 189.86C259.414 191.639 262.026 192.546 265.731 192.546C270.152 192.546 273.114 191.729 274.77 189.482M257.295 189.86C260.509 188.345 265.61 184.833 260.308 182.905C261.795 182.414 265.206 181.682 268.744 181.95M271.154 182.302C270.358 182.123 269.548 182.011 268.744 181.95M274.77 189.482C271.556 188.862 265.852 186.489 268.744 181.95" stroke="#36201E" stroke-linecap="round" stroke-linejoin="round"/>
<path d="M246.449 157.596C247.413 153.258 244.44 146.951 242.833 144.34C243.436 143.135 246.449 141.93 245.846 140.725C245.244 139.519 247.654 137.712 247.654 135.904C247.654 134.097 250.064 130.481 251.269 130.481C252.233 130.481 253.278 131.284 253.68 131.686C254.282 130.682 255.728 128.553 256.692 128.071C257.898 127.468 256.692 125.058 257.898 125.661C259.103 126.264 259.103 127.468 260.91 127.468C262.718 127.468 262.116 128.673 265.128 129.276C268.141 129.878 266.333 126.263 266.936 125.661C267.418 125.179 271.8 127.067 273.931 128.071C278.055 125.847 279.819 129.444 280.192 131.686C280.192 140.845 273.363 141.528 269.949 140.725C267.539 141.207 263.722 138.917 262.116 137.712C259.705 140.604 256.291 140.122 254.885 139.52C250.167 140.725 248.859 157.596 248.257 159.404C247.654 161.212 247.654 170.25 247.654 166.635C247.654 163.02 245.244 163.02 246.449 157.596Z" fill="#6D4133"/>
<path d="M272.962 128.673C273.298 128.438 273.621 128.238 273.931 128.071M273.931 128.071C278.055 125.847 279.819 129.444 280.192 131.686C280.192 140.845 273.363 141.528 269.949 140.725C267.539 141.207 263.722 138.917 262.116 137.712C259.705 140.604 256.291 140.122 254.885 139.52C250.167 140.725 248.859 157.596 248.257 159.404C247.654 161.212 247.654 170.25 247.654 166.635C247.654 163.02 245.244 163.02 246.449 157.596C247.413 153.258 244.44 146.951 242.833 144.34C243.436 143.135 246.449 141.93 245.846 140.725C245.244 139.519 247.654 137.712 247.654 135.904C247.654 134.097 250.064 130.481 251.269 130.481C252.233 130.481 253.278 131.284 253.68 131.686C254.282 130.682 255.728 128.553 256.692 128.071C257.898 127.468 256.692 125.058 257.898 125.661C259.103 126.264 259.103 127.468 260.91 127.468C262.718 127.468 262.116 128.673 265.128 129.276C268.141 129.878 266.333 126.263 266.936 125.661C267.418 125.179 271.8 127.067 273.931 128.071Z" stroke="#36201E" stroke-linecap="round" stroke-linejoin="round"/>
<path d="M266.936 125.661C267.418 125.179 271.8 127.067 273.931 128.071C272.018 139.291 265.257 139.173 262.115 137.712C255.011 138.642 251.924 133.279 251.269 130.481C252.233 130.481 253.278 131.284 253.68 131.686C256.103 131.485 261.183 132.409 262.115 137.712C268.571 135.302 268.019 128.673 266.936 125.661Z" fill="#8E6456"/>
<path d="M246.449 157.596C247.413 153.258 244.44 146.951 242.833 144.34C243.436 143.135 246.449 141.93 245.846 140.725C248.257 139.512 252.876 139.416 254.885 139.519C253.057 138.903 249.774 136.233 251.269 130.481C252.628 136.649 259.066 137.872 262.116 137.712C269.892 141.758 273.232 132.97 273.931 128.071C278.055 125.847 279.819 129.444 280.192 131.686C280.192 140.845 273.363 141.528 269.949 140.725C267.539 141.207 263.722 138.917 262.116 137.712C259.705 140.604 256.291 140.122 254.885 139.519C248.829 143.281 248.859 157.596 248.257 159.404C247.654 161.212 247.654 170.25 247.654 166.635C247.654 163.019 245.244 163.019 246.449 157.596Z" fill="#48271C"/>
<path d="M286.218 135.904C285.736 132.048 282 131.485 280.193 131.686C278.987 132.891 274.167 139.52 276.577 140.122C278.987 140.725 281.398 147.956 281.398 149.161C281.398 150.125 283.808 153.981 285.013 155.789C284.531 158.199 284.812 165.229 285.013 168.443C285.977 156.874 287.423 162.417 288.026 166.635C288.026 163.622 294.654 155.789 292.244 152.776C289.834 149.763 286.821 140.725 286.218 135.904Z" fill="#6D4133" stroke="#36201E" stroke-linecap="round" stroke-linejoin="round"/>
<path d="M286.218 135.904C285.736 132.048 282 131.485 280.193 131.686C278.987 132.891 274.167 139.52 276.577 140.122C277.397 140.327 278.217 141.299 278.942 142.54C280.366 140.472 283.814 136.251 286.218 135.904Z" fill="#48271C"/>
<path d="M288.026 166.635C288.026 163.622 294.654 155.789 292.244 152.776C287.4 153.93 282.995 150.846 281.398 149.161C281.398 150.125 283.808 153.981 285.013 155.789C284.531 158.199 284.812 165.229 285.013 168.443C285.977 156.873 287.423 162.417 288.026 166.635Z" fill="#48271C"/>
<path d="M259.705 179.892C262.116 179.289 264.438 177.085 269.949 179.289C272.359 180.253 273.765 178.887 274.167 178.084M263.321 173.866C261.714 174.067 258.259 175.433 257.295 179.289M266.334 173.866C268.342 173.665 272.841 173.986 274.77 176.879" stroke="#A05534" stroke-linecap="round" stroke-linejoin="round"/>
<path d="M263.321 173.866C261.714 174.067 258.259 175.433 257.295 179.289M266.333 173.866C268.342 173.665 272.841 173.986 274.769 176.879" stroke="#36201E" stroke-linecap="round" stroke-linejoin="round"/>
<path d="M266.636 168.922C267.121 170.312 265.358 171.351 264.894 171.752C266.691 171.752 269.633 169.994 269.633 169.448C269.633 167.123 267.631 166.594 267.631 161.732C266.858 159.68 266.074 158.233 266.074 158.894C266.074 160.35 265.843 166.65 266.636 168.922Z" fill="#DDA07C"/>
<path d="M260.308 169.045C261.513 170.853 262.718 172.058 264.526 172.058C266.333 172.058 267.539 171.456 269.346 169.648" stroke="#A05534" stroke-linecap="round" stroke-linejoin="round"/>
<path d="M275.372 166.635C270.069 167.117 267.137 161.212 266.333 158.199H262.718C262.316 160.609 260.428 165.671 256.09 166.635C251.751 167.599 250.667 162.618 250.667 160.007C251.872 157.597 255.969 153.861 262.718 158.199H266.333C269.226 153.861 277.431 155.437 278.987 156.994C279.59 157.597 282 166.033 275.372 166.635Z" fill="#3C4D5D"/>
<path d="M248.859 163.02C249.261 162.216 250.185 160.489 250.667 160.007M250.667 160.007C250.667 162.618 251.751 167.599 256.09 166.635C260.428 165.671 262.316 160.609 262.718 158.199M250.667 160.007C251.872 157.597 255.969 153.861 262.718 158.199M285.013 163.02C283.406 161.212 279.951 157.476 278.987 156.994M278.987 156.994C279.59 157.597 282 166.033 275.372 166.635C270.069 167.117 267.137 161.212 266.333 158.199M278.987 156.994C277.431 155.437 269.226 153.861 266.333 158.199M266.333 158.199H262.718" stroke="#3C4D5D" stroke-linecap="round"/>
<path opacity="0.5" d="M277.987 156.994C278.426 157.433 279.825 162.032 277.987 164.728M261.718 158.199C261.442 159.854 260.466 162.758 258.478 164.728" stroke="#7D8F9F" stroke-linecap="round"/>
<path d="M259.594 156.669C254.696 155.058 251.673 157.994 250.667 160.007C250.667 160.856 250.781 161.955 251.085 163.02L259.594 156.669Z" fill="#7D8F9F"/>
<path d="M266.333 158.199C268.58 154.83 274.03 155.028 277.082 156.014L268.618 163.02C267.439 161.376 266.684 159.513 266.333 158.199Z" fill="#7D8F9F"/>
<path opacity="0.5" d="M266.334 153.379C266.133 153.78 265.731 154.945 265.731 156.391" stroke="#A05534" stroke-linecap="round" stroke-linejoin="round"/>
<path d="M74.7183 275.699C75.12 276.502 76.1644 280.158 77.1285 281.122C78.0926 282.086 77.1285 284.135 78.9362 285.943" stroke="#A05534" stroke-opacity="0.5" stroke-linecap="round"/>
<path d="M122.945 322.063L110.88 328.061L117.469 345.55L122.898 343.152C126.106 345.57 133.167 350.417 140.398 348.007C150.227 343.666 165.313 332.165 147.026 320.891C147.736 317.378 150.827 313.75 155.462 312.455C157.185 311.974 158.869 311.532 160.285 311.045C168.718 305.827 162.097 298.6 160.286 300.404C158.474 302.208 151.291 310.678 142.858 309.454C131.413 307.792 124.361 317.848 122.945 322.063Z" fill="#FFCBA5"/>
<path d="M131.359 331.723C135.177 331.33 145.563 328.119 147.026 320.891M147.026 320.891C147.736 317.378 150.827 313.75 155.462 312.455C157.185 311.974 158.869 311.532 160.285 311.045C168.718 305.827 162.097 298.6 160.286 300.404C158.474 302.208 151.291 310.678 142.858 309.454C131.413 307.792 124.361 317.848 122.945 322.063L110.88 328.061L117.469 345.55L122.898 343.152C126.106 345.57 133.167 350.417 140.398 348.007C150.227 343.666 165.313 332.165 147.026 320.891Z" stroke="#A05534" stroke-linecap="round" stroke-linejoin="round"/>
<path d="M147.025 320.891C145.563 328.119 135.176 331.33 131.359 331.723C129.457 332.587 123.592 335.44 115.353 339.934L117.469 345.55L122.898 343.152C126.106 345.57 133.167 350.417 140.397 348.007C150.226 343.666 165.313 332.165 147.025 320.891Z" fill="#E3A784"/>
<path d="M148.836 338.307L143.434 321.506C142.957 319.095 143.441 318.266 145.853 317.294C150.867 315.275 160.575 311.24 166.963 308.53C170.052 307.22 172.365 306.219 172.994 305.906C174.925 304.947 176.208 306.114 176.607 307.12L182.034 305.324C183.039 304.925 185.291 303.885 186.252 305.333C187.213 306.782 189.838 314.581 191.435 319.204C191.834 320.41 192.391 322.46 191.425 323.422C190.459 324.384 186.81 325.219 183.192 326.416C184.058 329.204 179.567 330.225 175.346 331.737C174.045 332.135 173.595 332.518 172.331 333.02C169.884 333.993 156.336 338.096 151.312 339.609C150.269 339.923 149.169 339.344 148.836 338.307Z" fill="#2F4153"/>
<path d="M176.607 307.12C176.208 306.114 174.925 304.947 172.994 305.906C172.365 306.219 170.052 307.22 166.963 308.53M176.607 307.12L182.034 305.324C183.039 304.925 185.291 303.885 186.252 305.333C187.213 306.782 189.838 314.581 191.435 319.204C191.834 320.41 192.391 322.46 191.425 323.422C190.459 324.384 186.81 325.219 183.192 326.416M176.607 307.12C179.723 314.96 181.92 322.322 183.192 326.416M183.192 326.416C184.058 329.204 179.567 330.225 175.346 331.737M166.963 308.53C160.575 311.24 150.867 315.275 145.853 317.294C143.441 318.266 142.957 319.095 143.434 321.506L148.836 338.307C149.169 339.344 150.269 339.923 151.312 339.609C156.336 338.096 169.884 333.993 172.331 333.02C173.595 332.518 174.045 332.135 175.346 331.737M166.963 308.53C166.963 308.53 171.601 322.752 175.346 331.737" stroke="#3C4D5D"/>
<path d="M172.995 305.906C174.925 304.946 176.208 306.114 176.607 307.12L182.034 305.324C183.039 304.925 185.291 303.885 186.252 305.333C187.213 306.782 189.838 314.581 191.435 319.204C191.834 320.41 192.391 322.46 191.425 323.422C190.459 324.384 186.81 325.219 183.192 326.416C184.058 329.204 179.567 330.225 175.346 331.737C171.601 322.752 166.963 308.53 166.963 308.53C170.052 307.22 172.365 306.219 172.995 305.906Z" fill="#5D7387"/>
<path d="M172.331 333.02C173.595 332.518 174.045 332.135 175.346 331.737M176.607 307.12C176.208 306.114 174.925 304.946 172.995 305.906C172.365 306.219 170.052 307.22 166.963 308.53C166.963 308.53 171.601 322.752 175.346 331.737M176.607 307.12L182.034 305.324C183.039 304.925 185.291 303.885 186.252 305.333C187.213 306.782 189.838 314.581 191.435 319.204C191.834 320.41 192.391 322.46 191.425 323.422C190.459 324.384 186.81 325.219 183.192 326.416M176.607 307.12C179.723 314.96 181.92 322.322 183.192 326.416M183.192 326.416C184.058 329.204 179.567 330.225 175.346 331.737" stroke="#3C4D5D"/>
<path d="M182.034 305.324L176.607 307.12C179.723 314.96 181.92 322.322 183.192 326.416C186.81 325.219 190.459 324.384 191.425 323.422C192.391 322.46 191.833 320.41 191.434 319.204C189.838 314.581 187.213 306.782 186.252 305.333C185.291 303.885 183.039 304.925 182.034 305.324Z" fill="#DCE9EF" stroke="#3C4D5D"/>
<path opacity="0.4" d="M172.995 305.906C174.925 304.947 176.208 306.115 176.607 307.12L143.434 321.506C142.957 319.095 143.441 318.266 145.853 317.294C150.867 315.275 160.575 311.24 166.963 308.53C170.052 307.22 172.365 306.219 172.995 305.906Z" fill="#DCE9EF"/>
<path d="M122.945 322.063L110.88 328.061L114.667 338.299L131.359 331.723C135.177 331.33 145.563 328.119 147.026 320.891C147.736 317.378 150.827 313.75 155.462 312.455C157.185 311.974 158.869 311.532 160.285 311.045C168.718 305.827 162.097 298.6 160.286 300.404C158.474 302.208 151.291 310.678 142.858 309.454C131.413 307.792 124.361 317.848 122.945 322.063Z" fill="#FFCBA5"/>
<path d="M163.385 306.396C165.296 301.32 159.927 300.77 159.945 300.683C159.711 301.094 162.58 302.931 159.474 306.775C157.969 308.636 149.414 310.194 147.871 316.733C153.407 310.162 160.766 313.352 163.385 306.396Z" fill="#E3A784"/>
<path d="M131.359 331.723C135.176 331.33 145.563 328.119 147.026 320.891C147.736 317.378 150.827 313.75 155.462 312.455C157.185 311.974 158.869 311.532 160.285 311.045C168.718 305.827 162.097 298.6 160.285 300.404C158.474 302.208 151.291 310.678 142.858 309.454C131.413 307.792 124.361 317.848 122.945 322.063L110.234 328.187L114.667 338.299" stroke="#A05534" stroke-linecap="round" stroke-linejoin="round"/>
<path d="M139.983 347.455C135.773 343.83 138.797 339.016 143.01 341.436C146.478 343.429 154.234 345.346 152.033 348.085C148.786 352.852 143.438 350.429 139.983 347.455Z" fill="#FFCBA5" stroke="#A05534"/>
<path d="M144.818 341.44C140.608 337.815 144.012 332.354 149.428 335.379C153.239 337.507 162.455 341.703 160.254 344.442C157.007 349.209 148.272 344.415 144.818 341.44Z" fill="#FFCBA5" stroke="#A05534"/>
<path d="M152.438 336.591C144.617 331.15 150.378 324.839 155.631 328.139C160.445 331.162 170.965 336.03 168.097 340.242C164.849 345.009 156.18 339.194 152.438 336.591Z" fill="#FFCBA5" stroke="#A05534"/>
<path d="M158.733 329.784C150.669 325.362 155.847 319.014 161.511 321.547C166.928 323.969 177.761 330.019 173.207 336.088C169.158 340.196 165.353 333.415 158.733 329.784Z" fill="#FFCBA5" stroke="#A05534"/>
<path opacity="0.3" d="M166.698 327.228C160.56 336.578 147.895 346.21 140.549 347.301C145.218 353.632 153.537 350.486 151.54 345.354C154.401 347.502 163.34 345.858 158.886 340.682C163.639 342.275 171.949 342.275 166.698 335.874C171.004 339.339 180.816 337.245 166.698 327.228Z" fill="#A05534"/>
<path d="M108.476 325.645L83.7447 337.039L95.1377 361.769L117.46 349.768C117.965 339.646 111.681 329.469 108.476 325.645Z" fill="url(#paint11_linear)" stroke="url(#paint12_linear)"/>
<path d="M94.515 361.573L116.896 349.408C117.074 345.829 116.404 342.243 115.321 338.933L90.7225 352.185L94.515 361.573Z" fill="url(#paint13_linear)"/>
<circle cx="184.259" cy="308.079" r="0.602564" transform="rotate(0.129077 184.259 308.079)" fill="black"/>
<circle cx="180.865" cy="309.325" r="0.602564" transform="rotate(0.129077 180.865 309.325)" fill="black"/>
<circle cx="182.111" cy="312.719" r="0.602564" transform="rotate(0.129077 182.111 312.719)" fill="black"/>
<circle cx="183.357" cy="316.113" r="0.602564" transform="rotate(0.129077 183.357 316.113)" fill="black"/>
<circle cx="186.751" cy="314.867" r="0.602564" transform="rotate(0.129077 186.751 314.867)" fill="black"/>
<circle cx="185.505" cy="311.473" r="0.602564" transform="rotate(0.129077 185.505 311.473)" fill="black"/>
<circle cx="187.997" cy="318.261" r="0.602564" transform="rotate(0.129077 187.997 318.261)" fill="black"/>
<circle cx="185.85" cy="322.901" r="0.602564" transform="rotate(0.129077 185.85 322.901)" fill="black"/>
<circle cx="189.243" cy="321.654" r="0.602564" transform="rotate(0.129077 189.243 321.654)" fill="black"/>
<circle cx="184.604" cy="319.507" r="0.602564" transform="rotate(0.129077 184.604 319.507)" fill="black"/>
<path d="M414.564 293.173L424.394 294.725L423.839 312.394L418.247 311.905C416.113 315.049 410.657 321.385 405.901 321.573C398.277 322.185 382.54 321.287 380.586 312.799C378.632 304.31 382.084 298.553 382.628 296.63C380.939 296.725 378.621 296.633 377.205 296.63C363.478 293.514 371.417 284.279 373.589 285.34C375.762 286.401 382.91 291.509 390.085 287.837C399.822 282.854 410.346 289.558 414.564 293.173Z" fill="#FFCBA5"/>
<path d="M407.181 304.259C403.644 305.073 393.602 306.427 390.085 300.404C388.376 297.477 387.172 296.373 382.628 296.63M382.628 296.63C380.939 296.725 378.621 296.633 377.205 296.63C363.478 293.514 371.417 284.279 373.589 285.34C375.762 286.401 382.91 291.509 390.085 287.837C399.822 282.854 410.346 289.558 414.564 293.173L424.394 294.725L423.839 312.394L418.247 311.905C416.113 315.049 410.657 321.385 405.901 321.573C398.277 322.185 382.54 321.287 380.586 312.799C378.632 304.31 382.084 298.553 382.628 296.63Z" stroke="#A05534" stroke-linecap="round"/>
<path d="M373.397 294.677C367.771 292.049 370.798 286.644 371.987 286.44C372.49 286.642 371.223 290.331 376.744 291.569C379.417 292.168 385.698 292.504 388.1 296.749C383.279 296.005 379.617 297.582 373.397 294.677Z" fill="#E3A784"/>
<path d="M388.55 299.116C388.55 299.116 405.845 316.542 413.775 295.729C415.724 300.463 415.485 301.658 424.814 302.677L425.995 311.229L418.596 311.229C416.55 314.686 413.449 317.891 405.845 318.415C372.439 313.722 388.55 299.116 388.55 299.116Z" fill="#E3A784"/>
<path d="M420.308 313.143C420.525 310.302 417.699 309.4 416.285 308.948L369.498 292.945L364.551 291.366C360.936 293.776 359.128 302.211 361.583 304.742C363.083 305.035 364.725 305.351 366.47 305.684C382.662 308.777 412.747 316.007 415.02 316.511C418.167 317.209 420.09 315.985 420.308 313.143Z" fill="#5D7387"/>
<path d="M369.498 292.945L364.551 291.366C360.936 293.776 359.128 302.211 361.583 304.742C363.083 305.035 364.725 305.351 366.47 305.684M369.498 292.945L416.285 308.948C417.699 309.4 420.525 310.302 420.308 313.143C420.09 315.985 418.167 317.209 415.02 316.511C412.747 316.007 382.662 308.777 366.47 305.684M369.498 292.945C367.698 294.767 365.756 301.007 366.47 305.684" stroke="#3C4D5D"/>
<path d="M420.464 314.857C421.084 311.908 420.605 310.626 419.185 309.958C418.095 310.088 416.428 310.404 415.981 313.758C415.535 317.112 373.453 301.677 354.185 297.754C354.106 299.805 354.699 301.648 355.873 302.58C357.406 303.094 359.083 303.652 360.866 304.242C377.413 309.717 412.144 316.815 414.457 317.657C417.66 318.823 419.844 317.805 420.464 314.857Z" fill="#2D3F50"/>
<path d="M354.91 282.327C361.745 284.451 366.359 287.75 365.502 294.42C364.704 300.634 367.581 300.35 361.521 306.929C355.204 313.788 349.129 310.039 342.257 307.635C337.038 305.809 319.441 300.404 325.987 285.942C331.65 273.431 345.726 279.474 354.91 282.327Z" fill="#0E161D" stroke="black"/>
<path d="M326.909 284.683C332.592 275.393 340.167 277.921 349.707 280.504C352.985 281.392 360.519 283.188 362.303 286.48C355.392 288.167 352.196 300.004 353.98 305.875C351.651 304.973 336.956 298.854 331.842 296.894C326.728 294.934 325.59 289.496 325.66 287.022C326.004 286.266 326.418 285.486 326.909 284.683Z" fill="url(#paint14_linear)"/>
<path d="M364.551 291.365C360.936 293.775 359.128 302.211 361.583 304.742C363.083 305.035 364.725 305.351 366.469 305.684C365.756 301.006 367.698 294.767 369.498 292.945L364.551 291.365Z" fill="#6FC9E5" stroke="#044A7D"/>
<path d="M405.526 320.288C409.418 313.66 403.737 310.207 400.705 313.66C398.209 316.503 391.27 325.137 394.077 326.917C398.44 330.192 403.342 324.006 405.526 320.288Z" fill="#FFCBA5" stroke="#A05534"/>
<path d="M399.5 313.058C402.262 306.43 395.981 304.035 392.919 309.041C390.461 313.058 383.833 320.891 387.449 324.507C391.812 327.782 396.487 320.288 399.5 313.058Z" fill="#FFCBA5" stroke="#A05534"/>
<path d="M391.34 311.279C396.679 304.02 389.931 300.641 386.236 305.199C382.851 309.376 374.795 317.273 379.615 320.891C385.641 325.414 388.785 314.753 391.34 311.279Z" fill="#FFCBA5" stroke="#A05534"/>
<path d="M385.039 306.43C390.907 300.007 383.511 296.411 379.215 300.408C375.105 304.231 367.257 312.956 373.187 316.997C378.066 319.437 380.222 311.701 385.039 306.43Z" fill="#FFCBA5" stroke="#A05534"/>
<path d="M425.81 291.829L451.428 294.473L448.784 320.091L425.136 316.167C421.592 307.26 424.108 296.23 425.81 291.829Z" fill="url(#paint15_linear)" stroke="url(#paint16_linear)"/>
<path d="M449.193 319.682L425.545 315.758C424.437 312.973 423.922 309.981 423.788 307.049L450.186 310.055L449.193 319.682Z" fill="url(#paint17_linear)"/>
<path opacity="0.3" d="M376.176 304.206C384.084 312.114 397.836 321.099 405.251 320.676C401.965 327.823 392.189 330.369 393.996 322.894C391.631 325.579 385.207 326.426 386.932 319.115C383.324 323.016 377.299 323.14 378.306 315.994C374.609 318.951 364.697 317.756 376.176 304.206Z" fill="#A05534"/>
<path d="M186.192 352.828L178.359 359.456L190.411 372.003L193.718 369.93C197.409 371.514 205.878 374.049 210.221 371.507C217.361 367.709 230.865 357.944 227.769 349.27C224.674 340.596 210.067 341.577 208.487 340.174C210.046 339.296 213.705 339.356 216.32 335.956C222.346 328.122 212.831 323.529 211.5 325.712L211.497 325.717C210.165 327.903 206.724 333.547 200.051 335.956C189.173 339.882 186.192 346.802 186.192 352.828Z" fill="#FFCBA5"/>
<path d="M191.305 359.456C194.919 358.166 203.967 353.056 206.679 346.199C207.836 343.276 207.331 341.981 208.487 340.174M208.487 340.174C210.046 339.296 213.705 339.356 216.32 335.956C222.346 328.122 212.831 323.529 211.5 325.712C210.169 327.895 206.728 333.545 200.051 335.956C189.173 339.882 186.192 346.802 186.192 352.828L178.359 359.456L190.411 372.003L193.718 369.93C197.409 371.514 205.878 374.049 210.221 371.507C217.361 367.709 230.865 357.944 227.769 349.27C224.674 340.596 210.067 341.577 208.487 340.174Z" stroke="#A05534" stroke-linecap="round"/>
<path d="M217.659 331.113C218.205 324.927 212.116 325.973 212.109 325.871C211.977 326.396 215.706 327.539 213.463 332.733C212.377 335.248 207.106 337.926 207.522 340.045C212.109 336.805 216.911 339.588 217.659 331.113Z" fill="#E3A784"/>
<path d="M209.023 341.115C208.631 341.056 206.727 353.958 191.713 359.976C188.425 361.961 189.071 361.775 186.027 366.81L189.071 371.983L194.011 368.694C197.584 370.528 205.369 374.098 212.082 370.489C221.026 364.534 225.836 343.659 209.023 341.115Z" fill="#E3A784"/>
<path d="M232.589 310.648C227.515 314.8 227.568 320.49 227.769 323.302C227.769 326.114 229.904 331.674 238.013 333.545C245.846 335.353 250.064 331.135 253.679 326.314C256.692 322.297 257.897 313.134 250.064 308.238C245.244 305.225 239.218 305.225 232.589 310.648Z" fill="#0E161D" stroke="black"/>
<path d="M246.911 307.424C243.569 305.577 238.593 305.817 232.541 310.524C229.86 312.608 228.427 315.7 227.652 318.577C233.961 315.837 241.05 319.618 243.035 322.453C245.115 320.563 245.041 320.635 248.518 316.404C251.827 312.376 250.259 309.274 246.911 307.424Z" fill="url(#paint18_linear)"/>
<path d="M194.025 367.891C192.218 365.481 191.213 363.674 192.218 362.468L224.857 326.315L228.372 322.097C235.602 320.892 240.423 328.725 238.615 332.34C237.443 333.453 236.159 334.668 234.793 335.956C222.109 347.91 202.394 366.151 200.654 367.891C198.243 370.302 195.833 370.302 194.025 367.891Z" fill="#5D7387"/>
<path d="M224.857 326.315L228.372 322.097C235.602 320.892 240.423 328.725 238.615 332.34C237.443 333.453 236.159 334.668 234.793 335.956M224.857 326.315L192.218 362.468C191.213 363.674 192.218 365.481 194.025 367.891C195.833 370.302 198.243 370.302 200.654 367.891C202.394 366.151 222.109 347.91 234.793 335.956M224.857 326.315C227.497 326.917 233.181 329.689 234.793 335.956" stroke="#3C4D5D"/>
<path d="M194.025 367.891C192.218 365.481 191.213 363.674 192.218 362.468C193.261 362.125 195.802 362.151 197.624 365.002C199.238 367.527 219.762 346.766 233.281 332.42C235.024 330.57 236.651 328.826 238.106 327.253C239.044 329.078 239.286 330.999 238.615 332.34C237.443 333.453 236.159 334.668 234.793 335.956C222.109 347.91 202.394 366.151 200.654 367.891C198.243 370.302 195.833 370.302 194.025 367.891Z" fill="#2D3F50"/>
<path d="M228.372 322.097C235.602 320.892 240.423 328.725 238.615 332.34C237.443 333.453 236.159 334.668 234.793 335.956C233.181 329.689 227.497 326.917 224.857 326.315L228.372 322.097Z" fill="#DCE9EF" stroke="#7E92A4"/>
<path d="M204.269 366.084C199.804 362.778 202.008 358.121 206.679 359.455C210.898 360.661 220.724 368.011 218.731 370.904C217.295 373.387 213.897 374.815 211.5 373.314C209.076 371.797 208.487 369.206 204.269 366.084Z" fill="#FFCBA5" stroke="#A05534"/>
<path d="M220.151 348.623C210.955 348.486 212.633 342.138 218.635 340.569C224.756 338.968 231.987 341.378 234.397 345.596C235.688 347.855 235.775 351.622 231.987 353.43C227.166 349.814 224.813 348.692 220.151 348.623Z" fill="#FFCBA5" stroke="#A05534"/>
<path d="M217.525 356.443C208.386 355.41 208.83 348.211 215.02 347.8C220.942 347.407 228.372 347.404 231.987 354.635C233.564 357.788 229.264 363.85 226.564 363.071C223.379 362.152 222.733 357.031 217.525 356.443Z" fill="#FFCBA5" stroke="#A05534"/>
<path d="M212.62 363.626C204.528 359.254 207.629 352.741 213.525 354.672C219.165 356.52 224.62 357.556 225.656 364.161C226.203 367.643 222.149 372.032 219.936 370.302C217.324 368.26 217.231 366.116 212.62 363.626Z" fill="#FFCBA5" stroke="#A05534"/>
<path opacity="0.3" d="M228.755 341.526C227.553 355.043 214.07 365.264 207.478 368.685C212.284 376.695 217.658 372.94 219.743 370.062C223.148 371.163 225.584 365.848 226.377 363.053C231.583 362.452 232.384 356.294 232.134 353.291C238.943 347.584 232.718 343.069 228.755 341.526Z" fill="#A05534"/>
<path d="M173.538 358.853L134.974 385.366L159.077 409.468L191.013 373.314C189.095 363.363 179.564 358.853 173.538 358.853Z" fill="url(#paint19_linear)" stroke="url(#paint20_linear)"/>
<path d="M158.552 409.321L190.347 373.157C189.665 369.62 188.762 368.144 186.655 365.94L151.027 401.418L158.552 409.321Z" fill="url(#paint21_linear)"/>
<path d="M211.508 406.877L205.931 415.49L221.141 425.135L223.666 421.064C227.658 421.511 236.498 421.483 239.919 417.792C245.651 412.087 255.746 398.828 250.27 391.424C244.794 384.019 231.098 389.19 229.179 388.305C231.987 384.763 233.794 385.968 235.602 381.148C238.971 372.165 228.513 371.116 227.872 373.591L227.871 373.596C227.229 376.074 225.571 382.474 219.883 386.713C210.61 393.623 209.762 401.109 211.508 406.877Z" fill="#FFCBA5"/>
<path d="M223.18 412.157C226.265 409.875 232.563 402.439 230.142 395.474C228.965 392.089 228.596 390.37 229.179 388.305M229.179 388.305C231.987 384.763 233.794 385.968 235.602 381.148C238.971 372.165 228.513 371.116 227.872 373.591C227.231 376.066 225.575 382.471 219.883 386.713C210.61 393.623 209.762 401.109 211.508 406.877L205.931 415.49L221.141 425.135L223.666 421.064C227.658 421.511 236.498 421.483 239.919 417.792C245.651 412.087 255.746 398.828 250.27 391.424C244.794 384.019 231.098 389.19 229.179 388.305Z" stroke="#A05534" stroke-linecap="round"/>
<path d="M235.453 377.363C234.528 371.223 227.932 373.785 227.89 373.692C227.952 374.23 231.844 373.978 231.586 379.63C231.461 382.367 227.481 386.738 228.62 388.573C231.762 383.917 236.377 383.503 235.453 377.363Z" fill="#E3A784"/>
<path d="M229.755 389.223C229.535 389.275 231.74 397.419 228.839 408.79C223.801 416.608 220.667 413.335 215.642 421.261L220.217 425.146L223.801 420.416C227.779 420.974 236.304 421.788 241.458 416.172C247.948 407.609 242.52 386.205 229.755 389.223Z" fill="#E3A784"/>
<path d="M239.048 353.901C234.72 360.35 234.397 367.892 239.82 372.712C244.829 377.164 243.209 378.445 253.055 377.998C263.32 377.533 265.128 370.302 268.141 363.071C270.428 357.581 274.166 345.298 259.705 341.379C248.859 338.439 244.701 345.478 239.048 353.901Z" fill="#0E161D" stroke="black"/>
<path d="M259.23 341.777C248.731 338.885 244.934 345.909 239.739 354.318C237.954 357.207 236.95 360.313 236.869 363.291C245.129 356.206 254.229 362.79 257.746 366.969C258.828 364.718 261.591 358.986 263.982 354.059C266.373 349.132 263.485 344.386 261.742 342.629C260.974 342.312 260.138 342.027 259.23 341.777Z" fill="#263645"/>
<path d="M223.37 419.024C220.942 417.241 222.166 414.352 222.778 412.908L240.831 370.297L242.972 365.241C249.544 361.992 256.427 368.093 255.745 372.077C254.946 373.482 254.068 375.017 253.134 376.645C244.458 391.762 230.876 414.933 229.714 417.103C228.106 420.108 225.799 420.807 223.37 419.024Z" fill="#5D7387"/>
<path d="M240.831 370.297L242.972 365.241C249.544 361.992 256.427 368.093 255.745 372.077C254.946 373.482 254.068 375.017 253.134 376.645M240.831 370.297L222.778 412.908C222.166 414.352 220.942 417.241 223.37 419.024C225.799 420.807 228.106 420.108 229.714 417.103C230.876 414.933 244.458 391.762 253.134 376.645M240.831 370.297C243.532 370.108 249.775 371.114 253.134 376.645" stroke="#3C4D5D"/>
<path d="M224.562 420.463C222.084 418.75 220.558 417.354 221.128 415.892C222.009 415.236 224.427 414.455 227.059 416.581C229.691 418.707 246.138 384.12 253.85 367.022C255.319 368.455 256.157 370.201 255.946 371.686C255.188 373.113 254.354 374.672 253.467 376.326C245.227 391.685 231.948 416.158 230.848 418.361C229.327 421.411 227.041 422.175 224.562 420.463Z" fill="#2D3F50"/>
<path d="M242.973 365.241C249.544 361.992 256.427 368.093 255.745 372.077C254.946 373.482 254.069 375.017 253.134 376.645C249.775 371.114 243.532 370.108 240.831 370.297L242.973 365.241Z" fill="#EC9411" stroke="#DC6209"/>
<path d="M230.782 417.904C226.551 415.473 228.463 410.751 232.59 411.276C236.316 411.75 245.914 416.042 244.641 419.109C243.781 421.697 239.041 422.564 236.808 421.519C234.55 420.463 234.778 420.201 230.782 417.904Z" fill="#FFCBA5" stroke="#A05534"/>
<path d="M239.218 396.212C231.445 397.545 232.298 391.947 236.803 388.797C243.436 384.161 251.406 388.784 254.033 392.41C255.44 394.352 256.045 397.918 253.107 400.239C248.532 397.57 243.158 395.536 239.218 396.212Z" fill="#FFCBA5" stroke="#A05534"/>
<path d="M238.012 404.648C230.161 405.12 230.825 398.865 235.602 396.212C241.025 393.199 248.756 395.469 253.277 401.384C256.692 405.853 252.282 410.576 249.896 410.266C247.081 409.899 242.486 404.378 238.012 404.648Z" fill="#FFCBA5" stroke="#A05534"/>
<path d="M235.602 412.481C228.163 409.613 230.868 404.045 236.205 404.045C241.628 404.045 247.478 405.333 249.284 411.446C250.237 414.67 247.439 419.487 245.328 418.194C242.839 416.669 239.841 414.115 235.602 412.481Z" fill="#FFCBA5" stroke="#A05534"/>
<path opacity="0.3" d="M246.047 387.627C248.745 400.927 239.486 414.154 234.142 419.31C240.242 423.541 243.49 421.286 244.67 417.932C248.247 418.019 248.937 413.065 248.901 410.159C254.214 410.159 253.932 403.325 252.837 400.517C257.738 393.107 250.286 387.978 246.047 387.627Z" fill="#A05534"/>
<path d="M201.143 416.31L171.916 452.861L201.969 468.945L222.058 425.087C217.339 416.119 206.91 414.564 201.143 416.31Z" fill="url(#paint22_linear)" stroke="url(#paint23_linear)"/>
<path d="M201.969 468.945L221.373 425.128C220.107 422.721 218.429 420.848 216.54 419.429L192.395 463.821L201.969 468.945Z" fill="url(#paint24_linear)"/>
<path d="M390.301 351.786L407.936 361.263L401.91 377.532L388.051 372.712C384.838 375.123 377.673 378.977 372.852 377.532C365.018 375.526 350.935 367.409 351.897 358.25C352.859 349.091 364.445 346.486 365.65 344.75C361.433 343.123 360.487 345.078 356.483 341.842C349.022 335.811 357.502 329.6 359.31 331.408L359.314 331.411C361.124 333.221 365.8 337.894 372.852 338.661C384.349 339.91 388.879 345.931 390.301 351.786Z" fill="#FFCBA5"/>
<path d="M382.922 362.259C379.106 361.858 369.906 358.646 368.458 351.416C367.754 347.902 367.2 346.234 365.65 344.75M365.65 344.75C361.433 343.123 360.487 345.078 356.483 341.842C349.022 335.811 357.502 329.6 359.31 331.408C361.118 333.215 365.795 337.894 372.852 338.661C384.349 339.91 388.879 345.931 390.301 351.786L407.936 361.263L401.91 377.532L388.051 372.712C384.838 375.123 377.673 378.977 372.852 377.532C365.018 375.526 350.935 367.409 351.897 358.25C352.859 349.091 364.445 346.486 365.65 344.75Z" stroke="#A05534" stroke-linecap="round"/>
<path d="M365.577 345.635C365.577 345.635 377.894 364.39 388.197 355.155C388.197 360.274 393.846 363.278 402.085 367.772L399.921 376.13L386.755 371.323C383.547 373.741 379.459 375.524 372.228 373.114C343.124 356.058 365.577 345.635 365.577 345.635Z" fill="#E3A784"/>
<path d="M355.427 339.742C351.825 334.684 357.121 331.472 358.257 331.88C358.595 332.303 355.675 334.889 359.87 338.686C361.902 340.524 366.677 340.017 366.677 344.895C362.848 341.873 359.409 345.334 355.427 339.742Z" fill="#E3A784"/>
<path d="M337.553 318.01C344.302 321.433 348.302 327.793 346.234 334.66C344.324 341.002 346.29 341.303 337.979 345.817C329.316 350.523 324.25 345.17 318.195 340.418C313.596 336.809 304.443 328.049 314.382 317.463C321.836 309.524 328.737 313.54 337.553 318.01Z" fill="#0E161D" stroke="black"/>
<path d="M314.381 317.463C321.836 309.524 328.737 313.54 337.553 318.011C340.581 319.546 343.057 321.674 344.678 324.174C333.936 322.43 329.601 332.792 328.776 338.191C326.679 336.835 321.335 333.382 316.726 330.422C312.118 327.463 312.11 321.907 312.682 319.499C313.172 318.829 313.737 318.15 314.381 317.463Z" fill="#263645"/>
<path d="M394.68 372.109C395.868 369.34 393.347 367.472 392.087 366.538L346.472 335.144L342.062 331.875C334.751 332.41 331.914 341.159 334.524 344.246C335.925 345.051 337.46 345.929 339.092 346.857C354.238 355.481 386.136 372.392 388.239 373.673C391.149 375.446 393.492 374.878 394.68 372.109Z" fill="#5D7387"/>
<path d="M346.472 335.144L342.062 331.875C334.751 332.41 331.914 341.159 334.524 344.246C335.925 345.051 337.46 345.929 339.092 346.857M346.472 335.144L392.087 366.538C393.347 367.472 395.868 369.34 394.68 372.109C393.492 374.878 391.149 375.446 388.239 373.673C386.136 372.392 354.238 355.481 339.092 346.857M346.472 335.144C344.049 336.353 339.18 340.387 339.092 346.857" stroke="#3C4D5D"/>
<path d="M393.942 373.811C395.365 371.156 396.085 369.217 394.911 368.177C393.828 367.995 391.319 368.404 389.948 371.497C388.577 374.59 352.529 347.951 335.139 338.772C334.487 340.718 334.538 342.654 335.403 343.879C336.73 344.802 338.183 345.809 339.727 346.876C354.069 356.78 385.406 373.352 387.389 374.811C390.136 376.83 392.518 376.466 393.942 373.811Z" fill="#2D3F50"/>
<path d="M342.061 331.875C334.751 332.41 331.914 341.159 334.524 344.246C335.925 345.051 337.46 345.929 339.092 346.858C339.18 340.387 344.049 336.353 346.472 335.144L342.061 331.875Z" fill="#E81E1E" stroke="#600202"/>
<path d="M382.052 370.144C384.464 365.902 380.42 362.803 377.131 365.349C374.16 367.649 368.068 376.217 370.721 378.214C372.775 380.008 377.3 378.35 378.694 376.317C380.103 374.26 379.773 374.151 382.052 370.144Z" fill="#FFCBA5" stroke="#A05534"/>
<path d="M363.775 355.732C371.15 352.937 367.574 348.545 362.094 348.117C354.026 347.488 349.504 355.516 349.08 359.973C348.853 362.36 350.141 365.741 353.851 366.25C356.438 361.629 360.037 357.149 363.775 355.732Z" fill="#FFCBA5" stroke="#A05534"/>
<path d="M371.18 360.058C378.185 356.482 374.439 351.429 368.976 351.566C362.774 351.722 355.179 359.933 354.285 367.323C353.61 372.907 359.807 374.739 361.705 373.261C363.945 371.517 367.188 362.096 371.18 360.058Z" fill="#FFCBA5" stroke="#A05534"/>
<path d="M377.205 364.878C382.161 358.632 377.004 355.207 372.405 357.915C367.733 360.667 361.285 367.783 362.831 373.967C363.646 377.228 368.501 379.959 369.664 377.774C371.035 375.197 374.382 368.437 377.205 364.878Z" fill="#FFCBA5" stroke="#A05534"/>
<path opacity="0.3" d="M353.558 352.087C357.536 365.061 372.846 370.803 380.004 372.783C376.663 379.413 372.565 379.855 369.928 377.471C366.826 379.255 363.376 375.353 362.021 372.783C357.352 375.319 354.123 369.644 353.745 366.654C345.901 362.482 350.001 354.418 353.558 352.087Z" fill="#A05534"/>
<path d="M408.538 357.648L448.91 370.302L431.436 398.02L400.103 379.34C399.618 369.217 402.683 359.07 408.538 357.648Z" fill="url(#paint25_linear)" stroke="url(#paint26_linear)"/>
<path d="M431.973 397.751L400.639 379.072C400.51 376.371 400.633 373.669 400.995 371.131L437.292 389.314L431.973 397.751Z" fill="url(#paint27_linear)"/>
<path d="M306.705 369.699L292.243 375.122L315.743 428.75C322.492 432.125 326.188 427.344 327.192 424.532L306.705 369.699Z" fill="#5D7387" stroke="#3C4D5D"/>
<path d="M324.025 424.506C326.503 422.793 328.029 421.397 327.458 419.936C326.578 419.28 325.906 417.81 323.274 419.936C320.642 422.062 308.462 391.229 297.857 372.006C296.388 373.439 292.43 374.245 292.641 375.729C293.399 377.157 294.232 378.716 295.12 380.37C303.36 395.729 316.639 420.202 317.738 422.405C319.26 425.455 321.546 426.219 324.025 424.506Z" fill="#2D3F50"/>
<path d="M300.68 417.904C303.572 420.314 307.107 428.549 308.513 432.366C315.342 433.169 329.603 434.173 332.013 431.763C331.009 429.955 330.349 424.653 335.742 417.904C341.136 411.156 337.99 405.049 335.742 402.84C338.696 397.534 334.293 391.926 331.41 389.584C330.928 380.425 323.979 380.545 320.564 381.75C313.936 372.712 310.923 380.545 309.718 384.763C308.754 388.137 305.299 395.007 303.692 398.019C303.893 393.199 302.487 383.196 295.256 381.75C288.026 380.304 288.628 385.165 289.833 387.776C291.239 388.981 294.172 393.079 294.654 399.827C295.256 408.263 297.064 414.891 300.68 417.904Z" fill="#FFCBA5"/>
<path d="M303.692 398.019C303.893 393.199 302.487 383.196 295.256 381.75C288.026 380.304 288.628 385.165 289.833 387.776C291.239 388.981 294.172 393.079 294.654 399.827C295.256 408.263 297.064 414.891 300.68 417.904C303.572 420.314 307.107 428.549 308.513 432.366C315.342 433.169 329.603 434.173 332.013 431.763C331.009 429.955 330.349 424.653 335.742 417.904C341.136 411.156 337.99 405.049 335.742 402.84M303.692 398.019L300.077 402.84M303.692 398.019C305.299 395.007 308.754 388.137 309.718 384.763C310.923 380.545 313.936 372.712 320.564 381.75M320.564 381.75C320.765 384.562 320.564 391.271 318.154 395.609M320.564 381.75C323.979 380.545 330.928 380.425 331.41 389.584M331.41 389.584C331.009 391.994 329.482 397.537 326.59 400.43M331.41 389.584C334.293 391.926 338.696 397.534 335.742 402.84M333.218 408.263C333.7 406.335 334.222 405.049 334.423 404.648C334.969 404.053 335.404 403.448 335.742 402.84" stroke="#A05534" stroke-linecap="round"/>
<path d="M295.256 381.75C288.025 380.304 289.875 386.819 289.657 386.727C290.606 387.54 294.136 382.66 296.645 390.491C300.726 400.358 298.973 403.673 300.077 402.84L303.692 398.02C303.893 393.199 302.487 383.197 295.256 381.75Z" fill="#ECB38E"/>
<path opacity="0.2" d="M316.182 398.406C313.658 392.924 311.858 392.015 310.227 391.833C310.227 391.507 310.169 390.971 312.518 384.271C314.867 377.571 318.865 378.864 321.294 381.656C329.038 380.176 331.554 386.623 331.844 390.031C337.5 395.426 336.666 401.27 335.542 403.518C339.545 407.608 338.008 413.561 336.739 416.027C330.938 412.437 318.705 403.888 316.182 398.406Z" fill="#A05534"/>
<path d="M315.743 398.622C319.761 402.84 328.638 411.517 332.013 412.481" stroke="#A05534" stroke-linecap="round"/>
<circle cx="288.628" cy="341.981" r="16.3718" fill="#0E161D" stroke="black"/>
<circle cx="284.073" cy="337.873" r="10.5815" fill="#263645"/>
<path d="M283.205 378.737L274.769 357.648L303.692 346.802H310.32L315.743 366.686L310.32 368.695L283.205 378.737Z" fill="#DCE9EF"/>
<path d="M303.692 346.802L274.769 357.648L283.205 378.737L310.32 368.695M303.692 346.802H310.32L315.743 366.686L310.32 368.695M303.692 346.802L310.32 368.695" stroke="#7E92A4" stroke-linejoin="round"/>
<path d="M309.904 347.341L304.368 347.341L310.726 368.013L315.18 366.413L309.904 347.341Z" fill="url(#paint28_linear)"/>
<path d="M307.91 431.763V457.88L337.125 453.976L332.615 431.763C326.349 434.173 313.333 433.169 307.91 431.763Z" fill="url(#paint29_linear)" stroke="url(#paint30_linear)"/>
<path d="M308.299 432.396V458.513L317.529 456.595L315.986 433.579C312.916 433.313 310.16 432.878 308.299 432.396Z" fill="url(#paint31_linear)"/>
<defs>
<linearGradient id="paint0_linear" x1="258.5" y1="110.799" x2="258.5" y2="395.799" gradientUnits="userSpaceOnUse">
<stop stop-color="#F0F3F9"/>
<stop offset="1" stop-color="#F6F9FD" stop-opacity="0"/>
</linearGradient>
<linearGradient id="paint1_linear" x1="271.915" y1="193.75" x2="271.915" y2="368.053" gradientUnits="userSpaceOnUse">
<stop stop-color="#5D7387"/>
<stop offset="0.710851" stop-color="#5D7387" stop-opacity="0.78"/>
<stop offset="1" stop-color="#5D7387" stop-opacity="0"/>
</linearGradient>
<linearGradient id="paint2_linear" x1="225.41" y1="240.556" x2="242.409" y2="342.23" gradientUnits="userSpaceOnUse">
<stop stop-color="#496075"/>
<stop offset="1" stop-color="#5D7387" stop-opacity="0"/>
</linearGradient>
<linearGradient id="paint3_linear" x1="312.742" y1="240.556" x2="295.744" y2="342.23" gradientUnits="userSpaceOnUse">
<stop stop-color="#496075"/>
<stop offset="1" stop-color="#5D7387" stop-opacity="0.63"/>
</linearGradient>
<linearGradient id="paint4_linear" x1="160.755" y1="263.738" x2="160.755" y2="280.072" gradientUnits="userSpaceOnUse">
<stop stop-color="#4E6579"/>
<stop offset="1" stop-color="#5D7387"/>
</linearGradient>
<linearGradient id="paint5_linear" x1="382.473" y1="253.811" x2="382.473" y2="270.145" gradientUnits="userSpaceOnUse">
<stop stop-color="#4E6579"/>
<stop offset="1" stop-color="#5D7387"/>
</linearGradient>
<linearGradient id="paint6_linear" x1="303.826" y1="298.596" x2="303.826" y2="319.605" gradientUnits="userSpaceOnUse">
<stop stop-color="#4E6479"/>
<stop offset="1" stop-color="#4E6479" stop-opacity="0"/>
</linearGradient>
<linearGradient id="paint7_linear" x1="236.338" y1="298.596" x2="236.338" y2="319.113" gradientUnits="userSpaceOnUse">
<stop stop-color="#4E6479"/>
<stop offset="1" stop-color="#4E6479" stop-opacity="0"/>
</linearGradient>
<linearGradient id="paint8_linear" x1="250.968" y1="197.366" x2="250.968" y2="273.289" gradientUnits="userSpaceOnUse">
<stop stop-color="#496074"/>
<stop offset="1" stop-color="#5D7387"/>
</linearGradient>
<linearGradient id="paint9_linear" x1="286.52" y1="194.353" x2="286.52" y2="273.289" gradientUnits="userSpaceOnUse">
<stop stop-color="#496074"/>
<stop offset="1" stop-color="#5D7387"/>
</linearGradient>
<linearGradient id="paint10_linear" x1="276.756" y1="193.548" x2="285.616" y2="208.743" gradientUnits="userSpaceOnUse">
<stop stop-color="white"/>
<stop offset="1" stop-color="#DCE9EF"/>
</linearGradient>
<linearGradient id="paint11_linear" x1="115.237" y1="335.305" x2="88.4801" y2="350.1" gradientUnits="userSpaceOnUse">
<stop stop-color="#CBD3DB"/>
<stop offset="1" stop-color="white"/>
</linearGradient>
<linearGradient id="paint12_linear" x1="115.025" y1="335.635" x2="90.296" y2="349.287" gradientUnits="userSpaceOnUse">
<stop stop-color="#8D9AA7"/>
<stop offset="1" stop-color="#8D9AA7" stop-opacity="0"/>
</linearGradient>
<linearGradient id="paint13_linear" x1="115.237" y1="335.305" x2="88.4801" y2="350.1" gradientUnits="userSpaceOnUse">
<stop stop-color="#9CAEBF"/>
<stop offset="1" stop-color="white"/>
</linearGradient>
<linearGradient id="paint14_linear" x1="338.426" y1="276.401" x2="352.701" y2="306.482" gradientUnits="userSpaceOnUse">
<stop stop-color="#3A4D5F"/>
<stop offset="1" stop-color="#263645" stop-opacity="0.53"/>
</linearGradient>
<linearGradient id="paint15_linear" x1="423.067" y1="302.724" x2="452.889" y2="308.405" gradientUnits="userSpaceOnUse">
<stop stop-color="#CBD3DB"/>
<stop offset="1" stop-color="#CBD3DB" stop-opacity="0"/>
</linearGradient>
<linearGradient id="paint16_linear" x1="424.842" y1="300.949" x2="448.274" y2="305.593" gradientUnits="userSpaceOnUse">
<stop stop-color="#7E92A4"/>
<stop offset="1" stop-color="#7E92A4" stop-opacity="0"/>
</linearGradient>
<linearGradient id="paint17_linear" x1="423.476" y1="302.316" x2="453.298" y2="307.996" gradientUnits="userSpaceOnUse">
<stop stop-color="#B0C0CF"/>
<stop offset="1" stop-color="#CBD3DB" stop-opacity="0"/>
</linearGradient>
<linearGradient id="paint18_linear" x1="238.359" y1="306.638" x2="239.549" y2="322.712" gradientUnits="userSpaceOnUse">
<stop stop-color="#394E62"/>
<stop offset="1" stop-color="#263645"/>
</linearGradient>
<linearGradient id="paint19_linear" x1="184.174" y1="362.062" x2="147.344" y2="398.891" gradientUnits="userSpaceOnUse">
<stop stop-color="#CBD3DB"/>
<stop offset="1" stop-color="white"/>
</linearGradient>
<linearGradient id="paint20_linear" x1="186.063" y1="362.691" x2="153.01" y2="397.003" gradientUnits="userSpaceOnUse">
<stop stop-color="#83919F"/>
<stop offset="1" stop-color="#83919F" stop-opacity="0"/>
</linearGradient>
<linearGradient id="paint21_linear" x1="184.174" y1="362.062" x2="147.345" y2="398.891" gradientUnits="userSpaceOnUse">
<stop stop-color="#ADB9C6"/>
<stop offset="1" stop-color="white"/>
</linearGradient>
<linearGradient id="paint22_linear" x1="213.763" y1="415.575" x2="185.433" y2="462.162" gradientUnits="userSpaceOnUse">
<stop stop-color="#CBD3DB"/>
<stop offset="1" stop-color="white"/>
</linearGradient>
<linearGradient id="paint23_linear" x1="212.504" y1="416.204" x2="188.896" y2="458.7" gradientUnits="userSpaceOnUse">
<stop stop-color="#83919F"/>
<stop offset="1" stop-color="#83919F" stop-opacity="0"/>
</linearGradient>
<linearGradient id="paint24_linear" x1="213.763" y1="415.575" x2="185.433" y2="462.162" gradientUnits="userSpaceOnUse">
<stop stop-color="#9DAFC0"/>
<stop offset="1" stop-color="white"/>
</linearGradient>
<linearGradient id="paint25_linear" x1="400.048" y1="367.208" x2="441.193" y2="384.349" gradientUnits="userSpaceOnUse">
<stop stop-color="#CBD3DB"/>
<stop offset="1" stop-color="white"/>
</linearGradient>
<linearGradient id="paint26_linear" x1="400.048" y1="366.337" x2="436.545" y2="383.187" gradientUnits="userSpaceOnUse">
<stop stop-color="#7E92A4"/>
<stop offset="1" stop-color="#7E92A4" stop-opacity="0"/>
</linearGradient>
<linearGradient id="paint27_linear" x1="400.584" y1="366.94" x2="441.73" y2="384.081" gradientUnits="userSpaceOnUse">
<stop stop-color="#B5C1CD"/>
<stop offset="1" stop-color="white"/>
</linearGradient>
<linearGradient id="paint28_linear" x1="309.774" y1="347.341" x2="309.774" y2="368.013" gradientUnits="userSpaceOnUse">
<stop stop-color="#BED2E4"/>
<stop offset="1" stop-color="#A3BBD0"/>
</linearGradient>
<linearGradient id="paint29_linear" x1="322.518" y1="431.763" x2="322.518" y2="457.88" gradientUnits="userSpaceOnUse">
<stop stop-color="#CBD3DB"/>
<stop offset="1" stop-color="white"/>
</linearGradient>
<linearGradient id="paint30_linear" x1="322.518" y1="431.763" x2="324.238" y2="454.575" gradientUnits="userSpaceOnUse">
<stop stop-color="#8295A5"/>
<stop offset="1" stop-color="#8295A5" stop-opacity="0"/>
</linearGradient>
<linearGradient id="paint31_linear" x1="322.517" y1="431.763" x2="322.517" y2="457.88" gradientUnits="userSpaceOnUse">
<stop stop-color="#A8B8C8"/>
<stop offset="1" stop-color="white"/>
</linearGradient>
</defs>
</svg>
