<svg width="243" height="81" viewBox="0 0 243 81" fill="none" xmlns="http://www.w3.org/2000/svg">
<path d="M202.242 68.2101C202.238 68.2101 201.498 68.8687 201.498 68.8687C200.44 69.8124 199.351 70.8227 198.037 70.3174C197.674 70.1857 197.419 69.7032 197.357 69.3287C197.297 66.6277 198.517 64.1249 199.699 61.688L200.002 61.0507C203.403 55.3855 207.356 48.7102 213.161 44.0774C214.139 43.3731 215.201 42.7814 216.322 43.2429C216.579 43.4839 216.879 43.9015 216.879 44.3183C216.879 44.4506 216.762 44.8017 216.694 44.9109C215.073 47.5252 213.528 50.2698 212.027 52.9045C209.092 58.1092 206.048 63.4885 202.242 68.2107L202.242 68.2101ZM170.786 54.859C170.563 55.0136 166.641 53.6954 165.884 50.0724C165.241 46.953 167.393 44.5157 169.477 43.287C170.371 42.584 171.717 42.3431 172.705 42.6929C173.622 43.3086 173.871 44.4074 173.871 45.5914C173.871 46.3175 173.774 47.0635 173.689 47.744C173.689 47.744 173.673 47.8763 173.67 47.8982C173.017 50.3349 172.017 52.7288 170.786 54.8592L170.786 54.859ZM155.804 69.594C155.404 69.0011 155.271 68.3527 155.258 67.6518C155.181 63.3461 159.825 55.6353 163.102 51.4346H163.109C164.483 54.4351 167.593 56.3639 169.47 57.1766C167.139 62.3594 159.141 73.4586 155.805 69.594H155.804ZM212.408 70.3585C211.632 70.8854 210.541 70.4803 210.949 69.2729C211.965 66.1986 216.003 59.9335 216.003 59.9335L227.249 40.0317H219.545C219.179 40.6318 218.396 42.0099 218.396 42.0099C218.04 41.4176 216.974 40.1004 216.535 39.8159C214.653 38.6292 211.892 39.1903 209.987 40.266C201.705 45.0978 195.662 54.6444 190.896 62.0881C190.896 62.0881 185.879 70.3635 183.094 70.979C180.92 71.1548 181.145 68.2329 181.239 67.5522C182.079 62.6325 184.031 57.9556 185.998 53.7174C189.998 50.9507 194.564 47.3275 198.712 43.353C207.716 34.7662 215.306 25.0379 216.415 22.8643C216.415 22.8643 215.214 23.1062 213.796 23.1497C206.87 32.7897 192.695 46.8009 188.398 48.8857C190.302 44.3175 202.602 22.5124 213.069 12.0826L214.716 10.5009C217.262 8.01952 219.901 5.47232 221.958 5.05501C222.175 5.03317 222.455 5.05501 222.696 5.5609C222.788 7.49299 222.067 8.92051 221.24 10.5454L220.081 12.9173C220.081 12.9173 221.723 12.6098 222.801 12.2575C224.052 9.90894 225.437 7.27305 224.927 4.13355C224.756 3.12329 224.023 2.35485 223.065 2.17902C219.943 1.58612 216.54 3.89111 213.802 5.75827L213.692 5.82368C199.617 16.8254 187.732 32.6807 177.341 54.3324C176.587 54.9025 173.678 55.584 173.183 55.2542C174.209 53.1466 175.501 50.3131 176.148 47.2389C176.26 46.3604 176.364 45.4605 176.364 44.5823C176.364 42.6922 175.909 40.9142 174.212 39.6848C172.222 38.6965 169.763 39.158 168.105 39.9042C160.677 42.9785 155.126 50.577 151.12 56.8343C148.966 60.81 146.818 65.0679 146.223 69.9441C145.804 73.7644 146.657 76.2238 148.834 77.4541C151.073 78.5952 153.891 77.409 154.998 76.8387C162.523 72.8861 167.781 64.9593 171.925 57.7122C172.09 57.6906 174.352 57.6252 176.064 57.1853C176.087 57.1853 176.096 57.1853 176.134 57.2083C176.036 57.5363 175.152 60.1722 175.152 60.1722C172.525 67.8574 171.311 73.084 173.792 76.1806C177.337 80.5508 183.206 76.0275 187.982 70.0535C186.957 77.2122 190.675 78.3325 193.51 77.784C196.766 76.9061 200.394 73.4357 202.078 71.6576C201.538 73.7433 201.685 77.4768 204.647 77.8497C206.677 78.2242 208.196 77.1224 209.954 76.1778C216.261 72.7518 223.81 61.3361 225.77 58.0355H223.2C220.414 62.2365 216.869 67.7446 212.409 70.3592L212.408 70.3585ZM115.256 27.7296H122.473L126.547 21.1285H119.328L115.256 27.7296ZM230.549 10.1934C225.045 13.3121 219.341 15.3318 212.435 14.6293C210.521 16.7819 208.657 18.9995 206.94 21.2831C216.632 23.7425 226.908 18.2747 232.639 13.071C238.701 7.8225 241.81 1.21333 241.81 1.21333C241.81 1.21333 237.266 6.39522 230.549 10.1935L230.549 10.1934ZM169.859 8.5251C168.712 21.6566 158.481 29.3655 155.949 29.9788C154.415 30.2857 151.798 29.6055 154.134 24.0944C157.576 16.6714 163.451 10.3701 169.755 7.14151C169.908 7.6906 169.904 8.04106 169.859 8.52474L169.859 8.5251ZM149.924 41.6172C149.191 40.0365 147.451 39.0262 145.597 39.1357C139.575 39.6851 133.685 44.6257 130.592 51.7187C128.969 55.3643 128.084 58.3724 127.503 63.1593C129.375 61.0079 133.195 57.4727 137.529 55.5402C137.529 55.5402 138.119 50.9508 141.126 46.8663C142.264 45.1749 144.541 42.4522 147.099 43.1766C149.333 43.9237 148.548 50.0943 145.578 56.0656C143.381 60.4581 140.019 64.8511 136.617 67.8807C133.609 70.4281 129.159 73.5022 125.266 71.1308C122.813 69.6822 121.563 66.6511 121.827 62.7424C122.999 51.6534 128.058 42.2104 135.298 31.4506C142.763 21.4591 150.993 11.2043 162.079 5.73499C164.34 4.59329 166.434 4.32979 168.245 5.03257C168.245 5.03257 157.838 10.7419 152.877 21.305C151.615 23.9844 149.86 27.6066 151.627 30.813C152.551 32.4815 154.191 32.6135 155.511 32.5257C161.592 31.12 165.52 25.4547 168.73 20.2728C170.591 16.3421 172.245 12.4333 172.245 8.08469C172.245 7.5578 172.218 6.85544 172.173 6.32783C175.078 4.79132 181.035 7.51363 181.035 7.51363C185.691 9.05133 195.603 16.6278 198.946 18.0764C200.577 16.1882 203.257 13.3338 204.766 11.9061L202.582 10.5665C199.084 8.43635 195.387 6.41592 191.748 4.41782C183.484 -0.0831908 176.757 1.49748 173.333 2.72733C171.988 3.21011 170.758 3.62749 170.758 3.62749C168.217 0.860771 164.05 1.12362 160.98 1.87074C149.939 5.03269 139.688 12.74 128.698 26.1137C120.617 36.5885 115.605 45.6362 112.934 54.573C110.875 60.5894 110.249 69.4387 115.275 74.6872C119.548 79.1436 125.214 78.1784 129.216 76.5757C137.886 72.3156 145.677 63.1358 149.561 52.574C150.497 49.4343 151.537 44.9986 149.924 41.6164L149.924 41.6172ZM53.8252 31.4289C53.8107 31.4727 52.3527 34.8101 52.3527 34.8101C52.1419 34.9856 51.8087 34.8981 51.4268 34.8101L50.7723 34.6997C48.7174 34.0633 47.1673 32.7016 46.6895 31.0768C46.0303 27.9145 48.7379 25.4332 49.9309 24.5333C51.0755 23.7421 52.855 23.325 53.8884 24.1379C54.5257 24.8847 54.7671 25.8506 54.7671 26.9053C54.7674 28.3323 54.326 29.9352 53.8252 31.4289H53.8252ZM50.6932 37.7744C50.6932 37.7744 50.6271 37.9727 50.5944 38.0375C50.5859 38.0375 47.2802 43.4168 47.2802 43.4168C45.2851 46.0743 42.7941 49.4131 39.6801 51.0153C38.7572 51.3229 37.4814 51.5209 36.8313 50.709C35.4529 49.0617 36.1633 46.7781 36.7404 44.9336L36.9447 44.2747C38.5993 39.7955 41.2248 35.842 43.7801 32.1742C43.812 32.1526 43.8836 32.1307 43.9094 32.1307C43.9155 32.1527 43.9257 32.1527 43.9301 32.1968C45.5337 35.2705 48.5405 36.6973 50.7892 37.357C50.8028 37.357 50.8172 37.3789 50.8172 37.4231C50.8175 37.4885 50.7808 37.577 50.6933 37.7738L50.6932 37.7744ZM92.0463 34.2392C93.525 32.1974 97.8289 26.7292 98.8782 25.8071C102.407 22.7096 103.818 24.0726 103.94 25.0381C100.646 30.9229 96.7591 37.6642 93.1045 43.7253C93.1118 43.7037 91.9608 45.4598 91.9608 45.4598C90.3467 47.9188 88.7215 50.0268 86.0705 51.498C85.6925 51.6085 85.0694 51.6526 84.6546 51.3441C84.1554 51.0147 83.9584 50.4656 84.0147 49.8943C84.1734 48.0064 86.1003 42.2322 92.0462 34.2388L92.0463 34.2392ZM55.398 20.8881C50.8358 17.9017 41.6662 23.6111 34.3221 33.4038C27.606 42.1884 24.7059 52.3983 27.862 57.1199C32.5569 62.6754 41.2726 54.5946 44.9789 50.2693L45.4571 49.7638C47.9776 47.0627 49.9249 43.8125 51.8097 40.694C51.8097 40.694 53.542 37.8393 53.6247 37.7073C54.6954 37.5105 55.985 37.2029 57.4381 36.7856C57.4174 36.851 51.8783 46.14 52.4434 50.7512C52.6194 52.1578 52.4849 57.2961 57.5133 58.8549C64.215 59.9756 69.567 54.7925 74.2874 50.1811C74.2874 50.1811 75.0919 49.4132 75.5469 48.9749C75.4318 49.4348 75.2817 50.0484 75.2817 50.0484C73.3196 56.856 75.9644 58.2842 77.6188 58.8114C82.6186 60.2615 88.5916 53.0144 88.6109 53.0144C88.456 55.2972 88.0031 57.1857 90.4151 58.701C92.6917 59.5141 94.9957 58.2746 96.7469 57.1107C103.055 52.675 108.137 45.7327 112.241 39.7317H109.623C109.592 39.7317 103.162 49.0297 98.9868 51.0506C98.9808 51.0506 98.2205 51.4398 97.7826 51.1319C97.2407 50.6704 97.4545 49.7114 97.7886 49.0321C97.8097 48.9877 113.91 21.1285 113.91 21.1285H106.308C106.308 21.1285 105.478 22.4689 105.41 22.5568C105.359 22.513 105.237 22.2825 105.153 22.1721C100.443 15.6724 89.7775 25.6701 81.7477 37.2635C78.6564 41.7217 74.7206 46.7413 70.6396 50.3649C70.6396 50.3649 64.5937 55.8943 62.0105 51.9216C61.0662 50.2524 61.3567 47.8121 61.8893 46.2096C64.8969 37.6675 70.0797 29.9156 75.9772 25.2372C77.6421 23.9424 79.4516 23.5679 80.3497 24.1171C81.2053 24.623 81.3434 25.8736 80.802 26.7302C79.4285 26.6864 78.3281 27.1028 77.4335 28.0252C75.6711 29.8699 75.0588 31.6489 75.6192 33.3181C78.3412 37.1828 83.7699 29.5408 83.5072 24.8855C83.4134 23.2162 82.5208 21.6356 81.1889 20.8662C79.2038 19.681 76.1752 19.988 74.2153 20.9328C71.5917 21.9206 67.4384 25.3678 65.0141 28.0474C61.9622 31.4077 56.7281 35.1404 55.0911 34.7224C55.6273 33.2943 60.0485 24.2695 55.3976 20.8888L55.398 20.8881ZM93.6065 69.7472C84.6541 63.9935 72.5042 62.9838 52.9103 68.4076C32.0221 73.305 25.0569 76.4444 15.9108 70.1421C12.3969 67.0462 11.1371 62.0614 12.0779 54.8815C14.2598 43.1765 20.156 31.912 30.63 19.4178C36.4762 12.9181 41.8988 7.34014 49.0594 5.10056C54.5473 3.69536 54.0342 7.99845 53.3702 8.6138C52.6695 8.6138 51.4924 8.72398 50.5827 9.31622C49.8444 9.88752 47.8177 11.7322 47.7088 14.2137C47.5518 18.0123 51.4921 17.2216 53.1917 15.136C55.0236 12.7858 57.7307 8.28488 55.6012 4.09016C54.7086 2.59711 53.1664 1.56529 51.2515 1.21387C44.6948 0.840007 38.588 3.95838 32.9521 7.40597C20.6301 15.9478 10.7707 27.7843 5.19251 40.7405C1.97603 48.5577 -0.932731 59.7553 3.42753 68.8697C6.80039 75.1936 13.8028 78.5527 22.1577 77.8503C28.017 77.236 35.1015 75.3466 39.8677 74.2058C44.6328 73.0632 69.0251 64.6976 77.0404 79.2575C77.0404 79.2575 79.7056 74.0956 86.366 73.9856C91.8419 73.4815 99.7418 75.5672 105.494 79.7826C103.578 76.9069 98.144 72.6687 93.6109 69.7477L93.6065 69.7472Z" fill="#F40009"/>
</svg>
