<svg width="233" height="116" viewBox="0 0 233 116" fill="none" xmlns="http://www.w3.org/2000/svg">
<path d="M0.871553 16.2604C4.28489 16.2604 7.05822 15.8871 9.19155 15.1404C11.4316 14.3937 13.2449 13.3804 14.6316 12.1004C16.0182 10.8204 17.1382 9.32708 17.9916 7.62042C18.8449 5.91375 19.5916 4.10041 20.2316 2.18041H32.0716V114.18H14.4716V28.7404H0.871553V16.2604ZM69.5891 88.4204C69.5891 92.4738 70.3891 95.3538 71.9891 97.0604C73.6957 98.6604 75.9357 99.4604 78.7091 99.4604C81.4824 99.4604 83.6691 98.6604 85.2691 97.0604C86.9757 95.3538 87.8291 92.4738 87.8291 88.4204V27.9404C87.8291 23.8871 86.9757 21.0604 85.2691 19.4604C83.6691 17.7537 81.4824 16.9004 78.7091 16.9004C75.9357 16.9004 73.6957 17.7537 71.9891 19.4604C70.3891 21.0604 69.5891 23.8871 69.5891 27.9404V88.4204ZM51.9891 29.0604C51.9891 19.9937 54.2824 13.0604 58.8691 8.26041C63.4557 3.35375 70.0691 0.900419 78.7091 0.900419C87.3491 0.900419 93.9624 3.35375 98.5491 8.26041C103.136 13.0604 105.429 19.9937 105.429 29.0604V87.3004C105.429 96.3671 103.136 103.354 98.5491 108.26C93.9624 113.06 87.3491 115.46 78.7091 115.46C70.0691 115.46 63.4557 113.06 58.8691 108.26C54.2824 103.354 51.9891 96.3671 51.9891 87.3004V29.0604ZM133.027 88.4204C133.027 92.4738 133.827 95.3538 135.427 97.0604C137.133 98.6604 139.373 99.4604 142.147 99.4604C144.92 99.4604 147.107 98.6604 148.707 97.0604C150.413 95.3538 151.267 92.4738 151.267 88.4204V27.9404C151.267 23.8871 150.413 21.0604 148.707 19.4604C147.107 17.7537 144.92 16.9004 142.147 16.9004C139.373 16.9004 137.133 17.7537 135.427 19.4604C133.827 21.0604 133.027 23.8871 133.027 27.9404V88.4204ZM115.427 29.0604C115.427 19.9937 117.72 13.0604 122.307 8.26041C126.893 3.35375 133.507 0.900419 142.147 0.900419C150.787 0.900419 157.4 3.35375 161.987 8.26041C166.573 13.0604 168.867 19.9937 168.867 29.0604V87.3004C168.867 96.3671 166.573 103.354 161.987 108.26C157.4 113.06 150.787 115.46 142.147 115.46C133.507 115.46 126.893 113.06 122.307 108.26C117.72 103.354 115.427 96.3671 115.427 87.3004V29.0604ZM196.464 88.4204C196.464 92.4738 197.264 95.3538 198.864 97.0604C200.571 98.6604 202.811 99.4604 205.584 99.4604C208.357 99.4604 210.544 98.6604 212.144 97.0604C213.851 95.3538 214.704 92.4738 214.704 88.4204V27.9404C214.704 23.8871 213.851 21.0604 212.144 19.4604C210.544 17.7537 208.357 16.9004 205.584 16.9004C202.811 16.9004 200.571 17.7537 198.864 19.4604C197.264 21.0604 196.464 23.8871 196.464 27.9404V88.4204ZM178.864 29.0604C178.864 19.9937 181.157 13.0604 185.744 8.26041C190.331 3.35375 196.944 0.900419 205.584 0.900419C214.224 0.900419 220.837 3.35375 225.424 8.26041C230.011 13.0604 232.304 19.9937 232.304 29.0604V87.3004C232.304 96.3671 230.011 103.354 225.424 108.26C220.837 113.06 214.224 115.46 205.584 115.46C196.944 115.46 190.331 113.06 185.744 108.26C181.157 103.354 178.864 96.3671 178.864 87.3004V29.0604Z" fill="#3C3E42"/>
</svg>
