<svg width="245" height="230" viewBox="0 0 245 230" fill="none" xmlns="http://www.w3.org/2000/svg">
<path d="M45.3506 41.5001C38.9506 40.3001 33.3506 45.0001 31.3506 47.5001C20.1506 66.3001 21.2783 86.2563 28.8506 108.5C44.8506 155.5 117.851 176.5 121.351 170.5C124.851 164.5 142.851 150 175.851 138C208.851 126 197.851 101 202.351 94C206.851 87 236.351 88.5 242.851 54C248.051 26.4 234.351 7.5 226.851 1.5C217.351 29.5 185.851 34 163.351 36C140.851 38 141.851 61 114.851 54C99.987 50.1465 101.351 39 75.8506 45.5001C67.8506 38.0001 53.3506 43.0001 45.3506 41.5001Z" fill="#B10909" stroke="#600202"/>
<g filter="url(#filter0_f)">
<path d="M202.351 94C204.76 90.2519 237.002 83.2355 239.837 63.2929C211.882 70.3023 128.148 98.3872 81.3509 74.8818C22.8547 45.5001 102.382 121.741 200.113 112.505C201.536 104.511 200.242 97.2798 202.351 94Z" fill="url(#paint0_linear)"/>
<path d="M63.2859 83.2355C111.459 131.669 158.401 139.926 175.851 138C154.968 145.594 140.093 154.188 131.096 160.997C76.4664 147.61 3.06915 22.694 63.2859 83.2355Z" fill="url(#paint1_linear)"/>
</g>
<path d="M163.351 36C140.851 38 141.851 61 114.851 54C99.987 50.1465 101.351 39 75.8506 45.5001L86.8506 48.5C90.6839 47.5 99.7116 51.1901 114.851 64C127.851 75 145.057 59.5611 160.851 57C179.351 54 190.851 56.5 207.851 44C221.451 34 226.184 11.5 226.851 1.5C217.351 29.5 185.851 34 163.351 36Z" fill="#E81E1E"/>
<path d="M31.3506 47.5001C33.3506 45.0001 38.9506 40.3001 45.3506 41.5001C53.3506 43.0001 67.8506 38.0001 75.8506 45.5001M75.8506 45.5001C101.351 39 99.987 50.1465 114.851 54C141.851 61 140.851 38 163.351 36C185.851 34 217.351 29.5 226.851 1.5C226.184 11.5 221.451 34 207.851 44C190.851 56.5 179.351 54 160.851 57C145.057 59.5611 127.851 75 114.851 64C99.7116 51.1901 90.6839 47.5 86.8506 48.5L75.8506 45.5001Z" stroke="#600202"/>
<ellipse cx="112.039" cy="224" rx="109.689" ry="6" fill="url(#paint2_linear)"/>
<path d="M36.44 45.6999C38.7274 44.6934 43.2201 44.1522 45.3506 44C47.1724 43.6688 53.2734 43.0083 63.1629 43.0001C63.2866 43 63.4099 43.0109 63.5313 43.0346C65.8841 43.4945 70.3151 44.7005 72.5083 45.7753C73.0842 46.0576 73.7458 46.1684 74.3718 46.0289C78.7358 45.056 86.3422 45.5402 89.531 52.2671C89.7508 52.7309 90.1101 53.1154 90.5693 53.3445C94.7531 55.4316 102.411 60.588 104.772 67.2706C104.826 67.4227 104.893 67.5668 104.979 67.7032C107.021 70.9377 110.959 77.2167 111.351 78C111.851 79 105.851 88.5 100.851 91C98.8506 89.8 91.9508 83.1667 88.7508 80C89.5213 79.0895 90.344 78.0546 91.3506 77.2904C87.7022 76.0743 85.1744 73.1431 83.6035 70.4327C80.6035 80.9327 71.8506 85.5 70.3506 87.5C69.3589 88.8222 69.2095 91.829 69.2816 93.8679C69.3065 94.5716 69.0144 95.2633 68.3733 95.5545C61.2257 98.8005 36.8755 96.9002 37.3506 95C37.7158 93.5393 37.9698 90.0228 37.504 88.0266C37.4223 87.6763 37.2023 87.3815 36.9305 87.146C32.6134 83.4049 27.5097 75.8894 26.1555 72.5C24.0844 74.5191 20.6986 75.9592 18.9745 76.5C19.8197 77.1997 20.6134 78.1018 21.3506 79.1143C17.5066 78.4058 11.4156 84.4096 8.85059 87.5C7.07299 85.1891 4.85059 81 2.85059 80C0.850586 79 0.850586 73.5 2.85059 72C4.331 70.8897 7.06705 67.9815 8.52392 66.3649C8.73993 66.1252 8.8881 65.8355 8.98082 65.5265C10.7278 59.7036 17.4567 55.1612 21.2134 53.3029C21.624 53.0997 21.9573 52.7728 22.1858 52.3758C25.3315 46.9109 31.7413 45.8078 35.1897 45.9538C35.6197 45.972 36.046 45.8732 36.44 45.6999Z" fill="url(#paint3_linear)"/>
<path d="M15.3506 75C16.6413 75 17.8532 75.5718 18.9745 76.5M18.9745 76.5C20.6986 75.9592 24.0844 74.5191 26.1555 72.5M18.9745 76.5C19.8197 77.1997 20.6134 78.1018 21.3506 79.1143C17.5066 78.4058 11.4156 84.4096 8.85059 87.5C7.07299 85.1891 4.85059 81 2.85059 80C0.850586 79 0.850586 73.5 2.85059 72C4.331 70.8897 7.06705 67.9815 8.52392 66.3649C8.73993 66.1252 8.8881 65.8355 8.98082 65.5265C10.7278 59.7036 17.4567 55.1612 21.2134 53.3029C21.624 53.0997 21.9573 52.7728 22.1858 52.3758C25.3315 46.9109 31.7413 45.8078 35.1897 45.9538C35.6197 45.972 36.046 45.8732 36.44 45.6999C38.7274 44.6934 43.2201 44.1522 45.3506 44C47.1724 43.6688 53.2734 43.0083 63.1629 43.0001C63.2866 43 63.4099 43.0109 63.5313 43.0346C65.8841 43.4945 70.3151 44.7005 72.5083 45.7753C73.0842 46.0576 73.7458 46.1684 74.3718 46.0289C78.7358 45.056 86.3422 45.5402 89.531 52.2671C89.7508 52.7309 90.1101 53.1154 90.5693 53.3445C94.7531 55.4316 102.411 60.588 104.772 67.2706C104.826 67.4227 104.893 67.5668 104.979 67.7032C107.021 70.9377 110.959 77.2167 111.351 78C111.851 79 105.851 88.5 100.851 91C98.8506 89.8 91.9507 83.1667 88.7508 80C90.5005 77.9322 92.5196 75.223 96.3506 76.5M28.4436 68.1713C28.0572 70.2836 26.6376 72.03 26.1555 72.5M25.3506 64C27.8506 67.5 33.4506 74.9 35.8506 76.5C38.8506 78.5 67.3506 78 70.3506 76.5C73.3506 75 80.3506 68.5 82.3506 65M26.1555 72.5C27.5097 75.8894 32.6134 83.4049 36.9305 87.146C37.2023 87.3815 37.4223 87.6763 37.504 88.0266C37.9698 90.0228 37.7158 93.5393 37.3506 95C36.8755 96.9002 61.2257 98.8005 68.3733 95.5545C69.0144 95.2633 69.3065 94.5716 69.2816 93.8679C69.2095 91.829 69.3589 88.8222 70.3506 87.5C71.8506 85.5 80.6035 80.9327 83.6035 70.4327M81.7147 65.9852C82.3814 68.6519 85.3506 75.2904 91.3506 77.2904" stroke="#004064" stroke-linecap="round"/>
<path d="M21.8506 53C25.0506 46.6 32.5173 45.6667 35.8506 46C31.4569 46.461 25.2507 47.6586 21.8506 58.2945C19.341 58.303 14.1314 58.4811 10.7486 66.8811C10.2898 67.8652 8.7179 71.057 5.4461 73.4761C2.17429 75.8952 2.3525 78.8333 2.85059 80C0.850586 79 0.850586 73.5 2.85059 72C4.45059 70.8 7.51725 67.5 8.85059 66C10.4506 59.6 18.1839 54.6667 21.8506 53Z" fill="#0B5AA3" fill-opacity="0.4"/>
<path d="M89.2925 53.0806C85.9393 45.5707 77.9159 45.4734 73.6841 46.7852C79.4169 45.6279 90.9999 51.8786 89.511 61.2772C92.4546 58.5734 99.9416 64.049 103.741 73.4761C105.253 78.1172 110.706 77.9012 108.949 80.3959C106.506 83.865 107.988 84.295 100.851 91C105.851 88.5 111.851 79 111.351 78C110.951 77.2 106.304 70.9947 104.304 67.828C101.796 60.1647 92.506 54.7921 89.2925 53.0806Z" fill="#0B5AA3" fill-opacity="0.4"/>
<path d="M36.1464 76.0815C33.7464 74.4815 28.4582 67.4191 25.9582 63.9191C28.0194 66.4191 34.0045 72.5 38.6987 73.4202C43.457 74.353 49.185 72.8177 53.5606 72.8177C58.7607 72.8177 62.5401 74.3404 67.852 73.4202C73.1638 72.5 80.4694 67.2051 81.9303 64.7942C79.9303 68.2942 72.9177 74.5815 69.9177 76.0815C66.9177 77.5815 39.1464 78.0815 36.1464 76.0815Z" fill="url(#paint4_linear)"/>
<path d="M41.5079 95.2107C41.7511 94.0292 41.9283 91.3674 41.7187 89.5174C41.6389 88.8135 41.7992 88.0712 42.3188 87.5897C44.5277 85.5429 48.8266 82.5488 53.314 82.4882C57.6358 82.4299 62.2905 85.2483 64.9372 87.3315C65.6883 87.9227 65.8441 89.0045 65.6573 89.9419C65.3924 91.2703 65.3544 92.9562 65.393 94.2198C65.412 94.8452 65.1784 95.4691 64.6254 95.7616C59.1715 98.6459 41.1545 96.9283 41.5079 95.2107Z" fill="url(#paint5_linear)"/>
<path d="M27.892 67.9448C29.002 69.5635 27.3941 71.6561 26.7034 72.5079C29.3884 78.0331 34.8598 84.7368 37.7145 87.2922C38.0598 78.5211 51.4583 78.1067 48.6957 78.2448C45.9331 78.3829 39.0267 77.6923 36.5404 77.1398C34.0541 76.5873 27.6158 67.5421 27.892 67.9448Z" fill="url(#paint6_linear)"/>
<path d="M81.5674 67.0041C81.7916 68.0127 82.6561 69.4092 83.1363 70.7583C80.1733 79.9128 72.7148 84.7368 69.8601 87.2922C69.5147 78.5211 56.1163 78.1067 58.8789 78.2448C61.6414 78.383 68.7746 77.8672 70.356 77.077C75.6002 74.4566 81.4614 66.5274 81.5674 67.0041Z" fill="url(#paint7_linear)"/>
<path d="M37.3442 95.0404C37.3451 95.0269 37.3472 95.0135 37.3506 95L37.3442 95.0404C37.213 97.0235 63.8036 98.967 69.3246 95.0187C69.3418 95.0065 69.3497 94.9901 69.3478 94.9691C69.3415 94.898 69.4376 94.8777 69.4577 94.9462L72.258 104.5C72.258 109 77.8506 114 82.3506 126C86.8506 138 85.8506 156 85.8506 161C85.8506 166 91.8506 171 92.8506 177.5C87.6506 180.3 79.6431 180.667 76.2894 180.5C76.0103 179.397 75.8506 178.385 75.8506 177.5V163C75.8506 158.5 66.309 153.239 62.8506 145C60.5762 139.582 59.5445 131.205 58.2487 129.727C58.0441 129.493 57.7091 129.582 57.4136 129.677C56.4403 129.991 55.1455 129.932 53.8506 129.5C52.3506 129 50.8506 138 47.8506 145C44.8506 152 35.8506 161 35.8506 164.5C35.8506 167.141 35.8506 174.335 34.777 180.5C29.1181 181.7 21.2602 180.333 18.3506 179.5C19.8463 162 26.1555 161 26.1555 156C26.1555 151 24.3506 138.5 27.8506 128.5C29.152 124.782 34.3506 111.5 35.8506 104.5L37.3442 95.0404Z" fill="#50B0CE"/>
<path d="M45.3506 44C43.0173 44.1667 37.8506 44.8 35.8506 46M63.3506 43C66.0173 43.5 71.7506 44.8 73.3506 46M35.8506 104.5L37.3506 95C36.8514 96.9969 63.7661 98.9937 69.3246 95.0187C69.3418 95.0065 69.3497 94.9901 69.3478 94.9691V94.9691C69.3415 94.898 69.4376 94.8777 69.4577 94.9462L72.258 104.5M35.8506 104.5C42.4888 105.667 59.0638 107.3 72.258 104.5M35.8506 104.5C34.3506 111.5 29.152 124.782 27.8506 128.5C24.3506 138.5 26.1555 151 26.1555 156C26.1555 161 19.8463 162 18.3506 179.5C21.2602 180.333 29.1181 181.7 34.777 180.5C35.8506 174.335 35.8506 167.141 35.8506 164.5C35.8506 161 44.8506 152 47.8506 145C50.8506 138 52.3506 129 53.8506 129.5C55.1455 129.932 56.4403 129.991 57.4136 129.677C57.7091 129.582 58.0441 129.493 58.2487 129.727C59.5445 131.205 60.5762 139.582 62.8506 145C66.309 153.239 75.8506 158.5 75.8506 163C75.8506 167.5 75.8506 170.5 75.8506 177.5C75.8506 178.385 76.0103 179.397 76.2894 180.5C79.6431 180.667 87.6506 180.3 92.8506 177.5C91.8506 171 85.8506 166 85.8506 161C85.8506 156 86.8506 138 82.3506 126C77.8506 114 72.258 109 72.258 104.5" stroke="#004064" stroke-linecap="round"/>
<path d="M37.3442 95.0404C37.3451 95.0269 37.3472 95.0135 37.3506 95L37.3442 95.0404C37.2128 97.0266 63.8876 98.9731 69.3506 95C69.3352 94.8304 69.3209 94.6417 69.3086 94.4375L72.258 104.5C72.258 109 77.8506 114 82.3506 126C85.218 133.646 85.4486 139.461 85.5314 147.064C84.8925 153.115 82.2123 155.077 81.2837 154.764C83.933 139.33 78.2163 128.268 75.8506 123.537C73.8033 119.442 68.6065 110.387 67.9241 105.324C68.7549 105.185 71.4495 104.672 72.258 104.5L69.3086 94.4375C69.3209 94.6417 69.3352 94.8304 69.3506 95C63.8876 98.9731 37.2128 97.0266 37.3442 95.0404L35.8506 104.5C36.3054 104.58 39.0741 105.242 39.6179 105.324C38.2143 112.924 33.7161 121.56 30.9163 133.598C27.8506 146.778 30.9163 154.561 30.9163 156C30.9163 157.439 24.8157 152.445 25.8895 138.512C26.157 135.137 26.7336 131.691 27.8506 128.5C29.152 124.782 34.3506 111.5 35.8506 104.5L37.3442 95.0404Z" fill="#0B5AA3" fill-opacity="0.4"/>
<path d="M47.8506 145C44.8506 152 35.8506 161 35.8506 164.5C35.8506 167.141 35.8506 174.335 34.777 180.5C33.1239 180.851 30.7306 180.401 28.8804 180.391C29.289 175.801 29.3052 169.079 30.9163 165.095C35.3634 154.099 49.4484 143.57 49.4484 129.5C49.4484 127 46.5203 127.057 53.8506 129.5C55.3506 130 56.8506 130 57.8506 129.5L63.0872 127.374C59.9886 139.122 72.7066 152.767 77.6414 157.959C84.8288 165.519 81.2837 172.997 81.2837 180.391C79.2552 180.551 77.4793 180.559 76.2894 180.5C76.0103 179.397 75.8506 178.385 75.8506 177.5V163C75.8506 158.5 66.309 153.239 62.8506 145C60.3488 139.04 59.3506 129.5 57.8506 129.5C56.8506 130 55.3506 130 53.8506 129.5C52.3506 129 50.8506 138 47.8506 145Z" fill="#0B5AA3" fill-opacity="0.4"/>
<path d="M17.3506 208.5C19.3506 202.5 16.7267 198.5 18.3506 179.5C21.2602 180.333 29.1181 181.7 34.777 180.5C34.4276 182.506 33.9644 184.404 33.3506 186C30.8506 192.5 27.3506 197.5 26.1555 202C24.9605 206.5 27.3506 210 27.3506 213C27.3506 216 26.1555 216 24.3506 217C23.4132 217.519 21.6974 219.752 20.4999 221.894C19.5483 223.595 17.7914 225 15.842 225H4.35057C3.85057 224.333 3.15057 222.489 4.35057 221.289C5.85057 219.789 15.3506 214.5 17.3506 208.5Z" fill="#E81E1E"/>
<path d="M84.3506 213C84.3506 209 85.8506 208.5 85.8506 204C85.8506 200.069 78.2185 188.124 76.2894 180.5C79.6431 180.667 87.6506 180.3 92.8506 177.5C93.8506 184 92.8506 207 94.3506 210C95.8506 213 102.851 219.5 103.851 222C104.651 224 104.184 225.167 103.851 225.5C101.351 226 95.4506 226.7 91.8506 225.5C87.3506 224 89.9503 220 88.3506 218C86.7508 216 84.3506 217 84.3506 213Z" fill="#E81E1E"/>
<path d="M17.3506 208.5C19.3506 202.5 16.7267 198.5 18.3506 179.5C21.2602 180.333 29.1181 181.7 34.777 180.5C34.4276 182.506 33.9644 184.404 33.3506 186C30.8506 192.5 27.3506 197.5 26.1555 202C24.9605 206.5 27.3506 210 27.3506 213C27.3506 216 26.1555 216 24.3506 217C23.4132 217.519 21.6974 219.752 20.4999 221.894C19.5483 223.595 17.7914 225 15.842 225H4.35057C3.85057 224.333 3.15057 222.489 4.35057 221.289C5.85057 219.789 15.3506 214.5 17.3506 208.5Z" stroke="#600202" stroke-linecap="round"/>
<path d="M84.3506 213C84.3506 209 85.8506 208.5 85.8506 204C85.8506 200.069 78.2185 188.124 76.2894 180.5C79.6431 180.667 87.6506 180.3 92.8506 177.5C93.8506 184 92.8506 207 94.3506 210C95.8506 213 102.851 219.5 103.851 222C104.651 224 104.184 225.167 103.851 225.5C101.351 226 95.4506 226.7 91.8506 225.5C87.3506 224 89.9503 220 88.3506 218C86.7508 216 84.3506 217 84.3506 213Z" stroke="#600202" stroke-linecap="round"/>
<path d="M92.8505 177.5C87.6506 180.3 79.6431 180.667 76.2893 180.5C76.5075 181.362 76.7985 182.279 77.1431 183.234C81.1159 183.521 89.8792 183.436 93.1494 180.798C93.0771 179.473 92.9808 178.346 92.8505 177.5Z" fill="#F8BC60"/>
<path d="M34.7769 180.5C29.1181 181.7 21.2602 180.333 18.3505 179.5C18.2656 180.494 18.1923 181.446 18.1293 182.361C20.8981 183.364 27.9819 184.975 34.167 183.388C34.4014 182.468 34.6032 181.497 34.7769 180.5Z" fill="#F8BC60"/>
<path d="M92.8505 177.5C87.6506 180.3 79.6431 180.667 76.2893 180.5C76.5075 181.362 76.7985 182.279 77.1431 183.234C81.1159 183.521 89.8792 183.436 93.1494 180.798C93.0771 179.473 92.9808 178.346 92.8505 177.5Z" stroke="#600202" stroke-linecap="round"/>
<path d="M34.7769 180.5C29.1181 181.7 21.2602 180.333 18.3505 179.5C18.2656 180.494 18.1923 181.446 18.1293 182.361C20.8981 183.364 27.9819 184.975 34.167 183.388C34.4014 182.468 34.6032 181.497 34.7769 180.5Z" stroke="#600202" stroke-linecap="round"/>
<g opacity="0.5">
<path d="M15.842 225H4.35058C4.05733 224.609 3.69527 223.813 3.68811 222.979H15.9633C16.4703 222.991 18.5239 222.979 19.217 221.598C20.0834 219.872 22.6393 214.786 23.6358 213.912C24.6323 213.038 25.4998 211.702 24.3506 209.29C23.6358 207.79 24.1488 201.046 25.4998 197.151C26.8508 193.257 29.7927 186.957 29.0767 180.968C31.0462 180.998 33.0178 180.873 34.777 180.5C34.4276 182.506 33.9644 184.404 33.3506 186C30.8506 192.5 27.3506 197.5 26.1555 202C24.9605 206.5 27.3506 210 27.3506 213C27.3506 216 26.1555 216 24.3506 217C23.4132 217.519 21.6974 219.752 20.4999 221.894C19.5483 223.595 17.7914 225 15.842 225Z" fill="#600202"/>
<path d="M84.3506 213C84.3506 209 85.8506 208.5 85.8506 204C85.8506 200.069 78.2185 188.124 76.2894 180.5C77.4743 180.559 79.2403 180.551 81.2581 180.393C82.5545 185.486 85.5861 196.617 87.3415 200.398C89.5359 205.124 86.7597 209.969 87.3415 212.487C87.6203 213.694 89.4515 215.036 89.7047 216.518C89.9578 218 90.0298 221.715 91.8506 223.607C93.3072 225.121 100.636 224.039 104.175 223.607C104.142 224.288 104.033 225.318 103.851 225.5C101.351 226 95.4506 226.7 91.8506 225.5C87.3506 224 89.9503 220 88.3506 218C86.7508 216 84.3506 217 84.3506 213Z" fill="#600202"/>
</g>
<path d="M37.3442 95.0404C37.3451 95.0269 37.3472 95.0135 37.3506 95L37.3442 95.0404C37.213 97.0235 63.8036 98.967 69.3246 95.0187C69.3418 95.0065 69.3497 94.9901 69.3478 94.9691C69.3415 94.898 69.4376 94.8777 69.4577 94.9462L71.9374 103.406C72.1104 103.996 71.7453 104.61 71.1412 104.725C59.299 106.988 45.0986 105.882 37.7868 104.81C36.7074 104.652 35.987 103.636 36.1571 102.558L37.3442 95.0404Z" fill="#E81E1E"/>
<path d="M37.3506 95C36.8514 96.9969 63.7661 98.9937 69.3246 95.0187C69.3418 95.0065 69.3497 94.9901 69.3478 94.9691V94.9691C69.3415 94.898 69.4376 94.8777 69.4577 94.9462L71.9374 103.406C72.1104 103.996 71.7453 104.61 71.1412 104.725C59.299 106.988 45.0986 105.882 37.7868 104.81C36.7074 104.652 35.987 103.636 36.1571 102.558L37.3506 95Z" stroke="#600202" stroke-linecap="round"/>
<path d="M47.8506 106V98C47.8506 96.8955 48.746 96 49.8506 96H59.8506C60.9552 96 61.8506 96.8955 61.8506 98V106C61.8506 107.105 60.9552 108 59.8506 108H49.8506C48.746 108 47.8506 107.105 47.8506 106Z" fill="url(#paint8_linear)" stroke="#D6610C" stroke-linecap="round"/>
<path d="M54.6951 105.523V98.4775C54.6951 97.3729 55.5905 96.4775 56.6951 96.4775H60.3556C60.9079 96.4775 61.3556 96.9252 61.3556 97.4775V106.523C61.3556 107.075 60.9079 107.523 60.3556 107.523H56.6951C55.5905 107.523 54.6951 106.627 54.6951 105.523Z" fill="url(#paint9_linear)"/>
<path d="M41.3506 97.0001C41.8506 100 33.3506 106 33.3506 104.5C33.3506 103.895 32.7005 103.209 31.5969 102.344C29.963 101.063 27.3349 99.3875 24.3506 97.0001C24.3506 95.0001 26.3506 92.1668 27.3506 91.0001C28.3506 92.5001 33.3506 91.0001 35.8506 91.0001C36.7901 91.0001 37.7296 91.4238 38.563 92.112C39.9472 93.255 41.0385 95.1275 41.3506 97.0001Z" fill="#FFCBA5"/>
<path d="M84.3506 88.7026C83.7174 90.1828 83.066 91.3212 82.3506 91.5001C78.9643 92.3467 73.4342 91.2835 70.5495 93.902C68.7116 95.5703 69.3506 97.1557 69.3506 98.0001C69.3506 98.5254 70.7305 101.949 72.258 104.5C73.6381 106.805 75.1386 108.399 75.8506 106.5C76.158 105.68 76.6545 104.902 77.2712 104.162C79.6631 101.291 83.863 98.9877 85.8506 97.0001C86.3426 96.508 87.0284 96.0741 87.8506 95.6754C87.0506 96.03 85.1839 91.1746 84.3506 88.7026Z" fill="#FFCBA5"/>
<path d="M41.3506 97.0001C41.8506 100 33.3506 106 33.3506 104.5C33.3506 103.895 32.7005 103.209 31.5969 102.344C29.963 101.063 27.3349 99.3875 24.3506 97.0001C24.3506 95.0001 26.3506 92.1668 27.3506 91.0001C28.3506 92.5001 33.3506 91.0001 35.8506 91.0001C36.7901 91.0001 37.7296 91.4238 38.563 92.112C39.9472 93.255 41.0385 95.1275 41.3506 97.0001Z" stroke="#A05534" stroke-linecap="round"/>
<path d="M84.3506 88.7026C83.7174 90.1828 83.066 91.3212 82.3506 91.5001C78.9643 92.3467 73.4342 91.2835 70.5495 93.902C68.7116 95.5703 69.3506 97.1557 69.3506 98.0001C69.3506 98.5254 70.7305 101.949 72.258 104.5C73.6381 106.805 75.1386 108.399 75.8506 106.5C76.158 105.68 76.6545 104.902 77.2712 104.162C79.6631 101.291 83.863 98.9877 85.8506 97.0001C86.3426 96.508 87.0284 96.0741 87.8506 95.6754C87.0506 96.03 85.1839 91.1746 84.3506 88.7026Z" stroke="#A05534" stroke-linecap="round"/>
<path d="M40.9076 97.2952C41.4076 100.295 33.5676 105.552 33.5676 104.052C33.5676 103.447 32.9176 102.761 31.814 101.896C35.211 100.171 38.12 95.4494 38.12 92.4071C39.5041 93.5501 40.5955 95.4226 40.9076 97.2952Z" fill="#E2A273"/>
<path d="M72.258 104.5C74.0359 107.47 75.2792 107.488 75.9912 105.59C76.2986 104.77 76.7951 103.992 77.4117 103.252C73.9467 100.601 71.0989 96.623 70.8716 94.3169C69.0336 95.9852 69.6726 97.5706 69.6726 98.415C69.6726 98.9403 70.7305 101.949 72.258 104.5Z" fill="#E2A273"/>
<path d="M24.3506 97C19.3506 93 13.8506 94 8.85059 87.5C11.4156 84.4096 17.5066 78.4058 21.3506 79.1144C24.5604 83.5229 26.6988 90.0224 27.3506 91C26.3506 92.1667 24.3506 95 24.3506 97Z" fill="#E81E1E"/>
<path d="M87.8506 81C86.566 82.2846 85.4876 86.0446 84.3506 88.7026C85.1839 91.1746 87.0506 96.0299 87.8506 95.6753C91.206 94.0483 96.8347 93.008 100.851 91C98.8506 89.8 91.9508 83.1667 88.7508 80C88.4453 80.3611 88.1479 80.7027 87.8506 81Z" fill="#E81E1E"/>
<path d="M24.3506 97C19.3506 93 13.8506 94 8.85059 87.5C11.4156 84.4096 17.5066 78.4058 21.3506 79.1144C24.5604 83.5229 26.6988 90.0224 27.3506 91C26.3506 92.1667 24.3506 95 24.3506 97Z" stroke="#600202" stroke-linecap="round"/>
<path d="M87.8506 81C86.566 82.2846 85.4876 86.0446 84.3506 88.7026C85.1839 91.1746 87.0506 96.0299 87.8506 95.6753C91.206 94.0483 96.8347 93.008 100.851 91C98.8506 89.8 91.9508 83.1667 88.7508 80C88.4453 80.3611 88.1479 80.7027 87.8506 81Z" stroke="#600202" stroke-linecap="round"/>
<path d="M88.7508 80C88.4453 80.3611 88.1479 80.7027 87.8506 81C90.123 84.2631 95.4272 91.0376 98.4643 92.0312C99.2989 91.7143 100.103 91.374 100.851 91C98.8506 89.8 91.9508 83.1667 88.7508 80Z" fill="#F8BC60"/>
<path d="M21.3506 79.1144C17.5066 78.4058 11.4156 84.4096 8.85059 87.5C9.46199 88.2948 10.0809 88.9775 10.7054 89.5709C12.9139 86.9176 18.333 81.4063 22.3408 80.5875C22.0233 80.0788 21.693 79.5847 21.3506 79.1144Z" fill="#F8BC60"/>
<path d="M88.7508 80C88.4453 80.3611 88.1479 80.7027 87.8506 81C90.123 84.2631 95.4272 91.0376 98.4643 92.0312C99.2989 91.7143 100.103 91.374 100.851 91C98.8506 89.8 91.9508 83.1667 88.7508 80Z" stroke="#600202" stroke-linecap="round"/>
<path d="M21.3506 79.1144C17.5066 78.4058 11.4156 84.4096 8.85059 87.5C9.46199 88.2948 10.0809 88.9775 10.7054 89.5709C12.9139 86.9176 18.333 81.4063 22.3408 80.5875C22.0233 80.0788 21.693 79.5847 21.3506 79.1144Z" stroke="#600202" stroke-linecap="round"/>
<g opacity="0.4">
<path d="M24.3506 97.0001C19.3506 93.0001 13.8506 94.0001 8.85059 87.5001C9.09868 87.2012 9.37977 86.875 9.68861 86.5303C13.1501 87.2635 21.5111 90.2947 24.9331 94.7541C24.9331 94.9373 24.5447 96.3278 24.3506 97.0001Z" fill="#600202"/>
<path d="M87.8506 95.6754C91.206 94.0483 96.8347 93.008 100.851 91.0001C100.499 90.789 99.9955 90.4099 99.3873 89.9111C97.4354 89.3891 89.7337 91.9391 86.1269 93.2793C86.793 94.7428 87.4533 95.8515 87.8506 95.6754Z" fill="#600202"/>
</g>
<path d="M45.3506 45C45.8506 41.3333 46.3506 35.7 46.3506 34.5C45.8981 32.5 46.2061 31.1216 45.8981 30.3605C43.9456 31.7211 42.8505 28 42.3505 26.5C42.0118 25.4837 43.0237 25.113 43.8224 25.0233C42.4317 20.3455 42.8438 12.8801 45.3506 11C46.3925 10.2185 47.1179 10.6585 47.6679 11.4714C47.5985 9.55359 49.4516 7.5 56.3506 7.5C68.3506 7.5 68.3506 17 65.1424 25C66.0451 24.6667 67.6505 24.5 66.8505 26.5C65.8505 29 64.3506 32.7211 63.3506 30.3605C63.0257 31.1216 63.2803 32.6392 62.8506 34L63.3506 45C62.3506 47.5 59.2506 52.5 54.8506 52.5C50.4506 52.5 46.6839 47.5 45.3506 45Z" fill="#FFCBA5"/>
<path d="M46.3506 34.5C46.3506 35.7 45.8506 41.3333 45.3506 45C46.6839 47.5 50.4506 52.5 54.8506 52.5C59.2506 52.5 62.3506 47.5 63.3506 45L62.8506 34M46.3506 34.5C47.5173 37.6667 47.8505 42 54.8506 42C61.8506 42 61.8506 37.1667 62.8506 34M46.3506 34.5C45.8981 32.5 46.2061 31.1216 45.8981 30.3605M62.8506 34C63.2803 32.6392 63.0257 31.1216 63.3506 30.3605M65.1424 25C66.0451 24.6667 67.6505 24.5 66.8505 26.5C65.8505 29 64.3506 32.7211 63.3506 30.3605M65.1424 25C64.6912 26.883 64.0505 28.721 63.3506 30.3605M65.1424 25C64.2657 25.5209 65.1689 15.7225 63.8506 16C56.2506 17.6 51.8506 16.5 48.8506 14M65.1424 25C68.3506 17 68.3506 7.5 56.3506 7.5C45.9506 7.5 47.0173 12.1667 48.8506 14M45.8981 30.3605C43.9456 31.7211 42.8505 28 42.3505 26.5C41.9505 25.3 43.4338 25 44.2254 25C44.4018 25.8115 44.6136 26.6146 44.8506 27.3971M45.8981 30.3605C45.5205 29.4276 45.1636 28.4303 44.8506 27.3971M47.8506 23C49.3506 22 51.8506 20 53.3506 23M62.3506 23C60.3506 21.5 56.8506 20.5 56.3506 25C56.3506 25.8 56.8506 28.5 56.8506 30C56.8506 31.5 54.6435 30.3605 53.8506 30.5M56.8506 35C52.6862 36.2 50.4488 33.1667 49.8506 31.5C50.0173 31.2132 50.0506 31.1116 50.8506 31M48.8506 14C48.1839 12.5 47.3506 9.5 45.3506 11C42.3505 13.25 42.3506 23.5 44.8506 27.3971M48.8506 14C46.8506 14 45.3506 22.9314 44.8506 27.3971" stroke="#A05534" stroke-linecap="round"/>
<path opacity="0.5" d="M46.3507 34.5C46.3507 35.7 45.8507 41.3333 45.3507 45C46.684 47.5 50.4507 52.5 54.8507 52.5C53.4494 51.3927 53.5042 48.5429 53.6672 42.2594C49.8442 40.3433 48.8321 38.4048 48.4703 35.2697C47.961 30.8554 49.2414 29.5403 48.2414 27.3971C47.2414 25.2538 47.8507 23.7986 47.8507 23C48.5174 21.1037 49.6507 16.6488 48.8507 14C46.8507 14 45.3507 22.9314 44.8507 27.3971C44.6137 26.6146 44.4019 25.8115 44.2255 25C43.4339 25 41.9506 25.3 42.3506 26.5C42.8506 28 43.9457 31.7211 45.8982 30.3605C46.2062 31.1216 45.8982 32.5 46.3507 34.5Z" fill="#A05534"/>
<path d="M45.3507 45C46.684 47.5 50.4507 52.5 54.8507 52.5C59.2507 52.5 62.3507 47.5 63.3507 45" stroke="#004064" stroke-linecap="round"/>
<path d="M63.8507 16C56.2507 17.6 51.8507 16.5 48.8507 14C46.8507 14 45.3507 22.9314 44.8507 27.3971C42.3507 23.5 42.3507 13.25 45.3507 11C46.3927 10.2185 47.118 10.6585 47.6681 11.4714C47.5987 9.55359 49.4517 7.5 56.3507 7.5C68.3507 7.5 68.3507 17 65.1426 25C64.2658 25.5209 65.169 15.7225 63.8507 16Z" fill="#6D4133"/>
<path d="M44.2255 25C44.4019 25.8115 44.6137 26.6146 44.8507 27.3971M48.8507 14C51.8507 16.5 56.2507 17.6 63.8507 16C65.169 15.7225 64.2658 25.5209 65.1426 25C68.3507 17 68.3507 7.5 56.3507 7.5C45.9507 7.5 47.0174 12.1667 48.8507 14ZM48.8507 14C48.1841 12.5 47.3507 9.5 45.3507 11C42.3507 13.25 42.3507 23.5 44.8507 27.3971M48.8507 14C46.8507 14 45.3507 22.9314 44.8507 27.3971" stroke="#36201E"/>
<path d="M63.8508 16C56.2508 17.6 51.8508 16.5 48.8508 14C47.5584 12.7077 47.1272 9.08593 52.413 8.2984C49.6209 11.9258 55.2134 15.5229 58.6241 15.6899C64.9566 16 64.7877 11.8057 66.2436 15.3895C66.7456 16.6251 65.9529 20.3237 65.1426 25C64.2659 25.5209 65.169 15.7224 63.8508 16Z" fill="#48271C"/>
<path d="M44.8508 27.3971C42.3507 23.5 42.6879 13.6305 45.6879 11.3805C45.476 12.2156 44.8358 15.3895 46.1992 17.3699C45.2253 20.6081 44.5193 24.5037 44.8508 27.3971Z" fill="#48271C"/>
<path d="M43.3506 49.5C40.9506 46.7 35.0173 45.8333 33.3506 46C36.5506 41.6 43.1839 40.6666 45.8506 41C46.3506 43.5 47.1506 49.1 46.3506 49.5C45.5506 49.9 44.1839 49.8333 43.3506 49.5Z" fill="#E81E1E" stroke="#600202"/>
<path d="M66.3506 49.5C70.3506 45 74.3862 44.9798 76.0529 45.1464C72.8529 40.7464 66.3506 41.1897 63.5691 41.1897C63.4024 43.6897 61.0506 48.6 61.8506 49C62.6506 49.4 65.5172 49.8334 66.3506 49.5Z" fill="#E81E1E"/>
<path d="M76.0529 45.1464L76.4572 44.8523C76.5731 45.0117 76.5846 45.2243 76.4866 45.3952C76.3885 45.5662 76.1992 45.6636 76.0031 45.6439L76.0529 45.1464ZM66.3506 49.5L66.7243 49.8322L66.6459 49.9204L66.5363 49.9643L66.3506 49.5ZM63.5691 41.1897L63.0702 41.1564L63.1013 40.6897L63.5691 40.6897L63.5691 41.1897ZM76.0031 45.6439C74.4453 45.4882 70.588 45.4855 66.7243 49.8322L65.9769 49.1678C70.1132 44.5145 74.3271 44.4714 76.1026 44.6489L76.0031 45.6439ZM66.5363 49.9643C66.2327 50.0857 65.8142 50.1188 65.4084 50.1188C64.9832 50.1188 64.4998 50.0812 64.0252 50.0211C63.5498 49.9608 63.0735 49.8767 62.6608 49.7808C62.2588 49.6873 61.882 49.5747 61.627 49.4472L62.0742 48.5528C62.2191 48.6253 62.5007 48.7169 62.8872 48.8068C63.2631 48.8941 63.7055 48.9726 64.1509 49.029C64.5971 49.0855 65.0367 49.1188 65.4084 49.1188C65.7995 49.1188 66.0517 49.081 66.1649 49.0358L66.5363 49.9643ZM61.627 49.4472C61.2744 49.2709 61.2035 48.9012 61.189 48.6856C61.1726 48.4415 61.2099 48.1554 61.2678 47.8649C61.3848 47.2766 61.6183 46.5201 61.8711 45.73C62.1277 44.928 62.4083 44.0798 62.6367 43.2724C62.8663 42.4605 63.0322 41.7266 63.0702 41.1564L64.068 41.2229C64.0227 41.9027 63.8321 42.7201 63.5989 43.5446C63.3644 44.3734 63.0758 45.2465 62.8236 46.0347C62.5676 46.8347 62.3527 47.537 62.2485 48.0601C62.1958 48.3252 62.1793 48.5079 62.1868 48.6186C62.1961 48.7578 62.2267 48.6291 62.0742 48.5528L61.627 49.4472ZM63.5691 40.6897C64.9308 40.6897 67.314 40.5765 69.745 41.0264C72.1818 41.4773 74.7514 42.5069 76.4572 44.8523L75.6485 45.4405C74.1543 43.386 71.8728 42.4371 69.563 42.0097C67.2475 41.5812 64.9889 41.6897 63.5691 41.6897L63.5691 40.6897Z" fill="#600202"/>
<circle cx="50.8506" cy="24.5" r="1.5" fill="#36201E"/>
<circle cx="58.8506" cy="24.5" r="1.5" fill="#36201E"/>
<defs>
<filter id="filter0_f" x="36.7269" y="59.2929" width="207.11" height="105.704" filterUnits="userSpaceOnUse" color-interpolation-filters="sRGB">
<feFlood flood-opacity="0" result="BackgroundImageFix"/>
<feBlend mode="normal" in="SourceGraphic" in2="BackgroundImageFix" result="shape"/>
<feGaussianBlur stdDeviation="2" result="effect1_foregroundBlur"/>
</filter>
<linearGradient id="paint0_linear" x1="72.9923" y1="87.4317" x2="178.422" y2="143.057" gradientUnits="userSpaceOnUse">
<stop stop-color="#600202"/>
<stop offset="1" stop-color="#990101" stop-opacity="0"/>
</linearGradient>
<linearGradient id="paint1_linear" x1="72.9923" y1="87.4317" x2="178.422" y2="143.057" gradientUnits="userSpaceOnUse">
<stop stop-color="#600202"/>
<stop offset="1" stop-color="#990101" stop-opacity="0"/>
</linearGradient>
<linearGradient id="paint2_linear" x1="11.2191" y1="227.258" x2="221.657" y2="221.43" gradientUnits="userSpaceOnUse">
<stop stop-color="#CFD9E4"/>
<stop offset="1" stop-color="#E2EAF4" stop-opacity="0.8"/>
</linearGradient>
<linearGradient id="paint3_linear" x1="56.3652" y1="43" x2="56.3652" y2="97.3094" gradientUnits="userSpaceOnUse">
<stop stop-color="#87DDF8"/>
<stop offset="1" stop-color="#50B0CE"/>
</linearGradient>
<linearGradient id="paint4_linear" x1="53.8505" y1="65.3639" x2="53.9442" y2="77.4007" gradientUnits="userSpaceOnUse">
<stop offset="0.636788" stop-color="#0B75A3"/>
<stop offset="1" stop-color="#0B75A3" stop-opacity="0.51"/>
</linearGradient>
<linearGradient id="paint5_linear" x1="53.8471" y1="82.4873" x2="53.8471" y2="97.3094" gradientUnits="userSpaceOnUse">
<stop stop-color="#0E83B5"/>
<stop offset="1" stop-color="#159AC4" stop-opacity="0"/>
</linearGradient>
<linearGradient id="paint6_linear" x1="26.7332" y1="71.0269" x2="43.2251" y2="84.079" gradientUnits="userSpaceOnUse">
<stop stop-color="#004064"/>
<stop offset="1" stop-color="#08A1DC" stop-opacity="0.8"/>
</linearGradient>
<linearGradient id="paint7_linear" x1="80.8414" y1="71.0269" x2="64.3494" y2="84.079" gradientUnits="userSpaceOnUse">
<stop stop-color="#004064"/>
<stop offset="1" stop-color="#08A1DC" stop-opacity="0.8"/>
</linearGradient>
<linearGradient id="paint8_linear" x1="61.1222" y1="102" x2="47.8506" y2="102" gradientUnits="userSpaceOnUse">
<stop stop-color="#FDD599"/>
<stop offset="1" stop-color="#F8B44F"/>
</linearGradient>
<linearGradient id="paint9_linear" x1="61.009" y1="102" x2="54.6951" y2="102" gradientUnits="userSpaceOnUse">
<stop stop-color="#F5C67F"/>
<stop offset="1" stop-color="#FFE8C5" stop-opacity="0.8"/>
</linearGradient>
</defs>
</svg>
