<svg width="883" height="506" viewBox="0 0 883 506" fill="none" xmlns="http://www.w3.org/2000/svg">
<path d="M0.5 417.898V275.7C0.5 272.939 2.73858 270.7 5.5 270.7H27.3671C30.1286 270.7 32.3671 272.939 32.3671 275.7V359.518H69.3741V263.709C69.3741 261.868 70.385 260.177 72.0056 259.305L107.409 240.262V95.3984C107.409 92.637 109.648 90.3984 112.409 90.3984H162.031C164.793 90.3984 167.031 92.637 167.031 95.3984V288.663H207.122V145.898C207.122 143.137 209.361 140.898 212.122 140.898H284.36C287.122 140.898 289.36 143.137 289.36 145.898V319.6L362.346 283.673V198.858C362.346 196.096 364.585 193.858 367.346 193.858H428.276C431.038 193.858 433.276 196.096 433.276 198.858V235.772H490.843V178.898C490.843 176.137 493.081 173.898 495.843 173.898H541.5C544.261 173.898 546.5 176.137 546.5 178.898V259.224H635C637.761 259.224 640 261.462 640 264.224V295.15L669.71 325.588V215.823C669.71 213.061 671.948 210.823 674.71 210.823H738.724C741.485 210.823 743.724 213.061 743.724 215.823V280.181H773.535V262.355C773.535 260.439 774.629 258.693 776.352 257.856L811.564 240.764C812.244 240.434 812.991 240.262 813.747 240.262H836.381C839.143 240.262 841.381 242.501 841.381 245.262V315.608H877.5C880.261 315.608 882.5 317.847 882.5 320.608V417.898H0.5Z" fill="url(#paint0_linear)"/>
<path d="M543.543 476.412C544.405 479.611 529.243 486.482 509.677 491.759C491.478 494.073 472.309 496.324 471.447 493.125C470.584 489.925 486.986 485.449 506.552 480.173C526.119 474.896 542.68 473.212 543.543 476.412Z" fill="url(#paint1_linear)"/>
<path d="M567.98 473.866C568.898 477.05 539.557 495.314 527.003 498.934C503.152 496.975 502.609 498.005 501.691 494.821C500.773 491.637 511.482 488.113 524.036 484.493C536.591 480.873 567.062 470.682 567.98 473.866Z" fill="url(#paint2_linear)"/>
<ellipse cx="356.161" cy="442.998" rx="96.7507" ry="9.04326" transform="rotate(-6.01939 356.161 442.998)" fill="url(#paint3_linear)"/>
<ellipse cx="310.982" cy="446.327" rx="22.3893" ry="3.62877" transform="rotate(-3.81677 310.982 446.327)" fill="url(#paint4_linear)"/>
<ellipse cx="409.129" cy="434.946" rx="22.3893" ry="3.62877" transform="rotate(-3.81677 409.129 434.946)" fill="url(#paint5_linear)"/>
<path d="M496.902 429.384C496.902 430.485 497.232 431.695 496.352 433.236" stroke="black"/>
<path d="M493.875 459.927C493.875 460.587 493.325 460.385 493.05 460.202C492.5 459.651 491.949 452.772 491.949 451.947C491.949 451.122 494.426 448.37 495.251 450.846C496.077 453.323 494.976 455.799 494.976 456.625C494.976 457.45 493.875 459.101 493.875 459.927Z" fill="#FFCBA5" stroke="#A05534" stroke-linecap="round" stroke-linejoin="round"/>
<path d="M494.976 453.873C495.416 453.213 495.435 451.488 495.251 450.571L492.775 451.397C492.775 453.048 492.885 456.405 493.325 456.625C493.875 456.9 494.15 456.625 494.426 455.799C494.701 454.974 494.426 454.699 494.976 453.873Z" fill="#FFCBA5" stroke="#A05534" stroke-linecap="round" stroke-linejoin="round"/>
<path d="M495.801 450.021V447.544H492.775C492.316 448.92 491.674 451.672 492.775 451.672C493.875 451.672 495.251 450.571 495.801 450.021Z" fill="white" stroke="#7E92A4"/>
<path d="M473.793 448.418L473.791 448.37C478.654 445.603 489.316 441.014 493.051 444.793V459.376C493.051 461.578 493.877 464.329 493.877 465.705C493.877 467.081 493.051 478.913 493.877 484.416C493.235 484.416 492.226 484.966 487.823 487.167L485.347 487.993C485.347 486.984 484.521 485.516 484.521 483.315C484.521 481.114 483.894 474.235 483.971 470.658C482.595 479.463 482.712 484.869 483.144 485.516C483.695 486.342 483.304 487.833 482.869 488.268C482.044 489.094 481.768 487.167 476.265 486.342C474.889 486.136 473.789 487.718 472.138 488.818C471.698 488.378 471.954 487.534 472.138 487.167C473.79 477.812 472.414 469.832 473.791 461.578C474.365 458.131 473.892 450.091 473.793 448.418Z" fill="#5D7387"/>
<path d="M483.971 470.658C484.788 465.429 484.521 455.799 485.347 451.672C485.401 451.402 486.448 448.92 487.273 448.37M483.971 470.658C482.595 479.463 482.712 484.869 483.144 485.516C483.695 486.342 483.304 487.833 482.869 488.268C482.044 489.094 481.768 487.167 476.265 486.342C474.889 486.136 473.789 487.718 472.138 488.818C471.698 488.378 471.954 487.534 472.138 487.167C473.79 477.812 472.414 469.832 473.791 461.578C474.371 458.097 473.882 449.929 473.791 448.37C478.654 445.603 489.316 441.014 493.051 444.793C493.051 448.92 493.051 457.615 493.051 459.376C493.051 461.578 493.877 464.329 493.877 465.705C493.877 467.081 493.051 478.913 493.877 484.416C493.235 484.416 492.226 484.966 487.823 487.167L485.347 487.993C485.347 486.984 484.521 485.516 484.521 483.315C484.521 481.114 483.894 474.235 483.971 470.658Z" stroke="#3C4D5D" stroke-linecap="round"/>
<path d="M486.446 491.295C486.006 490.414 486.079 488.543 486.171 487.718C487.492 486.397 491.674 484.966 493.6 484.416C494.242 485.333 495.857 487.333 497.177 487.993C498.828 488.818 501.03 488.818 501.58 488.818C502.13 488.818 503.781 490.744 502.13 491.845C500.479 492.946 494.151 492.12 493.875 491.845C493.6 491.57 491.949 490.744 491.124 491.295C490.298 491.845 486.996 492.395 486.446 491.295Z" fill="#2A3A48" stroke="#0E161D"/>
<path d="M491.124 491.295C490.298 491.845 486.996 492.395 486.446 491.295C486.31 491.023 486.224 490.658 486.171 490.258C488.372 491.423 490.023 490.744 491.399 490.469C492.5 490.249 493.692 490.561 494.151 490.744C498.333 491.845 501.683 491.02 502.835 490.469C502.89 490.949 502.722 491.45 502.13 491.845C500.479 492.946 494.151 492.12 493.875 491.845C493.6 491.57 491.949 490.744 491.124 491.295Z" fill="#0E161D" stroke="#0E161D"/>
<path d="M471.863 492.671C471.517 492.152 471.565 491.09 471.657 490.448C475.418 489.531 482.394 488.412 482.614 489.072C482.834 489.733 481.31 490.653 480.943 491.02C479.567 494.046 476.54 494.046 474.339 494.046C472.963 494.046 472.413 493.496 471.863 492.671Z" fill="#0E161D" stroke="#0E161D"/>
<path d="M482.594 488.543C480.668 490.194 479.567 492.671 474.614 492.395C472.943 492.303 471.269 491.425 471.863 489.644C473.238 485.516 477.641 483.866 482.594 488.543Z" fill="#2A3A48" stroke="#0E161D"/>
<path d="M476.323 485.141C477.149 466.98 478.907 457.56 478.466 449.195" stroke="#3C4D5D"/>
<path d="M478.466 449.195C478.907 457.56 477.149 466.98 476.323 485.141C477.861 485.149 481.255 485.757 482.531 488.127C482.784 488.025 483.138 487.382 482.531 485.621C481.771 483.418 483.898 473.09 483.973 468.533C484.049 463.976 483.594 451.046 485.796 449.195C483.821 449.331 479.589 449.522 478.466 449.195Z" fill="url(#paint6_linear)"/>
<path d="M468.836 404.069C469.936 403.629 473.513 400.4 475.164 398.841C477.457 397.832 482.759 396.585 485.621 399.667C487.271 401.042 490.794 403.849 491.674 404.069C492.775 404.344 494.15 405.445 494.426 405.72C494.701 405.995 496.077 410.398 496.352 418.378C496.352 420.854 496.462 426.577 496.902 429.659C497.452 433.511 496.902 443.417 496.902 446.169C496.81 446.719 495.967 447.93 493.325 448.37L493.18 443.855C492.079 446.331 489.328 449.358 489.328 449.083C489.328 448.863 487.677 445.873 486.851 444.405C486.631 444.845 486.209 447.524 486.026 448.808C482.449 450.459 471.167 448.257 471.442 447.157C471.717 443.305 472.184 434.681 471.854 431.002C470.36 429.965 469.447 428.846 468.836 427.733C461.131 413.7 466.084 405.445 466.359 405.17C466.634 404.895 467.46 404.62 468.836 404.069Z" fill="#5D7387"/>
<path d="M485.896 435.162C485.712 433.053 485.786 428.613 487.547 427.733M485.896 435.162C486.905 434.887 488.647 433.016 487.547 427.733M485.896 435.162C478.618 434.296 474.396 432.767 471.854 431.002M487.547 427.733C484.703 426.724 479.237 424.761 477.916 423.881C477.233 423.426 476.598 423.112 475.99 423.056M473.514 424.706C474.32 423.415 475.127 422.976 475.99 423.056M468.836 405.445C470.212 406.179 473.183 408.637 474.064 412.599C475.164 417.552 475.164 421.405 475.99 423.056M486.851 444.405C486.631 444.845 486.209 447.524 486.026 448.808C482.449 450.459 471.167 448.257 471.442 447.157C471.717 443.305 472.184 434.681 471.854 431.002M486.851 444.405C487.072 443.965 486.943 437.618 486.851 434.499M486.851 444.405C487.677 445.873 489.328 448.863 489.328 449.083C489.328 449.358 492.079 446.331 493.18 443.855M471.854 431.002C470.36 429.965 469.447 428.846 468.836 427.733C461.131 413.7 466.084 405.445 466.359 405.17C466.634 404.895 467.46 404.62 468.836 404.069C469.936 403.629 473.513 400.4 475.164 398.841C477.457 397.832 482.759 396.585 485.621 399.667C487.271 401.042 490.794 403.849 491.674 404.069C492.775 404.344 494.15 405.445 494.426 405.72C494.701 405.995 496.077 410.398 496.352 418.378C496.352 420.854 496.462 426.577 496.902 429.659C497.452 433.511 496.902 443.417 496.902 446.169C496.81 446.719 495.967 447.93 493.325 448.37L493.18 443.855M493.18 443.855C492.905 441.011 492.245 434.664 491.804 432.023C491.254 428.721 492.355 421.842 492.355 420.741C492.355 419.641 494.281 415.238 491.804 406.158" stroke="#3C4D5D" stroke-linecap="round"/>
<path d="M471.943 446.888C472.366 444.987 472.427 436.152 472.405 431.972C472.405 432.289 474.825 433.292 476.035 433.754V448.142C474.557 448.089 472.691 447.284 471.943 446.888Z" fill="url(#paint7_linear)" fill-opacity="0.2"/>
<path opacity="0.2" d="M466.75 405.5C468.414 405.738 472.1 407.48 473.526 412.544C474.953 417.608 474.98 421.326 475.07 422.634C478.21 425.326 483.928 426.69 487.078 428.057C486.579 428.556 486.157 429.632 486.008 430.108C485.081 430.108 477.3 426.541 473.526 424.758C473.229 422.47 472.278 417.055 470.851 413.703C469.425 410.35 467.523 406.838 466.75 405.5Z" fill="white"/>
<path d="M486.715 422.931C486.476 420.658 478.939 406 475.201 398.955C477.028 396.645 481.561 393.482 485.07 399.304C489.457 406.581 487.014 425.772 486.715 422.931Z" fill="#DCE9EF"/>
<path d="M481.768 410.398V405.995H483.144C484.245 407.28 486.611 410.508 487.271 413.15C487.712 417.552 487.088 421.588 486.721 423.055C485.07 416.452 481.768 411.774 481.768 410.398Z" fill="#6FC9E5" stroke="#044A7D"/>
<path d="M476.265 398.291L475.99 394.164C482.374 392.843 484.887 394.714 485.345 395.815L485.07 399.942C484.979 400.584 484.019 402.459 482.319 402.969C479.567 403.794 477.302 400.78 476.265 398.291Z" fill="#FFCBA5" stroke="#A05534" stroke-linecap="round" stroke-linejoin="round"/>
<path d="M483.419 402.418C483.694 403.794 483.419 405.995 483.144 405.995H481.768C480.943 405.445 479.865 403.988 479.567 403.244C480.448 402.363 482.502 402.327 483.419 402.418Z" fill="#6FC9E5" stroke="#044A7D"/>
<path d="M472.963 403.519C473.183 403.299 474.706 400.676 475.44 399.392C476.1 400.933 479.934 407.922 481.768 411.223C486.391 418.928 487.18 425.073 486.996 427.183C486.446 422.505 482.043 417.277 480.943 415.901C480.062 414.801 476.357 409.389 474.614 406.821L476.265 405.445C475.073 404.895 472.743 403.739 472.963 403.519Z" fill="#5D7387" stroke="#3C4D5D" stroke-linejoin="round"/>
<path d="M475.164 398.566C475.385 397.906 475.806 397.374 475.99 397.19C477.366 399.942 479.567 401.593 480.117 402.418C479.017 403.244 478.147 406.584 477.872 405.758C477.597 404.933 474.889 399.392 475.164 398.566Z" fill="white" stroke="#3C4D5D" stroke-linejoin="round"/>
<path d="M485.621 395.539C485.07 396.915 483.97 399.116 481.493 399.116C478.12 399.116 475.715 395.266 475.715 392.237C475.715 390.612 475.838 389.152 475.44 387.56C479.567 387.56 482.044 387.285 486.996 387.285C486.721 389.486 486.622 393.037 485.621 395.539Z" fill="#FFCBA5" stroke="#A05534" stroke-linecap="round" stroke-linejoin="round"/>
<path d="M478.742 393.888C478.833 394.072 479.457 394.714 480.117 394.714C480.943 394.714 483.144 394.989 483.694 394.164M478.742 393.888C478.521 394.109 478.283 394.53 478.191 394.714M478.742 393.888C478.925 393.705 479.347 393.338 479.567 393.338M480.393 395.815C480.851 395.815 482.319 395.815 482.869 395.539" stroke="#A05534" stroke-linecap="round" stroke-linejoin="round"/>
<path d="M477.091 389.761C477.366 389.486 478.026 388.936 478.466 388.936C479.017 388.936 479.567 388.66 480.117 389.761" stroke="#36201E" stroke-linecap="round" stroke-linejoin="round"/>
<path d="M475.804 388.385C475.529 388.569 475.144 389.211 475.804 390.311" stroke="#A05534"/>
<path d="M490.849 429.109L487.613 428.42C486.814 429.697 486.541 431.157 486.541 432.821L488.922 433.236C488.262 430.595 489.931 429.292 490.849 429.109Z" fill="white"/>
<ellipse cx="487.516" cy="431.46" rx="0.429088" ry="0.643631" transform="rotate(-8.56399 487.516 431.46)" fill="#0E161D"/>
<path d="M474.339 389.761C474.064 388.385 474.339 386.459 475.44 387.835L475.715 392.788C474.339 392.513 474.447 390.301 474.339 389.761Z" fill="#FFCBA5" stroke="#A05534"/>
<path d="M486.721 388.385C486.996 388.569 487.382 389.211 486.721 390.311" stroke="#A05534"/>
<path d="M487.822 389.211C487.822 388.11 488.372 386.459 486.996 387.285L486.446 392.238C487.822 391.962 487.822 389.761 487.822 389.211Z" fill="#FFCBA5" stroke="#A05534"/>
<circle cx="478.742" cy="389.486" r="0.550318" fill="#36201E"/>
<path d="M485.896 389.761C485.62 389.486 485.07 388.936 484.795 388.936C484.245 388.936 483.694 388.66 483.144 389.761" stroke="#36201E" stroke-linecap="round" stroke-linejoin="round"/>
<circle r="0.550318" transform="matrix(-1 0 0 1 484.245 389.486)" fill="#36201E"/>
<path d="M480.943 392.788C481.218 392.788 481.768 393.338 482.869 392.788" stroke="#A05534" stroke-linecap="round" stroke-linejoin="round"/>
<path d="M482.594 391.962C482.502 391.595 482.319 390.201 482.319 389.761C482.319 389.211 482.869 388.11 484.795 387.835" stroke="#A05534" stroke-linecap="round" stroke-linejoin="round"/>
<path d="M478.742 388.11C477.861 387.89 476.357 388.385 475.715 388.66C475.715 388.11 475.44 387.285 475.44 387.285C477.091 387.56 483.144 387.56 486.996 387.009L486.721 388.66C486.171 388.477 485.62 387.835 484.52 387.835C483.969 387.835 482.043 388.385 481.493 388.385H481.493C480.942 388.385 479.842 388.385 478.742 388.11Z" fill="#36201E" stroke="#36201E"/>
<path d="M472.02 385.661L473.151 384.591C474.52 382.868 483.827 383.42 488.309 383.912L489.386 384.768C490.196 385.341 490.719 386.339 489.333 386.693C483.511 388.183 474.449 387.38 472.532 387.051C470.998 386.789 471.551 386.015 472.02 385.661Z" fill="#6FC9E5" stroke="#044A7D"/>
<path d="M478.049 376.745C473.366 378.817 472.832 382.839 473.151 384.591C474.031 384.777 475.274 384.973 476.715 385.105C480.199 385.425 484.841 385.374 488.309 383.912C487.998 379.279 485.001 377.489 483.542 377.173C481.968 374.377 478.629 375.66 478.049 376.745Z" fill="#6FC9E5"/>
<path d="M478.049 376.745C473.366 378.817 472.832 382.839 473.151 384.591C474.031 384.777 475.274 384.973 476.715 385.105C480.199 385.425 484.841 385.374 488.309 383.912C487.998 379.279 485.001 377.489 483.542 377.173M478.049 376.745C478.476 377.197 479.161 379.62 479.317 380.634M478.049 376.745C478.629 375.66 481.968 374.377 483.542 377.173M483.542 377.173C483.438 377.629 483.108 378.923 482.625 380.451" stroke="#044A7D"/>
<path d="M476.994 384.973C477.04 383.323 477.868 380.478 480.707 380.122C484.298 379.671 485.307 383.003 485.536 384.661" stroke="#044A7D"/>
<path d="M474.614 415.076C474.706 414.158 474.944 412.214 475.165 411.774" stroke="#3C4D5D" stroke-linecap="round"/>
<path d="M489.198 403.794C488.757 403.354 486.446 400.951 485.62 400.217C488.097 407.646 488.097 414.525 486.996 425.257C488.647 419.753 488.647 421.129 490.023 417.277C491.497 413.15 491.674 407.922 490.849 407.646C490.023 407.371 487.822 406.271 488.097 405.995C488.317 405.775 488.922 404.436 489.198 403.794Z" fill="#5D7387" stroke="#3C4D5D" stroke-linejoin="round"/>
<ellipse cx="485.345" cy="437.639" rx="0.550318" ry="0.825478" fill="#0E161D"/>
<ellipse cx="485.345" cy="442.041" rx="0.550318" ry="0.825478" fill="#0E161D"/>
<path d="M485.845 405.758C485.294 402.456 483.236 402.143 482.869 402.143C483.603 401.685 485.07 400.492 485.345 398.291C486.446 400.933 486.487 404.749 485.845 405.758Z" fill="white" stroke="#3C4D5D" stroke-linejoin="round"/>
<path d="M513.412 490.469C514.568 490.932 516.989 491.386 517.814 491.295C518.64 491.295 519.19 495.147 518.64 495.422C518.089 495.697 515.338 496.248 514.787 495.422C514.237 494.597 511.761 495.422 511.21 495.972C510.66 496.523 503.781 497.073 502.405 495.697C501.029 494.322 501.305 493.221 504.606 492.946C507.908 492.671 508.734 491.845 509.834 491.02C511.02 490.13 512.036 489.919 513.412 490.469Z" stroke="black"/>
<path d="M494.426 427.458C496.077 427.458 497.177 426.816 497.452 426.357C498.828 426.908 501.58 428.614 501.58 431.035C501.58 433.456 499.929 435.713 499.103 436.538C497.177 436.722 492.775 436.373 490.573 433.511L492.499 430.869C492.228 430.802 492.023 430.653 491.949 430.485C492.775 429.384 493.316 427.458 494.426 427.458Z" fill="#FFCBA5"/>
<path d="M496.077 429.109C495.251 428.834 494.812 429.384 494.15 430.209C493.624 430.866 492.965 430.986 492.499 430.869M492.499 430.869C492.228 430.802 492.023 430.653 491.949 430.485C492.775 429.384 493.316 427.458 494.426 427.458C496.077 427.458 497.177 426.816 497.452 426.357C498.828 426.908 501.58 428.614 501.58 431.035C501.58 433.456 499.929 435.713 499.103 436.538C497.177 436.722 492.775 436.373 490.573 433.511L492.499 430.869Z" stroke="#A05534" stroke-linecap="round" stroke-linejoin="round"/>
<path d="M518.608 492.292C518.388 492.072 517.906 491.478 517.814 491.295C516.404 491.752 513.666 490.611 512.995 490.276C512.459 490.008 510.181 490.039 509.628 490.428C509.408 489.327 509.536 486.894 509.628 485.61C510.189 476.629 509.277 468.979 508.527 461.671C507.427 450.94 507.977 435.531 507.977 434.98C507.977 434.54 508.344 434.247 508.527 434.155C513.056 432.656 523.235 430.43 527.72 433.511C529.921 440.39 528.27 444.518 527.995 445.894C527.72 447.269 528.545 468.732 528.545 471.208C528.545 473.189 527.72 481.939 527.445 488.268C528.545 488.928 528.062 490.607 527.971 491.524C527.971 491.34 526.619 489.919 523.317 489.644C520.015 489.369 518.884 492.567 518.608 492.292Z" fill="#5D7387"/>
<path d="M512.036 437.364L512.586 443.142C512.861 443.601 513.687 444.738 514.787 445.618M514.787 445.618C514.787 444.958 514.787 440.39 514.787 438.189M514.787 445.618C516.438 456.625 516.438 462.678 516.438 472.309C516.438 478.913 517.814 484.416 517.814 491.295M517.814 491.295C517.906 491.478 518.388 492.072 518.608 492.292C518.884 492.567 520.015 489.369 523.317 489.644C526.619 489.919 527.971 491.34 527.971 491.524C528.062 490.607 528.545 488.928 527.445 488.268C527.72 481.939 528.545 473.189 528.545 471.208C528.545 468.732 527.72 447.269 527.995 445.894C528.27 444.518 529.921 440.39 527.72 433.511C523.235 430.43 513.056 432.656 508.527 434.155C508.344 434.247 507.977 434.54 507.977 434.98C507.977 435.531 507.427 450.94 508.527 461.671C509.277 468.979 510.189 476.629 509.628 485.61C509.536 486.894 509.408 489.327 509.628 490.428C510.181 490.039 512.459 490.008 512.995 490.276C513.666 490.611 516.404 491.752 517.814 491.295Z" stroke="#3C4D5D" stroke-linecap="round" stroke-linejoin="round"/>
<path d="M517.814 491.295C517.814 484.416 516.438 478.913 516.438 472.309C516.438 462.678 516.438 456.625 514.787 445.618C512.205 443.552 510.731 440.117 509.043 437.364C509.446 444.769 510.349 460.338 510.737 463.371C511.124 466.403 511.917 482.085 512.509 489.79L512.534 489.802C513.256 490.163 516.421 491.747 517.814 491.295Z" fill="url(#paint8_linear)"/>
<path d="M527.971 491.524C527.971 491.34 526.619 489.919 523.317 489.644C522.888 481.101 522.158 463.435 522.673 461.113C523.188 458.79 522.888 449.815 522.673 445.618C523.551 446.028 525.843 447.685 527.983 451.036C528.122 457.934 528.545 469.436 528.545 471.208C528.545 473.189 527.72 481.939 527.445 488.268C528.545 488.928 528.062 490.607 527.971 491.524Z" fill="url(#paint9_linear)"/>
<path d="M513.412 490.469C514.568 490.932 516.989 491.387 517.814 491.295C518.4 491.295 518.847 493.236 518.861 494.46C518.866 494.961 518.799 495.342 518.64 495.422C518.089 495.697 515.338 496.248 514.787 495.422C514.237 494.597 511.761 495.422 511.21 495.973C510.66 496.523 503.781 497.073 502.405 495.697C502.031 495.323 501.779 495.224 501.677 494.872C501.403 493.93 502.203 493.146 504.607 492.946C507.908 492.671 508.734 491.845 509.835 491.02C511.02 490.131 512.036 489.919 513.412 490.469Z" fill="#2A3A48"/>
<path d="M501.677 494.872C501.403 493.93 502.203 493.146 504.607 492.946C507.908 492.671 508.734 491.845 509.835 491.02C511.02 490.131 512.036 489.919 513.412 490.469C514.568 490.932 516.989 491.387 517.814 491.295C518.4 491.295 518.847 493.236 518.861 494.46M501.677 494.872C501.779 495.224 502.031 495.323 502.405 495.697C503.781 497.073 510.66 496.523 511.21 495.973C511.761 495.422 514.237 494.597 514.787 495.422C515.338 496.248 518.089 495.697 518.64 495.422C518.799 495.342 518.866 494.961 518.861 494.46M501.677 494.872C503.231 495.697 507.156 496.461 510.66 495.147C512.861 494.322 514.237 494.046 515.613 494.872C516.714 495.532 518.532 494.599 518.861 494.46" stroke="#0E161D"/>
<path d="M530.38 495.902C530.601 495.32 530.316 494.295 530.083 493.69C526.213 493.638 518.156 493.629 518.089 494.322C518.023 495.015 519.851 495.697 520.291 495.973C521.666 498.174 526.739 498.488 528.275 497.797C529.529 497.232 530.029 496.83 530.38 495.902Z" fill="#0E161D" stroke="#0E161D"/>
<path d="M518.364 493.771C521.666 495.422 524.968 497.623 529.096 495.973C530.65 495.351 530.68 494.556 529.703 492.952C527.637 490.194 520.291 486.342 518.364 493.771Z" fill="#2A3A48" stroke="#0E161D"/>
<path d="M511.21 469.832L510.712 469.869L511.21 469.832ZM509.509 437.35C509.501 437.074 509.272 436.856 508.996 436.864C508.72 436.871 508.502 437.101 508.509 437.377L509.509 437.35ZM512.467 489.85C512.752 488.734 512.783 486.871 512.641 483.765C512.498 480.634 512.172 476.168 511.709 469.796L510.712 469.869C511.176 476.247 511.5 480.697 511.642 483.81C511.786 486.948 511.74 488.656 511.498 489.603L512.467 489.85ZM511.709 469.796C510.605 454.612 510.059 457.979 509.509 437.35L508.509 437.377C509.06 458.022 509.615 454.785 510.712 469.869L511.709 469.796Z" fill="#3C4D5D"/>
<path d="M522.604 469.864L523.104 469.856L522.604 469.864ZM522.105 445.375C522.088 445.099 522.297 444.862 522.573 444.844C522.848 444.827 523.086 445.036 523.103 445.312L522.105 445.375ZM522.802 488.929C522.562 487.88 522.445 486.289 522.358 483.405C522.27 480.508 522.212 476.26 522.104 469.873L523.104 469.856C523.212 476.251 523.27 480.487 523.357 483.375C523.445 486.275 523.562 487.769 523.777 488.705L522.802 488.929ZM522.104 469.873C522.039 466.074 522.088 463.918 522.179 462.498C522.269 461.081 522.404 460.382 522.498 459.582C522.686 457.977 522.755 455.686 522.105 445.375L523.103 445.312C523.752 455.604 523.691 457.988 523.491 459.699C523.39 460.558 523.265 461.178 523.177 462.562C523.089 463.943 523.04 466.069 523.104 469.856L522.104 469.873Z" fill="#3C4D5D"/>
<path d="M496.352 429.109C495.691 429.329 491.949 429.109 490.573 429.109C488.097 429.934 488.372 432.961 489.198 433.236C490.023 433.511 490.573 433.511 491.399 433.511C492.224 433.511 492.224 434.062 493.05 435.162C493.875 436.263 497.452 435.988 498.003 435.988C498.553 435.988 499.379 434.887 500.479 435.162C501.58 435.437 501.58 434.337 501.305 433.511C501.03 432.686 500.204 431.585 499.929 431.31C499.654 431.035 497.177 428.834 496.352 429.109Z" fill="#FFCBA5"/>
<path d="M500.479 435.162C501.58 435.437 501.58 434.337 501.305 433.511C501.03 432.686 500.204 431.585 499.929 431.31C499.654 431.035 497.177 428.834 496.352 429.109C495.691 429.329 491.949 429.109 490.573 429.109C488.097 429.934 488.372 432.961 489.198 433.236C490.023 433.511 490.573 433.511 491.399 433.511C492.224 433.511 492.224 434.062 493.05 435.162C493.875 436.263 497.452 435.988 498.003 435.988C498.553 435.988 499.379 434.887 500.479 435.162ZM500.479 435.162C500.388 434.245 499.654 432.961 498.003 431.86" stroke="#A05534" stroke-linecap="round" stroke-linejoin="round"/>
<path opacity="0.5" d="M496.064 433.511C496.389 432.36 496.957 430.64 496.821 429.804C500.127 430.187 500.91 433.019 501.267 434.508C499.397 434.655 495.739 434.663 496.064 433.511Z" fill="#A05534"/>
<path d="M494.976 433.787C494.315 434.227 492.683 436.171 491.949 437.088C493.27 437.969 494.517 437.455 494.976 437.088C495.856 437.969 496.627 437.272 496.902 436.813C496.902 437.639 498.278 437.364 498.553 437.364C498.828 437.364 501.58 434.887 501.029 434.337C500.589 433.897 499.562 434.337 499.103 434.612C499.103 434.52 498.993 434.282 498.553 434.062C498.113 433.842 497.085 434.52 496.627 434.887C497.452 434.062 495.801 433.236 494.976 433.787Z" fill="#FFCBA5" stroke="#A05534" stroke-linecap="round" stroke-linejoin="round"/>
<path opacity="0.5" d="M496.902 436.813C496.902 437.639 498.278 437.364 498.553 437.364C498.731 437.364 499.945 436.327 500.632 435.446C500.053 435.572 499.435 436.081 499.16 435.78C498.817 435.403 497.48 436.813 496.566 435.78C495.989 435.127 495.8 436.125 493.698 435.026C493.052 435.74 492.36 436.575 491.949 437.088C493.27 437.969 494.517 437.455 494.976 437.088C495.856 437.969 496.627 437.272 496.902 436.813Z" fill="#A05534"/>
<path d="M491.674 435.988C490.573 436.263 489.748 435.437 489.748 434.887C489.748 434.861 489.748 434.835 489.75 434.807C489.971 434.743 490.222 434.241 490.848 434.062C492.688 433.536 493.057 435.642 491.674 435.988Z" fill="#FFCBA5"/>
<path d="M490.023 433.511C489.937 433.77 489.769 434.37 489.75 434.807M489.75 434.807C489.748 434.835 489.748 434.861 489.748 434.887C489.748 435.437 490.573 436.263 491.674 435.988C493.057 435.642 492.688 433.536 490.848 434.062C490.222 434.241 489.971 434.743 489.75 434.807Z" stroke="#A05534" stroke-linecap="round" stroke-linejoin="round"/>
<path d="M494.425 427.458C496.076 427.458 497.177 426.816 497.452 426.357C498.828 426.908 501.58 428.614 501.58 431.035C501.58 431.735 501.442 432.42 501.226 433.062C500.521 431.905 498.505 429.496 496.076 429.109C495.252 428.834 494.813 429.382 494.154 430.205L494.15 430.209C493.624 430.866 492.965 430.986 492.499 430.869C492.228 430.802 492.023 430.653 491.949 430.485C492.774 429.384 493.316 427.458 494.425 427.458Z" fill="#FFCBA5" stroke="#A05534" stroke-linecap="round" stroke-linejoin="round"/>
<path d="M501.58 431.035C501.58 429.274 498.828 427.183 497.452 426.357L498.828 424.156C500.39 424.706 503.458 426.467 503.235 429.109C502.616 429.827 502.032 430.508 501.58 431.035Z" fill="white"/>
<path d="M507.083 424.706C506.763 425.026 504.876 427.203 503.235 429.109M503.235 429.109C502.616 429.827 502.032 430.508 501.58 431.035C501.58 429.274 498.828 427.183 497.452 426.357L498.828 424.156C500.39 424.706 503.458 426.467 503.235 429.109Z" stroke="#7E92A4" stroke-linejoin="round"/>
<path d="M515.613 480.839L512.311 479.188V461.853L537.625 458.551L541.203 459.651V475.06L515.613 480.839Z" fill="#7E92A4"/>
<path d="M512.311 461.853L515.613 463.229M512.311 461.853V479.188L515.613 480.839M512.311 461.853L537.625 458.551L541.203 459.651M515.613 463.229V480.839M515.613 463.229L541.203 459.651M515.613 480.839L541.203 475.06V459.651" stroke="#7E92A4" stroke-linecap="round" stroke-linejoin="round"/>
<path d="M515.613 463.229L512.311 461.853V479.188L515.613 480.839V463.229Z" fill="#CBD3DB" stroke="#7E92A4" stroke-linecap="round" stroke-linejoin="round"/>
<path d="M515.613 480.839V463.229L541.202 459.651V475.06L515.613 480.839Z" fill="white" stroke="#7E92A4" stroke-linecap="round" stroke-linejoin="round"/>
<path d="M526.894 441.766C524.913 440.886 523.501 438.464 523.042 437.364C521.941 437.804 521.666 438.464 521.666 438.739C522.327 441.601 525.06 443.234 526.344 443.692C527.353 443.417 528.875 442.647 526.894 441.766Z" stroke="#3C4D5D" stroke-linecap="round"/>
<path d="M533.572 459.317V453.264C533.572 452.713 533.242 452.383 533.022 452.163L533.021 452.163C532.833 451.975 532.163 451.706 531.457 451.461C531.361 451.382 531.242 451.338 531.095 451.338C531.215 451.378 531.337 451.419 531.457 451.461C531.978 451.887 531.821 453.315 531.646 454.089V459.042C531.646 459.592 533.021 459.867 533.572 459.317Z" fill="#7E92A4" stroke="#3C4D5D"/>
<path d="M522.767 454.423C521.666 453.048 521.975 452.328 522.217 451.122C522.492 449.746 525.243 449.195 525.794 446.169H530.196C530.105 446.627 529.921 447.655 529.921 448.095C529.921 448.645 531.572 450.296 532.122 452.222C532.563 453.763 531.389 455.616 530.747 456.35C530.38 456.533 528.963 456.622 527.037 457.173C526.831 457.432 526.619 457.634 526.344 457.725C525.519 458.001 524.968 458.001 523.868 457.725L522.767 454.423Z" fill="#FFCBA5"/>
<path d="M527.037 457.173C528.963 456.622 530.38 456.533 530.747 456.35C531.389 455.616 532.563 453.763 532.122 452.222C531.572 450.296 529.921 448.645 529.921 448.095C529.921 447.655 530.105 446.627 530.196 446.169H525.794C525.243 449.195 522.492 449.746 522.217 451.122C521.975 452.328 521.666 453.048 522.767 454.423L523.868 457.725C524.968 458.001 525.519 458.001 526.344 457.725C527.205 457.438 527.445 456.074 528.82 455.249M526.619 454.423C526.986 454.607 527.76 454.954 528.82 454.423C529.371 454.148 530.747 453.048 531.572 453.048" stroke="#A05534" stroke-linecap="round" stroke-linejoin="round"/>
<path d="M530.747 456.35C531.389 455.616 532.563 453.763 532.122 452.222C531.868 453.103 529.74 453.948 528.745 454.59C527.369 455.415 527.205 457.438 526.344 457.725C528.27 457.175 530.38 456.533 530.747 456.35Z" fill="#A05534" fill-opacity="0.5"/>
<path d="M518.915 393.063C520.749 393.98 524.968 396.31 527.17 398.291C529.646 398.566 534.599 401.868 534.049 408.197C533.738 411.771 536.525 411.223 534.599 423.055C534.599 423.881 534.709 425.917 535.149 427.458C535.649 429.206 534.562 435.485 531.684 443.417C531.39 444.226 531.078 445.053 530.747 445.894C530.196 446.26 528.38 446.774 525.519 445.894C525.702 445.068 526.124 443.142 526.344 442.041C527.115 438.189 526.344 435.162 526.894 431.86C527.008 431.179 527.256 429.983 527.531 428.95C525.594 433.505 511.739 432.086 510.711 431.86C509.323 431.556 507.083 430.733 507.083 428.807C507.083 427.266 506.533 421.561 506.258 418.901C504.585 417.348 503.224 417.351 502.173 417.964C501.028 414.693 500.939 411.178 501.03 409.545C499.379 403.217 502.956 401.841 504.882 399.915C506.423 398.374 508.642 396.521 509.56 395.787C511.383 394.337 515.806 391.761 518.915 393.063Z" fill="white"/>
<path d="M527.17 398.291C524.968 396.31 520.749 393.98 518.915 393.063C515.806 391.761 511.383 394.337 509.56 395.787C508.642 396.521 506.423 398.374 504.882 399.915C502.956 401.841 499.379 403.217 501.03 409.545C500.939 411.178 501.028 414.693 502.173 417.964M527.17 398.291C525.849 398.951 522.206 400.719 523.868 408.197C524.308 410.178 525.519 410.673 525.519 412.599C525.519 418.102 526.069 421.955 527.17 424.156C527.768 425.354 527.612 427.091 527.72 428.283M527.17 398.291C529.646 398.566 534.599 401.868 534.049 408.197C533.738 411.771 536.525 411.223 534.599 423.055C534.599 423.881 534.709 425.917 535.149 427.458C535.649 429.206 534.562 435.485 531.684 443.417M526.344 442.041C526.124 443.142 525.702 445.068 525.519 445.894C528.38 446.774 530.196 446.26 530.747 445.894C531.078 445.053 531.39 444.226 531.684 443.417M526.344 442.041C526.619 440.666 531.684 443.417 531.684 443.417M526.344 442.041C527.115 438.189 526.344 435.162 526.894 431.86C527.034 431.025 527.374 429.417 527.72 428.283M529.096 424.706C528.821 426.082 528.16 426.838 527.72 428.283M527.72 428.283C526.894 433.638 511.786 432.097 510.711 431.86C509.323 431.556 507.083 430.733 507.083 428.807C507.083 427.266 506.533 421.561 506.258 418.901M505.432 405.968C504.423 408.903 503.176 415.599 506.258 418.901M506.258 418.901C504.585 417.348 503.224 417.351 502.173 417.964M502.173 417.964C500.805 418.763 499.965 420.599 499.654 421.377C499.214 422.478 497.82 424.954 497.177 426.055" stroke="#7E92A4" stroke-linecap="round"/>
<path d="M521.666 454.974V461.027C522.217 461.578 523.592 461.302 523.592 460.752V455.799C523.592 455.139 524.143 455.249 524.693 454.974C525.243 454.699 525.518 454.699 525.794 454.148C526.069 453.598 525.586 452.326 524.143 453.048C523.317 453.323 522.437 453.653 522.217 453.873L522.216 453.873C521.996 454.093 521.666 454.424 521.666 454.974Z" fill="#CBD3DB" stroke="#3C4D5D"/>
<g opacity="0.4">
<path d="M534.049 408.197C534.599 401.868 529.646 398.566 527.17 398.291C529.268 400.743 533.172 405.968 530.132 411.815C531.25 414.639 533.344 420.854 531.627 424.156C531.627 425.185 532.893 427.84 532.893 430.233C532.893 432.626 532.087 440.02 531.684 443.417C534.562 435.485 535.649 429.206 535.149 427.458C534.709 425.917 534.599 423.881 534.599 423.055C536.525 411.223 533.738 411.771 534.049 408.197Z" fill="#7E92A4"/>
<path d="M527.17 424.156C527.768 425.354 527.612 427.091 527.72 428.283C527.706 428.376 527.678 428.468 527.639 428.559C527.044 429.926 523.731 431.068 521.677 431.325C524.878 429.923 520.899 420.827 522.588 418.497C524.541 415.803 524.246 410.315 523.868 408.197C524.308 410.178 525.519 410.673 525.519 412.599C525.519 418.102 526.069 421.955 527.17 424.156Z" fill="#7E92A4"/>
<path d="M502.173 417.964C501.028 414.693 500.874 410.553 500.964 408.92C502.719 414.653 503.911 411.409 504.393 410.902C504.123 413.764 504.422 416.934 506.258 418.901C506.415 420.423 506.663 422.941 506.846 425.106L501.667 430.598C501.357 429.709 500.621 429.111 500.291 428.923C504.576 424.195 505.842 420.514 506.258 418.901C504.585 417.348 503.224 417.351 502.173 417.964Z" fill="#7E92A4"/>
</g>
<ellipse cx="529.921" cy="444.518" rx="0.550318" ry="0.550318" transform="rotate(90 529.921 444.518)" fill="#0E161D"/>
<ellipse cx="501.983" cy="428.678" rx="0.403314" ry="0.550318" transform="rotate(47.3491 501.983 428.678)" fill="#0E161D"/>
<path d="M518.089 416.176C516.163 416.451 515.429 415.076 515.338 414.25V410.948V409.297C516.713 409.022 519.74 409.022 520.566 409.022V410.673V413.7C520.566 414.342 520.098 415.889 518.089 416.176Z" fill="white"/>
<path d="M520.566 410.673V413.7C520.566 414.342 520.098 415.889 518.089 416.176C516.163 416.451 515.429 415.076 515.338 414.25V410.948M520.566 410.673V409.022C519.74 409.022 516.713 409.022 515.338 409.297V410.948M520.566 410.673C520.015 410.673 518.364 410.673 515.338 410.948" stroke="#7E92A4"/>
<path d="M517.814 392.788C517.594 391.907 517.539 388.385 517.539 386.734C513.962 386.734 509.559 393.888 509.559 394.439C509.559 394.879 509.926 397.557 510.11 398.841C514.072 400.602 516.897 395.539 517.814 392.788Z" fill="#FFCBA5" stroke="#A05534" stroke-linecap="round" stroke-linejoin="round"/>
<path d="M510.66 398.566C509.339 399.447 508.275 401.318 507.908 402.143C507.633 401.318 507.688 398.621 507.908 397.741C508.128 396.86 509.284 396.09 509.834 395.264C509.743 396.09 509.779 398.566 510.66 398.566Z" fill="white"/>
<path d="M515.613 402.143C514.512 399.942 513.412 398.474 512.861 398.291C514.604 396.823 518.615 393.242 518.615 391.701C520.817 393.627 518.364 396.09 517.539 397.741C517.099 398.621 516.163 401.043 515.613 402.143Z" fill="white"/>
<path d="M510.66 398.566C509.339 399.447 508.275 401.318 507.908 402.143C507.633 401.318 507.688 398.621 507.908 397.741C508.128 396.86 509.284 396.09 509.834 395.264C509.743 396.09 509.779 398.566 510.66 398.566Z" stroke="#7E92A4"/>
<path d="M515.613 402.143C514.512 399.942 513.412 398.474 512.861 398.291C514.604 396.823 518.615 393.242 518.615 391.701C520.817 393.627 518.364 396.09 517.539 397.741C517.099 398.621 516.163 401.043 515.613 402.143Z" stroke="#7E92A4"/>
<path d="M525.504 446.91C526.33 447.185 527.995 446.994 529.096 446.994C529.91 446.994 530.237 446.971 530.32 446.959L530.323 446.951C530.348 446.951 530.352 446.954 530.32 446.959L529.921 448.095C529.463 448.462 527.885 448.865 525.243 447.544L525.504 446.91Z" fill="#3C4D5D" stroke="#3C4D5D" stroke-linejoin="round"/>
<path d="M529.027 448.62C528.884 448.592 528.731 448.481 528.621 448.25C528.511 448.018 528.464 447.695 528.535 447.342C528.606 446.988 528.774 446.708 528.964 446.537C529.154 446.365 529.338 446.322 529.481 446.35C529.625 446.379 529.778 446.49 529.887 446.721C529.997 446.953 530.044 447.275 529.973 447.629C529.902 447.983 529.735 448.263 529.545 448.434C529.355 448.606 529.171 448.649 529.027 448.62Z" stroke="#212931"/>
<mask id="path-96-inside-1" fill="white">
<ellipse cx="529.571" cy="447.549" rx="1.65741" ry="0.910313" transform="rotate(101.31 529.571 447.549)"/>
</mask>
<path d="M529.442 448.193C529.573 448.22 529.65 448.288 529.678 448.32C529.7 448.345 529.685 448.339 529.664 448.272C529.621 448.134 529.596 447.882 529.659 447.566L527.698 447.174C527.581 447.756 527.594 448.356 527.756 448.872C527.906 449.348 528.28 450.001 529.05 450.155L529.442 448.193ZM529.659 447.566C529.722 447.25 529.842 447.027 529.935 446.917C529.98 446.863 529.996 446.864 529.966 446.878C529.929 446.897 529.831 446.93 529.7 446.904L530.092 444.943C529.322 444.789 528.726 445.247 528.404 445.629C528.056 446.043 527.814 446.593 527.698 447.174L529.659 447.566ZM529.7 446.904C529.569 446.878 529.491 446.809 529.464 446.778C529.442 446.753 529.457 446.759 529.478 446.826C529.521 446.963 529.546 447.215 529.483 447.531L531.444 447.923C531.56 447.342 531.548 446.741 531.386 446.226C531.236 445.749 530.862 445.097 530.092 444.943L529.7 446.904ZM529.483 447.531C529.42 447.847 529.3 448.07 529.207 448.18C529.162 448.234 529.146 448.234 529.176 448.219C529.213 448.201 529.311 448.167 529.442 448.193L529.05 450.155C529.82 450.309 530.416 449.85 530.737 449.468C531.085 449.055 531.328 448.505 531.444 447.923L529.483 447.531Z" fill="#3C4D5D" mask="url(#path-96-inside-1)"/>
<path d="M512.861 428.008C512.77 429.384 512.751 432.246 513.412 432.686" stroke="#7E92A4"/>
<path d="M508.459 434.062C507.908 433.511 508.183 431.035 508.183 431.035C516.759 433.62 524.173 431.595 527.031 430.04C526.868 430.667 526.317 433.632 526.225 433.997C513.843 437.575 509.009 434.612 508.459 434.062Z" fill="#BDA18D" stroke="#5F473C"/>
<path d="M511.21 431.86C510.66 432.411 510.902 435.518 511.485 435.713C512.311 435.988 514.787 436.263 515.337 435.988C515.888 435.713 516.163 432.686 515.613 432.136C515.178 431.701 511.485 431.585 511.21 431.86Z" fill="#5D7387" stroke="#3C4D5D"/>
<path d="M511.441 432.416C511.043 432.814 511.218 435.062 511.64 435.202C511.897 435.288 512.377 435.374 512.871 435.428L512.791 432.315C512.132 432.293 511.531 432.325 511.441 432.416Z" fill="#879DB3"/>
<path d="M510.099 399.086C510.101 400.489 510.701 402.592 510.931 402.538L512.08 402.266C512.677 401.564 513.332 399.922 513.455 399.134C512.572 398.445 510.85 398.815 510.099 399.086Z" fill="#E81E1E" stroke="#600202"/>
<path d="M513.136 407.922C512.951 406.843 512.25 403.255 512.08 402.266L510.931 402.538C510.228 404.014 508.84 407.403 508.734 410.123C508.734 415.479 508.938 421.212 509.834 423.881C510.931 425.807 512.53 427.566 512.821 428.283C512.871 427.011 514.207 424.676 514.237 423.055C513.136 412.599 513.562 410.398 513.136 407.922Z" fill="#E81E1E" stroke="#600202" stroke-linejoin="round"/>
<path d="M504.882 385.359C504.882 384.698 504.515 383.983 504.331 383.708C504.239 382.699 504.056 380.681 504.881 378.479C506.569 373.98 517.814 371.05 517.814 382.166C518.221 382.094 518.478 382.445 518.639 382.607C518.915 382.882 518.639 386.184 517.814 386.459C517.154 386.679 516.989 386.367 516.989 386.184C516.989 387.193 516.934 389.321 516.713 389.761C516.438 390.311 513.411 394.714 510.66 394.989C508.459 395.209 506.991 394.531 506.532 394.164L505.157 390.036C504.056 386.734 504.882 386.184 504.882 385.359Z" fill="#FFCBA5"/>
<path d="M516.713 383.157C517.167 382.476 517.528 382.217 517.814 382.166M517.392 385.704C517.667 385.52 517.979 384.698 517.539 384.258C517.099 383.818 517.722 383.157 518.089 382.882M517.814 382.166C518.221 382.094 518.478 382.445 518.639 382.607C518.915 382.882 518.639 386.184 517.814 386.459C517.154 386.679 516.989 386.367 516.989 386.184C516.989 387.193 516.934 389.321 516.713 389.761C516.438 390.311 513.411 394.714 510.66 394.989C508.459 395.209 506.991 394.531 506.532 394.164C506.441 393.889 506.037 392.678 505.157 390.036C504.056 386.734 504.882 386.184 504.882 385.359C504.882 384.698 504.515 383.983 504.331 383.708C504.239 382.699 504.056 380.681 504.881 378.479C506.569 373.98 517.814 371.05 517.814 382.166Z" stroke="#A05534" stroke-linecap="round" stroke-linejoin="round"/>
<path d="M507.908 384.533C507.908 384.533 508.291 385.479 508.183 385.909C507.908 387.009 507.633 388.66 507.633 388.66C507.725 388.844 508.238 389.156 509.559 388.936" stroke="#A05534" stroke-linecap="round" stroke-linejoin="round"/>
<path d="M508.459 390.862C509.192 391.045 511.155 390.917 513.136 388.936C512.861 388.844 512.256 388.605 512.036 388.385" stroke="#A05534" stroke-linecap="round" stroke-linejoin="round"/>
<path d="M508.459 392.237C508.826 392.237 509.78 392.237 510.66 392.237" stroke="#A05534" stroke-linecap="round" stroke-linejoin="round"/>
<path d="M509.67 383.56C511.15 383.077 512.036 383.157 513.412 384.533M505.432 384.258C505.982 383.983 507.193 383.708 507.633 384.808" stroke="#36201E" stroke-linecap="round" stroke-linejoin="round"/>
<circle cx="511.898" cy="384.395" r="0.687898" fill="#36201E"/>
<circle cx="506.808" cy="384.533" r="0.550318" fill="#36201E"/>
<path d="M515.613 384.258C515.613 383.818 515.063 382.79 514.787 382.332L517.539 381.231C517.264 381.506 516.713 382.167 516.713 382.607C516.713 383.047 516.713 384.533 516.438 384.808C516.286 384.96 516.108 385.083 515.888 385.083C515.613 385.083 515.613 384.808 515.613 384.258Z" fill="#36201E" stroke="#36201E"/>
<path d="M500.204 381.506C501.084 380.846 502.863 380.13 503.78 379.58C504.881 381.781 514.879 380.314 519.74 379.305C519.74 379.305 520.841 380.13 521.391 380.406C522.1 380.76 522.216 381.231 516.438 382.332C510.66 383.432 506.257 383.432 500.479 382.882C499.521 382.532 499.902 381.733 500.204 381.506Z" fill="#E81E1E" stroke="#600202"/>
<path d="M514.512 371.601C518.474 371.821 519.74 376.278 519.465 379.305C508.431 381.735 504.454 380.501 503.845 379.58C503.663 377.405 504.271 372.81 508.11 371.64L508.187 371.659C510.182 369.682 513.347 370.436 514.512 371.601Z" fill="#E81E1E"/>
<path d="M514.512 371.601C518.474 371.821 519.74 376.278 519.465 379.305C508.431 381.735 504.454 380.501 503.845 379.58C503.663 377.405 504.271 372.81 508.11 371.64L508.187 371.659M514.512 371.601C511.43 371.38 509.559 374.26 509.009 375.728M514.512 371.601C513.347 370.436 510.182 369.682 508.187 371.659M506.532 375.728C506.727 373.784 507.355 372.484 508.187 371.659" stroke="#600202"/>
<path d="M504.056 379.855C503.781 375.453 510.11 372.976 511.485 380.406C506.863 381.286 504.606 380.406 504.056 379.855Z" stroke="#600202"/>
<path d="M441.151 271.655V365.209L435.373 366.31L233.956 355.854V223.227L238.909 220.2L441.151 271.655Z" fill="#5D7387"/>
<path d="M238.909 220.2V353.928M238.909 220.2L441.151 271.655V365.209M238.909 220.2L233.956 223.227V355.854M238.909 353.928L441.151 365.209M238.909 353.928L233.956 355.854M441.151 365.209L435.373 366.31L233.956 355.854" stroke="#5D7387" stroke-linejoin="round"/>
<path d="M238.909 353.928V220.2L441.151 271.655V365.209L238.909 353.928Z" fill="url(#paint10_linear)" stroke="#5D7387" stroke-linejoin="round"/>
<path d="M238.909 353.928V220.2L233.956 223.227V355.854L238.909 353.928Z" fill="#B4C7D8" stroke="#5D7387" stroke-linejoin="round"/>
<path d="M338.241 360.399V378.142H335.215H333.564V360.807L335.215 360.256L338.241 360.399Z" fill="#5D7387"/>
<path d="M335.215 360.256L338.241 360.399V378.142H335.215M335.215 360.256V378.142M335.215 360.256L333.564 360.807V378.142H335.215" stroke="#3C4D5D" stroke-linejoin="round"/>
<path d="M338.241 360.399V378.142H335.215V360.256L338.241 360.399Z" fill="#B4C7D8" stroke="#3C4D5D" stroke-linejoin="round"/>
<path d="M373.186 362.183V378.967H370.338H368.784V362.572L370.338 362.047L373.186 362.183Z" fill="#5D7387"/>
<path d="M370.338 362.047L373.186 362.183V378.967H370.338M370.338 362.047V378.967M370.338 362.047L368.784 362.572V378.967H370.338" stroke="#3C4D5D" stroke-linejoin="round"/>
<path d="M373.186 362.183V378.967H370.338V362.047L373.186 362.183Z" fill="#B4C7D8" stroke="#3C4D5D" stroke-linejoin="round"/>
<path d="M334.939 381.719H332.463L304.947 412.292V414.599V417.616L337.691 381.719H334.939Z" fill="#5D7387"/>
<path d="M334.939 381.719H332.463L304.947 412.292V414.599M334.939 381.719H337.691L304.947 417.616V414.599M334.939 381.719L304.947 414.599" stroke="#3C4D5D" stroke-linejoin="round"/>
<path d="M337.691 381.719H334.939L304.947 414.599V417.616L337.691 381.719Z" fill="#B4C7D8" stroke="#3C4D5D" stroke-linejoin="round"/>
<path d="M410.058 382.819H407.581L400.702 395.381V399.319V403.932L412.495 382.819H410.058Z" fill="#5D7387"/>
<path d="M410.058 382.819H407.581L400.702 395.381V399.319M410.058 382.819H412.495L400.702 403.932V399.319M410.058 382.819L400.702 399.319" stroke="#3C4D5D" stroke-linejoin="round"/>
<path d="M412.495 382.819H410.058L400.703 399.319V403.932L412.495 382.819Z" fill="#B4C7D8" stroke="#3C4D5D" stroke-linejoin="round"/>
<path d="M415.561 379.518L223.5 377.591V375.115L232.168 370.701L426.292 375.39V376.587L415.561 379.518Z" fill="#3C4D5D"/>
<path d="M223.5 377.591L415.561 379.518L426.292 376.587M223.5 377.591V375.115L232.168 370.701M223.5 377.591L232.168 373.338M232.168 370.701V373.338M232.168 370.701L426.292 375.39V376.587M232.168 373.338L426.292 376.587" stroke="#3C4D5D" stroke-linejoin="round"/>
<path d="M223.5 375.115V377.591L232.168 373.338V370.701L223.5 375.115Z" fill="#5D7387" stroke="#3C4D5D" stroke-linejoin="round"/>
<path d="M232.167 373.338V370.701L426.292 375.39V376.587L232.167 373.338Z" fill="#B4C7D8" stroke="#3C4D5D" stroke-linejoin="round"/>
<path d="M400.978 389.423V437.026L397.676 437.436V436.475V389.423L394.649 383.92V363.283L397.676 363.416V383.92L400.978 389.423Z" fill="#B4C7D8"/>
<path d="M305.222 448.931L300.545 449.683V448.307V389.423L298.618 382.544V358.055L303.021 358.33V382.544L305.222 389.423V448.931Z" fill="#B4C7D8"/>
<path d="M400.978 389.423V437.026L397.676 437.436V436.475M400.978 389.423H397.676M400.978 389.423L397.676 383.92V363.416L394.649 363.283V383.92L397.676 389.423M300.545 389.423H305.222M300.545 389.423V448.307V449.683L305.222 448.931V389.423M300.545 389.423L298.618 382.544M305.222 389.423L303.021 382.544M397.676 389.423V436.475M388.045 435.375L391.072 435.1L397.676 436.475M298.618 382.544V358.055L303.021 358.33V382.544M298.618 382.544H303.021" stroke="#3C4D5D"/>
<path d="M388.045 435.375V389.423L392.448 383.92V363.558L394.649 363.283V383.92L397.676 389.423V436.475L391.072 435.1L388.045 435.375Z" fill="#5D7387"/>
<path d="M289.813 447.757V389.423L294.491 382.544V358.605L298.618 358.055V382.544L300.544 389.423V448.307L294.491 447.482L289.813 447.757Z" fill="#5D7387"/>
<path d="M397.676 389.423V436.475L391.072 435.1M397.676 389.423H391.072M397.676 389.423L394.649 383.92M388.045 389.423V435.375L391.072 435.1M388.045 389.423H391.072M388.045 389.423L392.448 383.92V363.558L394.649 363.283V383.92M289.813 389.423V447.757L294.491 447.482M289.813 389.423L294.491 382.544V358.605L298.618 358.055V382.544M289.813 389.423H294.491M298.618 382.544L300.544 389.423V448.307L294.491 447.482M298.618 382.544L294.491 389.423M294.491 447.482V389.423M391.072 435.1V389.423M391.072 389.423L394.649 383.92" stroke="#3C4D5D"/>
<path d="M294.491 389.423V447.482L300.544 448.307V389.423L298.618 382.544L294.491 389.423Z" fill="#3C4D5D"/>
<path d="M397.676 436.475V389.423L394.649 383.92L391.072 389.423V435.1L397.676 436.475Z" fill="#3C4D5D"/>
<path d="M294.491 389.423V447.482L300.544 448.307V389.423L298.618 382.544L294.491 389.423Z" stroke="#3C4D5D"/>
<path d="M397.676 436.475V389.423L394.649 383.92L391.072 389.423V435.1L397.676 436.475Z" stroke="#3C4D5D"/>
<path d="M296.142 421.892L258.996 381.168H261.747H264.224L298.894 419.691V421.892H296.142Z" fill="#5D7387"/>
<path d="M298.894 421.892H296.142L258.996 381.168H261.747M298.894 421.892L261.747 381.168M298.894 421.892V419.691L264.224 381.168H261.747" stroke="#3C4D5D" stroke-linejoin="round"/>
<path d="M261.747 381.168L298.894 421.892V419.691L264.224 381.168H261.747Z" fill="#B4C7D8" stroke="#3C4D5D" stroke-linejoin="round"/>
<path d="M392.448 413.637L368.784 382.269H371.536H374.012L395.199 410.886V413.637H392.448Z" fill="#5D7387"/>
<path d="M395.199 413.637H392.448L368.784 382.269H371.536M395.199 413.637L371.536 382.269M395.199 413.637V410.886L374.012 382.269H371.536" stroke="#3C4D5D" stroke-linejoin="round"/>
<path d="M371.536 382.269L395.199 413.637V410.886L374.012 382.269H371.536Z" fill="#B4C7D8" stroke="#3C4D5D" stroke-linejoin="round"/>
<path d="M412.534 364.384V382.819L397.676 382.63V379.095L408.682 379.242V364.384L409.783 364.232L412.534 364.384Z" fill="#5D7387"/>
<path d="M265.324 356.129V377.316L297.518 377.749V381.35L261.747 380.893H258.996V356.129L261.747 355.854L265.324 356.129Z" fill="#5D7387"/>
<path d="M303.021 381.421V377.823L393.824 379.043V382.58L303.021 381.421Z" fill="#5D7387"/>
<path d="M261.747 355.854V380.893M261.747 355.854L265.324 356.129V377.316L297.518 377.749V381.35L261.747 380.893M261.747 355.854L258.996 356.129V380.893H261.747M409.783 364.232L412.534 364.384V382.819L397.676 382.63V379.095L408.682 379.242M409.783 364.232V379.242H408.682M409.783 364.232L408.682 364.384V379.242M303.021 377.823V381.421L393.824 382.58V379.043L303.021 377.823Z" stroke="#3C4D5D" stroke-linejoin="round"/>
<path d="M261.747 380.893V355.854L265.324 356.129V377.316L297.518 377.749V381.35L261.747 380.893Z" fill="#B4C7D8"/>
<path d="M412.535 364.384V382.819L397.676 382.63V379.095L408.682 379.242H409.783V364.232L412.535 364.384Z" fill="#B4C7D8"/>
<path d="M303.021 381.421V377.823L393.824 379.043V382.58L303.021 381.421Z" fill="#B4C7D8"/>
<path d="M261.747 380.893V355.854L265.324 356.129V377.316L297.518 377.749V381.35L261.747 380.893Z" stroke="#3C4D5D" stroke-linejoin="round"/>
<path d="M412.535 364.384V382.819L397.676 382.63V379.095L408.682 379.242H409.783V364.232L412.535 364.384Z" stroke="#3C4D5D" stroke-linejoin="round"/>
<path d="M303.021 381.421V377.823L393.824 379.043V382.58L303.021 381.421Z" stroke="#3C4D5D" stroke-linejoin="round"/>
<path d="M253.217 359.981L449.131 368.511V370.162L431.106 373.966L240.835 369.084V366.287L253.217 359.981Z" fill="#3C4D5D"/>
<path d="M253.217 359.981L449.131 368.511V370.162M253.217 359.981V363.008M253.217 359.981L240.835 366.287V369.084M253.217 363.008L449.131 370.162M253.217 363.008L240.835 369.084M449.131 370.162L431.106 373.966L240.835 369.084" stroke="#3C4D5D" stroke-linejoin="round"/>
<path d="M253.217 359.981L449.131 368.511V370.162L253.217 363.008L240.835 369.084V366.287L253.217 359.981Z" fill="#5D7387"/>
<path d="M253.217 359.981L449.131 368.511V370.162L253.217 363.008M253.217 359.981V363.008M253.217 359.981L240.835 366.287V369.084L253.217 363.008" stroke="#3C4D5D" stroke-linejoin="round"/>
<path d="M449.131 368.511L253.217 359.981V363.008L449.131 370.162V368.511Z" fill="#B4C7D8" stroke="#3C4D5D" stroke-linejoin="round"/>
<path d="M247.439 222.402L354.751 166.269M355.851 169.021L280.458 230.932M400.427 261.749L359.704 169.571H357.778M436.748 270.83L361.079 168.746H358.053" stroke="#334555"/>
<path d="M239.184 262.3C237.109 263.371 236.983 262.85 233.956 262.85C231.755 260.098 232.305 254.32 233.956 252.669L238.909 251.018L269.176 227.905C276.606 227.079 281.558 231.482 279.082 230.106C276.606 228.73 247.714 257.897 239.184 262.3Z" fill="#E81E1E" stroke="#600202"/>
<path d="M239.184 262.3C237.109 263.371 236.983 262.85 233.956 262.85C231.755 260.098 232.305 254.32 233.956 252.669L238.909 251.018C238.379 253.773 237.692 259.885 239.184 262.3Z" fill="#B21313" stroke="#600202"/>
<path d="M238.909 324.062C236.834 322.991 236.157 323.11 233.956 324.062C231.755 326.814 232.305 332.592 233.956 334.243L238.909 333.841L269.452 358.055C273.854 359.156 278.807 358.479 278.807 358.055C278.807 355.222 247.439 328.464 238.909 324.062Z" fill="#E81E1E" stroke="#600202"/>
<path d="M238.909 324.062C236.834 322.991 236.157 323.11 233.956 324.062C231.755 326.813 232.305 332.592 233.956 334.243L238.909 333.841C237.119 328.173 238.163 324.96 238.909 324.062Z" fill="#B21313" stroke="#600202"/>
<path d="M440.876 305.775C442.199 307.698 439.55 307.426 442.527 307.976C445.191 305.671 443.077 302.473 443.077 299.446C443.077 296.419 438.246 291.742 438.246 291.742L413.36 263.951C407.306 259.548 397.307 260.461 399.986 261.382C403.454 262.575 437.195 300.424 440.876 305.775Z" fill="#E81E1E" stroke="#600202"/>
<path d="M441.425 305.715C442.432 307.321 440.564 307.094 442.334 307.438C443.105 306.771 443.214 306.256 443.352 305.465L403.864 261.232C400.784 260.976 399.88 261.076 401.228 261.638C404.27 262.905 437.161 298.912 441.425 305.715Z" fill="#B21313"/>
<path d="M440.877 343.903C442.2 341.979 439.552 342.252 442.528 341.702C445.193 344.007 443.078 347.205 443.078 350.232C443.078 353.258 438.247 357.936 438.247 357.936C438.247 357.936 431.52 365.76 427.668 366.31C423.816 366.86 416.459 365.58 419.138 364.659C422.607 363.466 437.196 349.254 440.877 343.903Z" fill="#E81E1E" stroke="#600202"/>
<path d="M441.15 344.407C442.473 342.483 441.07 342.395 442.377 342.259C442.566 342.916 442.918 343.903 442.208 344.821C441.322 345.969 429.605 360.79 424.035 363.794C423.312 364.274 421.183 365.533 419.443 365.102C422.911 363.909 437.469 349.757 441.15 344.407Z" fill="#B21313"/>
<g clip-path="url(#clip0)">
<path d="M284.117 278.463C286.198 278.829 287.693 279.671 288.603 280.989C289.512 282.306 289.977 284.162 289.995 286.558V287.658C290.043 288.969 289.837 290.277 289.39 291.511C289.219 291.961 288.959 292.373 288.626 292.722C288.294 293.071 287.895 293.349 287.452 293.541C288.512 294.171 289.312 295.158 289.709 296.326C290.188 297.68 290.418 299.11 290.386 300.547V303.062C290.386 305.443 289.887 307.211 288.889 308.367C287.882 309.501 286.379 309.963 284.371 309.754L277.981 309.093V277.433L284.117 278.463ZM282.065 295.39V305.037L284.371 305.302C284.647 305.36 284.933 305.344 285.201 305.257C285.47 305.171 285.711 305.015 285.901 304.806C286.258 304.399 286.451 303.623 286.451 302.467V299.754C286.451 298.287 286.245 297.267 285.834 296.695C285.607 296.383 285.312 296.125 284.972 295.942C284.632 295.758 284.256 295.652 283.87 295.633L282.065 295.39ZM282.065 282.606V290.905L283.639 291.131C283.948 291.199 284.27 291.189 284.575 291.104C284.88 291.019 285.159 290.86 285.389 290.641C285.823 290.234 286.044 289.403 286.044 288.154V286.442C286.099 285.57 285.924 284.699 285.537 283.916C285.38 283.648 285.162 283.419 284.902 283.249C284.641 283.079 284.344 282.972 284.035 282.937L282.065 282.606ZM304.892 311.911L301.144 311.52L300.5 305.967L295.85 305.417L295.184 310.893L291.64 310.524L295.592 280.389L301.095 281.324L304.892 311.911ZM296.335 301.345L299.989 301.802L298.167 286.239L296.335 301.345ZM316.625 308.967L319.437 309.286V284.406L322.904 284.984V313.793L306.598 312.104V282.238L310.192 282.843V308.251L313.119 308.587V283.338L316.652 283.933L316.625 308.967ZM335.985 315.163L332.716 314.822L332.166 309.644L328.115 309.17L327.51 314.305L324.428 313.98L327.846 285.848L332.672 286.657L335.985 315.163ZM328.528 305.362L331.709 305.758L330.124 291.224L328.528 305.362ZM346.469 288.946C347.172 289.038 347.845 289.292 348.434 289.687C349.023 290.082 349.512 290.608 349.864 291.224C350.612 292.479 350.965 294.196 350.965 296.386V299.897C350.965 302.099 350.59 303.695 349.864 304.729C349.138 305.764 348.004 306.193 346.469 305.995L345.016 305.813V316.104L341.906 315.78V288.181L346.469 288.946ZM345.016 292.617V301.895L346.469 302.099C346.671 302.143 346.881 302.129 347.076 302.059C347.271 301.989 347.442 301.865 347.569 301.703C347.828 301.378 347.96 300.723 347.96 299.738V295.655C348.015 294.937 347.88 294.218 347.569 293.569C347.449 293.376 347.289 293.211 347.099 293.086C346.909 292.962 346.694 292.88 346.469 292.848L345.016 292.617ZM355.301 301.708L359.297 302.258V306.05L355.301 305.5V313.364L360.315 313.914V317.689L352.34 316.858V289.937L360.315 291.274V295.044L355.301 294.246V301.708ZM365.697 307.872L364.833 310.15V318.157L362.01 317.86V291.56L364.833 292.033V303.425L368.525 292.655L371.211 293.107L367.392 304.047L371.211 318.845L368.399 318.553L365.697 307.872ZM379.9 298.169L376.846 297.68V313.127C376.871 314.176 376.766 315.224 376.532 316.247C376.381 316.92 376.095 317.555 375.69 318.113C375.37 318.512 374.94 318.809 374.452 318.966C373.987 319.114 373.496 319.162 373.01 319.109L372.35 319.038C372.132 319.012 371.916 318.966 371.706 318.9V315.224C371.859 315.267 372.016 315.298 372.174 315.317L372.642 315.367C372.84 315.4 373.043 315.386 373.235 315.324C373.426 315.263 373.6 315.157 373.742 315.015C374.051 314.732 374.205 314.094 374.205 313.1V293.607L382.509 295.005V320.028L379.922 319.753L379.9 298.169ZM392.398 321.063L389.916 320.804L389.487 316.297L386.422 315.956L385.987 320.402L383.643 320.149L386.224 295.633L389.883 296.249L392.398 321.063ZM386.741 312.621L389.151 312.924L387.946 300.294L386.741 312.621ZM398.606 314.751L400.213 297.982L403.443 298.533V322.218L401.253 322.009V304.949L399.635 321.866L397.401 321.586L395.618 304.295V321.398L393.51 321.178V296.86L396.856 297.41L398.606 314.751ZM412.336 323.148L410.135 322.917L409.755 318.647L407.004 318.328L406.58 322.56L404.489 322.345L406.805 299.111L410.107 299.661L412.336 323.148ZM407.257 315.18L409.42 315.449L408.319 303.491L407.257 315.18Z" fill="#334555"/>
</g>
<path d="M575.704 386.672L577.205 366.603C577.622 365.045 579.156 361.929 581.957 361.929H598.217C599.267 361.89 600.858 361.895 602.469 362.021C604.569 362.186 606.703 362.557 607.722 363.304L612.225 366.603C612.892 366.786 614.226 367.703 614.226 369.902V386.672H602.469H575.704Z" fill="#CCDBE9"/>
<path d="M602.469 386.672H614.226C614.226 381.998 614.226 372.101 614.226 369.902C614.226 367.703 612.892 366.786 612.225 366.603C611.474 366.053 609.523 364.624 607.722 363.304C606.703 362.557 604.569 362.186 602.469 362.021M602.469 386.672H575.704L577.205 366.603C577.622 365.045 579.156 361.929 581.957 361.929C584.759 361.929 593.964 361.929 598.217 361.929C599.267 361.89 600.858 361.895 602.469 362.021M602.469 386.672V362.021" stroke="#7E92A4"/>
<path d="M581.957 362.929C579.156 362.929 577.621 366.045 577.204 367.603C578.323 366.723 580.838 364.975 581.957 365.017C583.076 365.058 596.098 365.034 602.469 365.017V363.021C600.858 362.895 599.267 362.89 598.217 362.929H581.957Z" fill="#ECF2F7"/>
<path d="M612.225 366.603L607.722 363.304C606.703 362.557 604.569 362.186 602.469 362.021V386.672H614.226V369.902C614.226 367.703 612.892 366.786 612.225 366.603Z" fill="#7E92A4"/>
<path d="M598.217 361.929C599.267 361.89 600.858 361.895 602.469 362.021M602.469 362.021C604.569 362.186 606.703 362.557 607.722 363.304C609.523 364.624 611.474 366.053 612.225 366.603C612.892 366.786 614.226 367.703 614.226 369.902C614.226 372.101 614.226 381.998 614.226 386.672H602.469V362.021Z" stroke="#7E92A4"/>
<path d="M350.899 165.285L352.825 165.01L354.476 165.285C354.84 168.013 355.804 169.448 356.952 169.999C357.869 169.476 359.759 167.745 359.979 165.01C360.254 161.591 359.704 158.439 352.825 157.739V156.639H356.402C359.979 156.088 365.134 158.565 364.679 165.01C364.579 166.423 364.302 168.193 363.046 169.688C362.606 170.212 362.141 170.651 361.661 171.008C360.499 172.019 358.957 172.681 356.952 172.598C351.669 172.378 350.715 167.853 350.899 165.285Z" fill="url(#paint11_linear)"/>
<path d="M352.825 165.01L350.899 165.285C350.715 167.853 351.669 172.378 356.952 172.598C362.235 172.818 364.305 167.853 364.679 165.01M352.825 165.01C352.825 172.164 359.005 174.499 363.046 169.688C364.302 168.193 364.579 166.423 364.679 165.01M352.825 165.01L354.476 165.285C354.84 168.013 355.804 169.448 356.952 169.999M356.402 156.639C359.979 156.088 365.134 158.565 364.679 165.01M356.402 156.639V157.739M356.402 156.639H352.825V157.739M356.402 157.739C361.63 157.739 363.281 161.708 362.731 165.836C362.362 168.599 359.28 171.116 356.952 169.999M356.402 157.739H352.825M356.952 169.999C357.869 169.476 359.759 167.745 359.979 165.01C360.254 161.591 359.704 158.439 352.825 157.739" stroke="#3C4D5D" stroke-linejoin="round"/>
<path d="M361.661 171.008C357.732 173.933 352.825 171.385 352.825 165.01L354.476 165.285C354.839 168.013 355.804 169.448 356.952 169.999C359.279 171.116 362.362 168.599 362.731 165.836C363.281 161.708 361.63 157.739 356.402 157.739V156.639C359.979 156.088 365.134 158.565 364.679 165.01C364.579 166.423 364.302 168.193 363.046 169.688C362.606 170.212 362.141 170.651 361.661 171.008Z" fill="#EFF4FA"/>
<path d="M356.952 172.598C362.235 172.818 364.305 167.853 364.679 165.01M364.679 165.01C364.579 166.423 364.302 168.193 363.046 169.688C359.005 174.499 352.825 172.164 352.825 165.01L354.476 165.285C354.839 168.013 355.804 169.448 356.952 169.999C359.279 171.116 362.362 168.599 362.731 165.836C363.281 161.708 361.63 157.739 356.402 157.739V156.639C359.979 156.088 365.134 158.565 364.679 165.01Z" stroke="#3C4D5D" stroke-linejoin="round"/>
<path d="M330.487 130.774L337.478 128.166L357.728 156.363H350.023C343.603 151.135 332.578 139.964 329.937 137.102C327.295 134.241 329.203 131.691 330.487 130.774Z" fill="#B21313" stroke="#600202"/>
<path d="M363.231 156.363H356.352L336.54 135.726C332.413 131.324 334.889 127.196 340.393 128.022L379.515 132.425C384.798 132.865 385.569 139.304 381.716 141.505L363.231 156.363Z" fill="#E81E1E" stroke="#600202"/>
<path d="M574.878 418.04L584.509 393.551H592.213L582.858 418.04H574.878Z" fill="#600202"/>
<path d="M627.158 404.832H602.669L600.468 410.886L631.561 410.06L627.158 404.832Z" fill="#B21313" stroke="#600202"/>
<path d="M566.348 403.181L593.039 404.007L590.837 410.06L561.671 408.96L566.348 403.181Z" fill="#E81E1E" stroke="#600202"/>
<path d="M616.716 386.947L648.084 421.342H640.973L615.34 393.551H607.072L597.006 421.342L590.187 421.342L602.032 386.947L616.716 386.947Z" fill="#B21313" stroke="#600202"/>
<path d="M592.764 421.342H586.71L596.616 393.826" stroke="black"/>
<path d="M575.154 393.551L596.616 394.101L586.751 421.336H590.252L601.768 386.947H573.503L544.886 419.691H552.59L575.154 393.551Z" fill="#E81E1E" stroke="#600202" stroke-linejoin="round"/>
<path d="M579.281 378.967L596.066 359.156L579.281 342.371L595.24 326.412L579.281 310.453L595.24 294.493L579.281 278.534L596.066 261.749L579.281 244.965L595.24 229.005" stroke="#600202" stroke-linejoin="bevel"/>
<path d="M614.226 375.941L605.971 359.706L614.226 344.022L605.971 327.237L614.226 311.828L605.971 295.044L614.226 280.735L605.971 263.125L614.226 245.79L605.971 229.831L614.226 221.301L605.971 206.167L614.226 196.537" stroke="#600202"/>
<path d="M579.006 386.947H573.502V190.483L579.006 189.383V386.947Z" fill="#E81E1E" stroke="#600202"/>
<path d="M602.119 184.98L573.502 190.483L591.113 201.214L616.702 195.711L602.119 184.98Z" stroke="black"/>
<path d="M605.971 187.732V386.947H601.981H595.79V186.081L601.981 184.705L605.971 187.732Z" fill="#E81E1E"/>
<path d="M601.981 184.705L605.971 187.732V386.947H601.981M601.981 184.705L595.79 186.081L595.79 386.947H601.981M601.981 184.705V386.947" stroke="#600202" stroke-linejoin="round"/>
<path d="M595.515 130.498L573.778 190.483L579.006 189.383L594.139 144.807L595.515 186.356L602.394 185.255L597.992 130.498H595.515Z" fill="#E81E1E" stroke="#600202"/>
<path d="M605.971 187.732V386.947H601.981V184.705L605.971 187.732Z" fill="#B21313" stroke="#600202"/>
<path d="M427.393 31.9914L598.542 127.747L652.473 219.375" stroke="#334555"/>
<path d="M605.978 187.281L602.401 184.254L597.992 130.498L599.918 131.599L616.703 195.436L613.676 193.235L601.569 145.357L605.978 187.281Z" fill="#B21313" stroke="#600202"/>
<circle cx="597.992" cy="128.022" r="3.62739" fill="#B21313" stroke="#600202"/>
<circle cx="597.152" cy="127.183" r="2.43393" fill="#E81E1E"/>
<path fill-rule="evenodd" clip-rule="evenodd" d="M655.5 232.307H650.272L573.778 190.758L312.376 15.757L354.751 0.898438L617.253 195.986L655.5 232.307ZM329.436 19.6093L357.503 10.8042L593.589 182.228L574.603 185.805L329.436 19.6093ZM617.154 200.596L601.121 202.292L648.332 228.868L617.154 200.596Z" fill="#E81E1E"/>
<path d="M650.272 232.307L650.033 232.747C650.106 232.786 650.189 232.807 650.272 232.807V232.307ZM655.5 232.307V232.807C655.704 232.807 655.888 232.683 655.964 232.493C656.04 232.303 655.993 232.086 655.844 231.945L655.5 232.307ZM573.778 190.758L573.499 191.174C573.512 191.182 573.525 191.19 573.539 191.198L573.778 190.758ZM312.376 15.757L312.211 15.2852C312.032 15.3479 311.904 15.5061 311.88 15.694C311.856 15.8819 311.941 16.0672 312.098 16.1725L312.376 15.757ZM354.751 0.898438L355.049 0.497129C354.916 0.398086 354.742 0.371662 354.585 0.426604L354.751 0.898438ZM617.253 195.986L617.597 195.624C617.583 195.61 617.567 195.597 617.551 195.585L617.253 195.986ZM357.503 10.8042L357.796 10.3996C357.668 10.3066 357.504 10.2798 357.353 10.3271L357.503 10.8042ZM329.436 19.6093L329.287 19.1322C329.104 19.1897 328.97 19.3468 328.942 19.5366C328.914 19.7265 328.997 19.9155 329.156 20.0232L329.436 19.6093ZM593.589 182.228L593.682 182.72C593.878 182.683 594.033 182.533 594.077 182.338C594.121 182.143 594.045 181.941 593.883 181.824L593.589 182.228ZM574.603 185.805L574.323 186.219C574.432 186.293 574.566 186.321 574.696 186.297L574.603 185.805ZM601.121 202.292L601.068 201.795C600.852 201.818 600.675 201.978 600.631 202.191C600.587 202.404 600.686 202.621 600.875 202.728L601.121 202.292ZM617.154 200.596L617.49 200.226C617.385 200.13 617.243 200.084 617.102 200.099L617.154 200.596ZM648.332 228.868L648.087 229.304C648.308 229.429 648.589 229.367 648.737 229.161C648.886 228.954 648.856 228.669 648.668 228.498L648.332 228.868ZM650.272 232.807H655.5V231.807H650.272V232.807ZM573.539 191.198L650.033 232.747L650.511 231.868L574.016 190.319L573.539 191.198ZM312.098 16.1725L573.499 191.174L574.056 190.343L312.654 15.3415L312.098 16.1725ZM354.585 0.426604L312.211 15.2852L312.542 16.2289L354.916 1.37027L354.585 0.426604ZM617.551 195.585L355.049 0.497129L354.453 1.29975L616.955 196.388L617.551 195.585ZM655.844 231.945L617.597 195.624L616.908 196.349L655.156 232.67L655.844 231.945ZM357.353 10.3271L329.287 19.1322L329.586 20.0864L357.652 11.2813L357.353 10.3271ZM593.883 181.824L357.796 10.3996L357.209 11.2088L593.296 182.633L593.883 181.824ZM574.696 186.297L593.682 182.72L593.497 181.737L574.511 185.314L574.696 186.297ZM329.156 20.0232L574.323 186.219L574.884 185.392L329.717 19.1954L329.156 20.0232ZM601.173 202.79L617.207 201.094L617.102 200.099L601.068 201.795L601.173 202.79ZM648.577 228.433L601.366 201.857L600.875 202.728L648.087 229.304L648.577 228.433ZM616.818 200.967L647.996 229.239L648.668 228.498L617.49 200.226L616.818 200.967Z" fill="#600202"/>
<path fill-rule="evenodd" clip-rule="evenodd" d="M354.751 0.898438L617.253 195.986L655.5 232.307V222.402L611.474 175.625L388.045 0.898438H354.751ZM386.119 6.67676L612.575 180.577L653.849 223.227V228.455L615.877 191.309L370.985 6.67676H386.119Z" fill="#B21313"/>
<path d="M617.253 195.986L617.597 195.624C617.583 195.61 617.567 195.597 617.551 195.585L617.253 195.986ZM354.751 0.898438V0.398438C354.535 0.398438 354.344 0.53666 354.276 0.741362C354.208 0.946063 354.28 1.17113 354.453 1.29975L354.751 0.898438ZM655.5 232.307L655.156 232.67C655.301 232.808 655.514 232.846 655.697 232.767C655.881 232.688 656 232.507 656 232.307H655.5ZM655.5 222.402H656C656 222.274 655.951 222.152 655.864 222.059L655.5 222.402ZM611.474 175.625L611.839 175.282C611.821 175.263 611.802 175.246 611.782 175.231L611.474 175.625ZM388.045 0.898438L388.353 0.504572C388.265 0.4358 388.157 0.398438 388.045 0.398438V0.898438ZM612.575 180.577L612.935 180.23C612.918 180.212 612.899 180.196 612.88 180.181L612.575 180.577ZM386.119 6.67676L386.424 6.2802C386.336 6.21312 386.229 6.17676 386.119 6.17676V6.67676ZM653.849 223.227H654.349C654.349 223.097 654.299 222.973 654.208 222.879L653.849 223.227ZM653.849 228.455L653.5 228.813C653.643 228.953 653.858 228.994 654.043 228.916C654.229 228.838 654.349 228.656 654.349 228.455H653.849ZM615.877 191.309L616.227 190.951C616.212 190.936 616.195 190.922 616.178 190.909L615.877 191.309ZM370.985 6.67676V6.17676C370.77 6.17676 370.58 6.31418 370.511 6.51805C370.443 6.72191 370.513 6.94658 370.684 7.076L370.985 6.67676ZM617.551 195.585L355.049 0.497129L354.453 1.29975L616.955 196.388L617.551 195.585ZM655.844 231.945L617.597 195.624L616.908 196.349L655.156 232.67L655.844 231.945ZM655 222.402V232.307H656V222.402H655ZM611.11 175.967L655.136 222.744L655.864 222.059L611.839 175.282L611.11 175.967ZM387.737 1.2923L611.166 176.018L611.782 175.231L388.353 0.504572L387.737 1.2923ZM354.751 1.39844H388.045V0.398438H354.751V1.39844ZM612.88 180.181L386.424 6.2802L385.815 7.07332L612.271 180.974L612.88 180.181ZM654.208 222.879L612.935 180.23L612.216 180.925L653.49 223.575L654.208 222.879ZM654.349 228.455V223.227H653.349V228.455H654.349ZM615.528 191.666L653.5 228.813L654.199 228.098L616.227 190.951L615.528 191.666ZM370.684 7.076L615.576 191.708L616.178 190.909L371.286 6.27751L370.684 7.076ZM386.119 6.17676H370.985V7.17676H386.119V6.17676ZM617.734 195.85L616.425 191.237L615.463 191.51L616.772 196.123L617.734 195.85ZM613.487 180.886L611.955 175.488L610.993 175.761L612.525 181.159L613.487 180.886Z" fill="#600202"/>
<path d="M357.503 10.8041L329.436 19.6092L574.603 185.805L593.589 182.228L357.503 10.8041Z" stroke="#600202"/>
<path d="M612.575 180.577L386.119 6.67676H370.985L615.877 191.309L653.849 228.455V223.227L612.575 180.577Z" stroke="#600202"/>
<path d="M355.576 129.948V28.6895M360.529 28.6895V129.948" stroke="#334555"/>
<path d="M341.818 28.1392L369.61 19.6093M362.731 42.1723L389.421 34.1927M380.066 54.0042L406.206 46.2997M399.327 66.9367L424.641 59.5074M417.487 79.594L442.252 72.1647M434.547 90.8755L458.211 83.9965M453.533 103.808L476.371 97.2042M474.996 118.391L496.458 111.788M497.008 133.25L517.92 127.197M518.746 148.109L538.557 142.33M539.383 162.142L558.094 156.363M559.194 175.349L576.804 170.121M612.025 211.67L629.36 207.543M625.508 218.825L639.266 216.898M637.615 225.428L647.796 224.878M386.394 18.2335V6.67678M401.253 29.7902V18.2335M415.836 40.5214V29.2398M430.42 51.5277V40.5214M445.003 62.5341V51.5277M461.788 75.1914V64.7354M476.647 86.7481V76.2921M496.458 101.607V91.4258M518.196 117.841V107.66M541.034 135.176V125.27M561.396 150.31V140.954M580.657 164.893V155.813M629.36 204.791V197.637M640.091 214.972V208.644M648.346 222.952V217.449" stroke="#600202"/>
<path d="M616.427 386.672H613.676V193.235L616.427 195.711V386.672Z" fill="#B21313" stroke="#600202"/>
<path d="M355.576 17.0825H355.645L355.71 17.0643L360.055 15.8574L360.56 28.49L355.565 28.7398C354.746 28.7346 353.924 28.1848 353.28 27.1263C352.638 26.0715 352.224 24.5825 352.224 22.9112C352.224 21.2399 352.638 19.7509 353.28 18.6961C353.927 17.6325 354.754 17.0825 355.576 17.0825Z" fill="#E81E1E" stroke="#600202"/>
<path d="M363.881 22.0857C363.881 23.9951 363.464 25.6989 362.813 26.9074C362.151 28.1363 361.321 28.7399 360.529 28.7399C359.737 28.7399 358.907 28.1363 358.245 26.9074C357.595 25.6989 357.177 23.9951 357.177 22.0857C357.177 20.1763 357.595 18.4725 358.245 17.264C358.907 16.0352 359.737 15.4316 360.529 15.4316C361.272 15.4316 362.047 15.9603 362.69 17.0472C363.325 18.1198 363.768 19.6452 363.863 21.3889C363.875 21.6179 363.881 21.8504 363.881 22.0857Z" fill="#B21313" stroke="#600202" stroke-linecap="round"/>
<path d="M592.742 232.858L561.723 233.626L573.476 237.26L605.58 237.502L592.742 232.858Z" fill="#600202" stroke="#600202"/>
<path d="M592.742 208.369L562.028 211.462C562.708 203.324 566.113 196.72 568.644 192.134L594.797 187.732L605.338 194.886V214.972L592.742 208.369Z" fill="#D9F7FE"/>
<path d="M592.742 208.369L562.028 211.462C562.708 203.324 566.113 196.72 568.644 192.134L594.797 187.732M592.742 208.369L605.338 214.972V194.886L594.797 187.732M592.742 208.369C592.669 203.715 593.021 194.001 594.797 187.732" stroke="#31689A"/>
<path d="M594.622 188.209L568.98 192.611C567.765 194.813 563.693 203.486 562.68 209.562L593.324 194.884C593.642 191.703 593.885 190.811 594.622 188.209Z" fill="url(#paint12_linear)"/>
<path d="M592.742 208.369L605.338 214.972V194.886L594.797 187.732C593.021 194.001 592.669 203.715 592.742 208.369Z" fill="#99D8E7" stroke="#31689A" stroke-linejoin="round"/>
<path d="M569.948 189.933L595.781 184.98L594.862 187.676L568.678 192.073C569.147 191.227 569.579 190.506 569.948 189.933Z" fill="#E81E1E"/>
<path d="M595.781 184.98L569.948 189.933M595.781 184.98C595.393 185.824 595.163 186.591 594.862 187.676M595.781 184.98L594.862 187.676M569.948 189.933C569.579 190.506 569.147 191.227 568.678 192.073M569.948 189.933L568.678 192.073M568.678 192.073L594.862 187.676" stroke="#600202" stroke-linejoin="round"/>
<path d="M605.971 192.684L595.781 184.98C595.413 185.781 595.086 186.711 594.797 187.732L605.971 195.312V192.684Z" fill="#B21313" stroke="#600202" stroke-linejoin="round"/>
<path d="M561.843 233.692C561.505 230.39 560.692 220.003 562.192 210.503L592.742 208.369V232.858L561.843 233.692Z" fill="url(#paint13_linear)" stroke="#600202" stroke-linejoin="round"/>
<path d="M592.742 208.369V232.858L605.338 237.26V214.972L592.742 208.369Z" fill="#B21313" stroke="#600202" stroke-linejoin="round"/>
<defs>
<linearGradient id="paint0_linear" x1="441.5" y1="90.3984" x2="441.5" y2="417.898" gradientUnits="userSpaceOnUse">
<stop stop-color="#F0F3F9"/>
<stop offset="1" stop-color="#F7F9FD"/>
</linearGradient>
<linearGradient id="paint1_linear" x1="476.399" y1="497.893" x2="544.245" y2="478.921" gradientUnits="userSpaceOnUse">
<stop stop-color="#CFD9E4"/>
<stop offset="1" stop-color="#E2EAF4" stop-opacity="0.8"/>
</linearGradient>
<linearGradient id="paint2_linear" x1="505.707" y1="499.413" x2="570.336" y2="475.967" gradientUnits="userSpaceOnUse">
<stop stop-color="#CFD9E4"/>
<stop offset="1" stop-color="#E2EAF4" stop-opacity="0.37"/>
</linearGradient>
<linearGradient id="paint3_linear" x1="267.233" y1="447.908" x2="452.943" y2="444.898" gradientUnits="userSpaceOnUse">
<stop stop-color="#CFD9E4" stop-opacity="0.8"/>
<stop offset="1" stop-color="#E2EAF4" stop-opacity="0.51"/>
</linearGradient>
<linearGradient id="paint4_linear" x1="293.063" y1="447.5" x2="335.575" y2="444.852" gradientUnits="userSpaceOnUse">
<stop stop-color="#A0ADBD"/>
<stop offset="1" stop-color="#C0CDDC" stop-opacity="0"/>
</linearGradient>
<linearGradient id="paint5_linear" x1="390.199" y1="436.709" x2="437.064" y2="434.571" gradientUnits="userSpaceOnUse">
<stop stop-color="#A0ADBD"/>
<stop offset="1" stop-color="#C0CDDC" stop-opacity="0"/>
</linearGradient>
<linearGradient id="paint6_linear" x1="481.06" y1="449.195" x2="481.06" y2="488.127" gradientUnits="userSpaceOnUse">
<stop stop-color="#3C4D5D" stop-opacity="0"/>
<stop offset="1" stop-color="#3C4D5D"/>
</linearGradient>
<linearGradient id="paint7_linear" x1="473.989" y1="431.972" x2="473.989" y2="448.142" gradientUnits="userSpaceOnUse">
<stop stop-color="white"/>
<stop offset="1" stop-color="white" stop-opacity="0"/>
</linearGradient>
<linearGradient id="paint8_linear" x1="518.794" y1="437.364" x2="518.794" y2="491.524" gradientUnits="userSpaceOnUse">
<stop stop-color="#3C4D5D" stop-opacity="0"/>
<stop offset="1" stop-color="#3C4D5D"/>
</linearGradient>
<linearGradient id="paint9_linear" x1="518.794" y1="437.364" x2="518.794" y2="491.524" gradientUnits="userSpaceOnUse">
<stop stop-color="#3C4D5D" stop-opacity="0"/>
<stop offset="1" stop-color="#3C4D5D"/>
</linearGradient>
<linearGradient id="paint10_linear" x1="391.59" y1="248.629" x2="445.903" y2="365.209" gradientUnits="userSpaceOnUse">
<stop stop-color="white"/>
<stop offset="1" stop-color="#F1F4FA"/>
</linearGradient>
<linearGradient id="paint11_linear" x1="357.793" y1="156.564" x2="357.793" y2="172.605" gradientUnits="userSpaceOnUse">
<stop stop-color="#3C4D5D"/>
<stop offset="1" stop-color="#7E92A4"/>
</linearGradient>
<linearGradient id="paint12_linear" x1="591.089" y1="189.217" x2="559.544" y2="210.985" gradientUnits="userSpaceOnUse">
<stop stop-color="white"/>
<stop offset="1" stop-color="white" stop-opacity="0.2"/>
</linearGradient>
<linearGradient id="paint13_linear" x1="562.703" y1="212.339" x2="577.069" y2="235.059" gradientUnits="userSpaceOnUse">
<stop stop-color="#F48484"/>
<stop offset="1" stop-color="#E81E1E"/>
</linearGradient>
<clipPath id="clip0">
<rect x="277.981" y="277.433" width="134.355" height="45.715" fill="white"/>
</clipPath>
</defs>
</svg>
