<svg width="834" height="192" viewBox="0 0 834 192" fill="none" xmlns="http://www.w3.org/2000/svg">
<g opacity="0.5">
<rect x="571.979" y="21.9794" width="261.041" height="148.041" rx="16.6503" fill="white" stroke="#CFD6E6" stroke-width="1.95886"/>
<rect x="598.593" y="50.1581" width="207.815" height="37.178" rx="3.61164" fill="white" stroke="#CFD6E6" stroke-width="1.95886"/>
<path d="M618.143 71.7024H614.886V64.5572H618.068C618.682 64.5572 619.168 64.725 619.525 65.0606C619.889 65.3963 620.071 65.8355 620.071 66.3783C620.071 66.8068 619.95 67.171 619.707 67.471C619.464 67.7638 619.168 67.9459 618.818 68.0173C619.196 68.0744 619.521 68.2744 619.793 68.6172C620.071 68.96 620.21 69.3456 620.21 69.7741C620.21 70.3526 620.025 70.8204 619.653 71.1775C619.289 71.5274 618.786 71.7024 618.143 71.7024ZM617.918 67.6531C618.311 67.6531 618.614 67.5459 618.829 67.3317C619.043 67.1174 619.15 66.8425 619.15 66.5068C619.15 66.1712 619.039 65.8962 618.818 65.682C618.604 65.4606 618.304 65.3499 617.918 65.3499H615.775V67.6531H617.918ZM617.961 70.9097C618.375 70.9097 618.7 70.799 618.936 70.5776C619.171 70.3562 619.289 70.0562 619.289 69.6777C619.289 69.3278 619.171 69.035 618.936 68.7993C618.707 68.5636 618.382 68.4458 617.961 68.4458H615.775V70.9097H617.961ZM624.494 71.7024H621.591V66.5283H624.441C624.891 66.5283 625.244 66.6497 625.501 66.8925C625.766 67.1353 625.898 67.4567 625.898 67.8566C625.898 68.1494 625.816 68.4029 625.651 68.6172C625.494 68.8243 625.298 68.9636 625.062 69.035C625.326 69.0993 625.548 69.2528 625.726 69.4956C625.912 69.7384 626.005 70.0062 626.005 70.2991C626.005 70.7204 625.869 71.0596 625.598 71.3167C625.334 71.5738 624.966 71.7024 624.494 71.7024ZM624.334 70.9954C624.591 70.9954 624.794 70.924 624.944 70.7811C625.094 70.6383 625.169 70.4455 625.169 70.2026C625.169 69.9813 625.094 69.792 624.944 69.6349C624.794 69.4778 624.591 69.3992 624.334 69.3992H622.395V70.9954H624.334ZM624.302 68.6922C624.544 68.6922 624.734 68.6279 624.869 68.4994C625.005 68.3637 625.073 68.1887 625.073 67.9744C625.073 67.7459 625.005 67.5674 624.869 67.4388C624.734 67.3031 624.544 67.2353 624.302 67.2353H622.395V68.6922H624.302ZM629.858 71.8309C629.087 71.8309 628.455 71.581 627.962 71.0811C627.469 70.574 627.223 69.917 627.223 69.11C627.223 68.353 627.466 67.7138 627.952 67.1924C628.437 66.6639 629.044 66.3997 629.773 66.3997C630.537 66.3997 631.14 66.6639 631.583 67.1924C632.033 67.7138 632.258 68.3744 632.258 69.1742V69.3778H628.069C628.105 69.8848 628.291 70.3098 628.626 70.6526C628.962 70.9954 629.398 71.1668 629.933 71.1668C630.576 71.1668 631.108 70.9489 631.529 70.5133L631.915 71.0382C631.387 71.5667 630.701 71.8309 629.858 71.8309ZM631.465 68.7886C631.458 68.3458 631.308 67.9494 631.015 67.5995C630.722 67.2424 630.305 67.0639 629.762 67.0639C629.248 67.0639 628.841 67.2389 628.541 67.5888C628.248 67.9387 628.091 68.3387 628.069 68.7886H631.465ZM632.949 73.02V71.0382C633.213 70.9882 633.42 70.8311 633.57 70.5669C633.72 70.2955 633.841 69.7991 633.934 69.0778L634.266 66.5283H637.866V70.9954H638.466V73.02H637.662V71.7024H633.752V73.02H632.949ZM634.973 67.2353L634.738 69.1742C634.616 70.0812 634.366 70.6883 633.988 70.9954H637.062V67.2353H634.973ZM640.335 71.7024H639.564V66.5283H640.368V70.4812L643.078 66.5283H643.871V71.7024H643.067V67.6745L640.335 71.7024ZM647.221 71.7024H646.418V67.2353H644.918V66.5283H648.731V67.2353H647.221V71.7024ZM652.12 71.8309C651.349 71.8309 650.717 71.581 650.224 71.0811C649.731 70.574 649.485 69.917 649.485 69.11C649.485 68.353 649.728 67.7138 650.213 67.1924C650.699 66.6639 651.306 66.3997 652.035 66.3997C652.799 66.3997 653.402 66.6639 653.845 67.1924C654.295 67.7138 654.52 68.3744 654.52 69.1742V69.3778H650.331C650.367 69.8848 650.553 70.3098 650.888 70.6526C651.224 70.9954 651.66 71.1668 652.195 71.1668C652.838 71.1668 653.37 70.9489 653.791 70.5133L654.177 71.0382C653.649 71.5667 652.963 71.8309 652.12 71.8309ZM653.727 68.7886C653.72 68.3458 653.57 67.9494 653.277 67.5995C652.984 67.2424 652.567 67.0639 652.024 67.0639C651.51 67.0639 651.103 67.2389 650.803 67.5888C650.51 67.9387 650.353 68.3387 650.331 68.7886H653.727ZM661.486 71.7024H658.583V66.5283H661.433C661.882 66.5283 662.236 66.6497 662.493 66.8925C662.757 67.1353 662.889 67.4567 662.889 67.8566C662.889 68.1494 662.807 68.4029 662.643 68.6172C662.486 68.8243 662.29 68.9636 662.054 69.035C662.318 69.0993 662.539 69.2528 662.718 69.4956C662.904 69.7384 662.997 70.0062 662.997 70.2991C662.997 70.7204 662.861 71.0596 662.589 71.3167C662.325 71.5738 661.957 71.7024 661.486 71.7024ZM661.325 70.9954C661.582 70.9954 661.786 70.924 661.936 70.7811C662.086 70.6383 662.161 70.4455 662.161 70.2026C662.161 69.9813 662.086 69.792 661.936 69.6349C661.786 69.4778 661.582 69.3992 661.325 69.3992H659.386V70.9954H661.325ZM661.293 68.6922C661.536 68.6922 661.725 68.6279 661.861 68.4994C661.997 68.3637 662.065 68.1887 662.065 67.9744C662.065 67.7459 661.997 67.5674 661.861 67.4388C661.725 67.3031 661.536 67.2353 661.293 67.2353H659.386V68.6922H661.293ZM668.553 71.7024H667.75V71.1132C667.314 71.5917 666.743 71.8309 666.036 71.8309C665.557 71.8309 665.136 71.6774 664.772 71.3703C664.407 71.0632 664.225 70.6454 664.225 70.1169C664.225 69.5742 664.404 69.1564 664.761 68.8636C665.125 68.5636 665.55 68.4137 666.036 68.4137C666.771 68.4137 667.343 68.6493 667.75 69.1207V68.1887C667.75 67.8459 667.628 67.5781 667.386 67.3853C667.143 67.1924 666.829 67.096 666.443 67.096C665.836 67.096 665.307 67.3353 664.857 67.8138L664.482 67.2567C665.032 66.6854 665.722 66.3997 666.55 66.3997C667.143 66.3997 667.625 66.5425 667.996 66.8282C668.368 67.1139 668.553 67.5531 668.553 68.1458V71.7024ZM666.325 71.2525C666.968 71.2525 667.443 71.0382 667.75 70.6097V69.6349C667.443 69.2064 666.968 68.9921 666.325 68.9921C665.954 68.9921 665.647 69.0993 665.404 69.3135C665.168 69.5206 665.05 69.792 665.05 70.1277C665.05 70.4562 665.168 70.7276 665.404 70.9418C665.647 71.1489 665.954 71.2525 666.325 71.2525ZM676.141 66.5283H676.945V71.7024H670.164V66.5283H670.967V70.9954H673.153V66.5283H673.956V70.9954H676.141V66.5283ZM682.119 71.7024H681.316V66.5283H682.119V68.6815H684.819V66.5283H685.622V71.7024H684.819V69.3885H682.119V71.7024ZM691.34 71.0489C690.876 71.5703 690.258 71.8309 689.487 71.8309C688.715 71.8309 688.094 71.5703 687.623 71.0489C687.159 70.5276 686.926 69.8813 686.926 69.11C686.926 68.3387 687.159 67.6959 687.623 67.1817C688.094 66.6604 688.715 66.3997 689.487 66.3997C690.258 66.3997 690.876 66.6604 691.34 67.1817C691.811 67.6959 692.047 68.3387 692.047 69.11C692.047 69.8813 691.811 70.5276 691.34 71.0489ZM688.223 70.5347C688.537 70.9204 688.958 71.1132 689.487 71.1132C690.015 71.1132 690.433 70.9204 690.74 70.5347C691.047 70.1419 691.201 69.667 691.201 69.11C691.201 68.5529 691.047 68.0816 690.74 67.6959C690.433 67.3103 690.015 67.1174 689.487 67.1174C688.958 67.1174 688.537 67.3138 688.223 67.7066C687.916 68.0923 687.762 68.5601 687.762 69.11C687.762 69.667 687.916 70.1419 688.223 70.5347ZM698.638 71.7024H697.835V67.6424L696.153 71.7024H695.853L694.16 67.6424V71.7024H693.357V66.5283H694.417L696.003 70.3633L697.567 66.5283H698.638V71.7024ZM702.576 71.8309C701.804 71.8309 701.172 71.581 700.68 71.0811C700.187 70.574 699.94 69.917 699.94 69.11C699.94 68.353 700.183 67.7138 700.669 67.1924C701.155 66.6639 701.762 66.3997 702.49 66.3997C703.254 66.3997 703.858 66.6639 704.3 67.1924C704.75 67.7138 704.975 68.3744 704.975 69.1742V69.3778H700.787C700.822 69.8848 701.008 70.3098 701.344 70.6526C701.679 70.9954 702.115 71.1668 702.651 71.1668C703.293 71.1668 703.825 70.9489 704.247 70.5133L704.632 71.0382C704.104 71.5667 703.418 71.8309 702.576 71.8309ZM704.183 68.7886C704.175 68.3458 704.025 67.9494 703.733 67.5995C703.44 67.2424 703.022 67.0639 702.479 67.0639C701.965 67.0639 701.558 67.2389 701.258 67.5888C700.965 67.9387 700.808 68.3387 700.787 68.7886H704.183ZM708.826 71.8309C708.098 71.8309 707.516 71.5274 707.08 70.9204V73.6735H706.277V66.5283H707.08V67.2996C707.273 67.0282 707.523 66.8104 707.83 66.6461C708.137 66.4818 708.469 66.3997 708.826 66.3997C709.512 66.3997 710.065 66.6461 710.487 67.1389C710.915 67.6245 711.129 68.2815 711.129 69.11C711.129 69.9384 710.915 70.599 710.487 71.0918C710.065 71.5846 709.512 71.8309 708.826 71.8309ZM708.623 71.1132C709.13 71.1132 709.533 70.9275 709.833 70.5562C710.133 70.1776 710.283 69.6956 710.283 69.11C710.283 68.5244 710.133 68.0459 709.833 67.6745C709.533 67.3031 709.13 67.1174 708.623 67.1174C708.316 67.1174 708.016 67.1996 707.723 67.3638C707.437 67.5209 707.223 67.7138 707.08 67.9423V70.2776C707.223 70.5133 707.437 70.7133 707.723 70.8775C708.016 71.0346 708.316 71.1132 708.623 71.1132ZM719.722 71.7024H718.693L716.829 69.3778L715.972 70.2241V71.7024H715.169V66.5283H715.972V69.2814L718.693 66.5283H719.711L717.418 68.8743L719.722 71.7024ZM724.71 71.7024H723.907V71.1132C723.471 71.5917 722.9 71.8309 722.193 71.8309C721.714 71.8309 721.293 71.6774 720.929 71.3703C720.564 71.0632 720.382 70.6454 720.382 70.1169C720.382 69.5742 720.561 69.1564 720.918 68.8636C721.282 68.5636 721.707 68.4137 722.193 68.4137C722.928 68.4137 723.5 68.6493 723.907 69.1207V68.1887C723.907 67.8459 723.785 67.5781 723.542 67.3853C723.3 67.1924 722.985 67.096 722.6 67.096C721.993 67.096 721.464 67.3353 721.014 67.8138L720.639 67.2567C721.189 66.6854 721.878 66.3997 722.707 66.3997C723.3 66.3997 723.782 66.5425 724.153 66.8282C724.524 67.1139 724.71 67.5531 724.71 68.1458V71.7024ZM722.482 71.2525C723.125 71.2525 723.6 71.0382 723.907 70.6097V69.6349C723.6 69.2064 723.125 68.9921 722.482 68.9921C722.111 68.9921 721.803 69.0993 721.561 69.3135C721.325 69.5206 721.207 69.792 721.207 70.1277C721.207 70.4562 721.325 70.7276 721.561 70.9418C721.803 71.1489 722.111 71.2525 722.482 71.2525ZM728.87 71.8309C728.142 71.8309 727.56 71.5274 727.124 70.9204V73.6735H726.321V66.5283H727.124V67.2996C727.317 67.0282 727.567 66.8104 727.874 66.6461C728.181 66.4818 728.513 66.3997 728.87 66.3997C729.556 66.3997 730.109 66.6461 730.531 67.1389C730.959 67.6245 731.173 68.2815 731.173 69.11C731.173 69.9384 730.959 70.599 730.531 71.0918C730.109 71.5846 729.556 71.8309 728.87 71.8309ZM728.667 71.1132C729.174 71.1132 729.577 70.9275 729.877 70.5562C730.177 70.1776 730.327 69.6956 730.327 69.11C730.327 68.5244 730.177 68.0459 729.877 67.6745C729.577 67.3031 729.174 67.1174 728.667 67.1174C728.36 67.1174 728.06 67.1996 727.767 67.3638C727.481 67.5209 727.267 67.7138 727.124 67.9423V70.2776C727.267 70.5133 727.481 70.7133 727.767 70.8775C728.06 71.0346 728.36 71.1132 728.667 71.1132ZM734.197 71.7024H733.394V67.2353H731.894V66.5283H735.708V67.2353H734.197V71.7024ZM736.761 66.5283H737.565V68.5315H739.504C740.018 68.5315 740.418 68.685 740.703 68.9921C740.989 69.2921 741.132 69.667 741.132 70.1169C741.132 70.5669 740.986 70.9454 740.693 71.2525C740.407 71.5524 740.011 71.7024 739.504 71.7024H736.761V66.5283ZM739.418 69.2385H737.565V70.9954H739.418C739.704 70.9954 739.921 70.9168 740.071 70.7597C740.228 70.5954 740.307 70.3812 740.307 70.1169C740.307 69.8527 740.228 69.642 740.071 69.4849C739.921 69.3206 739.704 69.2385 739.418 69.2385ZM742.782 71.7024H741.978V66.5283H742.782V71.7024Z" fill="#959FB4"/>
<rect x="597.613" y="103.97" width="209.774" height="39.1369" rx="4.59107" fill="#E81E1E"/>
<path d="M677.081 126.971C676.003 126.971 675.11 126.624 674.403 125.932C673.703 125.232 673.353 124.346 673.353 123.275C673.353 122.204 673.703 121.322 674.403 120.629C675.11 119.929 676.003 119.579 677.081 119.579C678.167 119.579 679.059 119.926 679.759 120.618C680.466 121.311 680.82 122.197 680.82 123.275C680.82 124.353 680.466 125.239 679.759 125.932C679.059 126.624 678.167 126.971 677.081 126.971ZM675.507 124.957C675.906 125.4 676.431 125.621 677.081 125.621C677.731 125.621 678.256 125.4 678.656 124.957C679.056 124.514 679.256 123.953 679.256 123.275C679.256 122.597 679.056 122.036 678.656 121.593C678.256 121.15 677.731 120.929 677.081 120.929C676.431 120.929 675.906 121.15 675.507 121.593C675.114 122.036 674.917 122.597 674.917 123.275C674.917 123.953 675.114 124.514 675.507 124.957ZM688.315 126.842H686.783V121.036H683.409V126.842H681.887V119.697H688.315V126.842ZM689.295 126.971V125.621C689.68 125.621 689.977 125.468 690.184 125.16C690.391 124.846 690.548 124.243 690.655 123.35L691.073 119.697H696.151V126.842H694.619V121.036H692.444L692.165 123.457C692.08 124.178 691.951 124.778 691.78 125.257C691.616 125.728 691.401 126.085 691.137 126.328C690.88 126.571 690.609 126.739 690.323 126.832C690.037 126.924 689.694 126.971 689.295 126.971ZM704.222 126.842H702.486L702.047 125.632H698.983L698.533 126.842H696.798L699.562 119.697H701.469L704.222 126.842ZM701.629 124.293L700.515 121.218L699.401 124.293H701.629ZM707.373 126.842H705.841V121.036H703.752V119.697H709.451V121.036H707.373V126.842ZM711.894 126.842H710.426V119.697H711.947V124.314L715.258 119.697H716.822V126.842H715.3V122.054L711.894 126.842ZM721.412 126.842H719.88V121.036H717.791V119.697H723.49V121.036H721.412V126.842ZM724.465 119.697H725.987V122.236H727.808C728.55 122.236 729.136 122.457 729.565 122.9C729.993 123.343 730.207 123.889 730.207 124.539C730.207 125.196 729.993 125.746 729.565 126.189C729.143 126.624 728.558 126.842 727.808 126.842H724.465V119.697ZM727.604 123.575H725.987V125.503H727.604C727.911 125.503 728.161 125.418 728.354 125.246C728.554 125.068 728.654 124.832 728.654 124.539C728.654 124.246 728.554 124.014 728.354 123.843C728.161 123.664 727.911 123.575 727.604 123.575Z" fill="white"/>
</g>
<g opacity="0.5">
<rect x="1.28" y="14.28" width="260.44" height="147.44" rx="21.76" fill="white" stroke="#CFD6E6" stroke-width="2.56"/>
<path d="M36.6841 52.7856H34.3441V41.5056H30.3041V39.4456H40.7241V41.5056H36.6841V52.7856ZM41.4263 56.5656L41.7463 54.6856C41.9863 54.7923 42.253 54.8456 42.5463 54.8456C43.2263 54.8456 43.6863 54.5656 43.9263 54.0056L44.4063 52.9056L40.4463 43.1256H42.6863L45.5063 50.3656L48.3263 43.1256H50.5863L45.9263 54.5256C45.353 55.9523 44.2463 56.679 42.6063 56.7056C42.1663 56.7056 41.773 56.659 41.4263 56.5656ZM52.6249 44.2656C53.2916 43.3456 54.1583 42.8856 55.2249 42.8856C56.2916 42.8856 57.1583 43.4123 57.8249 44.4656V39.4456H59.9249V44.4456C60.5783 43.4056 61.4449 42.8856 62.5249 42.8856C63.5916 42.8856 64.4583 43.339 65.1249 44.2456C65.7916 45.1523 66.1249 46.3856 66.1249 47.9456C66.1249 49.5056 65.7916 50.7456 65.1249 51.6656C64.4583 52.5723 63.5916 53.0256 62.5249 53.0256C61.4583 53.0256 60.5916 52.499 59.9249 51.4456V56.4656H57.8249V51.4656C57.1716 52.5056 56.3049 53.0256 55.2249 53.0256C54.1583 53.0256 53.2916 52.5723 52.6249 51.6656C51.9583 50.759 51.6249 49.5256 51.6249 47.9656C51.6249 46.4056 51.9583 45.1723 52.6249 44.2656ZM55.8849 44.7456C55.2449 44.7456 54.7249 45.0456 54.3249 45.6456C53.9383 46.2456 53.7449 47.019 53.7449 47.9656C53.7449 48.9123 53.9383 49.6856 54.3249 50.2856C54.7249 50.8723 55.2449 51.1656 55.8849 51.1656C56.2583 51.1656 56.6249 51.039 56.9849 50.7856C57.3583 50.5323 57.6383 50.2256 57.8249 49.8656V46.0456C57.6383 45.6856 57.3583 45.379 56.9849 45.1256C56.6249 44.8723 56.2583 44.7456 55.8849 44.7456ZM61.8649 51.1656C62.5049 51.1656 63.0183 50.8656 63.4049 50.2656C63.8049 49.6656 64.0049 48.8923 64.0049 47.9456C64.0049 46.999 63.8049 46.2323 63.4049 45.6456C63.0183 45.0456 62.5049 44.7456 61.8649 44.7456C61.4916 44.7456 61.1183 44.8723 60.7449 45.1256C60.3849 45.379 60.1116 45.6856 59.9249 46.0456V49.8656C60.1116 50.2256 60.3849 50.5323 60.7449 50.7856C61.1183 51.039 61.4916 51.1656 61.8649 51.1656ZM67.5651 53.0256V51.3056C67.9784 51.3056 68.3051 51.039 68.5451 50.5056C68.7984 49.9723 69.0051 49.079 69.1651 47.8256L69.7451 43.1256H77.2051V52.7856H75.1051V44.9656H71.6051L71.2651 48.0656C71.0784 49.799 70.6851 51.059 70.0851 51.8456C69.4851 52.6323 68.6451 53.0256 67.5651 53.0256ZM81.9523 52.7856H79.9323V43.1256H82.0323V49.6256L86.4723 43.1256H88.5723V52.7856H86.4723V46.1056L81.9523 52.7856ZM95.6362 53.0256V50.9456C96.4095 50.9456 96.9895 50.6456 97.3762 50.0456C97.7628 49.4323 98.0628 48.1856 98.2762 46.3056L99.0562 39.4456H108.116V52.7856H105.776V41.5056H101.156L100.596 46.4656C100.436 47.839 100.21 48.9723 99.9162 49.8656C99.6362 50.759 99.2695 51.4323 98.8162 51.8856C98.3762 52.3256 97.9095 52.6256 97.4162 52.7856C96.9362 52.9456 96.3428 53.0256 95.6362 53.0256ZM118.889 52.7856H116.789V51.7456C116.043 52.599 115.003 53.0256 113.669 53.0256C112.789 53.0256 112.009 52.7456 111.329 52.1856C110.649 51.6123 110.309 50.8256 110.309 49.8256C110.309 48.799 110.643 48.019 111.309 47.4856C111.989 46.9523 112.776 46.6856 113.669 46.6856C115.043 46.6856 116.083 47.099 116.789 47.9256V46.4856C116.789 45.9256 116.583 45.4856 116.169 45.1656C115.756 44.8456 115.209 44.6856 114.529 44.6856C113.449 44.6856 112.496 45.0923 111.669 45.9056L110.809 44.4456C111.903 43.4056 113.256 42.8856 114.869 42.8856C116.056 42.8856 117.023 43.1656 117.769 43.7256C118.516 44.2856 118.889 45.1723 118.889 46.3856V52.7856ZM114.489 51.5856C115.543 51.5856 116.309 51.2523 116.789 50.5856V49.1256C116.309 48.459 115.543 48.1256 114.489 48.1256C113.889 48.1256 113.396 48.2856 113.009 48.6056C112.623 48.9256 112.429 49.3456 112.429 49.8656C112.429 50.3856 112.623 50.8056 113.009 51.1256C113.396 51.4323 113.889 51.5856 114.489 51.5856ZM125.972 51.1656C126.839 51.1656 127.519 50.8523 128.012 50.2256C128.519 49.599 128.772 48.8256 128.772 47.9056C128.772 47.0256 128.519 46.279 128.012 45.6656C127.519 45.0523 126.839 44.7456 125.972 44.7456C125.119 44.7456 124.439 45.0523 123.932 45.6656C123.439 46.279 123.192 47.0256 123.192 47.9056C123.192 48.8256 123.439 49.599 123.932 50.2256C124.439 50.8523 125.119 51.1656 125.972 51.1656ZM129.592 51.5456C128.699 52.5323 127.492 53.0256 125.972 53.0256C124.452 53.0256 123.245 52.5123 122.352 51.4856C121.472 50.4456 121.032 49.119 121.032 47.5056C121.032 45.199 121.425 43.479 122.212 42.3456C123.012 41.2123 124.239 40.5456 125.892 40.3456C126.892 40.199 127.579 40.059 127.952 39.9256C128.339 39.7923 128.532 39.6323 128.532 39.4456H130.592C130.592 40.8456 129.219 41.699 126.472 42.0056C125.392 42.1256 124.559 42.4256 123.972 42.9056C123.399 43.3723 123.039 43.9323 122.892 44.5856C123.279 44.0523 123.779 43.639 124.392 43.3456C125.019 43.039 125.679 42.8856 126.372 42.8856C127.705 42.8856 128.799 43.379 129.652 44.3656C130.505 45.3523 130.932 46.539 130.932 47.9256C130.932 49.3523 130.485 50.559 129.592 51.5456ZM132.735 56.5656L133.055 54.6856C133.295 54.7923 133.562 54.8456 133.855 54.8456C134.535 54.8456 134.995 54.5656 135.235 54.0056L135.715 52.9056L131.755 43.1256H133.995L136.815 50.3656L139.635 43.1256H141.895L137.235 54.5256C136.662 55.9523 135.555 56.679 133.915 56.7056C133.475 56.7056 133.082 56.659 132.735 56.5656ZM147.074 52.7856H144.974V44.9656H142.214V43.1256H149.854V44.9656H147.074V52.7856ZM156.033 53.0256C154.566 53.0256 153.353 52.559 152.393 51.6256C151.446 50.679 150.973 49.4523 150.973 47.9456C150.973 46.5323 151.433 45.339 152.353 44.3656C153.286 43.379 154.46 42.8856 155.873 42.8856C157.3 42.8856 158.446 43.379 159.313 44.3656C160.193 45.3523 160.633 46.6123 160.633 48.1456V48.6456H153.173C153.253 49.4056 153.566 50.039 154.113 50.5456C154.66 51.0523 155.373 51.3056 156.253 51.3056C156.746 51.3056 157.24 51.2123 157.733 51.0256C158.24 50.839 158.66 50.579 158.993 50.2456L159.953 51.6256C158.98 52.559 157.673 53.0256 156.033 53.0256ZM158.593 47.1656C158.566 46.499 158.32 45.9056 157.853 45.3856C157.4 44.8656 156.74 44.6056 155.873 44.6056C155.046 44.6056 154.4 44.8656 153.933 45.3856C153.466 45.8923 153.206 46.4856 153.153 47.1656H158.593ZM164.806 52.7856H162.706V43.1256H164.806V46.9256H169.246V43.1256H171.346V52.7856H169.246V48.7656H164.806V52.7856ZM174.073 43.1256H176.173V46.6256H179.593C180.62 46.6256 181.406 46.919 181.953 47.5056C182.513 48.0923 182.793 48.8256 182.793 49.7056C182.793 50.5723 182.506 51.3056 181.933 51.9056C181.373 52.4923 180.593 52.7856 179.593 52.7856H174.073V43.1256ZM179.333 48.4656H176.173V50.9456H179.333C179.746 50.9456 180.066 50.8323 180.293 50.6056C180.533 50.379 180.653 50.079 180.653 49.7056C180.653 49.3323 180.533 49.0323 180.293 48.8056C180.066 48.579 179.746 48.4656 179.333 48.4656ZM186.353 52.7856H184.253V43.1256H186.353V52.7856Z" fill="#3C3E42"/>
<path d="M30.1921 74.4244V71.7644C30.6028 71.7364 30.9295 71.6384 31.1721 71.4704C31.4148 71.3024 31.6341 70.9477 31.8301 70.4064C32.0355 69.8651 32.2035 69.0811 32.3341 68.0544L32.9081 63.3644H38.6201V71.6664H39.4741V74.4244H38.3121V72.7024H31.3541V74.4244H30.1921ZM33.4821 68.1384C33.2675 69.9397 32.7915 71.1157 32.0541 71.6664H37.4581V64.4004H33.9441L33.4821 68.1384ZM46.2873 71.8484C45.6807 72.5297 44.8733 72.8704 43.8653 72.8704C42.8573 72.8704 42.0453 72.5297 41.4293 71.8484C40.8227 71.1671 40.5193 70.3224 40.5193 69.3144C40.5193 68.3064 40.8227 67.4664 41.4293 66.7944C42.0453 66.1131 42.8573 65.7724 43.8653 65.7724C44.8733 65.7724 45.6807 66.1131 46.2873 66.7944C46.9033 67.4664 47.2113 68.3064 47.2113 69.3144C47.2113 70.3224 46.9033 71.1671 46.2873 71.8484ZM42.2133 71.1764C42.624 71.6804 43.1747 71.9324 43.8653 71.9324C44.556 71.9324 45.102 71.6804 45.5033 71.1764C45.9047 70.6631 46.1053 70.0424 46.1053 69.3144C46.1053 68.5864 45.9047 67.9704 45.5033 67.4664C45.102 66.9624 44.556 66.7104 43.8653 66.7104C43.1747 66.7104 42.624 66.9671 42.2133 67.4804C41.812 67.9844 41.6113 68.5957 41.6113 69.3144C41.6113 70.0424 41.812 70.6631 42.2133 71.1764ZM51.905 72.8704C50.9064 72.8704 50.0944 72.5344 49.469 71.8624C48.8437 71.1811 48.531 70.3317 48.531 69.3144C48.531 68.2971 48.8437 67.4524 49.469 66.7804C50.0944 66.1084 50.9064 65.7724 51.905 65.7724C52.9504 65.7724 53.7764 66.1644 54.383 66.9484L53.683 67.5924C53.2537 67.0044 52.6797 66.7104 51.961 66.7104C51.2517 66.7104 50.6824 66.9531 50.253 67.4384C49.833 67.9237 49.623 68.5491 49.623 69.3144C49.623 70.0797 49.833 70.7097 50.253 71.2044C50.6824 71.6897 51.2517 71.9324 51.961 71.9324C52.6704 71.9324 53.2444 71.6384 53.683 71.0504L54.383 71.6944C53.7764 72.4784 52.9504 72.8704 51.905 72.8704ZM58.1367 72.7024H57.0867V66.8644H55.1267V65.9404H60.1107V66.8644H58.1367V72.7024ZM61.1095 75.3484L61.2775 74.3964C61.4455 74.4711 61.6368 74.5084 61.8515 74.5084C62.0942 74.5084 62.2948 74.4571 62.4535 74.3544C62.6122 74.2517 62.7475 74.0651 62.8595 73.7944L63.3075 72.7724L60.4795 65.9404H61.6135L63.8675 71.4844L66.1075 65.9404H67.2555L63.8675 74.0744C63.4942 74.9704 62.8315 75.4277 61.8795 75.4464C61.5995 75.4464 61.3428 75.4137 61.1095 75.3484ZM73.9788 72.7024H72.9288V66.8644H69.4008V72.7024H68.3508V65.9404H73.9788V72.7024ZM77.1254 72.7024H76.0754V65.9404H77.1254V68.7544H80.6534V65.9404H81.7034V72.7024H80.6534V69.6784H77.1254V72.7024ZM83.8 65.9404H84.85V68.5584H87.384C88.056 68.5584 88.5787 68.7591 88.952 69.1604C89.3253 69.5524 89.512 70.0424 89.512 70.6304C89.512 71.2184 89.3207 71.7131 88.938 72.1144C88.5647 72.5064 88.0467 72.7024 87.384 72.7024H83.8V65.9404ZM87.272 69.4824H84.85V71.7784H87.272C87.6453 71.7784 87.93 71.6757 88.126 71.4704C88.3313 71.2557 88.434 70.9757 88.434 70.6304C88.434 70.2851 88.3313 70.0097 88.126 69.8044C87.93 69.5897 87.6453 69.4824 87.272 69.4824ZM91.668 72.7024H90.618V65.9404H91.668V72.7024ZM96.8188 72.8704C95.8108 72.8704 94.9848 72.5437 94.3408 71.8904C93.6968 71.2277 93.3748 70.3691 93.3748 69.3144C93.3748 68.3251 93.6921 67.4897 94.3268 66.8084C94.9615 66.1177 95.7548 65.7724 96.7068 65.7724C97.7055 65.7724 98.4941 66.1177 99.0728 66.8084C99.6608 67.4897 99.9548 68.3531 99.9548 69.3984V69.6644H94.4808C94.5275 70.3271 94.7701 70.8824 95.2088 71.3304C95.6475 71.7784 96.2168 72.0024 96.9168 72.0024C97.7568 72.0024 98.4521 71.7177 99.0028 71.1484L99.5068 71.8344C98.8161 72.5251 97.9201 72.8704 96.8188 72.8704ZM98.9188 68.8944C98.9095 68.3157 98.7135 67.7977 98.3308 67.3404C97.9481 66.8737 97.4021 66.6404 96.6928 66.6404C96.0208 66.6404 95.4888 66.8691 95.0968 67.3264C94.7141 67.7837 94.5088 68.3064 94.4808 68.8944H98.9188ZM108.597 72.8704C107.645 72.8704 106.884 72.4737 106.315 71.6804V75.2784H105.265V65.9404H106.315V66.9484C106.567 66.5937 106.894 66.3091 107.295 66.0944C107.696 65.8797 108.13 65.7724 108.597 65.7724C109.493 65.7724 110.216 66.0944 110.767 66.7384C111.327 67.3731 111.607 68.2317 111.607 69.3144C111.607 70.3971 111.327 71.2604 110.767 71.9044C110.216 72.5484 109.493 72.8704 108.597 72.8704ZM108.331 71.9324C108.994 71.9324 109.521 71.6897 109.913 71.2044C110.305 70.7097 110.501 70.0797 110.501 69.3144C110.501 68.5491 110.305 67.9237 109.913 67.4384C109.521 66.9531 108.994 66.7104 108.331 66.7104C107.93 66.7104 107.538 66.8177 107.155 67.0324C106.782 67.2377 106.502 67.4897 106.315 67.7884V70.8404C106.502 71.1484 106.782 71.4097 107.155 71.6244C107.538 71.8297 107.93 71.9324 108.331 71.9324ZM118.555 72.7024H117.505V71.9324C116.935 72.5577 116.189 72.8704 115.265 72.8704C114.639 72.8704 114.089 72.6697 113.613 72.2684C113.137 71.8671 112.899 71.3211 112.899 70.6304C112.899 69.9211 113.132 69.3751 113.599 68.9924C114.075 68.6004 114.63 68.4044 115.265 68.4044C116.226 68.4044 116.973 68.7124 117.505 69.3284V68.1104C117.505 67.6624 117.346 67.3124 117.029 67.0604C116.711 66.8084 116.301 66.6824 115.797 66.6824C115.003 66.6824 114.313 66.9951 113.725 67.6204L113.235 66.8924C113.953 66.1457 114.854 65.7724 115.937 65.7724C116.711 65.7724 117.341 65.9591 117.827 66.3324C118.312 66.7057 118.555 67.2797 118.555 68.0544V72.7024ZM115.643 72.1144C116.483 72.1144 117.103 71.8344 117.505 71.2744V70.0004C117.103 69.4404 116.483 69.1604 115.643 69.1604C115.157 69.1604 114.756 69.3004 114.439 69.5804C114.131 69.8511 113.977 70.2057 113.977 70.6444C113.977 71.0737 114.131 71.4284 114.439 71.7084C114.756 71.9791 115.157 72.1144 115.643 72.1144ZM123.053 72.8704C121.756 72.8704 120.739 72.5017 120.001 71.7644L120.519 71.0924C121.154 71.6991 121.999 72.0024 123.053 72.0024C123.66 72.0024 124.141 71.8951 124.495 71.6804C124.859 71.4657 125.041 71.1811 125.041 70.8264C125.041 70.0797 124.332 69.7064 122.913 69.7064H121.401V68.8524H122.913C123.501 68.8524 123.982 68.7591 124.355 68.5724C124.729 68.3764 124.915 68.0917 124.915 67.7184C124.915 67.4011 124.729 67.1444 124.355 66.9484C123.982 66.7431 123.511 66.6404 122.941 66.6404C121.999 66.6404 121.243 66.9297 120.673 67.5084L120.127 66.8644C120.827 66.1457 121.751 65.7864 122.899 65.7864C123.823 65.7771 124.57 65.9357 125.139 66.2624C125.718 66.5797 126.007 67.0231 126.007 67.5924C126.007 68.0591 125.816 68.4371 125.433 68.7264C125.06 69.0157 124.645 69.1884 124.187 69.2444C124.663 69.2817 125.107 69.4404 125.517 69.7204C125.937 70.0004 126.147 70.3924 126.147 70.8964C126.147 71.4751 125.867 71.9511 125.307 72.3244C124.757 72.6884 124.005 72.8704 123.053 72.8704ZM134.753 72.7024H133.703V67.3964L131.505 72.7024H131.113L128.901 67.3964V72.7024H127.851V65.9404H129.237L131.309 70.9524L133.353 65.9404H134.753V72.7024ZM139.899 72.8704C138.891 72.8704 138.065 72.5437 137.421 71.8904C136.777 71.2277 136.455 70.3691 136.455 69.3144C136.455 68.3251 136.772 67.4897 137.407 66.8084C138.042 66.1177 138.835 65.7724 139.787 65.7724C140.786 65.7724 141.574 66.1177 142.153 66.8084C142.741 67.4897 143.035 68.3531 143.035 69.3984V69.6644H137.561C137.608 70.3271 137.85 70.8824 138.289 71.3304C138.728 71.7784 139.297 72.0024 139.997 72.0024C140.837 72.0024 141.532 71.7177 142.083 71.1484L142.587 71.8344C141.896 72.5251 141 72.8704 139.899 72.8704ZM141.999 68.8944C141.99 68.3157 141.794 67.7977 141.411 67.3404C141.028 66.8737 140.482 66.6404 139.773 66.6404C139.101 66.6404 138.569 66.8691 138.177 67.3264C137.794 67.7837 137.589 68.3064 137.561 68.8944H141.999ZM148.068 72.8704C147.116 72.8704 146.355 72.4737 145.786 71.6804V75.2784H144.736V65.9404H145.786V66.9484C146.038 66.5937 146.364 66.3091 146.766 66.0944C147.167 65.8797 147.601 65.7724 148.068 65.7724C148.964 65.7724 149.687 66.0944 150.238 66.7384C150.798 67.3731 151.078 68.2317 151.078 69.3144C151.078 70.3971 150.798 71.2604 150.238 71.9044C149.687 72.5484 148.964 72.8704 148.068 72.8704ZM147.802 71.9324C148.464 71.9324 148.992 71.6897 149.384 71.2044C149.776 70.7097 149.972 70.0797 149.972 69.3144C149.972 68.5491 149.776 67.9237 149.384 67.4384C148.992 66.9531 148.464 66.7104 147.802 66.7104C147.4 66.7104 147.008 66.8177 146.626 67.0324C146.252 67.2377 145.972 67.4897 145.786 67.7884V70.8404C145.972 71.1484 146.252 71.4097 146.626 71.6244C147.008 71.8297 147.4 71.9324 147.802 71.9324ZM152.747 65.9404H153.797V68.5584H156.331C157.003 68.5584 157.526 68.7591 157.899 69.1604C158.273 69.5524 158.459 70.0424 158.459 70.6304C158.459 71.2184 158.268 71.7131 157.885 72.1144C157.512 72.5064 156.994 72.7024 156.331 72.7024H152.747V65.9404ZM156.219 69.4824H153.797V71.7784H156.219C156.593 71.7784 156.877 71.6757 157.073 71.4704C157.279 71.2557 157.381 70.9757 157.381 70.6304C157.381 70.2851 157.279 70.0097 157.073 69.8044C156.877 69.5897 156.593 69.4824 156.219 69.4824ZM160.615 72.7024H159.565V65.9404H160.615V72.7024ZM163.82 67.1584C163.671 67.3077 163.489 67.3824 163.274 67.3824C163.059 67.3824 162.877 67.3077 162.728 67.1584C162.579 67.0091 162.504 66.8271 162.504 66.6124C162.504 66.3977 162.579 66.2157 162.728 66.0664C162.877 65.9171 163.059 65.8424 163.274 65.8424C163.489 65.8424 163.671 65.9171 163.82 66.0664C163.969 66.2157 164.044 66.3977 164.044 66.6124C164.044 66.8271 163.969 67.0091 163.82 67.1584ZM163.82 72.6184C163.671 72.7677 163.489 72.8424 163.274 72.8424C163.059 72.8424 162.877 72.7677 162.728 72.6184C162.579 72.4691 162.504 72.2871 162.504 72.0724C162.504 71.8577 162.579 71.6757 162.728 71.5264C162.877 71.3771 163.059 71.3024 163.274 71.3024C163.489 71.3024 163.671 71.3771 163.82 71.5264C163.969 71.6757 164.044 71.8577 164.044 72.0724C164.044 72.2871 163.969 72.4691 163.82 72.6184ZM172.224 72.8704C171.477 72.8704 170.815 72.7257 170.236 72.4364C169.657 72.1471 169.214 71.7784 168.906 71.3304L169.592 70.6024C169.872 70.9757 170.241 71.2744 170.698 71.4984C171.155 71.7224 171.655 71.8344 172.196 71.8344C172.877 71.8344 173.409 71.6804 173.792 71.3724C174.184 71.0551 174.38 70.6257 174.38 70.0844C174.38 69.5244 174.17 69.1091 173.75 68.8384C173.339 68.5677 172.775 68.4324 172.056 68.4324C171.505 68.4324 171.183 68.4371 171.09 68.4464V67.3824C171.193 67.3917 171.515 67.3964 172.056 67.3964C172.691 67.3964 173.209 67.2704 173.61 67.0184C174.021 66.7571 174.226 66.3697 174.226 65.8564C174.226 65.3617 174.025 64.9744 173.624 64.6944C173.232 64.4051 172.737 64.2604 172.14 64.2604C171.197 64.2604 170.376 64.6384 169.676 65.3944L169.032 64.6664C169.825 63.7051 170.889 63.2244 172.224 63.2244C173.148 63.2244 173.904 63.4484 174.492 63.8964C175.089 64.3351 175.388 64.9417 175.388 65.7164C175.388 66.3324 175.183 66.8271 174.772 67.2004C174.361 67.5644 173.895 67.7931 173.372 67.8864C173.885 67.9331 174.371 68.1571 174.828 68.5584C175.295 68.9597 175.528 69.5011 175.528 70.1824C175.528 70.9757 175.229 71.6244 174.632 72.1284C174.035 72.6231 173.232 72.8704 172.224 72.8704ZM180.605 72.8704C179.98 72.8704 179.429 72.7397 178.953 72.4784C178.477 72.2171 178.099 71.8624 177.819 71.4144C177.548 70.9571 177.343 70.4484 177.203 69.8884C177.072 69.3191 177.007 68.7077 177.007 68.0544C177.007 67.1771 177.138 66.3837 177.399 65.6744C177.66 64.9651 178.08 64.3817 178.659 63.9244C179.247 63.4577 179.961 63.2244 180.801 63.2244C181.874 63.2244 182.738 63.5977 183.391 64.3444L182.803 65.2124C182.262 64.5777 181.594 64.2604 180.801 64.2604C180.222 64.2604 179.728 64.4424 179.317 64.8064C178.916 65.1704 178.622 65.6231 178.435 66.1644C178.258 66.6964 178.169 67.2844 178.169 67.9284C178.169 68.0871 178.174 68.2084 178.183 68.2924C178.416 67.9191 178.776 67.5831 179.261 67.2844C179.756 66.9857 180.278 66.8364 180.829 66.8364C181.716 66.8364 182.444 67.0977 183.013 67.6204C183.592 68.1337 183.881 68.8664 183.881 69.8184C183.881 70.6677 183.582 71.3911 182.985 71.9884C182.388 72.5764 181.594 72.8704 180.605 72.8704ZM180.563 71.8344C181.235 71.8344 181.758 71.6337 182.131 71.2324C182.514 70.8217 182.705 70.3644 182.705 69.8604C182.705 69.2071 182.504 68.7077 182.103 68.3624C181.702 68.0171 181.184 67.8444 180.549 67.8444C180.092 67.8444 179.653 67.9751 179.233 68.2364C178.813 68.4884 178.472 68.8244 178.211 69.2444C178.276 69.9351 178.5 70.5417 178.883 71.0644C179.266 71.5777 179.826 71.8344 180.563 71.8344ZM187.028 72.3664C187.028 72.7771 186.921 73.1691 186.706 73.5424C186.492 73.9251 186.216 74.2377 185.88 74.4804L185.362 74.0464C185.596 73.8971 185.796 73.6964 185.964 73.4444C186.142 73.2017 186.244 72.9684 186.272 72.7444C186.235 72.7631 186.17 72.7724 186.076 72.7724C185.88 72.7724 185.717 72.7071 185.586 72.5764C185.465 72.4364 185.404 72.2637 185.404 72.0584C185.404 71.8531 185.474 71.6757 185.614 71.5264C185.764 71.3771 185.941 71.3024 186.146 71.3024C186.389 71.3024 186.594 71.4004 186.762 71.5964C186.94 71.7831 187.028 72.0397 187.028 72.3664ZM195.124 72.8704C194.378 72.8704 193.715 72.7257 193.136 72.4364C192.558 72.1471 192.114 71.7784 191.806 71.3304L192.492 70.6024C192.772 70.9757 193.141 71.2744 193.598 71.4984C194.056 71.7224 194.555 71.8344 195.096 71.8344C195.778 71.8344 196.31 71.6804 196.692 71.3724C197.084 71.0551 197.28 70.6257 197.28 70.0844C197.28 69.5244 197.07 69.1091 196.65 68.8384C196.24 68.5677 195.675 68.4324 194.956 68.4324C194.406 68.4324 194.084 68.4371 193.99 68.4464V67.3824C194.093 67.3917 194.415 67.3964 194.956 67.3964C195.591 67.3964 196.109 67.2704 196.51 67.0184C196.921 66.7571 197.126 66.3697 197.126 65.8564C197.126 65.3617 196.926 64.9744 196.524 64.6944C196.132 64.4051 195.638 64.2604 195.04 64.2604C194.098 64.2604 193.276 64.6384 192.576 65.3944L191.932 64.6664C192.726 63.7051 193.79 63.2244 195.124 63.2244C196.048 63.2244 196.804 63.4484 197.392 63.8964C197.99 64.3351 198.288 64.9417 198.288 65.7164C198.288 66.3324 198.083 66.8271 197.672 67.2004C197.262 67.5644 196.795 67.7931 196.272 67.8864C196.786 67.9331 197.271 68.1571 197.728 68.5584C198.195 68.9597 198.428 69.5011 198.428 70.1824C198.428 70.9757 198.13 71.6244 197.532 72.1284C196.935 72.6231 196.132 72.8704 195.124 72.8704ZM205.647 72.1844C205.013 72.6417 204.219 72.8704 203.267 72.8704C202.315 72.8704 201.517 72.6417 200.873 72.1844C200.239 71.7271 199.921 71.1111 199.921 70.3364C199.921 69.7484 200.131 69.2397 200.551 68.8104C200.981 68.3811 201.513 68.0731 202.147 67.8864C201.55 67.7184 201.055 67.4477 200.663 67.0744C200.271 66.6917 200.075 66.2157 200.075 65.6464C200.075 64.8624 200.393 64.2651 201.027 63.8544C201.662 63.4344 202.409 63.2244 203.267 63.2244C204.126 63.2244 204.873 63.4344 205.507 63.8544C206.151 64.2651 206.473 64.8624 206.473 65.6464C206.473 66.2157 206.277 66.6917 205.885 67.0744C205.493 67.4477 204.994 67.7184 204.387 67.8864C205.022 68.0731 205.549 68.3811 205.969 68.8104C206.399 69.2397 206.613 69.7484 206.613 70.3364C206.613 71.1017 206.291 71.7177 205.647 72.1844ZM203.267 67.4104C203.454 67.3824 203.641 67.3357 203.827 67.2704C204.023 67.2051 204.243 67.1164 204.485 67.0044C204.728 66.8831 204.924 66.7197 205.073 66.5144C205.223 66.2997 205.297 66.0617 205.297 65.8004C205.297 65.3337 205.101 64.9604 204.709 64.6804C204.327 64.4004 203.846 64.2604 203.267 64.2604C202.679 64.2604 202.194 64.4004 201.811 64.6804C201.429 64.9604 201.237 65.3337 201.237 65.8004C201.237 66.0617 201.312 66.2997 201.461 66.5144C201.611 66.7197 201.807 66.8831 202.049 67.0044C202.292 67.1164 202.507 67.2051 202.693 67.2704C202.889 67.3264 203.081 67.3731 203.267 67.4104ZM203.267 71.8344C203.865 71.8344 204.373 71.6851 204.793 71.3864C205.223 71.0877 205.437 70.6957 205.437 70.2104C205.437 69.8371 205.288 69.5104 204.989 69.2304C204.7 68.9411 204.401 68.7404 204.093 68.6284C203.795 68.5071 203.519 68.4324 203.267 68.4044C203.015 68.4324 202.735 68.5071 202.427 68.6284C202.129 68.7404 201.83 68.9411 201.531 69.2304C201.233 69.5104 201.083 69.8371 201.083 70.2104C201.083 70.6957 201.293 71.0877 201.713 71.3864C202.143 71.6851 202.661 71.8344 203.267 71.8344ZM209.792 72.3664C209.792 72.7771 209.685 73.1691 209.47 73.5424C209.255 73.9251 208.98 74.2377 208.644 74.4804L208.126 74.0464C208.359 73.8971 208.56 73.6964 208.728 73.4444C208.905 73.2017 209.008 72.9684 209.036 72.7444C208.999 72.7631 208.933 72.7724 208.84 72.7724C208.644 72.7724 208.481 72.7071 208.35 72.5764C208.229 72.4364 208.168 72.2637 208.168 72.0584C208.168 71.8531 208.238 71.6757 208.378 71.5264C208.527 71.3771 208.705 71.3024 208.91 71.3024C209.153 71.3024 209.358 71.4004 209.526 71.5964C209.703 71.7831 209.792 72.0397 209.792 72.3664ZM217.888 72.8704C217.141 72.8704 216.479 72.7257 215.9 72.4364C215.321 72.1471 214.878 71.7784 214.57 71.3304L215.256 70.6024C215.536 70.9757 215.905 71.2744 216.362 71.4984C216.819 71.7224 217.319 71.8344 217.86 71.8344C218.541 71.8344 219.073 71.6804 219.456 71.3724C219.848 71.0551 220.044 70.6257 220.044 70.0844C220.044 69.5244 219.834 69.1091 219.414 68.8384C219.003 68.5677 218.439 68.4324 217.72 68.4324C217.169 68.4324 216.847 68.4371 216.754 68.4464V67.3824C216.857 67.3917 217.179 67.3964 217.72 67.3964C218.355 67.3964 218.873 67.2704 219.274 67.0184C219.685 66.7571 219.89 66.3697 219.89 65.8564C219.89 65.3617 219.689 64.9744 219.288 64.6944C218.896 64.4051 218.401 64.2604 217.804 64.2604C216.861 64.2604 216.04 64.6384 215.34 65.3944L214.696 64.6664C215.489 63.7051 216.553 63.2244 217.888 63.2244C218.812 63.2244 219.568 63.4484 220.156 63.8964C220.753 64.3351 221.052 64.9417 221.052 65.7164C221.052 66.3324 220.847 66.8271 220.436 67.2004C220.025 67.5644 219.559 67.7931 219.036 67.8864C219.549 67.9331 220.035 68.1571 220.492 68.5584C220.959 68.9597 221.192 69.5011 221.192 70.1824C221.192 70.9757 220.893 71.6244 220.296 72.1284C219.699 72.6231 218.896 72.8704 217.888 72.8704ZM225.723 72.8564C224.65 72.8564 223.786 72.4831 223.133 71.7364L223.721 70.8684C224.262 71.5031 224.93 71.8204 225.723 71.8204C226.32 71.8204 226.824 71.6337 227.235 71.2604C227.646 70.8871 227.935 70.4344 228.103 69.9024C228.271 69.3704 228.355 68.7917 228.355 68.1664C228.355 67.9984 228.35 67.8724 228.341 67.7884C228.108 68.1617 227.748 68.4977 227.263 68.7964C226.778 69.0951 226.26 69.2444 225.709 69.2444C224.822 69.2444 224.09 68.9877 223.511 68.4744C222.932 67.9517 222.643 67.2144 222.643 66.2624C222.643 65.4224 222.942 64.7037 223.539 64.1064C224.136 63.5091 224.925 63.2104 225.905 63.2104C226.54 63.2104 227.095 63.3411 227.571 63.6024C228.047 63.8637 228.42 64.2231 228.691 64.6804C228.971 65.1377 229.176 65.6464 229.307 66.2064C229.447 66.7664 229.517 67.3777 229.517 68.0404C229.517 68.9177 229.386 69.7111 229.125 70.4204C228.864 71.1204 228.439 71.7037 227.851 72.1704C227.272 72.6277 226.563 72.8564 225.723 72.8564ZM225.975 68.2364C226.432 68.2364 226.871 68.1104 227.291 67.8584C227.72 67.6064 228.056 67.2704 228.299 66.8504C228.243 66.1597 228.024 65.5531 227.641 65.0304C227.258 64.5077 226.698 64.2464 225.961 64.2464C225.298 64.2464 224.776 64.4517 224.393 64.8624C224.01 65.2731 223.819 65.7257 223.819 66.2204C223.819 66.8737 224.02 67.3731 224.421 67.7184C224.822 68.0637 225.34 68.2364 225.975 68.2364Z" fill="#3C3E42"/>
<rect x="115.062" y="97.5356" width="120.542" height="39.1369" rx="6" fill="#E81E1E"/>
<path d="M141.263 121.408H136.195V112.07H141.109C141.958 112.07 142.616 112.303 143.083 112.77C143.559 113.227 143.797 113.787 143.797 114.45C143.797 115.019 143.643 115.495 143.335 115.878C143.027 116.26 142.644 116.498 142.187 116.592C142.691 116.666 143.115 116.923 143.461 117.362C143.806 117.8 143.979 118.309 143.979 118.888C143.979 119.616 143.741 120.218 143.265 120.694C142.789 121.17 142.121 121.408 141.263 121.408ZM140.675 115.808C141.011 115.808 141.277 115.714 141.473 115.528C141.669 115.341 141.767 115.098 141.767 114.8C141.767 114.501 141.664 114.258 141.459 114.072C141.263 113.876 141.001 113.778 140.675 113.778H138.183V115.808H140.675ZM140.745 119.686C141.118 119.686 141.412 119.592 141.627 119.406C141.841 119.21 141.949 118.944 141.949 118.608C141.949 118.3 141.841 118.043 141.627 117.838C141.412 117.623 141.118 117.516 140.745 117.516H138.183V119.686H140.745ZM157.054 121.408H154.604L151.776 117.67L151.048 118.538V121.408H149.06V112.07H151.048V116.242L154.352 112.07H156.802L153.092 116.452L157.054 121.408ZM161.728 121.576C160.319 121.576 159.152 121.123 158.228 120.218C157.314 119.303 156.856 118.146 156.856 116.746C156.856 115.346 157.314 114.193 158.228 113.288C159.152 112.373 160.319 111.916 161.728 111.916C163.147 111.916 164.314 112.368 165.228 113.274C166.152 114.179 166.614 115.336 166.614 116.746C166.614 118.155 166.152 119.312 165.228 120.218C164.314 121.123 163.147 121.576 161.728 121.576ZM159.67 118.944C160.193 119.522 160.879 119.812 161.728 119.812C162.578 119.812 163.264 119.522 163.786 118.944C164.309 118.365 164.57 117.632 164.57 116.746C164.57 115.859 164.309 115.126 163.786 114.548C163.264 113.969 162.578 113.68 161.728 113.68C160.879 113.68 160.193 113.969 159.67 114.548C159.157 115.126 158.9 115.859 158.9 116.746C158.9 117.632 159.157 118.365 159.67 118.944ZM169.997 121.408H168.009V112.07H172.377C173.357 112.07 174.123 112.359 174.673 112.938C175.233 113.507 175.513 114.221 175.513 115.08C175.513 115.929 175.233 116.643 174.673 117.222C174.113 117.8 173.348 118.09 172.377 118.09H169.997V121.408ZM172.111 116.34C172.513 116.34 172.839 116.228 173.091 116.004C173.353 115.77 173.483 115.462 173.483 115.08C173.483 114.697 173.353 114.394 173.091 114.17C172.839 113.936 172.513 113.82 172.111 113.82H169.997V116.34H172.111ZM179.952 121.576C179.121 121.576 178.36 121.436 177.67 121.156C176.979 120.876 176.456 120.516 176.102 120.078L177.138 118.748C177.446 119.074 177.856 119.336 178.37 119.532C178.892 119.718 179.392 119.812 179.868 119.812C180.474 119.812 180.95 119.704 181.296 119.49C181.641 119.266 181.814 118.976 181.814 118.622C181.814 117.903 181.128 117.544 179.756 117.544H177.866V115.794H179.756C180.334 115.794 180.796 115.71 181.142 115.542C181.487 115.374 181.66 115.126 181.66 114.8C181.66 114.445 181.482 114.174 181.128 113.988C180.773 113.792 180.316 113.694 179.756 113.694C178.738 113.694 177.894 114.016 177.222 114.66L176.228 113.414C176.62 112.966 177.138 112.606 177.782 112.336C178.435 112.065 179.158 111.93 179.952 111.93C181.053 111.93 181.944 112.158 182.626 112.616C183.307 113.073 183.648 113.689 183.648 114.464C183.648 115.024 183.447 115.495 183.046 115.878C182.644 116.251 182.168 116.489 181.618 116.592C182.159 116.648 182.654 116.876 183.102 117.278C183.559 117.67 183.788 118.188 183.788 118.832C183.788 119.634 183.428 120.292 182.71 120.806C181.991 121.319 181.072 121.576 179.952 121.576ZM187.209 121.408H185.291V112.07H187.279V118.104L191.605 112.07H193.649V121.408H191.661V115.15L187.209 121.408ZM203.89 121.408H201.888V117.488H197.478V121.408H195.49V112.07H197.478V115.738H201.888V112.07H203.89V121.408ZM206.99 121.576C206.57 121.576 206.164 121.515 205.772 121.394C205.389 121.263 205.091 121.1 204.876 120.904L205.632 119.308C206.043 119.644 206.444 119.812 206.836 119.812C207.172 119.812 207.433 119.742 207.62 119.602C207.816 119.452 208.007 119.2 208.194 118.846L204.75 112.07H207.004L209.314 117.026L211.638 112.07H213.892L210.042 119.616C209.725 120.25 209.328 120.736 208.852 121.072C208.385 121.408 207.765 121.576 206.99 121.576Z" fill="white"/>
<path d="M49.5553 134.911C50.5448 134.911 51.347 134.109 51.347 133.12C51.347 132.13 50.5448 131.328 49.5553 131.328C48.5658 131.328 47.7637 132.13 47.7637 133.12C47.7637 134.109 48.5658 134.911 49.5553 134.911Z" stroke="#3C4D5D" stroke-width="4" stroke-linecap="round" stroke-linejoin="round"/>
<path d="M69.2643 134.911C70.2538 134.911 71.056 134.109 71.056 133.12C71.056 132.13 70.2538 131.328 69.2643 131.328C68.2748 131.328 67.4727 132.13 67.4727 133.12C67.4727 134.109 68.2748 134.911 69.2643 134.911Z" stroke="#3C4D5D" stroke-width="4" stroke-linecap="round" stroke-linejoin="round"/>
<path d="M35.2227 97.2866H42.3893L47.1909 121.277C47.3548 122.102 47.8035 122.843 48.4586 123.37C49.1137 123.897 49.9334 124.178 50.7742 124.161H68.1891C69.03 124.178 69.8497 123.897 70.5048 123.37C71.1599 122.843 71.6086 122.102 71.7725 121.277L74.6391 106.245H44.1809" stroke="#3C4D5D" stroke-width="3" stroke-linecap="round" stroke-linejoin="round"/>
<path d="M59.4879 110.842V118.278M55.5742 114.365H63.4016" stroke="#3C4D5D" stroke-width="3" stroke-linecap="round"/>
<g filter="url(#filter0_d)">
<path d="M228.175 144.622L229.369 143.48C229.78 143.086 229.78 142.428 229.369 142.034L225.01 137.865C224.552 137.427 224.611 136.68 225.133 136.32L226.854 135.13C227.522 134.669 227.391 133.647 226.629 133.369L214.301 128.86C213.477 128.558 212.692 129.388 213.039 130.194L218.096 141.943C218.414 142.68 219.426 142.762 219.858 142.086L220.828 140.568C221.167 140.037 221.906 139.948 222.362 140.383L226.792 144.622C227.179 144.991 227.788 144.991 228.175 144.622Z" fill="white"/>
<path d="M228.175 144.622L229.369 143.48C229.78 143.086 229.78 142.428 229.369 142.034L225.01 137.865C224.552 137.427 224.611 136.68 225.133 136.32L226.854 135.13C227.522 134.669 227.391 133.647 226.629 133.369L214.301 128.86C213.477 128.558 212.692 129.388 213.039 130.194L218.096 141.943C218.414 142.68 219.426 142.762 219.858 142.086L220.828 140.568C221.167 140.037 221.906 139.948 222.362 140.383L226.792 144.622C227.179 144.991 227.788 144.991 228.175 144.622Z" stroke="#3C4D5D" stroke-width="2"/>
</g>
</g>
<rect x="250.28" y="1.28" width="333.44" height="189.075" rx="21.76" fill="white" stroke="#CFD6E6" stroke-width="2.56"/>
<path d="M316.027 123H313.219V109.464H304.891V123H302.083V106.992H316.027V123ZM324.587 123.288C322.795 123.288 321.355 122.704 320.267 121.536C319.179 120.352 318.635 118.904 318.635 117.192C318.635 115.48 319.179 114.04 320.267 112.872C321.355 111.704 322.795 111.12 324.587 111.12C326.395 111.12 327.843 111.704 328.931 112.872C330.019 114.04 330.563 115.48 330.563 117.192C330.563 118.92 330.019 120.368 328.931 121.536C327.843 122.704 326.395 123.288 324.587 123.288ZM324.587 121.056C325.627 121.056 326.443 120.688 327.035 119.952C327.643 119.2 327.947 118.28 327.947 117.192C327.947 116.12 327.643 115.216 327.035 114.48C326.443 113.728 325.627 113.352 324.587 113.352C323.563 113.352 322.747 113.728 322.139 114.48C321.547 115.216 321.251 116.12 321.251 117.192C321.251 118.28 321.547 119.2 322.139 119.952C322.747 120.688 323.563 121.056 324.587 121.056ZM343.96 123H340.792L337.24 118.224L335.632 119.88V123H333.112V111.408H335.632V117L340.744 111.408H343.864L339.04 116.664L343.96 123ZM345.241 127.536L345.625 125.28C345.913 125.408 346.233 125.472 346.585 125.472C347.401 125.472 347.953 125.136 348.241 124.464L348.817 123.144L344.065 111.408H346.753L350.137 120.096L353.521 111.408H356.233L350.641 125.088C349.953 126.8 348.625 127.672 346.657 127.704C346.129 127.704 345.657 127.648 345.241 127.536ZM368.184 123H365.664V113.616H360.336V123H357.816V111.408H368.184V123ZM382.304 123H379.136L375.584 118.224L373.976 119.88V123H371.456V111.408H373.976V117L379.088 111.408H382.208L377.384 116.664L382.304 123ZM393.689 123H391.169V121.752C390.273 122.776 389.025 123.288 387.425 123.288C386.369 123.288 385.433 122.952 384.617 122.28C383.801 121.592 383.393 120.648 383.393 119.448C383.393 118.216 383.793 117.28 384.593 116.64C385.409 116 386.353 115.68 387.425 115.68C389.073 115.68 390.321 116.176 391.169 117.168V115.44C391.169 114.768 390.921 114.24 390.425 113.856C389.929 113.472 389.273 113.28 388.457 113.28C387.161 113.28 386.017 113.768 385.025 114.744L383.993 112.992C385.305 111.744 386.929 111.12 388.865 111.12C390.289 111.12 391.449 111.456 392.345 112.128C393.241 112.8 393.689 113.864 393.689 115.32V123ZM388.409 121.56C389.673 121.56 390.593 121.16 391.169 120.36V118.608C390.593 117.808 389.673 117.408 388.409 117.408C387.689 117.408 387.097 117.6 386.633 117.984C386.169 118.368 385.937 118.872 385.937 119.496C385.937 120.12 386.169 120.624 386.633 121.008C387.097 121.376 387.689 121.56 388.409 121.56ZM408.352 123.288C406.56 123.288 405.12 122.704 404.032 121.536C402.944 120.352 402.4 118.904 402.4 117.192C402.4 115.48 402.944 114.04 404.032 112.872C405.12 111.704 406.56 111.12 408.352 111.12C410.16 111.12 411.608 111.704 412.696 112.872C413.784 114.04 414.328 115.48 414.328 117.192C414.328 118.92 413.784 120.368 412.696 121.536C411.608 122.704 410.16 123.288 408.352 123.288ZM408.352 121.056C409.392 121.056 410.208 120.688 410.8 119.952C411.408 119.2 411.712 118.28 411.712 117.192C411.712 116.12 411.408 115.216 410.8 114.48C410.208 113.728 409.392 113.352 408.352 113.352C407.328 113.352 406.512 113.728 405.904 114.48C405.312 115.216 405.016 116.12 405.016 117.192C405.016 118.28 405.312 119.2 405.904 119.952C406.512 120.688 407.328 121.056 408.352 121.056ZM417.742 112.776C418.542 111.672 419.582 111.12 420.862 111.12C422.142 111.12 423.182 111.752 423.982 113.016V106.992H426.502V112.992C427.286 111.744 428.326 111.12 429.622 111.12C430.902 111.12 431.942 111.664 432.742 112.752C433.542 113.84 433.942 115.32 433.942 117.192C433.942 119.064 433.542 120.552 432.742 121.656C431.942 122.744 430.902 123.288 429.622 123.288C428.342 123.288 427.302 122.656 426.502 121.392V127.416H423.982V121.416C423.198 122.664 422.158 123.288 420.862 123.288C419.582 123.288 418.542 122.744 417.742 121.656C416.942 120.568 416.542 119.088 416.542 117.216C416.542 115.344 416.942 113.864 417.742 112.776ZM421.654 113.352C420.886 113.352 420.262 113.712 419.782 114.432C419.318 115.152 419.086 116.08 419.086 117.216C419.086 118.352 419.318 119.28 419.782 120C420.262 120.704 420.886 121.056 421.654 121.056C422.102 121.056 422.542 120.904 422.974 120.6C423.422 120.296 423.758 119.928 423.982 119.496V114.912C423.758 114.48 423.422 114.112 422.974 113.808C422.542 113.504 422.102 113.352 421.654 113.352ZM428.83 121.056C429.598 121.056 430.214 120.696 430.678 119.976C431.158 119.256 431.398 118.328 431.398 117.192C431.398 116.056 431.158 115.136 430.678 114.432C430.214 113.712 429.598 113.352 428.83 113.352C428.382 113.352 427.934 113.504 427.486 113.808C427.054 114.112 426.726 114.48 426.502 114.912V119.496C426.726 119.928 427.054 120.296 427.486 120.6C427.934 120.904 428.382 121.056 428.83 121.056ZM442.102 123.288C440.31 123.288 438.87 122.704 437.782 121.536C436.694 120.352 436.15 118.904 436.15 117.192C436.15 115.48 436.694 114.04 437.782 112.872C438.87 111.704 440.31 111.12 442.102 111.12C443.91 111.12 445.358 111.704 446.446 112.872C447.534 114.04 448.078 115.48 448.078 117.192C448.078 118.92 447.534 120.368 446.446 121.536C445.358 122.704 443.91 123.288 442.102 123.288ZM442.102 121.056C443.142 121.056 443.958 120.688 444.55 119.952C445.158 119.2 445.462 118.28 445.462 117.192C445.462 116.12 445.158 115.216 444.55 114.48C443.958 113.728 443.142 113.352 442.102 113.352C441.078 113.352 440.262 113.728 439.654 114.48C439.062 115.216 438.766 116.12 438.766 117.192C438.766 118.28 439.062 119.2 439.654 119.952C440.262 120.688 441.078 121.056 442.102 121.056ZM456.868 123.288C455.332 123.288 454.092 122.656 453.148 121.392V127.416H450.628V111.408H453.148V112.992C454.076 111.744 455.316 111.12 456.868 111.12C458.388 111.12 459.62 111.664 460.564 112.752C461.524 113.84 462.004 115.32 462.004 117.192C462.004 119.064 461.524 120.552 460.564 121.656C459.62 122.744 458.388 123.288 456.868 123.288ZM456.124 121.056C457.116 121.056 457.908 120.696 458.5 119.976C459.092 119.256 459.388 118.328 459.388 117.192C459.388 116.056 459.092 115.136 458.5 114.432C457.908 113.712 457.116 113.352 456.124 113.352C455.548 113.352 454.98 113.504 454.42 113.808C453.86 114.112 453.436 114.48 453.148 114.912V119.496C453.436 119.928 453.86 120.296 454.42 120.6C454.98 120.904 455.548 121.056 456.124 121.056ZM477.487 123H474.967V114.936L471.511 123H470.503L467.023 114.936V123H464.503V111.408H467.791L471.007 118.896L474.175 111.408H477.487V123ZM479.545 123.288V121.224C480.041 121.224 480.433 120.904 480.721 120.264C481.025 119.624 481.273 118.552 481.465 117.048L482.161 111.408H491.113V123H488.593V113.616H484.393L483.985 117.336C483.761 119.416 483.289 120.928 482.569 121.872C481.849 122.816 480.841 123.288 479.545 123.288ZM499.738 123.288C497.978 123.288 496.522 122.728 495.37 121.608C494.234 120.472 493.666 119 493.666 117.192C493.666 115.496 494.218 114.064 495.322 112.896C496.442 111.712 497.85 111.12 499.546 111.12C501.258 111.12 502.634 111.712 503.674 112.896C504.73 114.08 505.258 115.592 505.258 117.432V118.032H496.306C496.402 118.944 496.778 119.704 497.434 120.312C498.09 120.92 498.946 121.224 500.002 121.224C500.594 121.224 501.186 121.112 501.778 120.888C502.386 120.664 502.89 120.352 503.29 119.952L504.442 121.608C503.274 122.728 501.706 123.288 499.738 123.288ZM502.81 116.256C502.778 115.456 502.482 114.744 501.922 114.12C501.378 113.496 500.586 113.184 499.546 113.184C498.554 113.184 497.778 113.496 497.218 114.12C496.658 114.728 496.346 115.44 496.282 116.256H502.81ZM510.265 123H507.745V111.408H510.265V115.968H515.593V111.408H518.113V123H515.593V118.176H510.265V123ZM530.986 123H528.466V121.752C527.57 122.776 526.322 123.288 524.722 123.288C523.666 123.288 522.73 122.952 521.914 122.28C521.098 121.592 520.69 120.648 520.69 119.448C520.69 118.216 521.09 117.28 521.89 116.64C522.706 116 523.65 115.68 524.722 115.68C526.37 115.68 527.618 116.176 528.466 117.168V115.44C528.466 114.768 528.218 114.24 527.722 113.856C527.226 113.472 526.57 113.28 525.754 113.28C524.458 113.28 523.314 113.768 522.322 114.744L521.29 112.992C522.602 111.744 524.226 111.12 526.162 111.12C527.586 111.12 528.746 111.456 529.642 112.128C530.538 112.8 530.986 113.864 530.986 115.32V123ZM525.706 121.56C526.97 121.56 527.89 121.16 528.466 120.36V118.608C527.89 117.808 526.97 117.408 525.706 117.408C524.986 117.408 524.394 117.6 523.93 117.984C523.466 118.368 523.234 118.872 523.234 119.496C523.234 120.12 523.466 120.624 523.93 121.008C524.394 121.376 524.986 121.56 525.706 121.56Z" fill="#3C3E42"/>
<path d="M352.477 148H348.221V138.662H352.379C353.182 138.662 353.816 138.881 354.283 139.32C354.759 139.759 354.997 140.333 354.997 141.042C354.997 141.602 354.838 142.078 354.521 142.47C354.204 142.853 353.816 143.091 353.359 143.184C353.854 143.259 354.278 143.52 354.633 143.968C354.997 144.416 355.179 144.92 355.179 145.48C355.179 146.236 354.936 146.847 354.451 147.314C353.975 147.771 353.317 148 352.477 148ZM352.183 142.708C352.696 142.708 353.093 142.568 353.373 142.288C353.653 142.008 353.793 141.649 353.793 141.21C353.793 140.771 353.648 140.412 353.359 140.132C353.079 139.843 352.687 139.698 352.183 139.698H349.383V142.708H352.183ZM352.239 146.964C352.78 146.964 353.205 146.819 353.513 146.53C353.821 146.241 353.975 145.849 353.975 145.354C353.975 144.897 353.821 144.514 353.513 144.206C353.214 143.898 352.79 143.744 352.239 143.744H349.383V146.964H352.239ZM362.262 148H361.212V147.23C360.642 147.855 359.896 148.168 358.972 148.168C358.346 148.168 357.796 147.967 357.32 147.566C356.844 147.165 356.606 146.619 356.606 145.928C356.606 145.219 356.839 144.673 357.306 144.29C357.782 143.898 358.337 143.702 358.972 143.702C359.933 143.702 360.68 144.01 361.212 144.626V143.408C361.212 142.96 361.053 142.61 360.736 142.358C360.418 142.106 360.008 141.98 359.504 141.98C358.71 141.98 358.02 142.293 357.432 142.918L356.942 142.19C357.66 141.443 358.561 141.07 359.644 141.07C360.418 141.07 361.048 141.257 361.534 141.63C362.019 142.003 362.262 142.577 362.262 143.352V148ZM359.35 147.412C360.19 147.412 360.81 147.132 361.212 146.572V145.298C360.81 144.738 360.19 144.458 359.35 144.458C358.864 144.458 358.463 144.598 358.146 144.878C357.838 145.149 357.684 145.503 357.684 145.942C357.684 146.371 357.838 146.726 358.146 147.006C358.463 147.277 358.864 147.412 359.35 147.412ZM372.178 141.238H373.228V148H364.366V141.238H365.416V147.076H368.272V141.238H369.322V147.076H372.178V141.238ZM381.223 148H380.173V142.162H378.213V141.238H383.197V142.162H381.223V148ZM389.949 147.146C389.343 147.827 388.535 148.168 387.527 148.168C386.519 148.168 385.707 147.827 385.091 147.146C384.485 146.465 384.181 145.62 384.181 144.612C384.181 143.604 384.485 142.764 385.091 142.092C385.707 141.411 386.519 141.07 387.527 141.07C388.535 141.07 389.343 141.411 389.949 142.092C390.565 142.764 390.873 143.604 390.873 144.612C390.873 145.62 390.565 146.465 389.949 147.146ZM385.875 146.474C386.286 146.978 386.837 147.23 387.527 147.23C388.218 147.23 388.764 146.978 389.165 146.474C389.567 145.961 389.767 145.34 389.767 144.612C389.767 143.884 389.567 143.268 389.165 142.764C388.764 142.26 388.218 142.008 387.527 142.008C386.837 142.008 386.286 142.265 385.875 142.778C385.474 143.282 385.273 143.893 385.273 144.612C385.273 145.34 385.474 145.961 385.875 146.474ZM396.379 148H392.585V141.238H396.309C396.897 141.238 397.359 141.397 397.695 141.714C398.04 142.031 398.213 142.451 398.213 142.974C398.213 143.357 398.106 143.688 397.891 143.968C397.686 144.239 397.429 144.421 397.121 144.514C397.466 144.598 397.756 144.799 397.989 145.116C398.232 145.433 398.353 145.783 398.353 146.166C398.353 146.717 398.176 147.16 397.821 147.496C397.476 147.832 396.995 148 396.379 148ZM396.169 147.076C396.505 147.076 396.771 146.983 396.967 146.796C397.163 146.609 397.261 146.357 397.261 146.04C397.261 145.751 397.163 145.503 396.967 145.298C396.771 145.093 396.505 144.99 396.169 144.99H393.635V147.076H396.169ZM396.127 144.066C396.444 144.066 396.692 143.982 396.869 143.814C397.046 143.637 397.135 143.408 397.135 143.128C397.135 142.829 397.046 142.596 396.869 142.428C396.692 142.251 396.444 142.162 396.127 142.162H393.635V144.066H396.127ZM405.615 148H404.565V147.23C403.996 147.855 403.249 148.168 402.325 148.168C401.7 148.168 401.149 147.967 400.673 147.566C400.197 147.165 399.959 146.619 399.959 145.928C399.959 145.219 400.192 144.673 400.659 144.29C401.135 143.898 401.69 143.702 402.325 143.702C403.286 143.702 404.033 144.01 404.565 144.626V143.408C404.565 142.96 404.406 142.61 404.089 142.358C403.772 142.106 403.361 141.98 402.857 141.98C402.064 141.98 401.373 142.293 400.785 142.918L400.295 142.19C401.014 141.443 401.914 141.07 402.997 141.07C403.772 141.07 404.402 141.257 404.887 141.63C405.372 142.003 405.615 142.577 405.615 143.352V148ZM402.703 147.412C403.543 147.412 404.164 147.132 404.565 146.572V145.298C404.164 144.738 403.543 144.458 402.703 144.458C402.218 144.458 401.816 144.598 401.499 144.878C401.191 145.149 401.037 145.503 401.037 145.942C401.037 146.371 401.191 146.726 401.499 147.006C401.816 147.277 402.218 147.412 402.703 147.412ZM411.052 148.168C410.1 148.168 409.339 147.771 408.77 146.978V150.576H407.72V141.238H408.77V142.246C409.022 141.891 409.349 141.607 409.75 141.392C410.151 141.177 410.585 141.07 411.052 141.07C411.948 141.07 412.671 141.392 413.222 142.036C413.782 142.671 414.062 143.529 414.062 144.612C414.062 145.695 413.782 146.558 413.222 147.202C412.671 147.846 411.948 148.168 411.052 148.168ZM410.786 147.23C411.449 147.23 411.976 146.987 412.368 146.502C412.76 146.007 412.956 145.377 412.956 144.612C412.956 143.847 412.76 143.221 412.368 142.736C411.976 142.251 411.449 142.008 410.786 142.008C410.385 142.008 409.993 142.115 409.61 142.33C409.237 142.535 408.957 142.787 408.77 143.086V146.138C408.957 146.446 409.237 146.707 409.61 146.922C409.993 147.127 410.385 147.23 410.786 147.23ZM418.963 150.646L419.131 149.694C419.299 149.769 419.49 149.806 419.705 149.806C419.948 149.806 420.148 149.755 420.307 149.652C420.466 149.549 420.601 149.363 420.713 149.092L421.161 148.07L418.333 141.238H419.467L421.721 146.782L423.961 141.238H425.109L421.721 149.372C421.348 150.268 420.685 150.725 419.733 150.744C419.453 150.744 419.196 150.711 418.963 150.646ZM426.694 148H425.35L428.36 144.304L425.364 141.238H426.694L429.606 144.22V141.238H430.656V144.206L433.568 141.238H434.898L431.888 144.304L434.912 148H433.568L431.132 144.962L430.656 145.438V148H429.606V145.438L429.13 144.962L426.694 148ZM439.168 148.168C438.16 148.168 437.334 147.841 436.69 147.188C436.046 146.525 435.724 145.667 435.724 144.612C435.724 143.623 436.042 142.787 436.676 142.106C437.311 141.415 438.104 141.07 439.056 141.07C440.055 141.07 440.844 141.415 441.422 142.106C442.01 142.787 442.304 143.651 442.304 144.696V144.962H436.83C436.877 145.625 437.12 146.18 437.558 146.628C437.997 147.076 438.566 147.3 439.266 147.3C440.106 147.3 440.802 147.015 441.352 146.446L441.856 147.132C441.166 147.823 440.27 148.168 439.168 148.168ZM441.268 144.192C441.259 143.613 441.063 143.095 440.68 142.638C440.298 142.171 439.752 141.938 439.042 141.938C438.37 141.938 437.838 142.167 437.446 142.624C437.064 143.081 436.858 143.604 436.83 144.192H441.268ZM451.408 148H447.614V141.238H451.338C451.926 141.238 452.388 141.397 452.724 141.714C453.07 142.031 453.242 142.451 453.242 142.974C453.242 143.357 453.135 143.688 452.92 143.968C452.715 144.239 452.458 144.421 452.15 144.514C452.496 144.598 452.785 144.799 453.018 145.116C453.261 145.433 453.382 145.783 453.382 146.166C453.382 146.717 453.205 147.16 452.85 147.496C452.505 147.832 452.024 148 451.408 148ZM451.198 147.076C451.534 147.076 451.8 146.983 451.996 146.796C452.192 146.609 452.29 146.357 452.29 146.04C452.29 145.751 452.192 145.503 451.996 145.298C451.8 145.093 451.534 144.99 451.198 144.99H448.664V147.076H451.198ZM451.156 144.066C451.474 144.066 451.721 143.982 451.898 143.814C452.076 143.637 452.164 143.408 452.164 143.128C452.164 142.829 452.076 142.596 451.898 142.428C451.721 142.251 451.474 142.162 451.156 142.162H448.664V144.066H451.156ZM464.604 148H463.554V142.162H460.026V148H458.976V141.238H464.604V148ZM466.322 150.646L466.49 149.694C466.658 149.769 466.85 149.806 467.064 149.806C467.307 149.806 467.508 149.755 467.666 149.652C467.825 149.549 467.96 149.363 468.072 149.092L468.52 148.07L465.692 141.238H466.826L469.08 146.782L471.32 141.238H472.468L469.08 149.372C468.707 150.268 468.044 150.725 467.092 150.744C466.812 150.744 466.556 150.711 466.322 150.646ZM475.846 148H474.796V142.162H472.836V141.238H477.82V142.162H475.846V148ZM480.204 148H479.196V141.238H480.246V146.404L483.788 141.238H484.824V148H483.774V142.736L480.204 148Z" fill="#3C3E42"/>
<path fill-rule="evenodd" clip-rule="evenodd" d="M416 85C429.807 85 441 73.8071 441 60C441 46.1929 429.807 35 416 35C402.193 35 391 46.1929 391 60C391 73.8071 402.193 85 416 85ZM411.946 64.3196L424.732 50.6888C425.595 49.7704 426.991 49.7704 427.854 50.6888C428.715 51.6083 428.715 53.0971 427.854 54.0166L413.507 69.3101C413.076 69.7704 412.512 70 411.947 70C411.383 70 410.817 69.7693 410.386 69.3101L404.147 62.6588C403.284 61.7404 403.284 60.2506 404.147 59.3321C405.008 58.4127 406.406 58.4127 407.268 59.3321L411.946 64.3196Z" fill="#E81E1E"/>
<defs>
<filter id="filter0_d" x="207.951" y="127.794" width="26.7255" height="26.1049" filterUnits="userSpaceOnUse" color-interpolation-filters="sRGB">
<feFlood flood-opacity="0" result="BackgroundImageFix"/>
<feColorMatrix in="SourceAlpha" type="matrix" values="0 0 0 0 0 0 0 0 0 0 0 0 0 0 0 0 0 0 127 0"/>
<feOffset dy="4"/>
<feGaussianBlur stdDeviation="2"/>
<feColorMatrix type="matrix" values="0 0 0 0 0 0 0 0 0 0 0 0 0 0 0 0 0 0 0.25 0"/>
<feBlend mode="normal" in2="BackgroundImageFix" result="effect1_dropShadow"/>
<feBlend mode="normal" in="SourceGraphic" in2="effect1_dropShadow" result="shape"/>
</filter>
</defs>
</svg>
