<svg width="230" height="179" viewBox="0 0 230 179" fill="none" xmlns="http://www.w3.org/2000/svg">
<path d="M28.25 136.75C28.25 143.083 29.5 147.583 32 150.25C34.6667 152.75 38.1667 154 42.5 154C46.8333 154 50.25 152.75 52.75 150.25C55.4167 147.583 56.75 143.083 56.75 136.75V42.25C56.75 35.9167 55.4167 31.5 52.75 29C50.25 26.3333 46.8333 25 42.5 25C38.1667 25 34.6667 26.3333 32 29C29.5 31.5 28.25 35.9167 28.25 42.25V136.75ZM0.75 44C0.75 29.8333 4.33333 19 11.5 11.5C18.6667 3.83333 29 -1.07288e-06 42.5 -1.07288e-06C56 -1.07288e-06 66.3333 3.83333 73.5 11.5C80.6667 19 84.25 29.8333 84.25 44V135C84.25 149.167 80.6667 160.083 73.5 167.75C66.3333 175.25 56 179 42.5 179C29 179 18.6667 175.25 11.5 167.75C4.33333 160.083 0.75 149.167 0.75 135V44ZM128.621 150.5V177H102.121V150.5H128.621ZM229.258 133.5C229.258 148.333 225.841 159.667 219.008 167.5C212.174 175.167 201.591 179 187.258 179C173.758 179 163.508 175.25 156.508 167.75C149.674 160.083 146.258 149.167 146.258 135V130.5H172.258V136.75C172.258 143.083 173.508 147.583 176.008 150.25C178.674 152.75 182.174 154 186.508 154C191.341 154 195.091 152.5 197.758 149.5C200.424 146.5 201.758 140.833 201.758 132.5V100.5C196.924 110.833 188.424 116 176.258 116C166.091 116 158.424 112.583 153.258 105.75C148.258 98.9167 145.758 89 145.758 76V44C145.758 29.8333 149.341 19 156.508 11.5C163.674 3.83333 174.008 -1.07288e-06 187.508 -1.07288e-06C201.008 -1.07288e-06 211.341 3.83333 218.508 11.5C225.674 19 229.258 29.8333 229.258 44V133.5ZM187.508 91C191.841 91 195.258 89.75 197.758 87.25C200.424 84.5833 201.758 80.0833 201.758 73.75V42.25C201.758 35.9167 200.424 31.5 197.758 29C195.258 26.5 191.841 25.25 187.508 25.25C183.174 25.25 179.674 26.5 177.008 29C174.508 31.5 173.258 35.9167 173.258 42.25V73.75C173.258 80.0833 174.508 84.5833 177.008 87.25C179.674 89.75 183.174 91 187.508 91Z" fill="#3C3E42"/>
</svg>
