<svg width="492" height="402" viewBox="0 0 492 402" fill="none" xmlns="http://www.w3.org/2000/svg">
<rect opacity="0.7" x="120.206" y="253.607" width="56.2893" height="18.1956" rx="5" fill="#FFF2E3"/>
<rect opacity="0.7" x="83.8979" y="229.978" width="56.2893" height="18.1956" rx="5" fill="#FFF2E3"/>
<rect x="182.632" y="253.607" width="61.6517" height="18.1956" rx="5" fill="#FFF2E3"/>
<rect x="250.804" y="253.607" width="61.0506" height="18.1956" rx="5" fill="#FFF2E3"/>
<rect opacity="0.5" x="320.148" y="253.607" width="59.0258" height="18.1956" rx="5" fill="#FFF2E3"/>
<rect opacity="0.5" x="146.064" y="232.977" width="58.4441" height="16.8861" rx="5" fill="#FFF2E3"/>
<rect opacity="0.7" x="210.274" y="232.977" width="65.9295" height="16.8861" rx="5" fill="#FFF2E3"/>
<rect x="284.188" y="232.977" width="59.0088" height="16.8861" rx="5" fill="#FFF2E3"/>
<rect opacity="0.7" x="185.916" y="203.938" width="182.066" height="20.3724" rx="5" fill="#FFF2E3"/>
<rect opacity="0.5" x="353.77" y="134.2" width="42.6919" height="20.3724" rx="5" fill="#FFF2E3"/>
<rect x="185.916" y="153.808" width="48.7157" height="16.4372" rx="5" fill="#FFF2E3"/>
<rect x="207.52" y="127.646" width="48.7157" height="16.4372" rx="5" fill="#FFF2E3"/>
<rect opacity="0.6" x="179.171" y="105.707" width="48.7157" height="16.4372" rx="5" fill="#FFF2E3"/>
<rect opacity="0.5" x="163.273" y="78.6912" width="48.7157" height="16.4372" rx="5" fill="#FFF2E3"/>
<rect opacity="0.5" x="345.021" y="90.3318" width="48.7157" height="16.4372" rx="5" fill="#FFF2E3"/>
<rect opacity="0.7" x="69.2544" y="172.596" width="219.548" height="20.3724" rx="5" fill="#FFF2E3"/>
<rect opacity="0.7" x="373.295" y="112.741" width="29.7751" height="18.8053" rx="5" fill="#FFF2E3"/>
<rect opacity="0.7" x="340.385" y="112.741" width="29.7751" height="18.8053" rx="5" fill="#FFF2E3"/>
<rect opacity="0.7" x="216.584" y="274.153" width="59.6193" height="20.3724" rx="5" fill="#FFF2E3"/>
<path d="M102.254 226.662H138.782C141.544 226.662 143.782 228.9 143.782 231.662V245.172C143.782 247.934 141.544 250.172 138.782 250.172H120.276" stroke="url(#paint0_linear)"/>
<path opacity="0.6" d="M343.589 109.912L366.405 109.912C369.166 109.912 371.405 112.15 371.405 114.912V128.026C371.405 130.788 369.166 133.026 366.405 133.026H356.909" stroke="#F17F70"/>
<path opacity="0.6" d="M399.221 109.912L376.405 109.912C373.644 109.912 371.405 112.15 371.405 114.912V128.026C371.405 130.788 373.644 133.026 376.405 133.026H385.901" stroke="#F17F70"/>
<path d="M138.689 250.168H175.218C177.979 250.168 180.218 252.407 180.218 255.168V268.283C180.218 271.044 177.979 273.283 175.218 273.283H156.711" stroke="#F17F70"/>
<path d="M185.218 250.168H243.387C246.148 250.168 248.387 252.407 248.387 255.168V268.283C248.387 271.044 246.148 273.283 243.387 273.283H185.218C182.456 273.283 180.218 271.044 180.218 268.283V255.168C180.218 252.407 182.456 250.168 185.218 250.168Z" stroke="#F17F70"/>
<path d="M253.387 250.168H311.556C314.318 250.168 316.556 252.407 316.556 255.168V268.283C316.556 271.044 314.318 273.283 311.556 273.283H253.387C250.625 273.283 248.387 271.044 248.387 268.283V255.168C248.387 252.407 250.625 250.168 253.387 250.168Z" stroke="#F17F70"/>
<path opacity="0.5" d="M389.035 87.1887H352.208M343.197 109.912H397.262" stroke="#F17F70"/>
<path opacity="0.6" d="M196.281 171.029L205.776 171.029C208.538 171.029 210.776 173.268 210.776 176.029V189.144C210.776 191.905 208.538 194.144 205.776 194.144H201.374" stroke="#F17F70"/>
<path opacity="0.6" d="M225.272 171.029L215.776 171.029C213.015 171.029 210.776 173.268 210.776 176.029V189.144C210.776 191.905 213.015 194.144 215.776 194.144H219.395" stroke="#F17F70"/>
<path opacity="0.5" d="M216.261 148.306L204.508 148.306" stroke="#F17F70"/>
<path opacity="0.5" d="M397.262 155.358H372.188" stroke="#F17F70"/>
<path opacity="0.5" d="M363.177 193.752H343.197" stroke="#F17F70"/>
<path d="M213.91 296.006V277.891C213.91 275.13 216.149 272.891 218.91 272.891H277.08C279.841 272.891 282.08 275.13 282.08 277.891V296.006" stroke="url(#paint1_linear)"/>
<path d="M350.641 273.283H321.556C318.795 273.283 316.556 271.044 316.556 268.283V255.168C316.556 252.407 318.795 250.168 321.556 250.168H373.756" stroke="url(#paint2_linear)"/>
<path d="M185.702 226.662H149.174C146.413 226.662 144.174 228.9 144.174 231.662V245.161C144.174 247.923 146.413 250.161 149.174 250.161H204.209C206.971 250.161 209.209 247.923 209.209 245.161V237.24" stroke="url(#paint3_linear)"/>
<path d="M282.08 226.662V244.776C282.08 247.538 284.318 249.776 287.08 249.776H342.115C344.876 249.776 347.115 247.538 347.115 244.776V237.24" stroke="url(#paint4_linear)"/>
<g filter="url(#filter0_d)">
<path d="M226.056 217.259V48.011L276.595 51.1452C317.026 58.6673 332.358 75.4354 334.97 82.8792V184.741C335.492 190.096 335.597 202.371 331.835 208.64C327.134 216.475 308.721 220.393 304.803 219.609C301.669 218.983 291.221 217.781 286.389 217.259H226.056Z" fill="url(#paint5_linear)"/>
<path d="M226.056 217.259V48.011L276.595 51.1452C317.026 58.6673 332.358 75.4354 334.97 82.8792V184.741C335.492 190.096 335.597 202.371 331.835 208.64C327.134 216.475 308.721 220.393 304.803 219.609C301.669 218.983 291.221 217.781 286.389 217.259H226.056Z" stroke="#7E92A4"/>
</g>
<path d="M241.335 157.802V112.561C241.335 109.8 243.573 107.561 246.335 107.561H316.649C319.411 107.561 321.649 109.8 321.649 112.561V157.802C321.649 160.563 319.411 162.802 316.649 162.802H246.335C243.573 162.802 241.335 160.563 241.335 157.802Z" fill="#E5EBF3"/>
<path d="M246.363 162.802L299.004 125.821C300.37 124.862 302.188 124.851 303.565 125.795L321.649 138.189V157.802C321.649 160.563 319.411 162.802 316.649 162.802H246.363Z" fill="#D5DCE5"/>
<circle cx="257.34" cy="123.111" r="7.05199" fill="#D5DCE5"/>
<path d="M241.657 176.56V173.508C241.657 172.403 242.553 171.508 243.657 171.508H289.805C290.91 171.508 291.805 172.403 291.805 173.508V176.56C291.805 177.664 290.91 178.56 289.805 178.56H243.657C242.553 178.56 241.657 177.664 241.657 176.56Z" fill="#7E92A4"/>
<path d="M319.621 189.529H243.616C242.534 189.529 241.657 188.652 241.657 187.57C241.657 186.489 242.534 185.612 243.616 185.612H319.621C320.703 185.612 321.58 186.489 321.58 187.57C321.58 188.652 320.703 189.529 319.621 189.529Z" fill="#7E92A4"/>
<path d="M298.143 200.804H243.294C242.212 200.804 241.335 199.927 241.335 198.845C241.335 197.763 242.212 196.886 243.294 196.886H298.143C299.224 196.886 300.101 197.763 300.101 198.845C300.101 199.927 299.224 200.804 298.143 200.804Z" fill="#7E92A4"/>
<g filter="url(#filter1_d)">
<path d="M81.0979 216.083V47.2273H193.538V216.083H81.0979Z" fill="url(#paint6_linear)"/>
<path d="M81.0979 216.083V47.2273H193.538V216.083H81.0979Z" stroke="url(#paint7_linear)"/>
</g>
<path d="M97.1608 157.802V112.561C97.1608 109.8 99.3994 107.561 102.161 107.561H172.475C175.237 107.561 177.475 109.8 177.475 112.561V157.802C177.475 160.563 175.237 162.802 172.475 162.802H102.161C99.3994 162.802 97.1608 160.563 97.1608 157.802Z" fill="#E5EBF3"/>
<path d="M101.412 162.802L154.836 125.795C156.2 124.85 158.006 124.846 159.375 125.784L177.475 138.189V157.802C177.475 160.563 175.237 162.802 172.475 162.802H101.412Z" fill="#D5DCE5"/>
<path d="M97.1608 176.864V173.812C97.1608 172.708 98.0563 171.812 99.1608 171.812H165.681C166.785 171.812 167.681 172.708 167.681 173.813V176.864C167.681 177.969 166.785 178.864 165.681 178.864H99.1608C98.0563 178.864 97.1608 177.969 97.1608 176.864Z" fill="#7E92A4"/>
<path d="M141.432 189.835H99.1197C98.0379 189.835 97.1608 188.957 97.1608 187.876C97.1608 186.794 98.0379 185.917 99.1197 185.917H141.432C142.514 185.917 143.391 186.794 143.391 187.876C143.391 188.957 142.514 189.835 141.432 189.835Z" fill="#7E92A4"/>
<path d="M153.969 200.804H99.1197C98.0379 200.804 97.1608 199.927 97.1608 198.845C97.1608 197.763 98.0379 196.886 99.1197 196.886H153.969C155.05 196.886 155.927 197.763 155.927 198.845C155.927 199.927 155.05 200.804 153.969 200.804Z" fill="#7E92A4"/>
<g clip-path="url(#clip0)">
<path d="M272.369 71.7234C270.755 71.7234 269.073 72.886 269.073 72.886V72.1389C269.073 71.975 269.007 71.9094 268.841 71.9094H266.781C266.615 71.9094 266.515 72.0078 266.515 72.1389V88.0735C266.515 88.2379 266.581 88.3363 266.748 88.3363H268.84C268.973 88.3363 269.073 88.2379 269.073 88.0735V74.4337C269.073 74.4337 270.044 73.8262 271.224 73.8262C272.347 73.8262 273.234 74.3765 273.234 75.5047V88.0728C273.234 88.2373 273.333 88.3357 273.5 88.3357H275.559C275.725 88.3357 275.792 88.2041 275.792 88.0728V74.7905C275.792 72.7901 274.545 71.7234 272.369 71.7234ZM288.391 63.7305H286.331C286.165 63.7305 286.066 63.8287 286.066 63.9601V71.9987C285.275 71.6994 284.555 71.5413 283.973 71.5413C280.628 71.5413 278.332 74.6976 278.332 80.767C278.332 85.9666 280.565 88.7552 283.481 88.7552C284.709 88.7552 285.724 88.0602 286.467 87.4083L286.916 88.1608C286.992 88.2909 287.054 88.3355 287.207 88.3355L288.391 88.3366C288.524 88.3366 288.624 88.2383 288.624 88.0738V63.9601C288.624 63.7959 288.557 63.7305 288.391 63.7305ZM281.055 80.23C281.055 76.8855 282.047 73.574 284.072 73.574C284.758 73.574 285.417 73.7968 286.066 74.3056V86.0878C285.558 86.3604 284.92 86.6112 284.23 86.6112C282.028 86.6112 281.055 84.0335 281.055 80.23ZM296.281 71.5741C292.85 71.5741 291.158 76.003 291.158 80.8225C291.158 85.8675 293.572 88.6949 296.677 88.6949C298.041 88.6949 299.4 88.1649 300.29 87.6763C300.427 87.6013 300.452 87.4958 300.419 87.3654L300.158 86.2996C300.126 86.1692 300.059 86.1044 299.895 86.1044C299.822 86.1044 298.697 86.4293 297.602 86.4293C295.061 86.4293 293.896 84.2001 293.896 81.2396V80.5202C293.896 80.5202 295.159 80.6924 295.917 80.6924H300.711V79.3251C300.711 74.2773 298.92 71.5741 296.281 71.5741ZM296.116 78.6408C295.357 78.6408 293.976 78.8261 293.976 78.8261C293.976 78.8261 293.995 78.2826 294.061 77.7619C294.358 74.9938 295.027 73.5935 296.182 73.5935C297.186 73.5935 297.874 75.0261 298.039 77.5336C298.071 78.0547 298.071 78.6408 298.071 78.6408H296.116ZM262.603 73.644C261.842 72.1627 260.485 71.5153 258.931 71.5153C257.933 71.5153 256.375 71.8921 255.334 72.3539C255.13 72.4443 255.002 72.5237 255.002 72.6817C255.002 72.7757 255.049 72.8836 255.101 72.9768L255.803 74.4584C255.875 74.6257 255.991 74.6641 256.086 74.6641C256.19 74.6641 256.275 74.6156 256.368 74.5568C257.383 73.9167 258.126 73.5646 258.714 73.5646C259.493 73.5646 260.022 74.0744 260.348 74.8412C260.652 75.5556 260.769 76.5428 260.769 77.6834C260.769 77.8287 260.77 78.0184 260.77 78.0184C260.13 77.6234 259.022 77.4058 258.469 77.4058C255.493 77.4058 253.889 80.1966 253.889 83.181C253.889 86.3967 255.764 88.755 258.018 88.755C259.273 88.755 260.41 88.0279 261.171 87.111C261.171 87.111 261.576 88.0646 261.629 88.179C261.682 88.293 261.738 88.3353 261.891 88.3353L263.095 88.3365C263.228 88.3365 263.328 88.2381 263.328 88.0736V78.8301C263.327 76.5585 263.211 74.8258 262.603 73.644ZM260.77 85.754C260.18 86.3166 259.473 86.6112 258.837 86.6112C258.201 86.6112 257.71 86.3213 257.316 85.7842C256.836 85.131 256.612 84.1251 256.612 83.0102C256.612 81.2472 257.272 79.4382 258.669 79.4382C259.361 79.4382 260.121 79.6606 260.77 80.1698L260.77 85.754ZM311.588 71.9071H309.752C309.547 71.9071 309.442 72.0131 309.39 72.1507C308.985 73.2014 308.581 74.2526 308.179 75.3045C307.952 75.9014 307.341 77.6106 307.341 77.6106L307.27 77.6101C307.267 77.604 306.82 76.3666 306.578 75.747C306.382 75.2445 305.359 72.5854 305.23 72.2578C305.161 72.0817 305.083 71.9071 304.821 71.9071H302.811C302.59 71.9071 302.465 72.1465 302.536 72.2949C302.608 72.4438 305.81 79.6434 305.81 79.6434C305.81 79.6434 302.371 87.7052 302.271 87.886C302.17 88.067 302.296 88.335 302.541 88.335H304.302C304.602 88.335 304.72 88.1799 304.81 87.9302C305.063 87.2302 305.44 86.2569 305.974 84.7523C306.327 83.7555 306.887 82.0056 306.887 82.0056H306.949C306.949 82.0056 307.561 83.789 307.789 84.372C308.364 85.8466 309.1 87.7724 309.179 87.9758C309.26 88.1884 309.374 88.3352 309.579 88.3352H311.577C311.775 88.3352 311.866 88.1125 311.773 87.9187C311.551 87.4563 309.654 82.907 308.336 79.9161C308.336 79.9161 311.755 72.4702 311.822 72.286C311.889 72.1014 311.87 71.9071 311.588 71.9071Z" fill="#272525"/>
<path d="M255.969 61.3335H253.653C253.448 61.3335 253.32 61.4327 253.29 61.5769C253.261 61.7217 249.818 72.0835 249.567 72.9467C249.39 73.5584 248.812 75.7158 248.673 76.2338L247.475 73.007C247.184 72.119 244.395 64.4289 244.314 64.1217C244.269 63.9529 244.19 63.7429 243.89 63.7429H241.63C241.408 63.7429 241.284 63.9824 241.355 64.1308C241.412 64.2494 245.495 74.9717 247.145 79.0681V88.0742C247.145 88.2387 247.211 88.337 247.378 88.337H249.519C249.651 88.337 249.751 88.2387 249.751 88.0742V79.1389C251.126 75.348 256.149 61.8634 256.204 61.7123C256.27 61.5276 256.25 61.3335 255.969 61.3335Z" fill="#FF0000"/>
</g>
<path d="M321.649 204.722C317.575 216.632 305.848 218.957 300.493 218.826C315.381 221.96 329.615 211.905 331.444 208.248C326.742 207.934 322.955 205.767 321.649 204.722Z" fill="url(#paint8_linear)" stroke="#7E92A4"/>
<path opacity="0.5" d="M3.526 48.011H43.4873V216.084H0" stroke="url(#paint9_linear)"/>
<path opacity="0.6" d="M4.88208 163.743V108.502H22.7343C25.4958 108.502 27.7343 110.741 27.7343 113.502V158.743C27.7343 161.504 25.4958 163.743 22.7343 163.743H4.88208Z" fill="#E5EBF3"/>
<path opacity="0.6" d="M4.88208 87.1885V64.5505H22.7343C25.4958 64.5505 27.7343 66.7891 27.7343 69.5505V82.1885C27.7343 84.9499 25.4958 87.1885 22.7343 87.1885H4.88208Z" fill="#E5EBF3"/>
<path opacity="0.6" d="M4.88208 181.221V171.463H8.58341C11.2778 171.463 13.4621 173.648 13.4621 176.342C13.4621 179.037 11.2778 181.221 8.58341 181.221H4.88208Z" fill="#E5EBF3"/>
<path opacity="0.6" d="M4.88208 189.835V185.917H25.7754C26.8573 185.917 27.7343 186.794 27.7343 187.876C27.7343 188.957 26.8573 189.835 25.7754 189.835H4.88208Z" fill="#E5EBF3"/>
<path opacity="0.6" d="M4.88208 198.845V194.927H18.5403C19.6221 194.927 20.4992 195.805 20.4992 196.886C20.4992 197.968 19.6221 198.845 18.5403 198.845H4.88208Z" fill="#E5EBF3"/>
<g clip-path="url(#clip1)">
<path d="M131.172 77.3442C131.172 81.042 128.237 83.7669 124.634 83.7669C121.032 83.7669 118.096 81.042 118.096 77.3442C118.096 73.6202 121.032 70.9214 124.634 70.9214C128.237 70.9214 131.172 73.6202 131.172 77.3442ZM128.31 77.3442C128.31 75.0333 126.609 73.4523 124.634 73.4523C122.66 73.4523 120.958 75.0333 120.958 77.3442C120.958 79.6318 122.66 81.236 124.634 81.236C126.609 81.236 128.31 79.6289 128.31 77.3442Z" fill="#EA4335"/>
<path d="M145.276 77.3442C145.276 81.042 142.341 83.7669 138.738 83.7669C135.136 83.7669 132.2 81.042 132.2 77.3442C132.2 73.6231 135.136 70.9214 138.738 70.9214C142.341 70.9214 145.276 73.6202 145.276 77.3442ZM142.414 77.3442C142.414 75.0333 140.713 73.4523 138.738 73.4523C136.764 73.4523 135.062 75.0333 135.062 77.3442C135.062 79.6318 136.764 81.236 138.738 81.236C140.713 81.236 142.414 79.6289 142.414 77.3442Z" fill="#FBBC05"/>
<path d="M158.792 71.3094V82.8403C158.792 87.5835 155.954 89.5208 152.598 89.5208C149.44 89.5208 147.539 87.4387 146.822 85.736L149.313 84.7138C149.757 85.7592 150.844 86.9928 152.595 86.9928C154.743 86.9928 156.074 85.6868 156.074 83.2283V82.3046H155.975C155.334 83.0835 154.1 83.764 152.543 83.764C149.284 83.764 146.299 80.9667 146.299 77.3673C146.299 73.7418 149.284 70.9214 152.543 70.9214C154.097 70.9214 155.331 71.6019 155.975 72.3577H156.074V71.3123H158.792V71.3094ZM156.277 77.3673C156.277 75.1057 154.746 73.4523 152.798 73.4523C150.824 73.4523 149.169 75.1057 149.169 77.3673C149.169 79.6057 150.824 81.236 152.798 81.236C154.746 81.236 156.277 79.6057 156.277 77.3673Z" fill="#4285F4"/>
<path d="M163.273 64.5508V83.3731H160.482V64.5508H163.273Z" fill="#34A853"/>
<path d="M174.151 79.4583L176.372 80.9177C175.655 81.9631 173.928 83.7642 170.942 83.7642C167.24 83.7642 164.475 80.9438 164.475 77.3415C164.475 73.522 167.264 70.9187 170.622 70.9187C174.004 70.9187 175.658 73.5712 176.199 75.0046L176.496 75.7343L167.784 79.2903C168.451 80.5789 169.488 81.2362 170.942 81.2362C172.4 81.2362 173.411 80.5297 174.151 79.4583ZM167.314 77.1475L173.137 74.7643C172.817 73.9621 171.853 73.4033 170.719 73.4033C169.265 73.4033 167.24 74.6687 167.314 77.1475Z" fill="#EA4335"/>
<path d="M107.531 75.675V72.9501H116.849C116.94 73.425 116.987 73.9868 116.987 74.5949C116.987 76.6393 116.42 79.1673 114.592 80.9684C112.814 82.7927 110.543 83.7657 107.534 83.7657C101.957 83.7657 97.2678 79.2889 97.2678 73.7928C97.2678 68.2966 101.957 63.8198 107.534 63.8198C110.62 63.8198 112.817 65.0129 114.469 66.5679L112.518 68.4907C111.334 67.3961 109.729 66.5447 107.531 66.5447C103.459 66.5447 100.274 69.7793 100.274 73.7928C100.274 77.8063 103.459 81.0408 107.531 81.0408C110.173 81.0408 111.677 79.9955 112.641 79.0457C113.423 78.2754 113.937 77.175 114.14 75.6721L107.531 75.675Z" fill="#4285F4"/>
</g>
<path d="M483.845 313.244C481.743 313.244 480.188 313.636 479.535 314.42L467.39 326.565C469.872 330.744 475.304 339.493 477.185 341.06C480.52 343.84 487.742 339.411 486.587 334.792C485.755 331.463 488.886 329.168 489.232 326.251C490.351 316.825 485.613 313.244 483.845 313.244Z" fill="#BDA18D" stroke="#5F473C"/>
<path d="M484.224 313.969C486.572 317.045 483.529 321.234 482.038 323.027C480.098 321.536 477.923 318.437 478.408 316.351C479.497 313.689 483.447 312.951 484.224 313.969Z" fill="#8E7465"/>
<path opacity="0.5" d="M467.39 326.565C469.872 330.744 475.304 339.493 477.185 341.061C479.242 342.775 481.9 341.488 483.845 340.615C480.711 339.005 476.271 329.01 474.442 324.214L467.39 326.565Z" fill="#5F473C"/>
<path d="M479.144 318.337C479.666 319.643 480.946 322.412 481.886 323.039" stroke="#5F473C" stroke-linecap="round"/>
<path d="M483.502 338.65C482.48 339.794 479.144 340.799 477.185 341.06C481 344.24 487.742 339.411 486.587 334.792C485.909 332.078 488.167 329.096 488.973 326.565C490.527 321.684 487.333 315.419 485.331 314.074C488.408 316.753 488.294 323.417 486.196 326.565C485.412 327.74 483.845 330.874 484.629 332.833C485.412 334.792 484.669 337.343 483.502 338.65Z" fill="#5F473C"/>
<path d="M468.958 269.757C464.256 259.728 455.245 254.608 451.328 253.302C446.471 259.894 438.654 274.529 446.235 280.335C448.977 283.861 452.895 296.398 453.678 300.708C454.462 305.017 458.38 324.998 463.081 326.173C467.782 327.348 480.711 323.822 479.144 315.203C477.89 308.308 471.831 282.033 468.958 269.757Z" fill="#E81E1E" stroke="#600202"/>
<path d="M344.372 319.121C346.854 307.368 353.445 280.129 363.961 278.376C371.013 277.201 379.632 303.058 381.2 316.77" stroke="#334555"/>
<path d="M446.626 217.259C424.687 231.99 406.404 225.747 400.005 220.785C405.333 233.008 406.142 240.765 405.881 243.116C414.892 255.261 450.358 250.952 449.369 247.817C444.667 232.93 474.051 198.845 446.626 217.259Z" stroke="black"/>
<path d="M470.273 318.305L457.204 276.025C464.413 271.637 468.566 273.675 469.741 275.242C472.772 287.201 477.366 309.465 478.872 316.003C480.665 323.79 464.788 326.924 467.923 325.357C470.43 324.104 470.534 320.134 470.273 318.305Z" fill="#B21313"/>
<path d="M393.913 263.936L401.572 226.27L400.396 222.352L374.214 273.058L393.913 263.936Z" stroke="#334555"/>
<path d="M446.724 222.352L473.598 273.995" stroke="#334555"/>
<path d="M475.226 191.793C473.659 191.48 469.611 191.924 467.782 192.185C467.782 195.435 482.931 202.681 490.505 205.897C490.505 204.722 488.774 199.911 486.588 198.453L486.587 198.453C484.235 196.885 477.185 192.185 475.226 191.793Z" fill="#D0906D" stroke="#A05534"/>
<path d="M489.722 210.599C490.505 209.032 490.505 207.073 490.505 205.897C488.572 201.691 485.476 201.356 484.432 201.095C468.394 201.85 473.963 210.618 478.752 214.908C482.278 216.475 488.154 215.3 488.938 213.733C489.33 212.949 488.938 212.166 489.722 210.599Z" fill="#FFCBA5" stroke="#A05534"/>
<path d="M394.092 263.963L474.603 273.686L460.046 284.773L374.195 272.636L394.092 263.963Z" fill="#76432D"/>
<path opacity="0.5" d="M488.514 213.499C488.906 212.715 488.425 212.117 489.208 210.55C487.991 211.968 482.323 211.239 474.052 208.622C474.94 209.858 477.579 213.457 478.626 214.395C482.152 215.962 487.731 215.066 488.514 213.499Z" fill="#D0906D"/>
<path d="M425.862 346.153C422.336 346.545 419.601 345.643 418.027 343.019C416.208 339.988 418.419 337.142 418.419 327.74L433.698 321.863C436.44 321.08 436.832 321.08 439.966 321.863C443.101 322.647 443.884 326.124 443.884 327.74C443.884 330.482 443.884 332.441 439.966 337.142C439.257 337.994 435.656 338.318 434.481 339.101L434.481 339.101C433.306 339.885 432.13 340.668 431.347 341.844C430.563 343.019 429.073 345.796 425.862 346.153Z" fill="url(#paint10_linear)" stroke="#5F473C"/>
<path d="M439.043 324.259C442.302 325.839 438.014 329.943 433.525 331.084C432.118 329.082 431.983 324.484 433.068 322.638C436.825 322.638 437.769 323.641 439.043 324.259Z" fill="#8E7465"/>
<path d="M432.914 322.255C432.414 324.988 432.122 326.45 432.914 330.874" stroke="#5F473C" stroke-linecap="round"/>
<path d="M425.862 346.153C422.336 346.545 419.601 345.643 418.027 343.019C417.484 342.114 417.3 341.225 417.309 340.174C419.406 342.17 422.949 344.683 425.862 343.019C428.605 341.452 431.591 338.934 433.076 337.957C434.465 337.044 437.224 336.751 438.791 335.184C441.946 332.028 442.903 328.348 442.903 324.125C443.645 325.386 443.884 326.847 443.884 327.74C443.884 330.482 443.884 332.441 439.967 337.142C437.953 339.559 433.482 338.641 431.347 341.844C430.564 343.019 429.073 345.797 425.862 346.153Z" fill="#5F473C"/>
<path d="M425.456 325.324C422.708 330.9 424.036 339.086 424.558 343.527C420.462 343.527 418.237 341.451 417.637 340.167C418.672 334.413 418.506 329.257 418.425 327.506L425.456 325.324Z" fill="#8E7465"/>
<path d="M487.371 347.721V344.978L483.649 347.133L481.165 346.487L479.927 349.288L479.927 351.624C479.927 351.624 482.358 350.932 484.055 350.017C486.198 348.864 487.371 347.721 487.371 347.721Z" fill="#596A79" stroke="#334555" stroke-linejoin="round"/>
<path d="M474.834 337.926L479.928 349.34V351.781L474.834 339.167V337.926Z" fill="#334555" stroke="#334555" stroke-linejoin="round"/>
<path d="M468.566 315.203L475.882 331.17L472.484 332.441C470.916 327.74 466.215 319.121 465.432 316.378C464.89 314.483 467.39 313.636 468.566 315.203Z" fill="#EFF4FA" stroke="#334555"/>
<path d="M472.484 332.443C470.916 327.741 466.215 319.122 465.432 316.38C465.209 315.601 465.5 314.999 466.002 314.669L473.568 332.037L472.484 332.443Z" fill="#334555"/>
<path d="M472.484 332.441C473.267 334.139 474.125 336.662 474.834 338.71L479.144 337.143L476.01 331.266L472.484 332.441Z" fill="#7E92A4" stroke="#334555"/>
<path d="M472.484 332.441C473.267 334.139 474.125 336.662 474.834 338.71L475.849 338.399L473.413 332.022L472.484 332.441Z" fill="#334555"/>
<path d="M479.144 337.143L474.834 338.71L479.927 349.288L480.939 346.352L483.649 347.133L487.371 344.978L479.144 337.143Z" fill="#7E92A4" stroke="#334555" stroke-linejoin="round"/>
<path d="M436.048 314.028C436.048 311.207 434.742 295.092 434.089 287.387C434.089 285.167 433.854 280.022 432.914 277.201C431.739 273.675 416.068 271.716 409.407 277.201C409.93 277.854 411.131 279.473 411.758 280.727C412.542 282.294 413.717 315.987 415.284 322.255C416.538 327.27 419.202 328.785 420.377 328.915C433.698 325.781 436.048 317.554 436.048 314.028Z" fill="#E81E1E" stroke="#600202"/>
<path d="M423.511 282.686C424.765 287.7 430.563 323.592 423.511 327.74C431.739 325.781 435.265 318.337 435.656 317.162C436.048 315.987 433.306 277.592 431.739 276.809C430.172 276.025 421.944 276.417 423.511 282.686Z" fill="#B21313"/>
<path d="M375.348 273.002L460.338 285.036V292.088L374.448 279.167C372.924 278.938 371.797 277.628 371.797 276.087C371.797 274.193 373.473 272.737 375.348 273.002Z" fill="#D0906D" stroke="#8F5C3F" stroke-linejoin="round"/>
<path d="M383.55 182.782C384.334 184.741 381.983 189.051 381.591 191.793C380.826 197.148 381.591 200.059 385.901 204.33C388.177 205.173 393.163 204.022 394.896 192.666C393.329 189.924 392.288 188.233 391.762 187.182C390.587 184.831 389.801 181.303 390.978 180.13C392.641 178.472 392.51 176.56 392.641 175.777C392.374 171.394 389.235 164.658 379.192 169.469C379.192 168.294 378.56 166.575 377.282 165.936C374.931 164.76 373.938 166.601 375.323 168.678C377.326 171.682 375.902 176.235 379.632 178.472C381.441 179.558 382.767 180.823 383.55 182.782Z" fill="#FFCBA5"/>
<path d="M379.192 169.469C379.192 168.294 378.56 166.575 377.282 165.936C374.931 164.76 373.938 166.601 375.323 168.678C377.326 171.682 375.902 176.235 379.632 178.472C381.441 179.558 382.767 180.823 383.55 182.782C384.334 184.741 381.983 189.051 381.591 191.793C380.826 197.148 381.591 200.059 385.901 204.33C388.177 205.173 393.163 204.022 394.896 192.666C393.329 189.924 392.288 188.233 391.762 187.182C390.587 184.831 389.801 181.303 390.978 180.13C392.641 178.472 392.51 176.56 392.641 175.777C392.374 171.394 389.235 164.658 379.192 169.469ZM379.192 169.469C379.192 171.954 385.125 171.711 385.125 175.463" stroke="#A05534" stroke-linecap="round"/>
<path d="M408.624 187.876V0.997803" stroke="url(#paint11_linear)"/>
<path opacity="0.5" d="M385.306 173.906C383.683 170.945 379.192 171.954 379.192 169.469C389.235 164.658 392.374 171.394 392.641 175.777C392.51 176.561 392.641 178.473 390.978 180.13C389.801 181.303 390.587 184.831 391.762 187.182C392.288 188.233 393.329 189.924 394.896 192.667C394.224 197.068 387.792 200.84 386.49 202.653C384.582 194.562 391.61 192.83 389.384 189.826C386.404 185.803 385.635 183.339 386.49 180.55C387.543 177.116 386.335 175.785 385.306 173.906Z" fill="#D0906D"/>
<g filter="url(#filter2_i)">
<path d="M300.885 136.944L416.068 179.256V182.782C378.196 169.462 303.421 141.185 301.277 140.47C298.534 139.556 297.359 139.789 296.184 140.862C290.176 146.347 279.729 156.142 277.378 158.1C275.498 159.668 271.431 160.843 270.718 156.925C270.006 153.007 273.852 106.778 273.852 106.778C273.852 105.602 274.636 105.21 275.028 105.21C276.158 105.21 276.203 106.386 276.203 106.386C276.203 106.969 275.826 119.639 275.028 131.46C274.636 147.522 272.61 154.966 274.636 154.966C276.987 154.966 283.255 148.175 284.039 147.522C289.001 142.56 293.52 138.198 295.4 136.944C297.281 135.691 299.84 136.422 300.885 136.944Z" fill="url(#paint12_linear)"/>
</g>
<path d="M300.885 136.944L416.068 179.256V182.782C378.196 169.462 303.421 141.185 301.277 140.47C298.534 139.556 297.359 139.789 296.184 140.862C290.176 146.347 279.729 156.142 277.378 158.1C275.498 159.668 271.431 160.843 270.718 156.925C270.006 153.007 273.852 106.778 273.852 106.778C273.852 105.602 274.636 105.21 275.028 105.21C276.158 105.21 276.203 106.386 276.203 106.386C276.203 106.969 275.826 119.639 275.028 131.46C274.636 147.522 272.61 154.966 274.636 154.966C276.987 154.966 283.255 148.175 284.039 147.522C289.001 142.56 293.52 138.198 295.4 136.944C297.281 135.691 299.84 136.422 300.885 136.944Z" stroke="#7E92A4"/>
<path d="M413.717 277.984C396.479 276.417 397.915 261.66 400.788 254.478C404.153 243.445 443.76 250.985 449.762 252.305C455.764 253.626 465.727 262.509 467.048 266.83C468.104 270.287 466.149 271.789 465.04 272.108C461.906 272.499 451.328 279.16 442.317 281.118C433.306 283.077 426.254 281.902 423.511 280.335C421.317 279.081 416.068 278.245 413.717 277.984Z" fill="#E81E1E" stroke="#600202" stroke-linecap="round"/>
<path d="M406.665 187.092C408.859 188.659 412.803 188.528 414.501 188.267C418.986 190.753 430.514 193.841 440.745 186.308C442.704 186.57 446.552 186.049 450.148 184.741C454.042 183.325 458.47 186.814 461.118 189.716C462.946 190.147 467.699 191.793 472.087 194.928C474.307 194.928 479.688 195.868 483.449 199.629C488.15 204.33 476.397 218.434 475.222 219.218C474.697 220.089 470.829 221.41 459.55 219.72C457.367 220.143 457.269 220.76 456.681 221.756C456.045 222.831 455.408 224.005 454.777 225.282C452.798 229.289 448.701 234.872 448.701 248.727C422.943 256.194 409.418 247.975 405.882 243.116C405.098 235.28 404.991 232.93 401.572 226.661C401.213 226.003 400.909 225.281 400.651 224.519C400.289 223.448 400.019 222.298 399.817 221.135C394.417 217.912 392.577 215.273 391.178 212.166C389.877 212.908 386.453 209.815 386.293 206.289C385.9 197.67 391.777 193.36 394.912 192.968C395.806 192.857 396.923 192.171 398.128 191.293C401.144 189.094 404.705 185.692 406.665 187.092Z" fill="#E0EEF2"/>
<path d="M391.178 212.166C389.877 212.908 386.453 209.815 386.293 206.289C385.9 197.67 391.777 193.36 394.912 192.968C398.046 192.577 403.923 185.133 406.665 187.092C408.859 188.659 412.803 188.528 414.501 188.267C418.986 190.753 430.514 193.841 440.745 186.308C442.704 186.57 446.552 186.049 450.148 184.741C454.042 183.325 458.47 186.814 461.118 189.716M391.178 212.166C392.577 215.273 394.417 217.912 399.817 221.135M391.178 212.166C390.548 210.519 390.168 208.186 389.521 206.572M398.438 204.33C398.699 205.897 399.221 209.658 399.221 212.166C399.221 214.149 399.221 217.702 399.817 221.135M466.602 196.886C464.409 195.946 462.554 192.316 461.901 190.618C461.662 190.329 461.4 190.026 461.118 189.716M461.118 189.716C462.946 190.147 467.699 191.793 472.087 194.928C474.307 194.928 479.688 195.868 483.449 199.629C488.15 204.33 476.397 218.434 475.222 219.218C474.697 220.089 470.829 221.41 459.55 219.72M459.55 219.72C461.642 219.315 463.698 219 465.035 218.826M459.55 219.72C456.943 220.225 454.282 220.873 452.89 221.568M459.55 219.72C457.367 220.143 457.269 220.76 456.681 221.756M456.681 221.756C454.333 223.976 447.443 228.73 438.667 229.983M456.681 221.756C456.045 222.831 455.408 224.005 454.777 225.282M454.777 225.282C452.798 229.289 448.701 234.872 448.701 248.727C422.943 256.194 409.418 247.975 405.882 243.116C405.098 235.28 404.991 232.93 401.572 226.661C400.709 225.079 400.163 223.127 399.817 221.135M454.777 225.282C452.28 228.024 446.503 234.058 443.369 236.252M398.128 191.293C396.038 193.252 392.094 199.05 393.035 206.572M400.651 224.519C403.394 228.828 406.763 231.179 407.703 232.746" stroke="#7E92A4" stroke-linecap="round"/>
<path opacity="0.3" d="M442.836 221.824C444.301 218.17 445.663 214.195 446.522 211.446C448.481 205.178 459.163 199.629 461.905 200.412C462.558 200.804 461.383 202.248 461.905 206.289C462.291 209.281 464.366 210.384 467.234 209.94C463.012 214.445 457.636 224.007 440.68 228.938C440.259 229.405 439.777 229.872 439.232 230.338C436.164 232.958 448.585 232.589 454.653 225.348C451.914 228.616 446.867 237.873 448.585 248.759C450.302 259.646 420.825 249.682 405.871 243.339C405.871 239.803 405.156 231.578 402.296 226.963C399.84 201.366 439.509 209.147 442.836 221.824Z" fill="url(#paint13_linear)"/>
<path opacity="0.3" d="M481.05 210.4C473.841 208.52 469.574 208.849 468.007 209.632C466.225 210.226 463.902 214.716 458.828 219.266C463.92 220.013 472.897 220.679 474.75 218.826C477.885 215.692 480.788 211.576 481.05 210.4Z" fill="#8198AD"/>
<path d="M416.851 265.056C416.329 267.668 416.068 273.988 419.202 278.376" stroke="#600202"/>
<path d="M421.161 176.122C421.474 172.361 419.594 169.462 418.81 169.07C416.964 168.147 416.079 172.158 416.459 170.637C417.243 167.503 415.676 161.626 416.068 160.451C416.459 159.276 416.851 156.141 418.027 153.399C419.202 150.657 422.336 148.698 425.47 147.914C428.605 147.13 438.791 147.13 442.709 154.966C445.843 161.234 442.97 170.637 441.141 174.555L438.007 182.39C435.265 184.48 429.192 186.7 428.605 184.741C427.429 180.823 422.728 178.864 421.944 177.689C421.317 176.749 421.161 176.253 421.161 176.122Z" fill="#6D4133" stroke="black"/>
<path d="M452.895 289.738C443.492 289.424 440.097 315.987 439.574 329.307C445.32 319.643 459.79 306.741 471.7 332.441C470.133 324.214 464.648 290.129 452.895 289.738Z" stroke="#1A2732"/>
<path d="M414.109 166.72C414.109 166.406 414.631 164.238 414.892 163.194C414.671 158.686 416.606 150.158 426.118 152.111C438.009 154.552 445.161 162.975 440.889 175.059C440.128 176.782 438.488 180.697 438.009 182.577V184.928C434.613 186.887 425.942 189.707 418.42 185.32C418.556 185.047 418.677 184.427 418.781 183.674H417.016C415.4 183.674 415.449 182.107 415.449 181.323C415.449 180.696 414.926 177.405 414.665 175.838C414.335 174.37 414.109 172.836 414.109 172.205C414.109 171.029 414.892 170.246 414.892 169.462C414.892 168.679 414.109 167.111 414.109 166.72Z" fill="#FFCBA5"/>
<path d="M415.676 178.865C414.892 177.689 414.109 173.38 414.109 172.205C414.109 171.029 414.892 170.246 414.892 169.462C414.892 168.679 414.109 167.111 414.109 166.72C414.109 166.406 414.631 164.238 414.892 163.194C414.671 158.686 416.606 150.158 426.118 152.111C438.009 154.552 445.161 162.975 440.889 175.059C440.128 176.782 438.488 180.697 438.009 182.577V184.928C434.613 186.887 425.942 189.707 418.42 185.32C418.812 184.536 419.073 180.879 419.203 179.443M414.665 175.838C414.926 177.405 415.449 180.696 415.449 181.323C415.449 182.107 415.4 183.674 417.016 183.674C418.191 183.674 418.454 183.674 418.781 183.674" stroke="#A05534" stroke-linecap="round"/>
<path opacity="0.6" d="M418.741 179.343L418.349 183.261C416.782 183.653 415.45 182.791 416.39 182.477C417.331 182.164 418.349 180.519 418.741 179.343Z" fill="#D0906D"/>
<path d="M438.009 184.928V182.577C438.488 180.696 440.128 176.781 440.889 175.059H428.871L426.507 187.625C431.391 187.829 435.808 186.197 438.009 184.928Z" fill="#D0906D"/>
<path d="M420.38 229.246C413.412 229.664 407.606 238.362 405.573 242.659C417.07 258.685 450.429 252.414 449.21 249.105C447.99 245.795 437.8 240.917 431.355 238.13C424.909 235.343 429.09 228.723 420.38 229.246Z" fill="url(#paint14_linear)" stroke="black"/>
<path d="M405.49 241.941C404.549 239.433 405.145 237.355 405.49 236.921C414.514 225.546 425.788 223.178 431.315 206.376C434.798 195.791 437.192 189.53 440.718 186.396C441.63 186.726 444.473 186.954 448.553 185.22C444.883 186.78 443.617 188.981 442.677 189.922C439.934 192.664 437.491 201.093 435.233 207.552C427.949 228.385 418.106 229.325 405.49 241.941Z" fill="#E81E1E" stroke="#600202"/>
<path d="M460.338 292.088V285.036L474.442 274.067C477.89 273.753 477.185 277.506 476.401 279.073L460.338 292.088Z" fill="#8F5C3F" stroke="#8F5C3F" stroke-linejoin="round"/>
<path d="M424.295 118.923V0.214111M424.295 118.923C421.944 118.923 422.124 124.444 423.903 124.799C425.862 125.191 426.646 119.706 424.295 118.923ZM424.295 141.254C426.254 140.862 426.254 135.377 424.295 135.377C421.944 135.377 422.336 141.254 424.295 141.254ZM424.295 141.254V146.845" stroke="url(#paint15_linear)"/>
<path d="M420.639 174.903C420.52 177.251 425.804 177.985 426.6 183.386C429.933 186.454 437.501 184.143 438.34 182.531L442.779 171.847C437.965 171.147 424.755 164.147 418.726 162.756C415.76 162.071 416.213 170.462 416.602 169.608C417.945 166.663 420.857 170.605 420.639 174.903Z" fill="url(#paint16_linear)"/>
<path d="M418.81 170.637C420.377 172.988 419.202 175.339 418.026 176.906C416.851 177.689 416.067 176.122 416.851 175.339C417.635 174.555 417.243 172.596 417.243 171.421C417.243 170.245 417.352 168.45 418.81 170.637Z" fill="url(#paint17_linear)" stroke="#A05534"/>
<path d="M412.933 150.657C415.284 149.873 417.504 150.787 418.418 151.049L444.667 167.112C445.843 168.287 445.843 169.854 444.667 171.813C443.492 173.772 435.721 178.663 425.862 172.596C415.676 166.328 411.758 159.276 410.583 156.925C409.407 154.575 410.305 151.533 412.933 150.657Z" fill="#E81E1E" stroke="#600202"/>
<path d="M416.459 155.358C417.243 152.224 419.985 146.426 426.254 146.739C427.168 145.564 429.858 143.526 433.306 144.78C434.815 145.329 436.325 146.407 437.615 147.946C441.403 148.719 449.298 154.891 444.018 168.327C442.843 170.286 440.378 172.039 437.224 172.205C435.276 172.307 433.437 172.007 431.711 171.446C426.839 169.861 422.878 166.189 419.985 163.585C416.851 160.765 416.198 156.664 416.459 155.358Z" fill="url(#paint18_radial)"/>
<path d="M426.254 146.739C419.985 146.426 417.243 152.224 416.459 155.358C416.198 156.664 416.851 160.765 419.985 163.585C423.903 167.111 429.78 172.596 437.224 172.205C440.378 172.039 442.843 170.286 444.018 168.327M426.254 146.739C432.522 148.933 435.134 157.839 435.657 162.018M426.254 146.739C427.168 145.564 429.858 143.526 433.306 144.78C434.815 145.329 436.325 146.407 437.615 147.946M435.657 162.018C432.361 164.111 432.103 169.487 431.711 171.446M435.657 162.018C438.641 160.124 441.141 160.843 441.141 160.843M441.141 160.843C441.141 160.843 441.849 152.994 437.615 147.946M441.141 160.843C441.141 160.843 444.709 161.707 444.018 168.327M437.615 147.946C441.403 148.719 449.298 154.891 444.018 168.327" stroke="#600202"/>
<path d="M438.675 160.358C437.728 149.635 432.579 145.703 429.815 145.003C427.982 145.556 427.43 146.141 427.121 146.561C433.15 149.188 435.501 157.515 436.004 161.266C436.65 160.835 438.101 160.412 438.675 160.358Z" fill="#F83A3A"/>
<path d="M443.612 168.228C440.085 173.947 432.2 171.123 432.2 171.123C432.2 171.123 432.361 164.407 435.657 162.392C438.641 160.567 441.142 161.26 441.142 161.26C441.142 161.26 444.302 161.853 443.612 168.228Z" fill="url(#paint19_linear)"/>
<path d="M450.544 250.168C446.626 245.467 438.838 245.393 432.131 241.157C417.243 231.755 406.273 203.938 410.975 188.659C412.183 188.659 414.246 188.343 415.127 188.185C411.992 194.845 418.032 231.755 439.579 239.198C443.098 240.414 446.626 241.941 448.585 243.116C450.011 243.971 451.719 244.683 450.544 250.168Z" fill="#E81E1E" stroke="#600202" stroke-linejoin="bevel"/>
<path d="M424.851 234.825C424.851 237.54 423.158 239.31 421.541 239.31C419.924 239.31 418.231 237.54 418.231 234.825C418.231 232.11 419.924 230.34 421.541 230.34C423.158 230.34 424.851 232.11 424.851 234.825Z" stroke="#600202" stroke-width="2"/>
<circle cx="421.541" cy="240.765" r="1.45889" stroke="#334555"/>
<path d="M401.18 255.653C399.613 251.265 401.833 248.078 403.139 247.034C408.702 252.371 425.972 260.861 450.544 252.127C452.424 256.201 448.716 260.093 446.626 261.529C423.119 272.891 403.139 261.138 401.18 255.653Z" fill="#E81E1E" stroke="#600202"/>
<path opacity="0.3" d="M423.511 280.335C421.317 279.081 416.068 278.245 413.717 277.984C401.315 276.857 398.579 268.902 399.09 261.853C400.914 265.299 406.393 272.417 413.717 273.317C422.872 274.442 423.69 277.984 431.768 277.984C437.31 277.984 448.277 273.543 456.421 271.904C456.558 271.868 456.696 271.842 456.834 271.822C457.542 271.687 458.228 271.573 458.885 271.488C458.838 271.132 458.167 270.34 456.421 268.595C452.079 264.252 447.388 267.442 437.943 264.883C445.289 259.83 438.534 256.13 441.298 255.025C445.831 253.212 444.298 244.873 445.289 241.68C447.63 241.999 451.951 244.107 450.504 249.982C449.88 250.976 449.41 253.218 452.526 254.24C455.569 255.237 468.063 262.678 470.135 273.076L466.279 272.499C465.764 272.124 465.321 271.934 465.04 272.108C461.906 272.499 451.328 279.16 442.317 281.119C433.306 283.077 426.254 281.902 423.511 280.335Z" fill="#600202"/>
<path d="M450.544 252.127C425.973 260.861 408.703 252.371 403.139 247.034C402.844 247.27 402.501 247.616 402.167 248.061C404.004 251.06 410.202 257.385 420.293 258.695C432.906 260.331 446.848 256.515 451.046 254.042C451 253.414 450.842 252.773 450.544 252.127Z" fill="#BC0000"/>
<path d="M448.585 248.993C422.571 255.575 409.277 247.818 405.881 243.116L404.706 241.549C403.139 241.549 403.27 245.467 403.531 247.426C418.575 261.216 441.141 256.045 450.544 251.735C450.544 249.228 449.238 248.862 448.585 248.993Z" fill="#E81E1E" stroke="#600202"/>
<path d="M416.068 184.349C415.674 184.146 414.892 186.7 414.5 187.875C416.329 190.226 420.377 192.185 425.862 192.185C433.559 192.185 439.966 187.875 440.358 185.916C440.75 183.958 440.371 182.24 439.98 181.456C439.588 180.673 439.966 181.999 439.182 183.174C436.872 186.639 428.213 187.875 424.295 187.092C420.377 186.308 416.912 184.784 416.068 184.349Z" fill="#E0EEF2" stroke="#7E92A4"/>
<path opacity="0.3" d="M439.182 183.174C439.966 181.999 439.588 180.673 439.98 181.456C440.371 182.24 440.749 183.958 440.358 185.916C439.966 187.875 433.559 192.185 425.862 192.185C431.487 189.294 431.08 188.007 428.683 187.516C428.391 187.487 428.084 187.44 427.756 187.374C428.088 187.411 428.4 187.458 428.683 187.516C430.708 187.719 432.043 187.074 435.134 185.916C436.919 185.248 438.408 184.336 439.182 183.174Z" fill="#7E92A4"/>
<path d="M443.219 272.891C443.193 271.591 442.968 270.492 442.708 269.757C437.224 273.283 424.295 272.5 424.295 273.675C424.295 274.007 424.295 274.739 424.295 275.634M443.219 272.891C443.271 275.518 442.509 278.967 439.574 281.902C431.574 282.842 426.055 281.51 424.295 280.727C424.295 279.459 424.295 277.274 424.295 275.634M443.219 272.891C439.131 274.067 429.623 276.261 424.295 275.634" stroke="#600202"/>
<path d="M412.145 273.675C411.736 272.447 411.481 271.285 411.366 270.54C405.411 269.6 400.788 264.403 399.221 261.921C399.221 262.645 399.221 264.521 399.221 266.231M412.145 273.675C412.669 275.247 413.445 276.928 414.501 277.984C403.703 277.984 399.815 270.149 399.221 266.231M412.145 273.675C409.535 273.152 403.296 270.932 399.221 266.231" stroke="#600202"/>
<path d="M442.708 269.757C437.224 273.283 424.295 272.5 424.295 273.675V275.634C429.623 276.261 439.131 274.067 443.219 272.891C443.193 271.591 442.968 270.492 442.708 269.757Z" fill="#600202"/>
<path d="M411.366 270.54C405.411 269.6 400.788 264.403 399.221 261.921V266.231C403.296 270.932 409.535 273.152 412.145 273.675C411.736 272.447 411.481 271.285 411.366 270.54Z" fill="#600202" stroke="#600202"/>
<path d="M404.706 284.096C404.837 294.805 405.96 315.046 409.407 314.419C413.717 313.636 421.346 257.112 421.346 242.224C420.301 270.563 418.105 326.251 410.583 320.296C403.061 314.341 403.531 294.021 404.706 284.096ZM404.706 284.096V401.786" stroke="url(#paint20_linear)"/>
<path d="M450.152 251.344C447.671 252.519 444.886 257.936 446.626 267.798C447.663 273.675 448.977 279.552 454.853 278.768M450.152 251.344C448.585 257.612 447.488 272.108 455.637 279.943C465.823 289.738 459.163 249.776 450.152 251.344ZM450.152 251.344C450.675 257.351 452.503 269.992 455.637 272.5C459.555 275.634 458.379 258.004 450.152 251.344ZM450.152 251.344C451.98 255.261 455.637 264.194 455.637 268.582" stroke="#1A2732"/>
<path d="M383.158 162.802C380.964 162.488 379.895 164.498 379.634 165.673C379.634 165.673 380.546 165.152 381.199 165.936C381.852 166.719 382.854 168.637 383.158 169.854C383.942 172.988 385.901 174.163 386.684 172.988C387.468 171.813 387.022 171.079 387.335 170.241C387.335 174.333 389.147 174.833 392.085 175.603C395.3 176.446 394.128 169.462 393.345 168.678C392.169 167.503 390.21 167.503 389.035 166.719C387.86 165.936 385.901 163.193 383.158 162.802Z" fill="#FFCBA5"/>
<path d="M379.634 165.673L379.146 165.565C379.103 165.758 379.178 165.958 379.337 166.076C379.496 166.193 379.71 166.206 379.882 166.107L379.634 165.673ZM383.158 162.802L383.229 162.307L383.158 162.802ZM389.035 166.719L389.312 166.303L389.035 166.719ZM393.345 168.678L392.991 169.032H392.991L393.345 168.678ZM392.085 175.603L391.958 176.086L392.085 175.603ZM387.335 170.241H387.835C387.835 170 387.662 169.792 387.424 169.749C387.186 169.706 386.951 169.84 386.866 170.067L387.335 170.241ZM381.199 165.936L380.815 166.256L381.199 165.936ZM383.158 169.854L383.643 169.732L383.158 169.854ZM386.684 172.988L386.268 172.711L386.684 172.988ZM380.122 165.782C380.238 165.26 380.536 164.552 381.035 164.022C381.519 163.508 382.179 163.167 383.088 163.297L383.229 162.307C381.943 162.123 380.972 162.63 380.307 163.336C379.658 164.027 379.291 164.911 379.146 165.565L380.122 165.782ZM383.088 163.297C384.317 163.472 385.404 164.182 386.36 164.995C386.837 165.399 387.265 165.816 387.662 166.194C388.046 166.56 388.421 166.911 388.758 167.135L389.312 166.303C389.062 166.136 388.751 165.851 388.352 165.47C387.965 165.101 387.511 164.66 387.008 164.233C386.006 163.381 384.742 162.523 383.229 162.307L383.088 163.297ZM388.758 167.135C389.423 167.579 390.308 167.8 391.041 168.029C391.82 168.273 392.497 168.538 392.991 169.032L393.698 168.325C393.016 167.643 392.126 167.321 391.339 167.075C390.505 166.814 389.823 166.644 389.312 166.303L388.758 167.135ZM392.991 169.032C392.989 169.03 392.995 169.036 393.008 169.055C393.021 169.073 393.036 169.098 393.055 169.132C393.093 169.202 393.135 169.295 393.18 169.413C393.27 169.65 393.361 169.96 393.443 170.32C393.605 171.04 393.72 171.921 393.714 172.747C393.709 173.591 393.579 174.298 393.32 174.729C393.197 174.933 393.058 175.054 392.905 175.116C392.753 175.179 392.534 175.204 392.211 175.119L391.958 176.086C392.439 176.213 392.887 176.204 393.283 176.042C393.679 175.881 393.97 175.589 394.177 175.244C394.578 174.578 394.709 173.648 394.714 172.754C394.72 171.841 394.595 170.883 394.418 170.099C394.33 169.707 394.226 169.349 394.114 169.057C394.011 168.787 393.877 168.504 393.698 168.325L392.991 169.032ZM392.211 175.119C390.707 174.725 389.653 174.431 388.941 173.795C388.272 173.198 387.835 172.22 387.835 170.241H386.835C386.835 172.355 387.303 173.673 388.275 174.541C389.204 175.37 390.525 175.711 391.958 176.086L392.211 175.119ZM380.815 166.256C381.107 166.606 381.501 167.243 381.864 167.959C382.226 168.673 382.534 169.419 382.673 169.975L383.643 169.732C383.478 169.072 383.133 168.251 382.756 167.506C382.379 166.763 381.945 166.05 381.584 165.616L380.815 166.256ZM382.673 169.975C383.082 171.61 383.812 172.801 384.612 173.43C385.012 173.744 385.465 173.944 385.923 173.935C386.405 173.925 386.821 173.684 387.1 173.265L386.268 172.711C386.156 172.879 386.033 172.932 385.903 172.935C385.749 172.938 385.516 172.868 385.23 172.644C384.659 172.195 384.018 171.231 383.643 169.732L382.673 169.975ZM387.1 173.265C387.554 172.585 387.656 172.015 387.685 171.517C387.716 170.997 387.682 170.741 387.803 170.416L386.866 170.067C386.675 170.579 386.708 171.109 386.687 171.459C386.665 171.831 386.598 172.216 386.268 172.711L387.1 173.265ZM381.584 165.616C381.126 165.067 380.554 164.968 380.12 165.013C379.91 165.035 379.732 165.089 379.608 165.137C379.545 165.161 379.494 165.184 379.456 165.203C379.437 165.212 379.422 165.22 379.41 165.226C379.404 165.229 379.399 165.232 379.395 165.234C379.393 165.235 379.391 165.236 379.39 165.237C379.389 165.237 379.388 165.238 379.388 165.238C379.387 165.238 379.387 165.238 379.387 165.239C379.387 165.239 379.386 165.239 379.386 165.239C379.386 165.239 379.386 165.239 379.634 165.673C379.882 166.107 379.882 166.108 379.881 166.108C379.881 166.108 379.881 166.108 379.881 166.108C379.881 166.108 379.88 166.108 379.88 166.108C379.88 166.109 379.879 166.109 379.879 166.109C379.878 166.109 379.878 166.11 379.878 166.11C379.877 166.11 379.877 166.11 379.878 166.109C379.88 166.108 379.885 166.106 379.892 166.102C379.907 166.095 379.932 166.084 379.965 166.071C380.032 166.045 380.123 166.018 380.224 166.008C380.41 165.989 380.62 166.021 380.815 166.256L381.584 165.616Z" fill="#A05534"/>
<path opacity="0.5" d="M389.035 166.719C387.86 165.936 385.901 163.193 383.158 162.802C384.443 164.014 386.626 165.783 388.327 168.678C389.379 170.469 392.562 170.746 394.022 170.66C393.846 169.696 393.578 168.912 393.345 168.678C392.169 167.503 390.21 167.503 389.035 166.719Z" fill="#D0906D"/>
<path d="M429.58 127.404C430.493 129.876 430.61 132.33 430.108 134.281C429.605 136.236 428.517 137.589 427.086 138.118C425.654 138.647 423.948 138.325 422.295 137.166C420.646 136.01 419.139 134.069 418.226 131.597C417.313 129.125 417.197 126.671 417.699 124.721C418.202 122.765 419.289 121.412 420.721 120.883C422.153 120.354 423.858 120.676 425.512 121.835C427.161 122.992 428.668 124.932 429.58 127.404Z" stroke="#334555" stroke-width="2"/>
<path opacity="0.3" d="M394.669 216.67C385.426 206.221 396.959 216.67 398.031 204.758C399.267 208.911 398.325 216.269 399.267 220.32C396.955 218.855 394.809 216.828 394.669 216.67Z" fill="#8198AD"/>
<path d="M400.004 256.436C395.303 255.653 384.49 254.791 378.848 257.612C373.207 260.433 373.755 264.272 375.322 265.99M382.375 261.387C361.219 268.973 362.002 283.077 363.57 301.099C363.047 301.099 362.002 301.569 362.002 303.45C362.002 305.8 362.462 306.584 363.57 306.584C364.353 306.584 364.745 305.8 364.745 304.233M400.004 257.612C392.43 258.134 377.281 261.53 371.796 269.757C367.356 276.417 367.487 283.861 374.147 285.82C380.807 287.779 386.652 281.183 389.035 276.417C391.777 270.932 393.736 267.798 398.829 263.097C402.904 259.336 401.31 257.873 400.004 257.612Z" stroke="#334555"/>
<path d="M399.978 256.303C396.032 255.639 386.958 254.908 382.224 257.299C377.49 259.69 378.06 262.723 378.937 263.941M399.978 257.299C393.621 257.742 381.91 261.396 376.306 267.594C372.58 271.716 371.256 278.708 375.323 280.335C383.158 283.469 391.777 264.664 398.991 261.949C403.367 260.302 401.073 257.521 399.978 257.299Z" stroke="#334555"/>
<path d="M399.968 256.162C396.956 255.642 390.028 255.07 386.413 256.941C382.799 258.812 383.234 261.186 383.903 262.139M401.232 258.175C396.379 258.521 387.437 261.381 383.158 266.231C380.313 269.456 378.457 272.5 380.024 274.141C384.488 278.819 392.587 261.878 398.095 259.753C401.436 258.465 402.068 258.348 401.232 258.175ZM401.232 258.175C397.427 259.163 388.565 262.862 383.55 269.757" stroke="#1A2732"/>
<path d="M374.539 263.88C371.405 264.403 365.137 267.798 369.446 274.067" stroke="black"/>
<path d="M393.736 264.272L362.394 279.943" stroke="#1A2732"/>
<circle cx="362.998" cy="279.643" r="1.66064" fill="#1A2732"/>
<path d="M382.18 365.352L382.18 365.362L382.18 365.372C382.184 365.47 382.144 365.619 381.959 365.828C381.773 366.037 381.471 366.269 381.041 366.51C380.182 366.993 378.907 367.465 377.309 367.889C374.12 368.734 369.747 369.363 365.101 369.543C360.452 369.724 356.243 369.45 353.199 368.87C351.673 368.579 350.468 368.216 349.652 367.81C349.244 367.607 348.957 367.405 348.776 367.216C348.602 367.033 348.547 366.887 348.54 366.774C348.537 360.841 345.991 333.105 344.672 319.476L382.18 318.578L382.18 365.352Z" fill="#EFF4FA" stroke="#7E92A4"/>
<path d="M365.12 369.27C374.469 368.907 381.891 367.162 381.807 365L382.331 318.27L374.113 318.27L375.154 363.832C374.534 365.203 371.66 368.209 365.12 369.27Z" fill="#B4C7D8"/>
<path d="M382.485 317.615C382.485 317.615 382.485 317.618 382.483 317.625C382.481 317.632 382.476 317.647 382.463 317.668C382.438 317.712 382.385 317.778 382.288 317.86C382.091 318.027 381.766 318.215 381.299 318.413C380.368 318.807 378.987 319.192 377.239 319.542C373.752 320.24 368.9 320.778 363.512 320.988C358.125 321.197 353.246 321.036 349.715 320.611C347.946 320.398 346.538 320.121 345.58 319.801C345.099 319.64 344.761 319.477 344.551 319.326C344.447 319.251 344.39 319.19 344.361 319.148C344.347 319.128 344.341 319.114 344.338 319.107C344.336 319.1 344.336 319.097 344.336 319.096L344.336 319.096L344.336 319.096C344.336 319.096 344.336 319.093 344.337 319.086C344.34 319.078 344.345 319.064 344.357 319.043C344.383 318.998 344.435 318.933 344.532 318.851C344.73 318.684 345.054 318.495 345.522 318.297C346.452 317.904 347.834 317.518 349.581 317.169C353.068 316.471 357.921 315.932 363.308 315.723C368.695 315.514 373.575 315.675 377.105 316.1C378.875 316.313 380.282 316.59 381.24 316.91C381.722 317.071 382.06 317.234 382.27 317.385C382.373 317.459 382.43 317.521 382.459 317.563C382.473 317.583 382.48 317.597 382.482 317.604C382.485 317.611 382.485 317.614 382.485 317.614L382.485 317.615Z" fill="#B4C7D8" stroke="#7E92A4"/>
<path d="M347.507 333.617C346.566 332.677 345.078 328.706 344.686 326.747L344.28 319.466C358.562 323.387 379.892 320.113 382.852 317.893L382.375 342.628C381.983 337.143 381.199 328.916 379.241 328.916C377.673 328.916 377.282 348.113 377.282 351.639C377.282 355.165 376.106 356.34 374.931 355.556C373.756 354.773 374.539 337.926 373.364 337.143C372.189 336.359 372.58 337.926 371.797 337.143C371.013 336.359 371.013 330.874 370.23 330.483C369.446 330.091 370.621 334.4 368.271 334.009C365.92 333.617 367.487 325.781 364.353 325.781C362.394 325.781 362.786 334.4 362.002 333.617C361.219 332.833 361.219 327.74 360.827 327.348C360.435 326.957 360.044 331.266 359.26 330.483C358.476 329.699 356.909 323.822 355.734 324.998C354.559 326.173 354.559 344.978 354.167 343.803C353.775 342.628 351.424 324.606 349.857 324.214C348.29 323.822 348.682 334.792 347.507 333.617Z" fill="white"/>
<path d="M344.686 326.747L344.187 326.775L344.189 326.81L344.196 326.845L344.686 326.747ZM347.507 333.617L347.86 333.263L347.86 333.263L347.507 333.617ZM349.857 324.214L349.979 323.729L349.857 324.214ZM354.167 343.803L353.692 343.961L354.167 343.803ZM362.002 333.617L361.649 333.97H361.649L362.002 333.617ZM368.271 334.009L368.353 333.515V333.515L368.271 334.009ZM371.797 337.143L371.443 337.496L371.797 337.143ZM373.364 337.143L373.087 337.559H373.087L373.364 337.143ZM374.931 355.556L375.208 355.14H375.208L374.931 355.556ZM382.375 342.628L381.876 342.663L382.875 342.637L382.375 342.628ZM382.852 317.893L383.352 317.903L382.552 317.493L382.852 317.893ZM344.28 319.466L344.413 318.983L343.781 319.493L344.28 319.466ZM344.196 326.845C344.399 327.865 344.881 329.378 345.426 330.749C345.699 331.436 345.993 332.098 346.281 332.653C346.561 333.193 346.86 333.677 347.153 333.97L347.86 333.263C347.683 333.086 347.443 332.721 347.168 332.192C346.9 331.676 346.62 331.047 346.355 330.379C345.823 329.04 345.364 327.588 345.176 326.649L344.196 326.845ZM347.153 333.97C347.281 334.098 347.521 334.264 347.832 334.185C348.101 334.117 348.247 333.904 348.317 333.779C348.468 333.51 348.566 333.102 348.642 332.676C348.799 331.794 348.912 330.517 349.033 329.257C349.156 327.978 349.288 326.709 349.483 325.787C349.582 325.319 349.688 324.986 349.794 324.793C349.847 324.696 349.878 324.674 349.873 324.678C349.848 324.694 349.791 324.713 349.736 324.699L349.979 323.729C349.727 323.666 349.49 323.725 349.299 323.859C349.126 323.98 349.004 324.152 348.915 324.315C348.738 324.642 348.608 325.093 348.505 325.58C348.296 326.567 348.159 327.894 348.037 329.161C347.914 330.448 347.806 331.669 347.657 332.5C347.58 332.932 347.503 333.185 347.445 333.289C347.41 333.351 347.442 333.252 347.587 333.216C347.773 333.169 347.879 333.282 347.86 333.263L347.153 333.97ZM349.736 324.699C349.642 324.676 349.653 324.629 349.745 324.765C349.82 324.877 349.911 325.055 350.013 325.307C350.215 325.808 350.43 326.523 350.652 327.398C351.094 329.142 351.545 331.454 351.96 333.802C352.376 336.148 352.755 338.519 353.055 340.381C353.205 341.311 353.335 342.116 353.441 342.725C353.542 343.312 353.629 343.769 353.692 343.961L354.641 343.645C354.607 343.543 354.534 343.18 354.426 342.555C354.322 341.952 354.192 341.153 354.042 340.222C353.742 338.362 353.362 335.983 352.945 333.628C352.528 331.275 352.073 328.934 351.621 327.152C351.396 326.264 351.168 325.497 350.94 324.933C350.827 324.653 350.706 324.402 350.575 324.207C350.459 324.035 350.268 323.801 349.979 323.729L349.736 324.699ZM353.692 343.961C353.703 343.994 353.727 344.059 353.771 344.124C353.797 344.162 353.953 344.383 354.252 344.353C354.519 344.327 354.636 344.118 354.652 344.092C354.687 344.032 354.706 343.973 354.715 343.941C354.753 343.814 354.777 343.625 354.796 343.43C354.837 343.011 354.874 342.356 354.911 341.549C354.985 339.935 355.059 337.643 355.156 335.303C355.254 332.953 355.376 330.539 355.546 328.642C355.632 327.692 355.728 326.883 355.837 326.281C355.892 325.979 355.948 325.741 356.003 325.568C356.066 325.372 356.106 325.333 356.088 325.351L355.38 324.644C355.215 324.809 355.117 325.055 355.051 325.263C354.977 325.494 354.912 325.78 354.853 326.102C354.736 326.749 354.637 327.592 354.55 328.553C354.378 330.475 354.255 332.91 354.157 335.261C354.059 337.622 353.986 339.885 353.912 341.503C353.875 342.312 353.839 342.943 353.801 343.332C353.791 343.428 353.782 343.505 353.773 343.564C353.769 343.594 353.765 343.617 353.762 343.633C353.758 343.651 353.756 343.658 353.757 343.656C353.757 343.655 353.759 343.649 353.763 343.64C353.766 343.631 353.774 343.612 353.788 343.589C353.792 343.582 353.898 343.384 354.153 343.358C354.441 343.33 354.585 343.543 354.599 343.563C354.617 343.59 354.628 343.613 354.633 343.623C354.638 343.635 354.641 343.643 354.641 343.645L353.692 343.961ZM356.088 325.351C356.115 325.324 356.117 325.332 356.093 325.339C356.066 325.346 356.044 325.342 356.04 325.34C356.04 325.34 356.04 325.341 356.041 325.341C356.042 325.341 356.043 325.342 356.045 325.342C356.048 325.344 356.053 325.346 356.059 325.35C356.072 325.358 356.09 325.37 356.113 325.388C356.159 325.426 356.217 325.483 356.283 325.565C356.561 325.906 356.869 326.498 357.188 327.21C357.505 327.919 357.799 328.662 358.084 329.327C358.223 329.651 358.359 329.953 358.487 330.203C358.608 330.438 358.748 330.678 358.906 330.836L359.614 330.129C359.576 330.091 359.496 329.977 359.376 329.745C359.264 329.528 359.14 329.252 359.003 328.933C358.737 328.312 358.419 327.512 358.1 326.801C357.783 326.093 357.429 325.388 357.058 324.933C356.878 324.711 356.64 324.482 356.342 324.387C356.181 324.336 356.004 324.325 355.824 324.376C355.647 324.425 355.5 324.524 355.38 324.644L356.088 325.351ZM358.906 330.836C358.997 330.927 359.12 331.017 359.28 331.057C359.451 331.1 359.616 331.074 359.755 331.006C359.994 330.89 360.138 330.661 360.222 330.503C360.406 330.156 360.553 329.647 360.674 329.19C360.803 328.699 360.905 328.255 361.005 327.931C361.029 327.854 361.05 327.791 361.069 327.743C361.079 327.719 361.087 327.701 361.093 327.688C361.099 327.674 361.103 327.669 361.102 327.67C361.102 327.67 361.1 327.674 361.095 327.679C361.091 327.684 361.084 327.693 361.074 327.704C361.055 327.723 361.011 327.763 360.94 327.792C360.859 327.824 360.76 327.835 360.658 327.807C360.564 327.782 360.504 327.732 360.474 327.702L361.181 326.995C361.126 326.94 361.041 326.875 360.923 326.843C360.796 326.808 360.672 326.822 360.567 326.864C360.39 326.935 360.294 327.077 360.257 327.136C360.168 327.277 360.101 327.468 360.049 327.635C359.941 327.985 359.823 328.495 359.707 328.935C359.582 329.408 359.46 329.805 359.339 330.034C359.27 330.163 359.251 330.139 359.317 330.107C359.37 330.082 359.446 330.068 359.524 330.087C359.592 330.105 359.621 330.137 359.614 330.129L358.906 330.836ZM360.474 327.702C360.418 327.647 360.411 327.604 360.427 327.647C360.438 327.676 360.452 327.727 360.469 327.805C360.503 327.96 360.536 328.176 360.57 328.444C360.636 328.983 360.696 329.664 360.77 330.387C360.844 331.098 360.932 331.84 361.053 332.458C361.113 332.767 361.184 333.058 361.271 333.305C361.354 333.538 361.469 333.791 361.649 333.97L362.356 333.263C362.339 333.247 362.284 333.169 362.215 332.972C362.15 332.789 362.09 332.551 362.034 332.266C361.922 331.696 361.839 330.993 361.765 330.284C361.693 329.587 361.63 328.872 361.562 328.322C361.528 328.045 361.49 327.793 361.446 327.591C361.424 327.491 361.398 327.391 361.365 327.302C361.338 327.227 361.285 327.099 361.181 326.995L360.474 327.702ZM361.649 333.97C361.708 334.029 361.8 334.104 361.929 334.142C362.073 334.185 362.225 334.172 362.358 334.106C362.574 333.999 362.67 333.791 362.708 333.7C362.804 333.473 362.868 333.141 362.919 332.797C363.024 332.093 363.115 331.051 363.233 330.052C363.356 329.024 363.511 328.013 363.746 327.266C363.865 326.89 363.992 326.62 364.12 326.453C364.242 326.292 364.319 326.281 364.353 326.281V325.281C363.897 325.281 363.558 325.54 363.324 325.847C363.095 326.148 362.925 326.545 362.793 326.965C362.526 327.81 362.363 328.905 362.24 329.934C362.115 330.992 362.033 331.958 361.93 332.649C361.878 333.003 361.828 333.215 361.788 333.31C361.758 333.38 361.78 333.276 361.915 333.21C362.007 333.164 362.116 333.154 362.216 333.184C362.3 333.21 362.346 333.253 362.356 333.263L361.649 333.97ZM364.353 326.281C364.63 326.281 364.836 326.364 365.007 326.505C365.189 326.654 365.354 326.887 365.5 327.216C365.798 327.884 365.963 328.807 366.111 329.82C366.254 330.798 366.383 331.865 366.628 332.699C366.862 333.495 367.28 334.35 368.189 334.502L368.353 333.515C368.086 333.471 367.818 333.2 367.587 332.417C367.368 331.671 367.251 330.706 367.101 329.676C366.955 328.681 366.776 327.621 366.413 326.808C366.23 326.396 365.984 326.014 365.642 325.732C365.29 325.443 364.86 325.281 364.353 325.281V326.281ZM368.189 334.502C368.553 334.563 368.889 334.538 369.187 334.416C369.488 334.293 369.71 334.087 369.872 333.849C370.18 333.395 370.285 332.795 370.335 332.295C370.361 332.036 370.374 331.779 370.385 331.553C370.396 331.32 370.404 331.13 370.421 330.977C370.44 330.8 370.462 330.768 370.446 330.794C370.431 330.821 370.37 330.906 370.241 330.943C370.115 330.979 370.023 330.938 370.006 330.93L370.453 330.035C370.338 329.978 370.164 329.925 369.968 329.981C369.769 330.037 369.651 330.175 369.588 330.282C369.477 330.466 369.444 330.704 369.426 330.87C369.406 331.06 369.396 331.286 369.386 331.506C369.375 331.733 369.363 331.966 369.34 332.196C369.292 332.676 369.202 333.055 369.045 333.287C368.974 333.392 368.897 333.455 368.808 333.491C368.718 333.528 368.576 333.553 368.353 333.515L368.189 334.502ZM370.006 330.93C369.954 330.904 369.942 330.876 369.958 330.9C369.972 330.92 369.997 330.963 370.026 331.037C370.087 331.185 370.147 331.401 370.206 331.681C370.323 332.24 370.419 332.965 370.517 333.73C370.615 334.483 370.715 335.272 370.841 335.922C370.904 336.247 370.976 336.552 371.063 336.808C371.144 337.048 371.26 337.313 371.443 337.496L372.15 336.789C372.151 336.79 372.147 336.786 372.137 336.772C372.128 336.759 372.116 336.74 372.103 336.713C372.074 336.659 372.043 336.584 372.01 336.487C371.944 336.292 371.882 336.037 371.822 335.731C371.704 335.12 371.608 334.367 371.509 333.602C371.412 332.848 371.312 332.08 371.184 331.475C371.121 331.174 371.046 330.891 370.953 330.662C370.907 330.546 370.85 330.43 370.778 330.327C370.708 330.227 370.604 330.111 370.453 330.035L370.006 330.93ZM371.443 337.496C371.558 337.611 371.681 337.714 371.815 337.782C371.959 337.854 372.14 337.899 372.336 337.846C372.518 337.798 372.635 337.685 372.698 337.616C372.754 337.553 372.815 337.467 372.833 337.443C372.901 337.352 372.885 337.404 372.819 337.415C372.768 337.424 372.827 337.386 373.087 337.559L373.641 336.727C373.313 336.508 372.98 336.372 372.648 336.43C372.3 336.49 372.113 336.737 372.033 336.843C371.978 336.916 371.972 336.928 371.956 336.945C371.947 336.955 371.988 336.904 372.078 336.88C372.182 336.852 372.256 336.884 372.267 336.89C372.268 336.89 372.232 336.87 372.15 336.789L371.443 337.496ZM373.087 337.559C373.013 337.51 373.035 337.479 373.091 337.637C373.137 337.766 373.183 337.956 373.228 338.213C373.317 338.723 373.386 339.427 373.44 340.273C373.55 341.962 373.599 344.153 373.648 346.361C373.697 348.561 373.746 350.777 373.857 352.491C373.912 353.347 373.984 354.094 374.082 354.658C374.131 354.939 374.189 355.191 374.261 355.396C374.323 355.571 374.433 355.825 374.654 355.972L375.208 355.14C375.282 355.19 375.26 355.221 375.204 355.062C375.158 354.933 375.112 354.743 375.067 354.487C374.978 353.977 374.909 353.273 374.855 352.427C374.745 350.738 374.696 348.546 374.647 346.339C374.598 344.139 374.549 341.923 374.438 340.208C374.383 339.352 374.311 338.605 374.213 338.041C374.164 337.761 374.106 337.508 374.034 337.303C373.972 337.128 373.862 336.874 373.641 336.727L373.087 337.559ZM374.654 355.972C375.027 356.221 375.454 356.348 375.892 356.261C376.329 356.174 376.686 355.891 376.958 355.498C377.487 354.734 377.782 353.432 377.782 351.639H376.782C376.782 353.371 376.488 354.42 376.136 354.929C375.967 355.173 375.811 355.257 375.696 355.28C375.583 355.303 375.423 355.283 375.208 355.14L374.654 355.972ZM377.782 351.639C377.782 349.884 377.879 344.213 378.173 338.983C378.319 336.366 378.514 333.873 378.769 332.039C378.896 331.118 379.036 330.386 379.185 329.892C379.261 329.641 379.33 329.483 379.384 329.398C379.454 329.286 379.417 329.416 379.241 329.416V328.416C378.868 328.416 378.645 328.695 378.537 328.866C378.413 329.063 378.313 329.321 378.228 329.603C378.056 330.173 377.908 330.967 377.778 331.902C377.518 333.777 377.321 336.303 377.174 338.927C376.88 344.177 376.782 349.867 376.782 351.639H377.782ZM379.241 329.416C379.292 329.416 379.394 329.438 379.548 329.612C379.705 329.788 379.872 330.073 380.04 330.478C380.374 331.284 380.66 332.441 380.903 333.803C381.388 336.517 381.68 339.922 381.876 342.663L382.874 342.592C382.678 339.849 382.382 336.398 381.888 333.627C381.641 332.246 381.34 331.003 380.964 330.095C380.776 329.643 380.558 329.243 380.295 328.947C380.03 328.65 379.679 328.416 379.241 328.416V329.416ZM382.875 342.637L383.352 317.903L382.352 317.883L381.875 342.618L382.875 342.637ZM382.552 317.493C382.251 317.719 381.661 317.992 380.774 318.284C379.902 318.571 378.789 318.861 377.481 319.138C374.866 319.69 371.497 320.183 367.771 320.484C360.31 321.088 351.473 320.922 344.413 318.983L344.148 319.948C351.369 321.931 360.338 322.089 367.852 321.481C371.614 321.177 375.025 320.679 377.688 320.116C379.019 319.835 380.17 319.536 381.087 319.234C381.989 318.937 382.713 318.623 383.152 318.293L382.552 317.493ZM343.781 319.493L344.187 326.775L345.185 326.719L344.779 319.438L343.781 319.493Z" fill="#7E92A4"/>
<path fill-rule="evenodd" clip-rule="evenodd" d="M382.68 326.83L382.375 342.627C381.983 337.142 381.199 328.915 379.241 328.915C377.673 328.915 376.916 346.257 376.916 349.783C376.916 353.309 376.449 356.036 375.274 355.253C375.137 355.162 375.022 354.858 374.924 354.391L374.166 320.638C378.106 320.004 381.161 319.093 382.621 318.066L382.68 318.065V326.83Z" fill="url(#paint21_linear)"/>
<path d="M340.311 335.072L349.039 319.973L346.08 318.374C342.112 326.319 338.563 331.984 337.574 334.031C336.84 335.551 339.05 337.05 340.311 335.072Z" fill="#EFF4FA" stroke="#7E92A4" stroke-linejoin="round"/>
<path d="M340.084 334.688L348.437 320.193L347.578 319.678L338.266 335.492C338.885 335.82 339.448 335.686 340.084 334.688Z" fill="#B4C7D8"/>
<path d="M432.522 373.186L438.007 329.699C444.014 327.348 459.476 324.841 473.267 333.617L465.432 380.238L432.522 373.186Z" fill="#EFF4FA" stroke="#7E92A4"/>
<path d="M464.949 380.462C464.945 380.482 464.919 380.566 464.723 380.684C464.529 380.802 464.224 380.917 463.795 381.013C462.94 381.204 461.708 381.298 460.171 381.282C457.107 381.252 452.935 380.79 448.386 379.897C443.838 379.005 439.8 377.856 436.951 376.727C435.523 376.16 434.417 375.608 433.698 375.108C433.337 374.856 433.099 374.635 432.963 374.453C432.827 374.269 432.834 374.182 432.838 374.162C432.842 374.142 432.868 374.058 433.064 373.94C433.258 373.822 433.563 373.708 433.992 373.612C434.847 373.42 436.079 373.327 437.615 373.342C440.68 373.372 444.852 373.835 449.401 374.727C453.949 375.62 457.987 376.768 460.836 377.898C462.264 378.464 463.37 379.017 464.088 379.517C464.45 379.768 464.688 379.989 464.824 380.171C464.96 380.355 464.953 380.442 464.949 380.462Z" fill="#B4C7D8" stroke="#7E92A4"/>
<path d="M440.75 346.545L437.615 372.794C435.108 372.794 433.228 373.38 432.601 373.673L437.615 329.708C453.237 324.108 467.986 329.936 473.408 333.55L467.963 365.093C466.946 364.605 467.077 361.746 467.39 359.866C467.782 357.515 469.741 335.967 468.566 337.535C467.39 339.102 466.999 343.411 465.432 341.844C463.864 340.277 462.38 341.06 461.514 343.411C456.029 358.299 456.421 366.918 454.462 366.918C452.895 366.918 458.38 339.493 455.245 338.71C453.199 338.198 452.895 344.586 451.719 343.411C450.544 342.236 450.544 339.493 448.977 341.844C447.41 344.195 446.234 349.288 445.059 348.112C444.119 347.172 443.884 345.37 443.884 344.586C443.492 346.284 442.552 349.366 441.925 348.112C441.298 346.859 440.88 346.545 440.75 346.545Z" fill="white" stroke="#7E92A4"/>
<path d="M465.332 341.425C463.765 339.858 462.202 340.668 461.336 343.019L462.536 337.167C462.536 337.167 463.533 333.655 462.934 332.782C459.662 328.016 440.674 329.061 440.674 329.061C455.22 324.793 470.936 332.414 472.932 333.745L467.724 364.069C467.413 362.237 467.798 360.219 467.99 358.322C468.31 355.146 470.581 336.502 468.739 337.167C467.407 337.647 466.899 342.992 465.332 341.425Z" fill="url(#paint22_linear)"/>
<path d="M345.939 318.337L347.507 312.853C347.507 312.853 348.049 312.795 348.901 312.853C349.132 312.868 349.074 314.2 349.074 314.2C349.326 314.233 350.178 313.004 350.458 313.06C352.154 313.399 353.383 314.028 353.383 314.028C353.383 314.028 353.556 314.055 353.383 314.428C353.301 314.606 353.139 314.863 352.843 315.234C351.925 316.381 348.682 319.905 348.682 319.905L345.939 318.337Z" fill="#7E92A4"/>
<path d="M353.383 314.028V316.379L349.074 320.296M353.383 314.028C353.383 314.028 352.154 313.399 350.458 313.06C350.178 313.004 349.326 314.233 349.074 314.2C349.074 314.2 349.132 312.868 348.901 312.853C348.049 312.795 347.507 312.853 347.507 312.853L345.939 318.337L348.682 319.905C348.682 319.905 351.925 316.381 352.843 315.234C353.761 314.086 353.383 314.028 353.383 314.028Z" stroke="#334555" stroke-linejoin="round"/>
<path d="M349.074 320.296L353.383 316.378C353.383 316.378 353.789 315.637 353.769 315.125C353.751 314.671 353.383 314.028 353.383 314.028C353.383 314.028 353.322 314.685 353.066 314.982C351.865 316.378 348.833 319.614 348.833 319.614L349.074 320.296Z" fill="#334555"/>
<path d="M353.383 316.378L353.719 316.748C353.76 316.711 353.795 316.667 353.822 316.619L353.383 316.378ZM349.074 320.296L348.602 320.463C348.658 320.621 348.789 320.74 348.951 320.781C349.114 320.822 349.286 320.779 349.41 320.666L349.074 320.296ZM348.833 319.614L348.468 319.272C348.341 319.409 348.3 319.605 348.362 319.781L348.833 319.614ZM353.383 314.028L353.817 313.78C353.709 313.59 353.49 313.493 353.277 313.539C353.064 313.585 352.905 313.765 352.885 313.982L353.383 314.028ZM353.769 315.125L354.269 315.105V315.105L353.769 315.125ZM353.066 314.982L352.687 314.656V314.656L353.066 314.982ZM353.047 316.009L348.737 319.926L349.41 320.666L353.719 316.748L353.047 316.009ZM348.362 319.781L348.602 320.463L349.545 320.13L349.305 319.448L348.362 319.781ZM353.383 314.028C352.949 314.276 352.949 314.276 352.949 314.276C352.949 314.276 352.949 314.276 352.949 314.276C352.949 314.276 352.949 314.276 352.949 314.276C352.949 314.276 352.949 314.276 352.949 314.276C352.949 314.276 352.949 314.276 352.949 314.276C352.949 314.277 352.95 314.278 352.951 314.279C352.953 314.283 352.956 314.288 352.96 314.296C352.969 314.311 352.981 314.335 352.997 314.365C353.027 314.425 353.069 314.509 353.11 314.605C353.201 314.814 353.264 315.016 353.269 315.145L354.269 315.105C354.256 314.78 354.126 314.434 354.028 314.207C353.975 314.086 353.924 313.981 353.885 313.906C353.866 313.869 353.85 313.838 353.838 313.817C353.832 313.806 353.827 313.797 353.824 313.791C353.822 313.788 353.82 313.785 353.819 313.783C353.819 313.782 353.818 313.782 353.818 313.781C353.818 313.781 353.818 313.78 353.817 313.78C353.817 313.78 353.817 313.78 353.817 313.78C353.817 313.78 353.817 313.78 353.817 313.78C353.817 313.78 353.817 313.78 353.383 314.028ZM353.269 315.145C353.275 315.289 353.214 315.519 353.119 315.759C353.075 315.869 353.03 315.966 352.997 316.036C352.98 316.07 352.966 316.097 352.957 316.115C352.952 316.124 352.949 316.13 352.947 316.134C352.946 316.136 352.945 316.138 352.945 316.138C352.944 316.139 352.944 316.139 352.944 316.139C352.944 316.139 352.944 316.139 352.944 316.139C352.944 316.139 352.944 316.139 352.944 316.139C352.944 316.139 352.944 316.139 352.944 316.139C352.945 316.138 352.945 316.138 353.383 316.378C353.822 316.619 353.822 316.619 353.822 316.618C353.822 316.618 353.822 316.618 353.822 316.618C353.822 316.618 353.822 316.618 353.822 316.618C353.822 316.618 353.822 316.617 353.823 316.617C353.823 316.616 353.823 316.615 353.824 316.614C353.825 316.612 353.827 316.609 353.829 316.606C353.832 316.599 353.838 316.589 353.844 316.576C353.857 316.552 353.875 316.517 353.896 316.473C353.938 316.388 353.993 316.267 354.048 316.128C354.151 315.869 354.283 315.473 354.269 315.105L353.269 315.145ZM353.383 314.028C352.885 313.982 352.885 313.982 352.885 313.982C352.885 313.982 352.885 313.981 352.885 313.981C352.885 313.981 352.885 313.981 352.885 313.981C352.885 313.981 352.885 313.981 352.885 313.981C352.885 313.981 352.885 313.981 352.885 313.981C352.885 313.981 352.885 313.982 352.885 313.984C352.885 313.986 352.884 313.992 352.883 313.999C352.882 314.013 352.879 314.035 352.875 314.063C352.867 314.119 352.853 314.196 352.834 314.279C352.789 314.471 352.731 314.605 352.687 314.656L353.445 315.308C353.658 315.061 353.758 314.719 353.807 314.508C353.835 314.39 353.853 314.284 353.864 314.208C353.87 314.169 353.874 314.137 353.877 314.115C353.878 314.103 353.879 314.094 353.88 314.087C353.88 314.084 353.88 314.081 353.881 314.079C353.881 314.078 353.881 314.077 353.881 314.076C353.881 314.075 353.881 314.075 353.881 314.075C353.881 314.075 353.881 314.074 353.881 314.074C353.881 314.074 353.881 314.074 353.881 314.074C353.881 314.074 353.881 314.074 353.383 314.028ZM352.687 314.656C352.093 315.347 351.041 316.498 350.132 317.483C349.679 317.974 349.263 318.421 348.96 318.746C348.809 318.908 348.686 319.04 348.601 319.131C348.558 319.177 348.525 319.212 348.502 319.236C348.491 319.248 348.483 319.257 348.477 319.263C348.474 319.266 348.472 319.269 348.47 319.27C348.47 319.271 348.469 319.271 348.469 319.272C348.469 319.272 348.469 319.272 348.468 319.272C348.468 319.272 348.468 319.272 348.468 319.272C348.468 319.272 348.468 319.272 348.833 319.614C349.198 319.956 349.198 319.956 349.198 319.956C349.198 319.956 349.198 319.956 349.198 319.956C349.198 319.956 349.198 319.956 349.199 319.956C349.199 319.955 349.199 319.955 349.2 319.954C349.202 319.952 349.204 319.95 349.207 319.947C349.213 319.941 349.221 319.931 349.233 319.919C349.255 319.895 349.288 319.86 349.331 319.814C349.416 319.723 349.54 319.591 349.691 319.428C349.995 319.102 350.412 318.654 350.867 318.161C351.774 317.179 352.838 316.014 353.445 315.308L352.687 314.656Z" fill="#334555"/>
<path d="M278.51 146.226L278.51 146.234L278.509 146.242C278.478 146.739 277.994 147.313 276.888 147.751C275.822 148.174 274.338 148.397 272.693 148.292C271.048 148.188 269.604 147.779 268.6 147.225C267.559 146.65 267.151 146.02 267.183 145.523L267.184 145.508L267.184 145.493L267.309 112.036L281.732 112.515L278.51 146.226Z" fill="white" stroke="#7E92A4"/>
<path d="M272.661 148.042C276.064 148.258 278.107 147.081 278.238 146.099L281.222 113.368L274.517 114.315L272.661 148.042Z" fill="url(#paint23_linear)"/>
<path d="M281.883 112.043C281.872 112.213 281.76 112.439 281.406 112.696C281.055 112.951 280.525 113.189 279.833 113.383C278.454 113.77 276.538 113.951 274.42 113.816C272.301 113.682 270.424 113.26 269.104 112.702C268.442 112.422 267.947 112.119 267.631 111.822C267.313 111.522 267.23 111.283 267.241 111.113C267.252 110.943 267.364 110.717 267.718 110.46C268.069 110.205 268.598 109.967 269.29 109.773C270.669 109.387 272.585 109.206 274.704 109.34C276.822 109.475 278.7 109.896 280.019 110.454C280.681 110.734 281.176 111.038 281.492 111.334C281.811 111.634 281.893 111.873 281.883 112.043Z" fill="#DCE3ED" stroke="#7E92A4"/>
<path opacity="0.2" d="M226.447 47.6191C239.243 48.9289 252.575 48.491 263.576 50.4804C268.714 50.8153 273.076 51.1308 276.595 51.5369C326.03 61.2478 334.628 82.1027 334.628 82.1027V83.6488C334.628 83.6488 313.772 79.6218 300.719 98.507C292.387 66.0134 282.89 57.1355 272.664 52.9953C269.889 51.8718 266.835 51.0696 263.576 50.4804C253.842 49.8459 241.32 49.1415 226.447 47.6191Z" fill="url(#paint24_linear)"/>
<path d="M226.447 47.6191C234.266 48.4194 243.68 48.9396 252.721 49.7811C262.76 50.4472 270.813 50.8698 276.595 51.5369C326.03 61.2478 334.186 81.312 334.186 81.312C334.186 81.312 319.299 64.8573 301.669 84.838C297.751 73.8682 289.172 58.8113 278.946 54.6711C272.526 52.072 262.858 50.7246 252.721 49.7811C245.073 49.2736 236.273 48.6249 226.447 47.6191Z" fill="url(#paint25_linear)" stroke="#7E92A4"/>
<path d="M275.028 105.21C276.158 105.21 276.203 106.386 276.203 106.386C276.203 106.615 276.086 108.309 275.967 111.479C275.354 112.074 273.893 111.709 273.587 111.349L273.852 106.778C273.852 105.602 274.636 105.21 275.028 105.21Z" fill="#DEE4EE" stroke="#7E92A4"/>
<ellipse cx="425.098" cy="150.915" rx="4.45122" ry="2.89344" fill="#F83A3A"/>
<ellipse cx="424.572" cy="149.55" rx="2.02268" ry="1.23079" fill="#FFCCCC"/>
<circle cx="452.661" cy="290.812" r="1.66064" fill="#1A2732"/>
<circle cx="113.166" cy="123.111" r="7.05199" fill="#D5DCE5"/>
<defs>
<filter id="filter0_d" x="225.556" y="47.479" width="112.179" height="175.729" filterUnits="userSpaceOnUse" color-interpolation-filters="sRGB">
<feFlood flood-opacity="0" result="BackgroundImageFix"/>
<feColorMatrix in="SourceAlpha" type="matrix" values="0 0 0 0 0 0 0 0 0 0 0 0 0 0 0 0 0 0 127 0"/>
<feOffset dx="2" dy="3"/>
<feColorMatrix type="matrix" values="0 0 0 0 0 0 0 0 0 0 0 0 0 0 0 0 0 0 0.25 0"/>
<feBlend mode="normal" in2="BackgroundImageFix" result="effect1_dropShadow"/>
<feBlend mode="normal" in="SourceGraphic" in2="effect1_dropShadow" result="shape"/>
</filter>
<filter id="filter1_d" x="80.5979" y="46.7273" width="115.44" height="172.856" filterUnits="userSpaceOnUse" color-interpolation-filters="sRGB">
<feFlood flood-opacity="0" result="BackgroundImageFix"/>
<feColorMatrix in="SourceAlpha" type="matrix" values="0 0 0 0 0 0 0 0 0 0 0 0 0 0 0 0 0 0 127 0"/>
<feOffset dx="2" dy="3"/>
<feColorMatrix type="matrix" values="0 0 0 0 0 0 0 0 0 0 0 0 0 0 0 0 0 0 0.25 0"/>
<feBlend mode="normal" in2="BackgroundImageFix" result="effect1_dropShadow"/>
<feBlend mode="normal" in="SourceGraphic" in2="effect1_dropShadow" result="shape"/>
</filter>
<filter id="filter2_i" x="270.13" y="104.71" width="146.438" height="78.7778" filterUnits="userSpaceOnUse" color-interpolation-filters="sRGB">
<feFlood flood-opacity="0" result="BackgroundImageFix"/>
<feBlend mode="normal" in="SourceGraphic" in2="BackgroundImageFix" result="shape"/>
<feColorMatrix in="SourceAlpha" type="matrix" values="0 0 0 0 0 0 0 0 0 0 0 0 0 0 0 0 0 0 127 0" result="hardAlpha"/>
<feOffset dy="3"/>
<feComposite in2="hardAlpha" operator="arithmetic" k2="-1" k3="1"/>
<feColorMatrix type="matrix" values="0 0 0 0 0.494118 0 0 0 0 0.572549 0 0 0 0 0.643137 0 0 0 0.5 0"/>
<feBlend mode="normal" in2="shape" result="effect1_innerShadow"/>
</filter>
<linearGradient id="paint0_linear" x1="143.782" y1="230.364" x2="103.693" y2="229.804" gradientUnits="userSpaceOnUse">
<stop stop-color="#F17F70"/>
<stop offset="1" stop-color="#F17F70" stop-opacity="0"/>
</linearGradient>
<linearGradient id="paint1_linear" x1="247.995" y1="272.891" x2="247.995" y2="296.006" gradientUnits="userSpaceOnUse">
<stop stop-color="#F17F70"/>
<stop offset="1" stop-color="#F17F70" stop-opacity="0"/>
</linearGradient>
<linearGradient id="paint2_linear" x1="318.614" y1="261.725" x2="365.668" y2="270.226" gradientUnits="userSpaceOnUse">
<stop stop-color="#F17F70"/>
<stop offset="1" stop-color="#F17F70" stop-opacity="0"/>
</linearGradient>
<linearGradient id="paint3_linear" x1="176.692" y1="250.161" x2="185.101" y2="223.931" gradientUnits="userSpaceOnUse">
<stop stop-color="#F17F70"/>
<stop offset="1" stop-color="#F17F70" stop-opacity="0"/>
</linearGradient>
<linearGradient id="paint4_linear" x1="314.597" y1="226.662" x2="314.597" y2="249.776" gradientUnits="userSpaceOnUse">
<stop stop-color="#F17F70" stop-opacity="0"/>
<stop offset="1" stop-color="#F17F70"/>
</linearGradient>
<linearGradient id="paint5_linear" x1="280.645" y1="48.011" x2="280.645" y2="219.708" gradientUnits="userSpaceOnUse">
<stop stop-color="white"/>
<stop offset="1" stop-color="#F0F4F9"/>
</linearGradient>
<linearGradient id="paint6_linear" x1="137.318" y1="47.2273" x2="137.318" y2="216.083" gradientUnits="userSpaceOnUse">
<stop stop-color="white"/>
<stop offset="1" stop-color="#F5F8FB"/>
</linearGradient>
<linearGradient id="paint7_linear" x1="81.0979" y1="47.2273" x2="187.418" y2="186.438" gradientUnits="userSpaceOnUse">
<stop stop-color="#7E92A4" stop-opacity="0.5"/>
<stop offset="1" stop-color="#7E92A4"/>
</linearGradient>
<linearGradient id="paint8_linear" x1="326.673" y1="218.521" x2="323.242" y2="203.845" gradientUnits="userSpaceOnUse">
<stop stop-color="#B4C7D8"/>
<stop offset="1" stop-color="#EFF4FA"/>
</linearGradient>
<linearGradient id="paint9_linear" x1="46.4049" y1="124.007" x2="-12.0079" y2="121.921" gradientUnits="userSpaceOnUse">
<stop stop-color="#7E92A4"/>
<stop offset="1" stop-color="#7E92A4" stop-opacity="0"/>
</linearGradient>
<linearGradient id="paint10_linear" x1="430.596" y1="321.275" x2="430.596" y2="346.241" gradientUnits="userSpaceOnUse">
<stop stop-color="#BDA18D"/>
<stop offset="1" stop-color="#BDA18D"/>
</linearGradient>
<linearGradient id="paint11_linear" x1="409.124" y1="0.997803" x2="409.124" y2="187.876" gradientUnits="userSpaceOnUse">
<stop stop-color="#334555" stop-opacity="0"/>
<stop offset="0.392453" stop-color="#334555"/>
</linearGradient>
<linearGradient id="paint12_linear" x1="421.864" y1="182.782" x2="275.115" y2="114.221" gradientUnits="userSpaceOnUse">
<stop stop-color="#7E92A4"/>
<stop offset="1" stop-color="#D7DDE5"/>
</linearGradient>
<linearGradient id="paint13_linear" x1="453.579" y1="201.497" x2="432.478" y2="253.607" gradientUnits="userSpaceOnUse">
<stop stop-color="#8198AD" stop-opacity="0.5"/>
<stop offset="1" stop-color="#8198AD"/>
</linearGradient>
<linearGradient id="paint14_linear" x1="427.408" y1="229.217" x2="427.408" y2="253.133" gradientUnits="userSpaceOnUse">
<stop stop-color="#B80000"/>
<stop offset="1" stop-color="#D30101"/>
</linearGradient>
<linearGradient id="paint15_linear" x1="424.157" y1="0.214111" x2="424.157" y2="146.845" gradientUnits="userSpaceOnUse">
<stop stop-color="#334555" stop-opacity="0"/>
<stop offset="0.2691" stop-color="#334555"/>
</linearGradient>
<linearGradient id="paint16_linear" x1="424.177" y1="178.031" x2="440.492" y2="177.06" gradientUnits="userSpaceOnUse">
<stop stop-color="#48271C"/>
<stop offset="1" stop-color="#865544"/>
</linearGradient>
<linearGradient id="paint17_linear" x1="417.047" y1="171.087" x2="420.054" y2="172.636" gradientUnits="userSpaceOnUse">
<stop stop-color="#FFCBA5"/>
<stop offset="1" stop-color="#FD9365"/>
</linearGradient>
<radialGradient id="paint18_radial" cx="0" cy="0" r="1" gradientUnits="userSpaceOnUse" gradientTransform="translate(459.303 180.884) rotate(-137.846) scale(50.0195 52.7807)">
<stop stop-color="#B10909"/>
<stop offset="1" stop-color="#E81E1E"/>
</radialGradient>
<linearGradient id="paint19_linear" x1="438.626" y1="161.131" x2="438.988" y2="172.115" gradientUnits="userSpaceOnUse">
<stop stop-color="#B10909"/>
<stop offset="1" stop-color="#7C0000" stop-opacity="0.17"/>
</linearGradient>
<linearGradient id="paint20_linear" x1="412.689" y1="242.224" x2="412.689" y2="401.786" gradientUnits="userSpaceOnUse">
<stop offset="0.65341" stop-color="#334555"/>
<stop offset="1" stop-color="#334555" stop-opacity="0"/>
</linearGradient>
<linearGradient id="paint21_linear" x1="374.166" y1="326.755" x2="382.68" y2="326.249" gradientUnits="userSpaceOnUse">
<stop stop-color="#D4DDE7"/>
<stop offset="1" stop-color="#EFF4FA"/>
</linearGradient>
<linearGradient id="paint22_linear" x1="472.517" y1="339.246" x2="459.182" y2="336.377" gradientUnits="userSpaceOnUse">
<stop stop-color="#D6DFE8"/>
<stop offset="1" stop-color="#EEF3F9"/>
</linearGradient>
<linearGradient id="paint23_linear" x1="274.529" y1="124.9" x2="280.647" y2="125.163" gradientUnits="userSpaceOnUse">
<stop stop-color="#D7DFE9" stop-opacity="0.81"/>
<stop offset="1" stop-color="#EDF2F9"/>
</linearGradient>
<linearGradient id="paint24_linear" x1="302.634" y1="95.2973" x2="308.374" y2="60.4462" gradientUnits="userSpaceOnUse">
<stop stop-color="#6E7981" stop-opacity="0.63"/>
<stop offset="1" stop-color="#364551" stop-opacity="0.46"/>
</linearGradient>
<linearGradient id="paint25_linear" x1="308.651" y1="52.0154" x2="299.641" y2="84.5329" gradientUnits="userSpaceOnUse">
<stop stop-color="#B4C7D8"/>
<stop offset="1" stop-color="#EFF4FA"/>
</linearGradient>
<clipPath id="clip0">
<rect x="241.335" y="61.3315" width="70.5199" height="27.4244" fill="white"/>
</clipPath>
<clipPath id="clip1">
<rect x="97.1608" y="63.6821" width="79.9226" height="26.6409" fill="white"/>
</clipPath>
</defs>
</svg>
