<svg width="100" height="100" viewBox="0 0 100 100" fill="none" xmlns="http://www.w3.org/2000/svg">
<path d="M48.3871 94C65.8464 94 80 79.8464 80 62.3871C80 52.5702 75.5253 43.7983 68.5043 38C68.5043 38 76.8387 57.4194 61.0323 73.2258C45.2258 89.0323 24 82.5043 24 82.5043C29.7983 89.5253 38.5702 94 48.3871 94Z" fill="#E81E1E"/>
<circle cx="50" cy="64" r="33.5" stroke="#3C4D5D" stroke-width="3"/>
<path d="M62.0011 57.942L62 57.971V58C62 59.1716 60.6716 61.5 57.5 61.5H54.8767C49.8422 61.5 46.7835 67.0495 49.4718 71.3061C50.1435 72.3696 50.5 73.6016 50.5 74.8594V75.0715C50.5 77.0712 48.9624 78.7348 46.9689 78.8919L21.0875 80.932C20.5008 79.9324 19.9645 78.8998 19.4821 77.8377L34.7028 62.617C38.7348 58.585 41 53.1164 41 47.4142V31.7224C43.8623 30.926 46.8803 30.5 50 30.5C54.598 30.5 58.9764 31.4255 62.9616 33.0993L62.0011 57.942ZM83.214 59.6018C83.4026 61.0406 83.5 62.5086 83.5 64C83.5 70.5836 81.6023 76.7202 78.3239 81.8971L72.8033 76.3765C71.0459 74.6192 71.0459 71.7699 72.8033 70.0126L83.214 59.6018Z" stroke="#3C4D5D" stroke-width="3"/>
<path d="M66 15.5C66 26 52.5 35 52.5 35C52.5 35 39 26 39 15.5C39 11.9196 40.4223 8.4858 42.9541 5.95406C45.4858 3.42232 48.9196 2 52.5 2C56.0804 2 59.5142 3.42232 62.0459 5.95406C64.5777 8.4858 66 11.9196 66 15.5Z" fill="white" stroke="#3C4D5D" stroke-width="3" stroke-linecap="round" stroke-linejoin="round"/>
<path d="M52.5 33.4999C52.5 33.4999 64.5 25.9999 64.5 15.4999C64.5 11.9195 63.5 9.5 61.5 7.5C58.9683 4.96826 56.0804 3.50002 52.5 3.50002V33.4999Z" fill="#E81E1E"/>
<circle cx="52.5" cy="15.5" r="6" fill="white" stroke="#3C4D5D" stroke-width="3"/>
</svg>
