<svg width="100" height="100" viewBox="0 0 100 100" fill="none" xmlns="http://www.w3.org/2000/svg">
<path d="M7 98V96C7 83.2975 17.2975 73 30 73V73C42.7025 73 53 83.2975 53 96V98" stroke="#3C4D5D" stroke-width="3" stroke-linecap="round" stroke-linejoin="round"/>
<path d="M51.5 98.5555V96C51.5 84.1259 41.8741 74.5 30 74.5C35.8976 77.1982 39.68 83.088 39.68 89.5735V94.5796C39.68 96.7887 41.4709 98.5796 43.68 98.5796H51.4759C51.4892 98.5796 51.5 98.5688 51.5 98.5555Z" fill="#E81E1E"/>
<path d="M30 70C36 67 36.725 54.4348 30 50C41.5 50 45 68.5 30 70Z" fill="#E81E1E"/>
<circle cx="30" cy="60" r="11.5" stroke="#3C4D5D" stroke-width="3"/>
<path d="M71.5 50.7701V49C71.5 37.1259 61.8741 27.5 50 27.5C55.8976 30.1982 59.68 36.088 59.68 42.5735V46.7934C59.68 49.0025 61.4709 50.7934 63.68 50.7934H71.4767C71.4896 50.7934 71.5 50.7829 71.5 50.7701Z" fill="#E81E1E"/>
<path d="M47 98V96C47 83.2975 57.2975 73 70 73V73C82.7025 73 93 83.2975 93 96V98" stroke="#3C4D5D" stroke-width="3" stroke-linecap="round" stroke-linejoin="round"/>
<path d="M48.5007 95.9993V99.8475C48.5007 99.8615 48.5121 99.8728 48.5261 99.8728H91.474C91.488 99.8728 91.4993 99.8615 91.4993 99.8475V95.9993C91.4993 84.1256 81.8737 74.5 70 74.5C58.1263 74.5 48.5007 84.1256 48.5007 95.9993Z" fill="white"/>
<path d="M91.5 98.7117V96C91.5 84.1259 81.8741 74.5 70 74.5C75.8976 77.1982 79.68 83.088 79.68 89.5735V94.7359C79.68 96.945 81.4709 98.7359 83.68 98.7359H91.4758C91.4892 98.7359 91.5 98.725 91.5 98.7117Z" fill="#E81E1E"/>
<path d="M70 70C76 67 76.725 54.4348 70 50C81.5 50 85 68.5 70 70Z" fill="#E81E1E"/>
<circle cx="70" cy="60" r="11.5" stroke="#3C4D5D" stroke-width="3"/>
<path d="M27 49.5V49C27 36.2975 37.2975 26 50 26V26C62.7025 26 73 36.2975 73 49V49.5" stroke="#3C4D5D" stroke-width="3" stroke-linejoin="round"/>
<path d="M50 23C56 20 56.725 7.43478 50 3C61.5 3 65 21.5 50 23Z" fill="#E81E1E"/>
<circle cx="50" cy="13" r="11.5" stroke="#3C4D5D" stroke-width="3"/>
</svg>
