<svg width="112" height="27" viewBox="0 0 112 27" fill="none" xmlns="http://www.w3.org/2000/svg">
<g clip-path="url(#clip0)">
<path d="M8.93925 18.4455H0L2.87653 5.61377H11.8131L11.3649 7.59466H4.71545L3.97119 10.9202H10.4902L10.0393 12.9011H3.52029L2.71899 16.4619H9.36842L8.93925 18.4455ZM19.4974 18.4455H17.2728L15.5914 15.0183L12.3645 18.4455H9.99044L14.5158 13.671L12.2857 9.14783H14.5158L16.0396 12.2969L18.9949 9.14783H21.3798L17.0772 13.671L19.4974 18.4455ZM26.4022 18.6754C24.9951 18.6754 23.9521 18.1558 23.273 17.1168L22.1865 21.9875H20.1303L23.0285 9.14783H25.082L24.7887 10.3802C25.6235 9.40535 26.614 8.91793 27.7603 8.91793C28.2455 8.89808 28.7295 8.97872 29.1811 9.15463C29.6326 9.33054 30.0416 9.5978 30.3815 9.93912C31.0443 10.6181 31.3766 11.5609 31.3784 12.7674C31.4001 14.2505 30.9226 15.699 30.0202 16.8869C29.6136 17.4541 29.0713 17.9139 28.4412 18.2258C27.8111 18.5378 27.1127 18.6921 26.4076 18.6754H26.4022ZM26.0898 16.8869C26.5236 16.8924 26.9525 16.7955 27.3405 16.6044C27.7285 16.4132 28.0643 16.1333 28.3198 15.7882C28.9199 15.0454 29.2379 14.1199 29.2189 13.1711C29.2344 12.8444 29.1835 12.518 29.0692 12.2109C28.955 11.9038 28.7796 11.6223 28.5534 11.3827C28.3412 11.1602 28.0831 10.9849 27.7964 10.8687C27.5096 10.7525 27.201 10.6981 26.8911 10.709C25.9259 10.709 25.0983 11.1546 24.4084 12.0457L23.6125 15.6358C23.8465 16.0209 24.1852 16.3338 24.5904 16.5394C25.0549 16.7765 25.5721 16.896 26.0952 16.8869H26.0898ZM37.3759 18.6754C35.9037 18.6754 34.7366 18.3038 33.8746 17.5606C33.0127 16.8174 32.5889 15.8034 32.6034 14.5184C32.5784 13.0525 33.1392 11.6356 34.1653 10.5727C34.6494 10.0408 35.2442 9.61766 35.9093 9.33213C36.5744 9.0466 37.2941 8.90533 38.0196 8.91793C38.5734 8.89588 39.126 8.98527 39.6435 9.18063C40.161 9.37598 40.6325 9.67319 41.0293 10.0541C41.8007 10.7972 42.1855 11.7917 42.1837 13.0374C42.1886 13.5179 42.1292 13.997 42.0071 14.4623H34.6841C34.6841 14.4623 34.6841 14.5264 34.6623 14.6147V14.7884C34.6688 15.0868 34.7403 15.3804 34.872 15.6493C35.0037 15.9181 35.1925 16.1561 35.4256 16.3469C35.9335 16.796 36.6398 17.0206 37.5389 17.0206C38.4441 17.0509 39.3332 16.7796 40.0623 16.2507L40.706 17.6568C39.7406 18.3447 38.5729 18.7025 37.3813 18.6754H37.3759ZM34.8986 13.0374H40.3149C40.3322 12.9494 40.3385 12.8596 40.3339 12.7701C40.3428 12.4805 40.2902 12.1923 40.1793 11.9239C40.0684 11.6555 39.9018 11.4129 39.6902 11.2116C39.4431 10.9889 39.1528 10.8178 38.8368 10.7084C38.5208 10.5991 38.1855 10.5538 37.8512 10.5754C37.1348 10.57 36.4429 10.8317 35.9145 11.3078C35.39 11.7572 35.0326 12.3658 34.8986 13.0374ZM45.177 18.4455H43.129L45.2205 9.14783H47.274L46.9616 10.4577C47.3838 9.97269 47.9093 9.585 48.5008 9.32213C49.0922 9.05926 49.7352 8.92766 50.3841 8.93664L49.9196 10.9603C49.6458 10.8898 49.3633 10.8574 49.0803 10.8641C48.5967 10.8699 48.1223 10.9949 47.7004 11.2276C47.2702 11.4597 46.8915 11.7742 46.5868 12.1526L45.177 18.4455Z" fill="#E81E1E"/>
<path d="M58.8102 0.80198C58.6068 0.551898 58.3488 0.349994 58.0555 0.211183C57.7621 0.0723714 57.4408 0.000200196 57.1153 0L46.4077 0L45.5114 4.0099H55.4529C55.5343 4.00995 55.6146 4.02799 55.688 4.0627C55.7613 4.0974 55.8258 4.14788 55.8766 4.2104C55.9281 4.27282 55.9646 4.34586 55.9834 4.42408C56.0022 4.50229 56.0029 4.58368 55.9853 4.66218L50.9412 27H53.6955L59.234 2.60376C59.3066 2.29146 59.3063 1.967 59.2328 1.65486C59.1594 1.34273 59.0149 1.05109 58.8102 0.80198Z" fill="#E81E1E"/>
<path d="M64.0797 4.30151e-05C63.3997 -0.00358848 62.7391 0.222818 62.2085 0.641347C61.6779 1.05988 61.3096 1.64511 61.1651 2.29905L55.7652 26.0216L55.5424 27H58.313L63.2811 5.04717C63.3501 4.75164 63.5192 4.48798 63.7605 4.2995C64.0019 4.11102 64.3012 4.00891 64.6093 4.00994H74.7492L75.6456 4.30151e-05H64.0797Z" fill="#415A7D"/>
<path d="M70.4519 8.9181C71.0844 8.91095 71.7092 9.05594 72.2718 9.34048C72.8082 9.59041 73.2619 9.98421 73.581 10.4766L73.8744 9.13998H75.9279L73.8364 18.4456H71.7829L72.0545 17.2132C71.7117 17.6667 71.266 18.0351 70.7529 18.289C70.2398 18.5428 69.6735 18.6752 69.0992 18.6755C68.6129 18.697 68.1273 18.6193 67.6729 18.4472C67.2186 18.2751 66.8053 18.0125 66.459 17.6757C65.8071 16.9967 65.4811 16.0539 65.4811 14.8474C65.4775 13.8801 65.6715 12.9219 66.0515 12.0298C66.4163 11.1497 67.0103 10.3798 67.7737 9.79761C68.5398 9.21498 69.4838 8.90497 70.4519 8.9181ZM70.7643 10.7092C70.3265 10.7065 69.8943 10.8062 69.5033 11C69.1123 11.1938 68.7737 11.4762 68.5152 11.8239C67.9287 12.5708 67.6183 13.492 67.6351 14.4357C67.6034 15.0931 67.8356 15.7364 68.2816 16.2268C68.5003 16.4449 68.7627 16.6158 69.0522 16.7286C69.3417 16.8414 69.6519 16.8935 69.963 16.8818C70.4405 16.8793 70.909 16.753 71.3211 16.5155C71.7486 16.2823 72.1193 15.9603 72.4076 15.5719L73.2225 11.9736C72.9827 11.5859 72.6374 11.2719 72.2256 11.0674C71.7784 10.8251 71.2747 10.7017 70.7643 10.7092ZM78.5491 18.4456H76.4956L78.5899 9.148H80.6434L80.3419 10.4579C80.7637 9.97244 81.2891 9.58444 81.8807 9.32154C82.4722 9.05863 83.1154 8.92728 83.7644 8.93681L83.3026 10.9605C83.0278 10.8899 82.7444 10.8576 82.4605 10.8642C81.9742 10.8687 81.4968 10.9937 81.0725 11.2278C80.6423 11.4599 80.2636 11.7744 79.9589 12.1528L78.5491 18.4456ZM87.1488 22.2176C85.1678 22.2176 83.6946 21.6829 82.7295 20.6136L83.9626 19.277C84.5874 20.136 85.6368 20.5655 87.1108 20.5655C88.6482 20.5655 89.6125 19.6994 90.0036 17.9671L90.24 16.9673C89.8878 17.4303 89.4299 17.8054 88.9034 18.0622C88.3768 18.319 87.7962 18.4503 87.2086 18.4456C86.2549 18.4781 85.3266 18.139 84.6254 17.502C83.9626 16.8604 83.6304 15.9042 83.6285 14.6335C83.6064 13.1922 84.0856 11.7868 84.9867 10.6504C85.3928 10.0995 85.9288 9.65397 86.5487 9.35221C87.1686 9.05044 87.8537 8.90147 88.545 8.9181C89.1567 8.92095 89.7582 9.07149 90.297 9.35652C90.8479 9.60792 91.3261 9.99117 91.6877 10.4713L92.0001 9.13463H94.0536L92.0571 17.9564C91.7203 19.4962 91.1073 20.5869 90.2182 21.2285C89.3355 21.8852 88.2553 22.2333 87.1488 22.2176ZM88.1267 16.6545C88.5928 16.6519 89.0507 16.5333 89.4577 16.3097C89.8874 16.0769 90.2711 15.7699 90.5904 15.4034L91.3536 12.0298C91.1015 11.6166 90.735 11.2828 90.297 11.0674C89.8246 10.8217 89.2965 10.6984 88.7623 10.7092C88.3399 10.7052 87.9226 10.8 87.5448 10.9859C87.1669 11.1718 86.8394 11.4435 86.5893 11.7785C86.0247 12.4925 85.7273 13.3761 85.7472 14.2807C85.7313 14.6002 85.7803 14.9196 85.8913 15.2203C86.0023 15.5209 86.1731 15.7968 86.3937 16.0317C86.624 16.2465 86.8966 16.4126 87.1947 16.5197C87.4927 16.6269 87.8099 16.6727 88.1267 16.6545ZM99.7659 18.6755C98.2919 18.6755 97.1248 18.3039 96.2646 17.5608C95.4045 16.8176 94.9807 15.8035 94.9934 14.5186C94.9628 13.0548 95.5179 11.6377 96.539 10.5729C97.0227 10.0411 97.6171 9.61815 98.2817 9.33262C98.9463 9.04709 99.6656 8.90571 100.391 8.9181C100.945 8.89569 101.498 8.9849 102.016 9.18026C102.534 9.37562 103.006 9.67302 103.403 10.0542C104.173 10.7974 104.557 11.7919 104.557 13.0376C104.561 13.518 104.502 13.9969 104.381 14.4625H97.0659C97.0659 14.4625 97.0659 14.5266 97.0469 14.6148V14.7886C97.0527 15.0871 97.1239 15.3809 97.2556 15.6499C97.3873 15.9189 97.5765 16.1567 97.8102 16.3471C98.319 16.7962 99.0226 17.0208 99.9207 17.0208C100.826 17.0519 101.715 16.7805 102.444 16.2509L103.091 17.657C102.125 18.3442 100.957 18.7019 99.7659 18.6755ZM97.2805 13.0376H102.699C102.717 12.9496 102.723 12.8598 102.719 12.7703C102.728 12.48 102.675 12.191 102.564 11.922C102.453 11.6531 102.285 11.4102 102.072 11.2091C101.643 10.7849 101.03 10.5729 100.233 10.5729C99.5175 10.5674 98.8264 10.8291 98.2991 11.3053C97.7724 11.7545 97.4138 12.3644 97.2805 13.0376ZM108.893 18.6755C108.24 18.7099 107.593 18.5496 107.035 18.2157C106.812 18.0511 106.635 17.8347 106.519 17.586C106.403 17.3373 106.351 17.064 106.369 16.7909C106.371 16.5909 106.39 16.3915 106.426 16.1947L107.619 10.9017H106.057L106.467 9.148H108.032L108.597 6.6084H110.65L110.085 9.148H112L111.579 10.9017H109.678L108.591 15.6922C108.567 15.8128 108.554 15.9354 108.553 16.0584C108.553 16.6109 108.866 16.8871 109.493 16.8871C109.776 16.9015 110.055 16.812 110.275 16.6358L110.392 18.2531C109.955 18.5563 109.426 18.7051 108.893 18.6755Z" fill="#415A7D"/>
</g>
<defs>
<clipPath id="clip0">
<rect width="112" height="27" fill="white"/>
</clipPath>
</defs>
</svg>
