<svg width="100" height="100" viewBox="0 0 100 100" fill="none" xmlns="http://www.w3.org/2000/svg">
<path d="M82 13C85.866 13 89 16.134 89 20V80C89 83.866 85.866 87 82 87V13Z" fill="#E81E1E"/>
<path d="M19 13H26V87H19V13Z" fill="#E81E1E"/>
<path d="M25 13V31.5M25 13H18C14.6863 13 12 15.6863 12 19V31.5M25 13H75M25 87V68.5M25 87H75M25 87H18C14.6863 87 12 84.3137 12 81V68.5M12 50H25M12 50V31.5M12 50V68.5M25 50V31.5M25 50V68.5M12 31.5H25M12 68.5H25M75 50H88M75 50V31.5M75 50V68.5M88 50V31.5M88 50V68.5M75 13V31.5M75 13H82C85.3137 13 88 15.6863 88 19V31.5M75 31.5H88M75 68.5V87M75 68.5H88M75 87H82C85.3137 87 88 84.3137 88 81V68.5" stroke="#3C4D5D" stroke-width="3" stroke-linecap="round" stroke-linejoin="round"/>
<path d="M53 64C59.0751 64 64 59.0751 64 53C64 46.9249 59.0751 42 53 42C46.9249 42 42 46.9249 42 53C42 59.0751 46.9249 64 53 64Z" fill="#E81E1E"/>
<path d="M50 64C57.732 64 64 57.732 64 50C64 42.268 57.732 36 50 36C42.268 36 36 42.268 36 50C36 57.732 42.268 64 50 64Z" stroke="#3C4D5D" stroke-width="3" stroke-linecap="round" stroke-linejoin="round"/>
<path d="M47 44L56 50L47 56V44Z" fill="white" stroke="#3C4D5D" stroke-width="3" stroke-linecap="round" stroke-linejoin="round"/>
</svg>
