<svg width="100" height="100" viewBox="0 0 100 100" fill="none" xmlns="http://www.w3.org/2000/svg">
<circle cx="50" cy="50" r="44.5" stroke="#3C4D5D" stroke-width="3"/>
<circle cx="50" cy="50" r="38.5" stroke="#E81E1E" stroke-width="3"/>
<path d="M50 1.5V10" stroke="#E81E1E" stroke-width="3" stroke-linecap="round"/>
<path d="M50 90V98.5" stroke="#E81E1E" stroke-width="3" stroke-linecap="round"/>
<path d="M98.5 50L90 50" stroke="#E81E1E" stroke-width="3" stroke-linecap="round"/>
<path d="M10 50L1.5 50" stroke="#E81E1E" stroke-width="3" stroke-linecap="round"/>
<path d="M55 59.8758V62.4851C55 62.4933 55.0067 62.5 55.0149 62.5H79.4777C79.4859 62.5 79.4925 62.4933 79.4925 62.4851V59.8758C79.4925 53.1124 74.0097 47.6295 67.2463 47.6295C60.4828 47.6295 55 53.1124 55 59.8758Z" stroke="#3C4D5D" stroke-width="3" stroke-linejoin="round"/>
<path d="M78 60.988V60C78 53.9249 73.0751 49 67 49C69.4883 50.5552 71 53.2826 71 56.217V61H77.988C77.9946 61 78 60.9946 78 60.988Z" fill="#E81E1E"/>
<path d="M67 46.5C69.5 44.5 71 38 67 35C72 35 76 44 67 46.5Z" fill="#E81E1E"/>
<path d="M72.7443 40.6315C72.7443 43.9964 70.1985 46.5668 67.2465 46.5668C64.2944 46.5668 61.7486 43.9964 61.7486 40.6315C61.7486 37.2666 64.2944 34.6963 67.2465 34.6963C70.1985 34.6963 72.7443 37.2666 72.7443 40.6315Z" stroke="#3C4D5D" stroke-width="3"/>
<path d="M21 59.8757V62.485C21 62.4932 21.0067 62.4999 21.0149 62.4999H36H45.4777C45.4859 62.4999 45.4925 62.4932 45.4925 62.485V59.8757C45.4925 53.1122 40.0097 47.6294 33.2463 47.6294C26.4828 47.6294 21 53.1122 21 59.8757Z" stroke="#3C4D5D" stroke-width="3" stroke-linejoin="round"/>
<path d="M44 60.988V60C44 53.9249 39.0751 49 33 49C35.4883 50.5552 37 53.2826 37 56.217V61H43.988C43.9946 61 44 60.9946 44 60.988Z" fill="#E81E1E"/>
<path d="M33 46.5C35.5 44.5 37 38 33 35C38 35 42 44 33 46.5Z" fill="#E81E1E"/>
<path d="M38.7443 40.6315C38.7443 43.9964 36.1984 46.5668 33.2464 46.5668C30.2944 46.5668 27.7485 43.9964 27.7485 40.6315C27.7485 37.2666 30.2944 34.6963 33.2464 34.6963C36.1984 34.6963 38.7443 37.2666 38.7443 40.6315Z" stroke="#3C4D5D" stroke-width="3"/>
<path d="M36 63.5V66.483C36 66.4924 36.0076 66.5 36.017 66.5H63.983C63.9924 66.5 64 66.4924 64 66.483V63.5C64 55.768 57.732 49.5 50 49.5C42.268 49.5 36 55.768 36 63.5Z" fill="white" stroke="#3C4D5D" stroke-width="3" stroke-linejoin="round"/>
<path d="M62.5 64.986V63.5C62.5 56.5964 56.9036 51 50 51L50.2885 51.1574C53.5011 52.9097 55.5 56.2769 55.5 59.9363V65H62.486C62.4937 65 62.5 64.9937 62.5 64.986Z" fill="#E81E1E"/>
<path d="M50 47.5C52.5 45.5 54 39 50 36C55 36 59 45 50 47.5Z" fill="#E81E1E"/>
<path d="M56.5 41.5C56.5 45.453 53.5055 48.5 50 48.5C46.4945 48.5 43.5 45.453 43.5 41.5C43.5 37.547 46.4945 34.5 50 34.5C53.5055 34.5 56.5 37.547 56.5 41.5Z" stroke="#3C4D5D" stroke-width="3"/>
</svg>
