<svg width="337" height="128" viewBox="0 0 337 128" fill="none" xmlns="http://www.w3.org/2000/svg">
<rect x="1.5" y="1.5" width="334" height="125" rx="12.5" fill="white" stroke="#E81E1E" stroke-width="3"/>
<mask id="mask0" mask-type="alpha" maskUnits="userSpaceOnUse" x="0" y="0" width="337" height="128">
<rect width="337" height="128" rx="14" fill="white"/>
</mask>
<g mask="url(#mask0)">
<path d="M65 127.044C80.477 127.044 81.5245 116.385 98 116.385C130.5 116.385 119.5 98 141 108.5C159.324 117.449 166.256 73.68 180.235 73.68C194.214 73.68 193.715 81.7568 212.687 81.7568C231.658 81.7568 229.5 64.5062 240.645 64.8583C248.633 65.1107 251.629 88.5717 266.107 88.5717C280.586 88.5717 278.089 55.2544 300.057 55.0021C313.037 54.8529 315.034 62.8266 321.025 66.6126C325.818 69.6415 334.339 69.7343 338 68.4723" stroke="#E81E1E" stroke-width="3"/>
<path opacity="0.2" d="M53.0967 129.268C57.3314 128.179 61.8203 126 73.0001 126C87.3983 126 91.71 129.268 104.838 129.268C117.966 129.268 118.854 123.748 132.829 123.748C160.396 123.748 157.397 109.917 168 114C182.63 119.634 192.324 101.673 204.181 101.673C216.039 101.673 215.615 105.856 231.707 105.856C247.799 105.856 248.646 96.9736 255.422 97.1043C262.198 97.235 264.739 109.385 277.019 109.385C289.3 109.385 291.772 92.0001 305.816 92C314.674 91.9999 318.52 96.0521 323.602 98.0128C327.667 99.5814 334.895 99.6295 338 98.9759" stroke="#E81E1E" stroke-width="3"/>
<circle cx="180" cy="73" r="4" fill="#"/>
<circle cx="131" cy="105" r="4" fill="#E81E1E"/>
<circle cx="213" cy="82" r="4" fill="#E81E1E"/>
<circle cx="266" cy="88" r="4" fill="#E81E1E"/>
<circle cx="299" cy="55" r="4" fill="#E81E1E"/>
<circle cx="239" cy="64" r="4" fill="#E81E1E"/>
</g>
<path d="M43.192 41H40.392L37.16 36.728L36.328 37.72V41H34.056V30.328H36.328V35.096L40.104 30.328H42.904L38.664 35.336L43.192 41ZM48.5339 41.192C46.9232 41.192 45.5899 40.6747 44.5339 39.64C43.4885 38.5947 42.9659 37.272 42.9659 35.672C42.9659 34.072 43.4885 32.7547 44.5339 31.72C45.5899 30.6747 46.9232 30.152 48.5339 30.152C50.1552 30.152 51.4885 30.6693 52.5339 31.704C53.5899 32.7387 54.1179 34.0613 54.1179 35.672C54.1179 37.2827 53.5899 38.6053 52.5339 39.64C51.4885 40.6747 50.1552 41.192 48.5339 41.192ZM46.1819 38.184C46.7792 38.8453 47.5632 39.176 48.5339 39.176C49.5045 39.176 50.2885 38.8453 50.8859 38.184C51.4832 37.5227 51.7819 36.6853 51.7819 35.672C51.7819 34.6587 51.4832 33.8213 50.8859 33.16C50.2885 32.4987 49.5045 32.168 48.5339 32.168C47.5632 32.168 46.7792 32.4987 46.1819 33.16C45.5952 33.8213 45.3019 34.6587 45.3019 35.672C45.3019 36.6853 45.5952 37.5227 46.1819 38.184ZM65.3123 41H63.0243V36.52H57.9843V41H55.7122V30.328H57.9843V34.52H63.0243V30.328H65.3123V41ZM72.1674 41H69.8794V32.328H66.7594V30.328H75.2714V32.328H72.1674V41ZM84.2799 41H76.7279V30.328H84.2799V32.328H78.9999V34.584H84.1679V36.584H78.9999V39H84.2799V41ZM95.192 41H92.392L89.16 36.728L88.328 37.72V41H86.056V30.328H88.328V35.096L92.104 30.328H94.904L90.664 35.336L95.192 41ZM100.646 41.192C99.0245 41.192 97.6699 40.68 96.5819 39.656C95.5045 38.6213 94.9659 37.2933 94.9659 35.672C94.9659 34.0507 95.5045 32.728 96.5819 31.704C97.6699 30.6693 99.0245 30.152 100.646 30.152C102.641 30.152 104.129 31.0213 105.11 32.76L103.158 33.72C102.923 33.272 102.577 32.904 102.118 32.616C101.67 32.3173 101.179 32.168 100.646 32.168C99.6752 32.168 98.8752 32.4987 98.2459 33.16C97.6165 33.8213 97.3019 34.6587 97.3019 35.672C97.3019 36.6853 97.6165 37.5227 98.2459 38.184C98.8752 38.8453 99.6752 39.176 100.646 39.176C101.179 39.176 101.67 39.032 102.118 38.744C102.577 38.456 102.923 38.0827 103.158 37.624L105.11 38.568C104.097 40.3173 102.609 41.192 100.646 41.192ZM111.214 41H108.926V32.328H105.806V30.328H114.318V32.328H111.214V41ZM118.047 41H115.775V30.328H120.767C121.887 30.328 122.761 30.6587 123.391 31.32C124.031 31.9707 124.351 32.7867 124.351 33.768C124.351 34.7387 124.031 35.5547 123.391 36.216C122.751 36.8773 121.876 37.208 120.767 37.208H118.047V41ZM120.463 35.208C120.921 35.208 121.295 35.08 121.583 34.824C121.881 34.5573 122.031 34.2053 122.031 33.768C122.031 33.3307 121.881 32.984 121.583 32.728C121.295 32.4613 120.921 32.328 120.463 32.328H118.047V35.208H120.463ZM134.524 41H131.932L131.276 39.192H126.7L126.028 41H123.436L127.564 30.328H130.412L134.524 41ZM130.652 37.192L128.988 32.6L127.324 37.192H130.652ZM137.653 41H135.045L137.445 36.936C136.794 36.7867 136.24 36.44 135.781 35.896C135.333 35.352 135.109 34.6427 135.109 33.768C135.109 32.7547 135.429 31.928 136.069 31.288C136.72 30.648 137.594 30.328 138.693 30.328H143.685V41H141.413V37.208H139.765L137.653 41ZM139.029 35.208H141.413V32.328H139.029C138.56 32.328 138.176 32.4613 137.877 32.728C137.578 32.984 137.429 33.3307 137.429 33.768C137.429 34.2053 137.578 34.5573 137.877 34.824C138.176 35.08 138.56 35.208 139.029 35.208ZM36.328 61H34.056V50.328H39.048C40.168 50.328 41.0427 50.6587 41.672 51.32C42.312 51.9707 42.632 52.7867 42.632 53.768C42.632 54.7387 42.312 55.5547 41.672 56.216C41.032 56.8773 40.1573 57.208 39.048 57.208H36.328V61ZM38.744 55.208C39.2027 55.208 39.576 55.08 39.864 54.824C40.1627 54.5573 40.312 54.2053 40.312 53.768C40.312 53.3307 40.1627 52.984 39.864 52.728C39.576 52.4613 39.2027 52.328 38.744 52.328H36.328V55.208H38.744ZM51.5924 61H44.0404V50.328H51.5924V52.328H46.3124V54.584H51.4804V56.584H46.3124V59H51.5924V61ZM62.5045 61H59.7045L56.4725 56.728L55.6405 57.72V61H53.3685V50.328H55.6405V55.096L59.4165 50.328H62.2165L57.9765 55.336L62.5045 61ZM62.9004 61.192V59.176C63.4764 59.176 63.919 58.9467 64.2284 58.488C64.5377 58.0187 64.7724 57.1173 64.9324 55.784L65.5564 50.328H73.1404V61H70.8524V52.328H67.6044L67.1884 55.944C67.0604 57.0213 66.8684 57.9173 66.6124 58.632C66.367 59.336 66.047 59.8693 65.6524 60.232C65.2684 60.5947 64.863 60.8453 64.4364 60.984C64.0097 61.1227 63.4977 61.192 62.9004 61.192ZM85.1955 61H82.6035L81.9475 59.192H77.3715L76.6995 61H74.1075L78.2355 50.328H81.0835L85.1955 61ZM81.3235 57.192L79.6595 52.6L77.9955 57.192H81.3235ZM97.749 61H95.461V53.528L92.453 61H91.461L88.453 53.528V61H86.181V50.328H89.365L91.957 56.776L94.549 50.328H97.749V61ZM109.821 61H107.229L106.573 59.192H101.997L101.325 61H98.7325L102.861 50.328H105.709L109.821 61ZM105.949 57.192L104.285 52.6L102.621 57.192H105.949Z" fill="#3C3E42"/>
</svg>
