<svg width="336" height="128" viewBox="0 0 336 128" fill="none" xmlns="http://www.w3.org/2000/svg">
<rect x="1.5" y="1.5" width="333" height="125" rx="12.5" fill="white" stroke="#CFD6E6" stroke-width="3"/>
<mask id="mask0" mask-type="alpha" maskUnits="userSpaceOnUse" x="0" y="0" width="336" height="128">
<rect x="1" y="1" width="334" height="126" rx="13" fill="white" stroke="#CFD6E6" stroke-width="2"/>
</mask>
<g mask="url(#mask0)">
<path opacity="0.7" d="M184.235 72.2542C183.533 71.8341 182.76 71.5589 181.96 71.4443C181.159 71.3297 180.347 71.3779 179.57 71.5862C178.793 71.7945 178.065 72.1587 177.43 72.6582C176.794 73.1576 176.262 73.7825 175.864 74.497L175.039 75.9794L173.583 75.1082C172.167 74.2602 170.489 74.0202 168.919 74.4408C167.349 74.8614 166.016 75.9082 165.213 77.351C164.41 78.7938 164.203 80.5143 164.637 82.1341C165.071 83.7539 166.11 85.1402 167.527 85.9881L168.983 86.8593L179.668 93.2536L185.724 82.3737L186.549 80.8913C186.947 80.177 187.203 79.3869 187.302 78.5661C187.401 77.7454 187.341 76.9102 187.126 76.1081C186.911 75.306 186.545 74.5528 186.049 73.8915C185.553 73.2303 184.936 72.6739 184.235 72.2542V72.2542Z" stroke="#CFD6E6" stroke-width="3" stroke-linecap="round" stroke-linejoin="round"/>
<path d="M259.167 114.795C258.302 114.103 257.316 113.594 256.263 113.294C255.21 112.995 254.113 112.911 253.032 113.049C251.952 113.187 250.91 113.543 249.966 114.097C249.022 114.651 248.195 115.392 247.532 116.278L246.155 118.116L244.362 116.682C242.616 115.287 240.409 114.659 238.227 114.938C236.045 115.216 234.067 116.377 232.727 118.166C231.387 119.955 230.795 122.224 231.083 124.476C231.37 126.727 232.512 128.776 234.258 130.171L236.051 131.605L249.217 142.127L259.321 128.638L260.697 126.8C261.361 125.914 261.848 124.901 262.13 123.819C262.412 122.736 262.485 121.605 262.342 120.49C262.2 119.375 261.847 118.298 261.302 117.321C260.757 116.344 260.031 115.485 259.167 114.795V114.795Z" stroke="#CFD6E6" stroke-width="3" stroke-linecap="round" stroke-linejoin="round"/>
<path opacity="0.7" d="M316.378 -3.20013C315.506 -3.72191 314.546 -4.06375 313.552 -4.20613C312.557 -4.3485 311.549 -4.28861 310.583 -4.02989C309.618 -3.77117 308.714 -3.31867 307.924 -2.69826C307.134 -2.07785 306.474 -1.30168 305.98 -0.414091L304.955 1.42728L303.147 0.345086C301.387 -0.708212 299.302 -1.00642 297.352 -0.483937C295.403 0.0385463 293.747 1.33892 292.749 3.13112C291.751 4.92332 291.494 7.06054 292.033 9.07261C292.572 11.0847 293.864 12.8068 295.624 13.8601L297.432 14.9423L310.705 22.8852L318.227 9.37021L319.252 7.52884C319.747 6.64149 320.064 5.66004 320.187 4.64055C320.31 3.62105 320.236 2.5835 319.969 1.58716C319.702 0.590813 319.248 -0.344792 318.631 -1.16621C318.015 -1.98763 317.249 -2.67876 316.378 -3.20013V-3.20013Z" stroke="#CFD6E6" stroke-width="3" stroke-linecap="round" stroke-linejoin="round"/>
<path d="M21.8668 130.307L17.7467 129.203C17.0183 129.008 16.3972 128.532 16.0201 127.878C15.643 127.225 15.5408 126.449 15.736 125.721L18.3119 116.107C18.5071 115.379 18.9837 114.757 19.6369 114.38C20.29 114.003 21.0662 113.901 21.7947 114.096L25.9148 115.2M36.2643 115.03L37.7363 109.536C38.0291 108.443 37.8758 107.279 37.3102 106.299C36.7446 105.32 35.8129 104.605 34.7202 104.312L25.9148 115.2L21.8668 130.307L37.3585 134.458C38.0189 134.643 38.7239 134.583 39.3436 134.29C39.9633 133.996 40.456 133.488 40.7308 132.86L45.938 121.007C46.1032 120.629 46.1844 120.22 46.1758 119.808C46.1673 119.396 46.0692 118.991 45.8884 118.62C45.7077 118.25 45.4485 117.923 45.1289 117.663C44.8093 117.402 44.437 117.215 44.0376 117.112L36.2643 115.03Z" stroke="#CFD6E6" stroke-width="3" stroke-linecap="round" stroke-linejoin="round"/>
<path d="M288.437 94.5443L282.375 98.0443C281.303 98.6632 280.029 98.8309 278.834 98.5105C277.638 98.1902 276.619 97.4081 276 96.3362L267.833 82.1911C267.214 81.1193 267.047 79.8455 267.367 78.65C267.687 77.4545 268.47 76.4352 269.541 75.8163L275.604 72.3163M287.415 60.1082L282.749 52.0253C281.82 50.4175 280.292 49.2443 278.498 48.7638C276.705 48.2833 274.794 48.5349 273.187 49.4631L275.604 72.3163L288.437 94.5443L311.231 81.3843C312.212 80.8326 312.96 79.945 313.339 78.8849C313.717 77.8249 313.699 76.6638 313.289 75.6157L305.577 55.8192C305.331 55.1892 304.95 54.6204 304.462 54.152C303.974 53.6837 303.39 53.3271 302.75 53.107C302.111 52.8868 301.431 52.8084 300.758 52.8771C300.085 52.9458 299.435 53.16 298.853 53.5049L287.415 60.1082Z" stroke="#CFD6E6" stroke-width="3" stroke-linecap="round" stroke-linejoin="round"/>
<path d="M299.952 130.867L295.194 129.592C294.353 129.366 293.635 128.816 293.2 128.062C292.764 127.308 292.646 126.411 292.872 125.57L295.847 114.468C296.072 113.627 296.622 112.909 297.377 112.474C298.131 112.038 299.027 111.92 299.869 112.146L304.627 113.421M316.578 113.224L318.278 106.88C318.616 105.618 318.439 104.273 317.786 103.142C317.133 102.01 316.057 101.185 314.795 100.847L304.627 113.421L299.952 130.867L317.842 135.66C318.605 135.874 319.419 135.805 320.134 135.465C320.85 135.126 321.419 134.54 321.736 133.814L327.75 120.127C327.941 119.69 328.034 119.218 328.024 118.742C328.014 118.266 327.901 117.798 327.693 117.37C327.484 116.942 327.184 116.565 326.815 116.264C326.446 115.964 326.016 115.747 325.555 115.629L316.578 113.224Z" stroke="#CFD6E6" stroke-width="3" stroke-linecap="round" stroke-linejoin="round"/>
<path opacity="0.7" d="M230.787 101.643L227.18 105.25C226.542 105.888 225.677 106.246 224.776 106.246C223.874 106.246 223.009 105.888 222.371 105.25L213.955 96.8341C213.318 96.1964 212.959 95.3315 212.959 94.4296C212.959 93.5278 213.318 92.6628 213.955 92.0251L217.562 88.4184M223.573 77.5981L218.764 72.7891C217.808 71.8325 216.51 71.2952 215.158 71.2952C213.805 71.2952 212.507 71.8325 211.551 72.7891L217.562 88.4184L230.787 101.643L244.348 88.0817C244.935 87.5084 245.294 86.7425 245.36 85.925C245.427 85.1076 245.195 84.2937 244.709 83.6334L235.548 71.1541C235.255 70.7571 234.88 70.4285 234.448 70.1909C234.016 69.9534 233.538 69.8126 233.046 69.7783C232.555 69.744 232.061 69.817 231.601 69.9923C231.14 70.1675 230.723 70.4409 230.378 70.7934L223.573 77.5981Z" stroke="#CFD6E6" stroke-width="3" stroke-linecap="round" stroke-linejoin="round"/>
<path d="M145.687 126.252L142.275 124.749C141.672 124.484 141.199 123.989 140.96 123.375C140.721 122.76 140.736 122.076 141.002 121.473L144.509 113.511C144.775 112.908 145.269 112.435 145.884 112.196C146.498 111.957 147.182 111.973 147.786 112.238L151.198 113.741M160.161 114.973L162.165 110.424C162.564 109.519 162.587 108.493 162.228 107.571C161.87 106.649 161.161 105.907 160.256 105.509L151.198 113.741L145.687 126.252L158.516 131.903C159.062 132.151 159.679 132.193 160.254 132.022C160.828 131.851 161.322 131.478 161.643 130.972L167.721 121.427C167.914 121.123 168.039 120.78 168.086 120.423C168.134 120.066 168.103 119.702 167.997 119.358C167.89 119.014 167.709 118.697 167.468 118.43C167.227 118.162 166.93 117.95 166.599 117.809L160.161 114.973Z" stroke="#CFD6E6" stroke-width="3" stroke-linecap="round" stroke-linejoin="round"/>
<path opacity="0.4" d="M240.268 43.3935L237.107 42.0012C236.548 41.755 236.11 41.2969 235.889 40.7276C235.668 40.1584 235.682 39.5246 235.928 38.9657L239.177 31.5901C239.423 31.0313 239.881 30.593 240.451 30.3719C241.02 30.1508 241.654 30.1649 242.212 30.411L245.373 31.8034M253.677 32.9448L255.534 28.7302C255.903 27.8918 255.924 26.9411 255.592 26.0872C255.261 25.2333 254.603 24.5462 253.765 24.1769L245.373 31.8034L240.268 43.3935L252.153 48.6286C252.659 48.8582 253.231 48.8973 253.763 48.7387C254.295 48.5801 254.752 48.2345 255.05 47.7656L260.681 38.9232C260.86 38.6414 260.975 38.324 261.019 37.9931C261.063 37.6622 261.035 37.3257 260.936 37.0069C260.837 36.6881 260.67 36.3946 260.446 36.1468C260.223 35.8989 259.948 35.7027 259.641 35.5716L253.677 32.9448Z" stroke="#CFD6E6" stroke-width="3" stroke-linecap="round" stroke-linejoin="round"/>
<path opacity="0.7" d="M102.719 115.053L99.8693 116.698C99.3654 116.989 98.7666 117.068 98.2045 116.917C97.6425 116.767 97.1633 116.399 96.8724 115.895L93.0331 109.245C92.7422 108.741 92.6634 108.142 92.814 107.58C92.9646 107.018 93.3323 106.539 93.8362 106.248L96.6861 104.603M102.239 98.8636L100.045 95.0637C99.6087 94.3079 98.8899 93.7563 98.0469 93.5304C97.2039 93.3046 96.3056 93.4228 95.5498 93.8592L96.6861 104.603L102.719 115.053L113.435 108.866C113.896 108.606 114.248 108.189 114.426 107.691C114.604 107.192 114.595 106.647 114.402 106.154L110.777 96.8473C110.661 96.5511 110.482 96.2837 110.253 96.0635C110.023 95.8434 109.749 95.6757 109.448 95.5722C109.147 95.4687 108.828 95.4319 108.511 95.4642C108.195 95.4965 107.889 95.5972 107.616 95.7593L102.239 98.8636Z" stroke="#CFD6E6" stroke-width="3" stroke-linecap="round" stroke-linejoin="round"/>
</g>
<path d="M38.224 41.192C36.6027 41.192 35.248 40.68 34.16 39.656C33.0827 38.6213 32.544 37.2933 32.544 35.672C32.544 34.0507 33.0827 32.728 34.16 31.704C35.248 30.6693 36.6027 30.152 38.224 30.152C40.2187 30.152 41.7067 31.0213 42.688 32.76L40.736 33.72C40.5013 33.272 40.1547 32.904 39.696 32.616C39.248 32.3173 38.7573 32.168 38.224 32.168C37.2533 32.168 36.4533 32.4987 35.824 33.16C35.1947 33.8213 34.88 34.6587 34.88 35.672C34.88 36.6853 35.1947 37.5227 35.824 38.184C36.4533 38.8453 37.2533 39.176 38.224 39.176C38.7573 39.176 39.248 39.032 39.696 38.744C40.1547 38.456 40.5013 38.0827 40.736 37.624L42.688 38.568C41.6747 40.3173 40.1867 41.192 38.224 41.192ZM49.0964 41.192C47.4857 41.192 46.1524 40.6747 45.0964 39.64C44.051 38.5947 43.5284 37.272 43.5284 35.672C43.5284 34.072 44.051 32.7547 45.0964 31.72C46.1524 30.6747 47.4857 30.152 49.0964 30.152C50.7177 30.152 52.051 30.6693 53.0964 31.704C54.1524 32.7387 54.6804 34.0613 54.6804 35.672C54.6804 37.2827 54.1524 38.6053 53.0964 39.64C52.051 40.6747 50.7177 41.192 49.0964 41.192ZM46.7444 38.184C47.3417 38.8453 48.1257 39.176 49.0964 39.176C50.067 39.176 50.851 38.8453 51.4484 38.184C52.0457 37.5227 52.3444 36.6853 52.3444 35.672C52.3444 34.6587 52.0457 33.8213 51.4484 33.16C50.851 32.4987 50.067 32.168 49.0964 32.168C48.1257 32.168 47.3417 32.4987 46.7444 33.16C46.1577 33.8213 45.8644 34.6587 45.8644 35.672C45.8644 36.6853 46.1577 37.5227 46.7444 38.184ZM64.5628 42.968V41H56.2747V30.328H58.5468V39H63.5868V30.328H65.8748V39H66.8348V42.968H64.5628ZM70.3574 41H68.1654V30.328H70.4374V37.224L75.3814 30.328H77.7174V41H75.4454V33.848L70.3574 41ZM89.7736 41H87.1816L86.5256 39.192H81.9496L81.2776 41H78.6856L82.8136 30.328H85.6616L89.7736 41ZM85.9016 37.192L84.2376 32.6L82.5736 37.192H85.9016ZM90.1191 41.192V39.176C90.6951 39.176 91.1378 38.9467 91.4471 38.488C91.7565 38.0187 91.9911 37.1173 92.1511 35.784L92.7751 30.328H100.359V41H98.0711V32.328H94.8231L94.4071 35.944C94.2791 37.0213 94.0871 37.9173 93.8311 38.632C93.5858 39.336 93.2658 39.8693 92.8711 40.232C92.4871 40.5947 92.0818 40.8453 91.6551 40.984C91.2285 41.1227 90.7165 41.192 90.1191 41.192ZM102.462 30.328H104.734V34.12H107.454C108.564 34.12 109.438 34.4507 110.078 35.112C110.718 35.7733 111.038 36.5893 111.038 37.56C111.038 38.5413 110.718 39.3627 110.078 40.024C109.449 40.6747 108.574 41 107.454 41H102.462V30.328ZM107.15 36.12H104.734V39H107.15C107.609 39 107.982 38.872 108.27 38.616C108.569 38.3493 108.718 37.9973 108.718 37.56C108.718 37.1227 108.569 36.776 108.27 36.52C107.982 36.2533 107.609 36.12 107.15 36.12ZM122.047 41H119.759V36.52H114.719V41H112.447V30.328H114.719V34.52H119.759V30.328H122.047V41ZM124.15 30.328H126.422V34.12H129.142C130.251 34.12 131.126 34.4507 131.766 35.112C132.406 35.7733 132.726 36.5893 132.726 37.56C132.726 38.5413 132.406 39.3627 131.766 40.024C131.136 40.6747 130.262 41 129.142 41H124.15V30.328ZM128.838 36.12H126.422V39H128.838C129.296 39 129.67 38.872 129.958 38.616C130.256 38.3493 130.406 37.9973 130.406 37.56C130.406 37.1227 130.256 36.776 129.958 36.52C129.67 36.2533 129.296 36.12 128.838 36.12ZM135.91 41H133.622V30.328H135.91V41ZM145.577 41H138.025V30.328H145.577V32.328H140.297V34.584H145.465V36.584H140.297V39H145.577V41ZM38.224 61.192C36.6027 61.192 35.248 60.68 34.16 59.656C33.0827 58.6213 32.544 57.2933 32.544 55.672C32.544 54.0507 33.0827 52.728 34.16 51.704C35.248 50.6693 36.6027 50.152 38.224 50.152C40.2187 50.152 41.7067 51.0213 42.688 52.76L40.736 53.72C40.5013 53.272 40.1547 52.904 39.696 52.616C39.248 52.3173 38.7573 52.168 38.224 52.168C37.2533 52.168 36.4533 52.4987 35.824 53.16C35.1947 53.8213 34.88 54.6587 34.88 55.672C34.88 56.6853 35.1947 57.5227 35.824 58.184C36.4533 58.8453 37.2533 59.176 38.224 59.176C38.7573 59.176 39.248 59.032 39.696 58.744C40.1547 58.456 40.5013 58.0827 40.736 57.624L42.688 58.568C41.6747 60.3173 40.1867 61.192 38.224 61.192ZM51.5924 61H44.0404V50.328H51.5924V52.328H46.3124V54.584H51.4804V56.584H46.3124V59H51.5924V61ZM58.1205 61H55.8325V52.328H52.7125V50.328H61.2245V52.328H58.1205V61ZM64.873 61H62.681V50.328H64.953V57.224L69.897 50.328H72.233V61H69.961V53.848L64.873 61Z" fill="#9EA5B7"/>
</svg>
