<svg width="337" height="128" viewBox="0 0 337 128" fill="none" xmlns="http://www.w3.org/2000/svg">
<rect x="1.5" y="1.5" width="334" height="125" rx="12.5" fill="white" stroke="#CFD6E6" stroke-width="3"/>
<mask id="mask0" mask-type="alpha" maskUnits="userSpaceOnUse" x="0" y="0" width="337" height="128">
<rect x="1" y="1" width="335" height="126" rx="13" fill="white" stroke="#CFD6E6" stroke-width="2"/>
</mask>
<g mask="url(#mask0)">
<path opacity="0.7" d="M215 61L218.09 67.26L225 68.27L220 73.14L221.18 80.02L215 76.77L208.82 80.02L210 73.14L205 68.27L211.91 67.26L215 61Z" stroke="#CFD6E6" stroke-width="3" stroke-linecap="round" stroke-linejoin="round"/>
<path d="M317.75 113.943L317.126 124.603L325.631 131.292L315.207 133.848L311.546 143.847L305.728 134.766L294.954 134.268L301.783 126.098L298.784 115.792L308.83 119.814L317.75 113.943Z" stroke="#CFD6E6" stroke-width="3" stroke-linecap="round" stroke-linejoin="round"/>
<path opacity="0.7" d="M315.923 -4.25L315.299 6.41069L323.804 13.0996L313.38 15.6551L309.719 25.6542L303.901 16.5733L293.128 16.0752L299.957 7.90512L296.958 -2.40041L307.003 1.62119L315.923 -4.25Z" stroke="#CFD6E6" stroke-width="3" stroke-linecap="round" stroke-linejoin="round"/>
<path opacity="0.7" d="M147.411 90.6651L146.955 98.4578L153.172 103.347L145.552 105.215L142.876 112.524L138.623 105.886L130.748 105.522L135.74 99.5502L133.548 92.0171L140.891 94.9568L147.411 90.6651Z" stroke="#CFD6E6" stroke-width="3" stroke-linecap="round" stroke-linejoin="round"/>
<path d="M44.4113 111.665L43.9548 119.458L50.1722 124.347L42.5522 126.215L39.8761 133.524L35.6233 126.886L27.7482 126.522L32.74 120.55L30.5478 113.017L37.8909 115.957L44.4113 111.665Z" stroke="#CFD6E6" stroke-width="3" stroke-linecap="round" stroke-linejoin="round"/>
<path d="M306.899 60.7467C306.481 61.4623 306.723 62.3808 307.438 62.7983C308.154 63.2158 309.072 62.9742 309.49 62.2587L306.899 60.7467ZM312.703 56.7513C313.121 56.0358 312.879 55.1173 312.164 54.6997C311.448 54.2822 310.53 54.5238 310.112 55.2394L312.703 56.7513ZM312.808 67.5839C312.007 67.7983 311.533 68.6208 311.747 69.421C311.961 70.2212 312.784 70.696 313.584 70.4816L312.808 67.5839ZM319.55 68.883C320.35 68.6686 320.825 67.8461 320.611 67.0459C320.396 66.2457 319.574 65.7709 318.774 65.9853L319.55 68.883ZM313.268 76.3582C312.548 75.9473 311.632 76.1973 311.221 76.9167C310.81 77.636 311.06 78.5523 311.78 78.9632L313.268 76.3582ZM317.316 82.126C318.036 82.5369 318.952 82.2868 319.363 81.5675C319.774 80.8482 319.524 79.9319 318.804 79.521L317.316 82.126ZM265.043 90.8054L268.359 103.181L271.257 102.405L267.941 90.029L265.043 90.8054ZM279.61 100.167L276.293 87.791L273.396 88.5674L276.712 100.943L279.61 100.167ZM273.235 64.6708L260.467 68.0919L261.244 70.9896L274.011 67.5686L273.235 64.6708ZM266.446 91.9824L279.608 88.4558L278.831 85.558L265.67 89.0846L266.446 91.9824ZM280.669 86.6187L275.072 65.7315L272.174 66.5079L277.771 87.3951L280.669 86.6187ZM279.415 88.4942C283.403 87.971 291.005 87.83 297.307 92.053L298.977 89.5608C291.77 84.7318 283.273 84.9623 279.025 85.5196L279.415 88.4942ZM274.198 67.5053C278.084 65.8933 285.717 62.2464 289.562 54.4234L286.87 53.1C283.542 59.8709 276.835 63.1638 273.048 64.7342L274.198 67.5053ZM286.883 54.584L296.577 90.761L299.475 89.9846L289.781 53.8076L286.883 54.584ZM308.225 87.64L298.531 51.463L295.633 52.2395L305.327 88.4164L308.225 87.64ZM257.294 73.5885L255.247 74.137L256.023 77.0348L258.07 76.4863L257.294 73.5885ZM256.233 75.4256L259.612 88.0368L262.51 87.2603L259.131 74.6492L256.233 75.4256ZM259.402 89.6459L261.449 89.0974L260.673 86.1997L258.626 86.7481L259.402 89.6459ZM309.49 62.2587L312.703 56.7513L310.112 55.2394L306.899 60.7467L309.49 62.2587ZM313.584 70.4816L319.55 68.883L318.774 65.9853L312.808 67.5839L313.584 70.4816ZM311.78 78.9632L317.316 82.126L318.804 79.521L313.268 76.3582L311.78 78.9632ZM255.247 74.137C250.964 75.2845 248.423 79.6866 249.57 83.9692L252.468 83.1928C251.749 80.5105 253.341 77.7535 256.023 77.0348L255.247 74.137ZM296.577 90.761C297.439 93.9775 300.745 95.8863 303.961 95.0245L303.185 92.1267C301.569 92.5597 299.908 91.6007 299.475 89.9846L296.577 90.761ZM289.781 53.8076C289.348 52.1915 290.307 50.5304 291.923 50.0973L291.147 47.1996C287.93 48.0614 286.021 51.3676 286.883 54.584L289.781 53.8076ZM249.57 83.9692C250.718 88.2519 255.12 90.7934 259.402 89.6459L258.626 86.7481C255.944 87.4668 253.187 85.875 252.468 83.1928L249.57 83.9692ZM260.467 68.0919C257.273 68.9478 255.377 72.2312 256.233 75.4256L259.131 74.6492C258.704 73.0552 259.65 71.4168 261.244 70.9896L260.467 68.0919ZM298.531 51.463C297.669 48.2465 294.363 46.3377 291.147 47.1996L291.923 50.0973C293.539 49.6643 295.2 50.6234 295.633 52.2395L298.531 51.463ZM275.492 107.299C278.598 106.467 280.442 103.274 279.61 100.167L276.712 100.943C277.115 102.45 276.222 103.998 274.715 104.401L275.492 107.299ZM265.67 89.0846C264.293 89.4534 262.879 88.6367 262.51 87.2603L259.612 88.0368C260.41 91.0135 263.47 92.78 266.446 91.9824L265.67 89.0846ZM303.961 95.0245C307.178 94.1626 309.087 90.8565 308.225 87.64L305.327 88.4164C305.76 90.0325 304.801 91.6937 303.185 92.1267L303.961 95.0245ZM268.359 103.181C269.192 106.288 272.385 108.132 275.492 107.299L274.715 104.401C273.209 104.805 271.661 103.911 271.257 102.405L268.359 103.181Z" fill="#CFD6E6"/>
<path opacity="0.7" d="M226.776 24.2498C227.194 24.9654 226.952 25.8839 226.237 26.3014C225.521 26.7189 224.603 26.4773 224.185 25.7617L226.776 24.2498ZM222.274 22.4858C221.856 21.7703 222.098 20.8518 222.813 20.4343C223.529 20.0168 224.447 20.2584 224.865 20.9739L222.274 22.4858ZM222.894 28.036C223.694 28.2504 224.169 29.0729 223.955 29.8731C223.74 30.6733 222.918 31.1481 222.117 30.9337L222.894 28.036ZM218.569 29.9829C217.768 29.7684 217.294 28.9459 217.508 28.1457C217.722 27.3455 218.545 26.8707 219.345 27.0851L218.569 29.9829ZM222.161 33.3145C222.881 32.9036 223.797 33.1536 224.208 33.873C224.619 34.5923 224.369 35.5085 223.649 35.9194L222.161 33.3145ZM220.356 37.8007C219.637 38.2117 218.721 37.9616 218.31 37.2423C217.899 36.523 218.149 35.6067 218.868 35.1958L220.356 37.8007ZM251.735 42.5931L249.763 49.9546L246.865 49.1782L248.837 41.8167L251.735 42.5931ZM241.897 47.8469L243.869 40.4854L246.767 41.2619L244.794 48.6234L241.897 47.8469ZM246.433 26.3032L254.027 28.3381L253.251 31.2359L245.656 29.201L246.433 26.3032ZM250.156 43.723L242.327 41.6252L243.104 38.7274L250.933 40.8252L250.156 43.723ZM241.267 39.7881L244.596 27.3639L247.494 28.1403L244.164 40.5646L241.267 39.7881ZM242.52 41.6636C240.201 41.3593 235.861 41.2936 232.295 43.6828L230.625 41.1906C235.095 38.1954 240.331 38.3506 242.911 38.6891L242.52 41.6636ZM245.47 29.1377C243.138 28.1704 238.41 25.9294 236.018 21.0629L238.711 19.7396C240.585 23.5539 244.387 25.4409 246.619 26.3665L245.47 29.1377ZM238.744 21.0477L232.978 42.5667L230.08 41.7902L235.846 20.2712L238.744 21.0477ZM224.876 40.3956L230.642 18.8766L233.539 19.6531L227.773 41.1721L224.876 40.3956ZM255.915 31.6077L257.133 31.9339L256.356 34.8317L255.139 34.5055L255.915 31.6077ZM256.976 33.4448L254.966 40.9462L252.068 40.1698L254.078 32.6683L256.976 33.4448ZM254.346 42.3331L253.129 42.0069L253.905 39.1091L255.123 39.4353L254.346 42.3331ZM224.185 25.7617L222.274 22.4858L224.865 20.9739L226.776 24.2498L224.185 25.7617ZM222.117 30.9337L218.569 29.9829L219.345 27.0851L222.894 28.036L222.117 30.9337ZM223.649 35.9194L220.356 37.8007L218.868 35.1958L222.161 33.3145L223.649 35.9194ZM257.133 31.9339C260.004 32.7034 261.708 35.6551 260.939 38.5268L258.041 37.7503C258.382 36.479 257.627 35.1723 256.356 34.8317L257.133 31.9339ZM232.978 42.5667C232.379 44.8042 230.079 46.132 227.841 45.5324L228.618 42.6347C229.255 42.8054 229.91 42.4273 230.08 41.7902L232.978 42.5667ZM235.846 20.2712C236.017 19.6342 235.639 18.9793 235.002 18.8086L235.778 15.9108C238.016 16.5104 239.344 18.8102 238.744 21.0477L235.846 20.2712ZM260.939 38.5268C260.169 41.3984 257.218 43.1026 254.346 42.3331L255.123 39.4353C256.394 39.776 257.7 39.0216 258.041 37.7503L260.939 38.5268ZM254.027 28.3381C256.252 28.9341 257.572 31.2205 256.976 33.4448L254.078 32.6683C254.245 32.0444 253.875 31.4031 253.251 31.2359L254.027 28.3381ZM230.642 18.8766C231.241 16.6391 233.541 15.3113 235.778 15.9108L235.002 18.8086C234.365 18.6379 233.71 19.016 233.539 19.6531L230.642 18.8766ZM244.776 52.8338C242.604 52.2518 241.315 50.0191 241.897 47.8469L244.794 48.6234C244.641 49.1951 244.98 49.7828 245.552 49.936L244.776 52.8338ZM250.933 40.8252C251.427 40.9577 251.935 40.6642 252.068 40.1698L254.966 40.9462C254.404 43.0411 252.251 44.2843 250.156 43.723L250.933 40.8252ZM227.841 45.5324C225.604 44.9329 224.276 42.6331 224.876 40.3956L227.773 41.1721C227.603 41.8091 227.981 42.464 228.618 42.6347L227.841 45.5324ZM249.763 49.9546C249.181 52.1268 246.948 53.4158 244.776 52.8338L245.552 49.936C246.124 50.0892 246.712 49.7499 246.865 49.1782L249.763 49.9546Z" fill="#CFD6E6"/>
<path d="M197.483 96.2656C197.487 97.0941 196.818 97.7687 195.99 97.7725C195.161 97.7763 194.487 97.1078 194.483 96.2794L197.483 96.2656ZM194.46 91.2885C194.456 90.4601 195.125 89.7854 195.953 89.7816C196.781 89.7778 197.456 90.4463 197.46 91.2747L194.46 91.2885ZM190.706 98.3588C191.292 98.9446 191.292 99.8943 190.706 100.48C190.12 101.066 189.17 101.066 188.585 100.48L190.706 98.3588ZM185.166 97.0615C184.58 96.4758 184.58 95.526 185.166 94.9402C185.752 94.3544 186.702 94.3544 187.287 94.9402L185.166 97.0615ZM186.731 104.031C187.56 104.035 188.228 104.71 188.224 105.538C188.22 106.366 187.546 107.035 186.717 107.031L186.731 104.031ZM181.726 107.008C180.898 107.004 180.229 106.33 180.233 105.501C180.237 104.673 180.912 104.004 181.74 104.008L181.726 107.008ZM213.996 133.254L206.904 140.346L204.783 138.225L211.875 131.133L213.996 133.254ZM199.997 133.439L207.089 126.347L209.21 128.468L202.118 135.56L199.997 133.439ZM218.671 111.872L225.987 119.188L223.866 121.309L216.55 113.993L218.671 111.872ZM212.123 133.503L204.582 125.962L206.703 123.84L214.245 131.382L212.123 133.503ZM204.582 123.84L216.55 111.872L218.671 113.993L206.703 125.962L204.582 123.84ZM204.73 126.091C202.254 124.193 197.235 121.18 191.428 121.568L191.228 118.574C198.121 118.114 203.871 121.653 206.555 123.71L204.73 126.091ZM216.42 113.845C214.409 111.222 210.595 105.679 211.059 98.744L214.052 98.9441C213.666 104.709 216.856 109.483 218.801 112.02L216.42 113.845ZM213.367 100.153L192.638 120.883L190.516 118.762L211.246 98.0322L213.367 100.153ZM185.502 113.748L206.232 93.0183L208.353 95.1396L187.624 115.869L185.502 113.748ZM225.987 124.156L227.16 125.328L225.039 127.45L223.866 126.277L225.987 124.156ZM225.987 126.277L218.761 133.503L216.64 131.382L223.866 124.156L225.987 126.277ZM217.813 134.676L216.64 133.503L218.761 131.382L219.934 132.555L217.813 134.676ZM194.483 96.2794L194.46 91.2885L197.46 91.2747L197.483 96.2656L194.483 96.2794ZM188.585 100.48L185.166 97.0615L187.287 94.9402L190.706 98.3588L188.585 100.48ZM186.717 107.031L181.726 107.008L181.74 104.008L186.731 104.031L186.717 107.031ZM227.16 125.328C229.741 127.91 229.741 132.095 227.16 134.676L225.039 132.555C226.448 131.145 226.448 128.859 225.039 127.45L227.16 125.328ZM192.638 120.883C190.667 122.853 187.473 122.853 185.502 120.883L187.624 118.762C188.422 119.56 189.717 119.56 190.516 118.762L192.638 120.883ZM211.246 98.0322C212.045 97.2334 212.045 95.9384 211.246 95.1396L213.367 93.0183C215.337 94.9886 215.337 98.1831 213.367 100.153L211.246 98.0322ZM227.16 134.676C224.579 137.257 220.394 137.257 217.813 134.676L219.934 132.555C221.344 133.964 223.629 133.964 225.039 132.555L227.16 134.676ZM225.987 119.188C227.945 121.145 227.945 124.319 225.987 126.277L223.866 124.156C224.652 123.37 224.652 122.095 223.866 121.309L225.987 119.188ZM206.232 93.0183C208.202 91.0479 211.397 91.0479 213.367 93.0183L211.246 95.1396C210.447 94.3408 209.152 94.3408 208.353 95.1396L206.232 93.0183ZM199.997 140.346C198.09 138.438 198.09 135.346 199.997 133.439L202.118 135.56C201.383 136.296 201.383 137.489 202.118 138.225L199.997 140.346ZM214.245 131.382C214.906 132.043 215.978 132.043 216.64 131.382L218.761 133.503C216.928 135.336 213.956 135.336 212.123 133.503L214.245 131.382ZM185.502 120.883C183.532 118.913 183.532 115.718 185.502 113.748L187.624 115.869C186.825 116.668 186.825 117.963 187.624 118.762L185.502 120.883ZM206.904 140.346C204.997 142.253 201.905 142.253 199.997 140.346L202.118 138.225C202.854 138.96 204.047 138.96 204.783 138.225L206.904 140.346Z" fill="#CFD6E6"/>
<path d="M104.019 109.696C104.015 110.524 104.683 111.199 105.512 111.202C106.34 111.206 107.015 110.538 107.018 109.709L104.019 109.696ZM107.04 105.035C107.044 104.207 106.375 103.532 105.547 103.528C104.718 103.525 104.044 104.193 104.04 105.022L107.04 105.035ZM110.393 111.589C109.807 112.175 109.807 113.124 110.393 113.71C110.979 114.296 111.928 114.296 112.514 113.71L110.393 111.589ZM115.716 110.509C116.301 109.923 116.301 108.973 115.716 108.387C115.13 107.802 114.18 107.802 113.594 108.387L115.716 110.509ZM114.182 116.873C113.354 116.877 112.685 117.551 112.689 118.38C112.693 119.208 113.367 119.877 114.196 119.873L114.182 116.873ZM118.87 119.851C119.698 119.848 120.367 119.173 120.363 118.345C120.359 117.516 119.684 116.848 118.856 116.851L118.87 119.851ZM88.5823 144.403L95.2233 151.044L97.3446 148.922L90.7036 142.281L88.5823 144.403ZM101.827 144.44L95.1856 137.799L93.0642 139.921L99.7052 146.562L101.827 144.44ZM84.2037 124.243L77.3526 131.095L79.4739 133.216L86.325 126.365L84.2037 124.243ZM90.4706 144.636L97.5333 137.573L95.4119 135.452L88.3493 142.514L90.4706 144.636ZM97.5333 135.452L86.325 124.243L84.2037 126.365L95.4119 137.573L97.5333 135.452ZM97.3852 137.703C99.6972 135.93 104.374 133.125 109.777 133.486L109.978 130.493C103.488 130.059 98.0805 133.39 95.56 135.322L97.3852 137.703ZM86.4548 126.217C88.3402 123.757 91.9321 118.542 91.4955 112.011L88.5021 112.211C88.8606 117.572 85.8932 122.018 84.0739 124.391L86.4548 126.217ZM89.1711 113.404L108.584 132.817L110.705 130.696L91.2924 111.283L89.1711 113.404ZM115.401 126L95.9878 106.587L93.8665 108.709L113.279 128.122L115.401 126ZM77.3526 135.747L76.2542 136.845L78.3755 138.967L79.4739 137.868L77.3526 135.747ZM77.3526 137.868L84.1198 144.636L86.2411 142.514L79.4739 135.747L77.3526 137.868ZM85.1428 145.734L86.2411 144.636L84.1198 142.514L83.0214 143.613L85.1428 145.734ZM107.018 109.709L107.04 105.035L104.04 105.022L104.019 109.696L107.018 109.709ZM112.514 113.71L115.716 110.509L113.594 108.387L110.393 111.589L112.514 113.71ZM114.196 119.873L118.87 119.851L118.856 116.851L114.182 116.873L114.196 119.873ZM76.2542 136.845C73.7997 139.3 73.7997 143.279 76.2542 145.734L78.3755 143.613C77.0926 142.33 77.0926 140.25 78.3755 138.967L76.2542 136.845ZM108.584 132.817C110.466 134.699 113.518 134.699 115.401 132.817L113.279 130.696C112.569 131.407 111.416 131.407 110.705 130.696L108.584 132.817ZM91.2924 111.283C90.5816 110.572 90.5816 109.42 91.2924 108.709L89.1711 106.587C87.2887 108.47 87.2887 111.522 89.1711 113.404L91.2924 111.283ZM76.2542 145.734C78.7087 148.188 82.6883 148.188 85.1428 145.734L83.0214 143.613C81.7385 144.896 79.6585 144.896 78.3755 143.613L76.2542 145.734ZM77.3526 131.095C75.482 132.965 75.482 135.998 77.3526 137.868L79.4739 135.747C78.7749 135.048 78.7749 133.915 79.4739 133.216L77.3526 131.095ZM95.9878 106.587C94.1054 104.705 91.0535 104.705 89.1711 106.587L91.2924 108.709C92.0032 107.998 93.1557 107.998 93.8665 108.709L95.9878 106.587ZM101.827 151.044C103.65 149.22 103.65 146.264 101.827 144.44L99.7052 146.562C100.357 147.214 100.357 148.27 99.7052 148.922L101.827 151.044ZM88.3493 142.514C87.7672 143.096 86.8233 143.096 86.2411 142.514L84.1198 144.636C85.8735 146.389 88.7169 146.389 90.4706 144.636L88.3493 142.514ZM115.401 132.817C117.283 130.935 117.283 127.883 115.401 126L113.279 128.122C113.99 128.832 113.99 129.985 113.279 130.696L115.401 132.817ZM95.2233 151.044C97.0467 152.867 100.003 152.867 101.827 151.044L99.7052 148.922C99.0534 149.574 97.9965 149.574 97.3446 148.922L95.2233 151.044Z" fill="#CFD6E6"/>
</g>
<path d="M35.328 37H33.056V26.328H38.048C39.168 26.328 40.0427 26.6587 40.672 27.32C41.312 27.9707 41.632 28.7867 41.632 29.768C41.632 30.7387 41.312 31.5547 40.672 32.216C40.032 32.8773 39.1573 33.208 38.048 33.208H35.328V37ZM37.744 31.208C38.2027 31.208 38.576 31.08 38.864 30.824C39.1627 30.5573 39.312 30.2053 39.312 29.768C39.312 29.3307 39.1627 28.984 38.864 28.728C38.576 28.4613 38.2027 28.328 37.744 28.328H35.328V31.208H37.744ZM51.6804 37H49.0724L46.9764 33.208H45.3124V37H43.0404V26.328H48.0324C49.131 26.328 50.0004 26.648 50.6404 27.288C51.291 27.928 51.6164 28.7547 51.6164 29.768C51.6164 30.6427 51.387 31.352 50.9284 31.896C50.4804 32.44 49.931 32.7867 49.2804 32.936L51.6804 37ZM47.6964 31.208C48.1657 31.208 48.5497 31.08 48.8484 30.824C49.147 30.5573 49.2964 30.2053 49.2964 29.768C49.2964 29.3307 49.147 28.984 48.8484 28.728C48.5497 28.4613 48.1657 28.328 47.6964 28.328H45.3124V31.208H47.6964ZM42.192 61H39.392L36.16 56.728L35.328 57.72V61H33.056V50.328H35.328V55.096L39.104 50.328H41.904L37.664 55.336L42.192 61ZM53.1799 61H50.5879L49.9319 59.192H45.3559L44.6839 61H42.0919L46.2199 50.328H49.0679L53.1799 61ZM49.3079 57.192L47.6439 52.6L45.9799 57.192H49.3079ZM65.7334 61H63.4454V53.528L60.4374 61H59.4454L56.4374 53.528V61H54.1654V50.328H57.3494L59.9414 56.776L62.5334 50.328H65.7334V61ZM77.4529 61H75.1649V52.328H70.1249V61H67.8529V50.328H77.4529V61ZM89.508 61H86.916L86.26 59.192H81.684L81.012 61H78.42L82.548 50.328H85.396L89.508 61ZM85.636 57.192L83.972 52.6L82.308 57.192H85.636ZM100.094 61H97.8055V56.52H92.7655V61H90.4935V50.328H92.7655V54.52H97.8055V50.328H100.094V61ZM104.389 61H102.197V50.328H104.469V57.224L109.413 50.328H111.749V61H109.477V53.848L104.389 61ZM115.997 61H113.389L115.789 56.936C115.138 56.7867 114.584 56.44 114.125 55.896C113.677 55.352 113.453 54.6427 113.453 53.768C113.453 52.7547 113.773 51.928 114.413 51.288C115.064 50.648 115.938 50.328 117.037 50.328H122.029V61H119.757V57.208H118.109L115.997 61ZM117.373 55.208H119.757V52.328H117.373C116.904 52.328 116.52 52.4613 116.221 52.728C115.922 52.984 115.773 53.3307 115.773 53.768C115.773 54.2053 115.922 54.5573 116.221 54.824C116.52 55.08 116.904 55.208 117.373 55.208Z" fill="#9EA5B7"/>
</svg>
