<svg width="56" height="56" viewBox="0 0 56 56" fill="none" xmlns="http://www.w3.org/2000/svg">
<path d="M40.3178 31.8301C40.2178 31.7821 36.4754 29.9392 35.8104 29.6999C35.5389 29.6024 35.2481 29.5072 34.9388 29.5072C34.4334 29.5072 34.0089 29.7591 33.6783 30.2537C33.3044 30.8094 32.1728 32.1322 31.8231 32.5274C31.7774 32.5796 31.7151 32.6419 31.6778 32.6419C31.6443 32.6419 31.0651 32.4034 30.8898 32.3272C26.8753 30.5834 23.8281 26.3899 23.4103 25.6827C23.3506 25.5811 23.3481 25.5349 23.3476 25.5349C23.3623 25.4811 23.4973 25.3457 23.5669 25.2759C23.7708 25.0742 23.9916 24.8084 24.2053 24.5512C24.3064 24.4294 24.4078 24.3074 24.5073 24.1924C24.8173 23.8317 24.9553 23.5517 25.1153 23.2274L25.1991 23.0589C25.5898 22.2827 25.2561 21.6277 25.1483 21.4162C25.0598 21.2392 23.4796 17.4256 23.3116 17.0249C22.9076 16.0581 22.3738 15.6079 21.6319 15.6079C21.5631 15.6079 21.6319 15.6079 21.3433 15.6201C20.9918 15.6349 19.0776 15.8869 18.2313 16.4204C17.3338 16.9862 15.8154 18.7899 15.8154 21.9619C15.8154 24.8167 17.6271 27.5122 18.4049 28.5374C18.4243 28.5632 18.4598 28.6157 18.5113 28.6911C21.4901 33.0414 25.2036 36.2654 28.9681 37.7692C32.5923 39.2169 34.3084 39.3842 35.2841 39.3842C35.2843 39.3842 35.2843 39.3842 35.2843 39.3842C35.6943 39.3842 36.0224 39.3521 36.3119 39.3236L36.4956 39.3061C37.7476 39.1951 40.4989 37.7694 41.1248 36.0302C41.6178 34.6604 41.7478 33.1637 41.4198 32.6206C41.1951 32.2512 40.8079 32.0654 40.3178 31.8301Z" fill="#E81E1E"/>
<path d="M28.4553 2.33337C14.5526 2.33337 3.24197 13.559 3.24197 27.3572C3.24197 31.82 4.4363 36.1885 6.6988 40.0119L2.3683 52.786C2.28764 53.0242 2.34764 53.2875 2.5238 53.4669C2.65097 53.5967 2.82347 53.6667 2.99964 53.6667C3.06714 53.6667 3.13514 53.6565 3.20147 53.6354L16.5215 49.4027C20.1665 51.3502 24.2861 52.3782 28.4555 52.3782C42.3568 52.3784 53.6663 41.1539 53.6663 27.3572C53.6663 13.559 42.3568 2.33337 28.4553 2.33337ZM28.4553 47.1657C24.5321 47.1657 20.7323 46.0329 17.466 43.8895C17.3561 43.8174 17.2286 43.7804 17.1003 43.7804C17.0325 43.7804 16.9645 43.7907 16.8983 43.8117L10.2258 45.9327L12.3798 39.5779C12.4495 39.3722 12.4146 39.1454 12.2863 38.97C9.79897 35.5714 8.48414 31.5559 8.48414 27.3572C8.48414 16.4334 17.4431 7.54604 28.4551 7.54604C39.4658 7.54604 48.4238 16.4334 48.4238 27.3572C48.424 38.2797 39.4661 47.1657 28.4553 47.1657Z" fill="#E81E1E"/>
</svg>
